<?xml version="1.0" encoding="utf-8"?>
<!-- Generator: Adobe Illustrator 23.0.3, SVG Export Plug-In . SVG Version: 6.00 Build 0)  -->
<svg version="1.1" id="Calque_1" xmlns="http://www.w3.org/2000/svg" xmlns:xlink="http://www.w3.org/1999/xlink" x="0px" y="0px"
	 viewBox="0 0 823.6 493" style="enable-background:new 0 0 823.6 493;" xml:space="preserve">
<style type="text/css">
	.st0{opacity:0.1;}
	.st1{fill:#5A5A5A;}
	.st2{fill:#019547;}
	.st3{fill:#EDA462;}
	.st4{fill:#DD9B5E;}
	.st5{fill:#E59351;}
	.st6{fill:#F6C482;}
	.st7{fill:#CB794D;}
	.st8{fill:#B76441;}
	.st9{fill:#DF9F61;}
	.st10{opacity:0.2;fill:#5A5A5A;enable-background:new    ;}
	.st11{fill:#BE202E;}
	.st12{fill:#FBA919;}
	.st13{fill:#FFFFFF;}
	.st14{fill:#212121;}
</style>
<g id="Group_36271" transform="translate(-548 -175.333)">
	<g id="Group_36270" transform="translate(10.23 -51)" class="st0">
		<g id="Group_1930">
			<path id="Path_2113" class="st1" d="M637.8,385.7c-0.7,0-1.2-0.5-1.2-1.2v-3.8c-3.8-1.4-6.4-5-6.5-9.1c0.1-5.4,4.5-9.7,9.9-9.7
				h5.1c5.4,0,9.8,4.4,9.8,9.8s-4.4,9.8-9.8,9.8h-2l-4.4,3.9C638.4,385.6,638.1,385.7,637.8,385.7z M639.9,364.3
				c-4,0-7.4,3.2-7.4,7.2c0.1,3.3,2.4,6.2,5.6,7c0.5,0.1,0.9,0.6,0.9,1.2v2l2.8-2.4c0.2-0.2,0.5-0.3,0.8-0.3h2.5
				c4.1,0,7.4-3.3,7.4-7.4s-3.3-7.4-7.4-7.4L639.9,364.3z"/>
			<path id="Path_2114" class="st1" d="M642.4,376.3c-0.7,0-1.2-0.5-1.2-1.2v-3.3c0-0.7,0.6-1.2,1.3-1.2c0.6,0,1.2,0.5,1.2,1.2v3.3
				C643.7,375.7,643.1,376.3,642.4,376.3z"/>
			<path id="Path_2115" class="st1" d="M642.4,370c-0.9,0-1.7-0.8-1.7-1.7c0-0.9,0.8-1.7,1.7-1.7s1.7,0.8,1.7,1.7
				C644.1,369.3,643.4,370,642.4,370z M642.4,367.6c-0.4,0-0.8,0.3-0.8,0.8c0,0.4,0.3,0.8,0.8,0.8s0.8-0.3,0.8-0.8l0,0
				C643.2,367.9,642.9,367.6,642.4,367.6z"/>
			<path id="Path_2116" class="st1" d="M1355.3,411.5c-0.1-0.5-0.5-0.9-1-0.9l-1.7-0.2c-0.1-0.2-0.2-0.3-0.3-0.5l0.4-1.7
				c0.1-0.5-0.1-1-0.5-1.3l-2.1-1.3c-0.4-0.3-1-0.2-1.4,0.1l-1.4,1.1c-0.2,0-0.4-0.1-0.6-0.1l-0.9-1.5c-0.3-0.4-0.8-0.7-1.3-0.5
				l-2.4,0.5c-0.5,0.1-0.9,0.5-0.9,1l-0.2,1.7c-0.2,0.1-0.3,0.2-0.5,0.4l-1.7-0.4c-0.5-0.1-1,0.1-1.3,0.5l-1.3,2.1
				c-0.3,0.4-0.2,1,0.1,1.4l1.1,1.4c0,0.2-0.1,0.4-0.1,0.6l-1.5,0.9c-0.4,0.3-0.7,0.8-0.5,1.3l0.5,2.4c0.1,0.5,0.5,0.9,1,0.9
				l1.7,0.2c0.1,0.2,0.2,0.3,0.3,0.5l-0.4,1.7c-0.1,0.5,0.1,1,0.5,1.3l2.1,1.3c0.4,0.3,1,0.2,1.4-0.1l1.4-1.1c0.2,0,0.4,0.1,0.6,0.1
				l0.9,1.5c0.3,0.4,0.8,0.7,1.3,0.5l2.4-0.5c0.5-0.1,0.9-0.5,0.9-1l0.2-1.7c0.2-0.1,0.3-0.2,0.5-0.4l1.7,0.4c0.5,0.1,1-0.1,1.3-0.5
				l1.3-2.1c0.3-0.4,0.2-1-0.1-1.4l-1.1-1.4c0-0.2,0.1-0.4,0.1-0.6l1.5-0.9c0.4-0.3,0.7-0.8,0.5-1.3L1355.3,411.5z M1352,414.4
				c-0.3,0.2-0.5,0.6-0.6,1c0,0.4-0.1,0.9-0.2,1.3s0,0.8,0.2,1.1l0.9,1.2l-0.4,0.6l-1.4-0.3c-0.4-0.1-0.8,0-1.1,0.3
				c-0.3,0.3-0.7,0.6-1.1,0.8c-0.3,0.2-0.6,0.5-0.6,0.9l-0.2,1.5l-0.7,0.2l-0.8-1.2c-0.2-0.3-0.6-0.5-1-0.6c-0.4,0-0.9-0.1-1.3-0.2
				s-0.8,0-1.1,0.2l-1.2,0.9l-0.6-0.4l0.3-1.4c0.1-0.4,0-0.8-0.3-1.1c-0.3-0.3-0.6-0.7-0.8-1.1c-0.2-0.3-0.5-0.6-0.9-0.6l-1.5-0.2
				l-0.2-0.7l1.2-0.8c0.3-0.2,0.5-0.6,0.6-1c0-0.5,0.1-0.9,0.2-1.3s0-0.8-0.2-1.1l-0.9-1.2l0.4-0.6l1.4,0.3c0.4,0.1,0.8,0,1.1-0.3
				c0.3-0.3,0.7-0.6,1.1-0.8c0.3-0.2,0.6-0.5,0.6-0.9l0.2-1.5l0.7-0.2l0.8,1.2c0.2,0.3,0.6,0.5,1,0.6c0.4,0,0.9,0.1,1.3,0.2
				s0.8,0,1.1-0.2l1.2-0.9l0.6,0.4l-0.3,1.4c-0.1,0.4,0,0.8,0.3,1.1c0.3,0.3,0.6,0.7,0.8,1.1c0.2,0.3,0.5,0.6,0.9,0.6l1.5,0.2
				l0.2,0.7L1352,414.4z"/>
			<path id="Path_2117" class="st1" d="M1347.4,411.8c-1.8-1.1-4.2-0.6-5.3,1.2s-0.6,4.2,1.2,5.3c0.6,0.4,1.3,0.6,2,0.6
				c0.3,0,0.6,0,0.9-0.1c2.1-0.5,3.4-2.5,2.9-4.6C1348.9,413.2,1348.3,412.3,1347.4,411.8L1347.4,411.8z M1346.6,415.8
				c-0.2,0.3-0.5,0.5-0.9,0.6l0,0c-0.8,0.2-1.5-0.3-1.7-1.1c-0.2-0.8,0.3-1.5,1.1-1.7c0.8-0.2,1.5,0.3,1.7,1.1
				C1346.8,415.1,1346.8,415.4,1346.6,415.8z"/>
			<path id="Path_2118" class="st1" d="M1361.4,405.1l-0.4-1.9c-0.1-0.5-0.5-0.9-1-1l-1.2-0.2c0-0.1-0.1-0.1-0.1-0.2l0.3-1.2
				c0.1-0.5-0.1-1-0.5-1.3l-1.6-1.1c-0.4-0.3-1-0.3-1.4,0l-1,0.7c-0.1,0-0.2,0-0.3-0.1l-0.6-1.1c-0.3-0.4-0.8-0.7-1.3-0.6l-1.9,0.4
				c-0.5,0.1-0.9,0.5-1,1l-0.2,1.2c-0.1,0-0.1,0.1-0.2,0.1l-1.2-0.3c-0.5-0.1-1,0.1-1.3,0.5l-1.1,1.6c-0.3,0.4-0.3,1,0,1.4l1.1,1.5
				c0.4,0.5,1.2,0.7,1.7,0.3c0.5-0.4,0.7-1.2,0.3-1.7l0,0l-0.6-0.8l0.1-0.2l1,0.2c0.4,0.1,0.8,0,1.1-0.2c0.3-0.2,0.5-0.4,0.8-0.6
				c0.4-0.2,0.6-0.5,0.7-0.9l0.2-1h0.2l0.5,0.9c0.2,0.3,0.5,0.6,0.9,0.6c0.3,0,0.7,0.1,1,0.2c0.4,0.1,0.8,0.1,1.1-0.2l0.8-0.6
				l0.2,0.1l-0.2,1c-0.1,0.4,0,0.8,0.2,1.1c0.2,0.3,0.4,0.5,0.6,0.8s0.5,0.6,0.9,0.7l1,0.1v0.2l-0.8,0.5c-0.3,0.2-0.6,0.5-0.6,0.9
				c0,0.3-0.1,0.7-0.2,1c-0.1,0.4-0.1,0.8,0.2,1.1l0.5,0.6l-1.3-0.4c-0.7-0.2-1.3,0.2-1.5,0.9c-0.2,0.6,0.2,1.3,0.8,1.5l2.2,0.6
				c0.1,0,0.2,0,0.3,0c0.4,0,0.7-0.2,0.9-0.4l1.1-1.3c0.4-0.4,0.4-1.1,0-1.5l-0.7-1c0-0.1,0-0.2,0.1-0.3l1.1-0.6
				C1361.2,406.2,1361.4,405.7,1361.4,405.1z"/>
			<path id="Path_2119" class="st1" d="M1071.6,410.8c-4.4,2.3-9.8,0.5-12.1-3.9c-2.3-4.4-0.5-9.8,3.9-12.1c2.1-1.1,4.5-1.3,6.7-0.6
				l0,0c4.7,1.5,7.4,6.5,6,11.2C1075.4,407.7,1073.8,409.7,1071.6,410.8z M1064.7,397.1c-3.1,1.6-4.3,5.4-2.8,8.5
				c1.6,3.1,5.4,4.3,8.5,2.8s4.3-5.4,2.8-8.5c-0.8-1.5-2.1-2.7-3.8-3.2l0,0C1067.9,396.2,1066.2,396.4,1064.7,397.1z"/>
			<path id="Path_2120" class="st1" d="M1064.9,402.9c-0.7,0.3-1.5,0.1-1.8-0.6c-0.2-0.3-0.2-0.7-0.1-1c0.8-2.5,3.5-3.9,6-3.2l0,0
				c0.7,0.2,1.1,1,0.8,1.7c-0.2,0.7-0.9,1.1-1.6,0.9c-0.5-0.2-1.1-0.1-1.6,0.2c-0.5,0.3-0.9,0.7-1,1.2
				C1065.4,402.5,1065.2,402.8,1064.9,402.9z"/>
			<path id="Path_2121" class="st1" d="M1076.8,420.4L1076.8,420.4c-1,0.5-2.2,0.4-3.1-0.1c-1-0.5-1.7-1.4-2.2-2.4v-0.1l-2.8-7.2
				c-0.3-0.7,0.1-1.5,0.8-1.7c0.7-0.3,1.4,0.1,1.7,0.8l2.8,7.1c0.2,0.5,0.6,0.9,1,1.1c0.2,0.1,0.4,0.2,0.7,0.1l0,0
				c0.2-0.1,0.3-0.4,0.3-0.6c0.1-0.5,0-1-0.3-1.5l-4.1-6.4c-0.4-0.6-0.2-1.5,0.5-1.8c0.6-0.4,1.4-0.2,1.8,0.4l4.2,6.5l0.1,0.1
				c0.5,1,0.7,2.1,0.5,3.2C1078.4,418.9,1077.8,419.9,1076.8,420.4z"/>
			<path id="Path_2122" class="st1" d="M1072.7,415.3c-0.7,0.3-1.5,0.1-1.8-0.6s-0.1-1.5,0.6-1.8l2.4-1.3c0.6-0.3,1.4-0.1,1.8,0.5
				l0,0c0.3,0.7,0.1,1.5-0.6,1.8l0,0L1072.7,415.3L1072.7,415.3z"/>
			<path id="Path_2145" class="st1" d="M1138.6,239.5l-6-4.3c-0.7-0.5-1.7-0.3-2.2,0.4c-0.2,0.3-0.3,0.6-0.3,0.9v7.7
				c0,0.9,0.7,1.6,1.6,1.6c0.3,0,0.5-0.1,0.8-0.2l6-3.4c0.7-0.4,1-1.4,0.6-2.1C1138.9,239.8,1138.8,239.7,1138.6,239.5L1138.6,239.5
				z M1133.3,241.5v-2l1.5,1.1L1133.3,241.5z"/>
			<path id="Path_2146" class="st1" d="M1150.6,234.2c-0.4-0.3-1-0.3-1.5-0.1l-4,1.7c-0.6-2.8-2.8-4.8-5.4-4.8h-12.4
				c-3.2,0-5.8,3-5.8,6.6v6c-0.1,3.4,2.5,6.2,5.8,6.4h12.4c2.8-0.1,5.1-2.2,5.5-5l4,1.7c0.8,0.3,1.7,0,2-0.8
				c0.1-0.2,0.1-0.4,0.1-0.6v-9.6C1151.3,235,1151,234.5,1150.6,234.2z M1142.2,243.5c0,1.6-0.9,3.2-2.5,3.2h-12.4
				c-1.6-0.2-2.9-1.6-2.7-3.2v-6c0-1.8,1.3-3.4,2.7-3.4h12.4c1.5,0,2.5,1.8,2.5,3.4v0.6c0,0,0,0,0,0.1s0,0.1,0,0.1v3.8
				c0,0.1,0,0.2,0,0.3s0,0.2,0,0.2V243.5z M1148.2,242.8l-2.9-1.2v-2.4l2.9-1.2V242.8z"/>
			<path id="Path_2147" class="st1" d="M851.9,418.5l-10.1-1.4l1.4-9.8l10.1,1.4L851.9,418.5z M844.6,415l5.2,0.7l0.7-5l-5.2-0.7
				L844.6,415z"/>
			<path id="Path_2148" class="st1" d="M1137.5,455.1l-2-1.4l5-7.1l7.4,5l-1.4,2l-5.4-3.7L1137.5,455.1z"/>
			<path id="Path_2149" class="st1" d="M543.2,604.3c-3,0-5.4-2.4-5.4-5.4s2.4-5.4,5.4-5.4s5.4,2.4,5.4,5.4c0,0.4,0,0.8-0.1,1.2l0,0
				C547.9,602.5,545.7,604.2,543.2,604.3z M543.2,595.8c-1.7,0-3,1.3-3,3s1.3,3,3,3s3-1.3,3-3c0-1.4-1-2.6-2.3-2.9
				C543.7,595.8,543.4,595.8,543.2,595.8L543.2,595.8z"/>
			<path id="Path_2150" class="st1" d="M904.9,260.1l-10.1-1.4l1.4-9.8l10.1,1.4L904.9,260.1z M897.6,256.6l5.2,0.7l0.7-5l-5.2-0.8
				L897.6,256.6z"/>
			
				<rect id="Rectangle_366" x="582.1" y="289" transform="matrix(0.9871 -0.16 0.16 0.9871 -38.9107 97.1626)" class="st1" width="3.6" height="2.4"/>
			
				<rect id="Rectangle_367" x="585.6" y="284" transform="matrix(0.9872 -0.1598 0.1598 0.9872 -38.1279 97.4435)" class="st1" width="2.4" height="3.6"/>
			
				<rect id="Rectangle_368" x="589.6" y="287.8" transform="matrix(0.9872 -0.1596 0.1596 0.9872 -38.5474 98.0759)" class="st1" width="3.4" height="2.4"/>
			
				<rect id="Rectangle_369" x="586.8" y="291.5" transform="matrix(0.9871 -0.1598 0.1598 0.9871 -39.3341 97.7315)" class="st1" width="2.4" height="3.8"/>
			<path id="Path_2151" class="st1" d="M670.1,452.9l-2-1.4l5-7.1l7.4,5l-1.4,2l-5.4-3.7L670.1,452.9z"/>
			
				<rect id="Rectangle_370" x="1298.1" y="342.7" transform="matrix(0.9871 -0.1599 0.1599 0.9871 -38.2629 212.2781)" class="st1" width="3.6" height="2.4"/>
			
				<rect id="Rectangle_371" x="1301.7" y="337.8" transform="matrix(0.9872 -0.1598 0.1598 0.9872 -37.522 212.5527)" class="st1" width="2.4" height="3.6"/>
			
				<rect id="Rectangle_372" x="1305.6" y="341.5" transform="matrix(0.9871 -0.1599 0.1599 0.9871 -37.9764 213.4461)" class="st1" width="3.4" height="2.4"/>
			
				<rect id="Rectangle_373" x="1302.9" y="345.3" transform="matrix(0.9872 -0.1598 0.1598 0.9872 -38.7181 212.8421)" class="st1" width="2.4" height="3.8"/>
		</g>
	</g>
</g>
<polygon class="st2" points="227.1,334.9 211.2,477.5 451.1,365.9 "/>
<polygon class="st2" points="541,317.3 525.2,459.9 765,348.3 "/>
<polygon class="st2" points="300.3,253.6 293,319.5 403.8,267.9 "/>
<g id="Group_36268" transform="translate(71.641 -205.483)">
	<g id="Group_36259" transform="translate(722.359 595.478)">
		
			<image style="overflow:visible;enable-background:new    ;" width="2885" height="1493" id="Rectangle_3550" xlink:href="C225FD31.png"  transform="matrix(7.869661e-02 0 0 7.869661e-02 -547.7444 -13.972)">
		</image>
		<path id="Path_23603" class="st3" d="M-439.8,1.6l89.4-44v-96.4l-96.4,35.3V-2.8c0,2.7,2.2,4.8,4.8,4.8
			C-441.2,2.1-440.4,1.9-439.8,1.6z"/>
		<path id="Path_23604" class="st4" d="M-350.4,52.4L-444,6.3c-1.6-0.8-2.7-2.5-2.7-4.3v-105.4l96.4,35.3L-350.4,52.4L-350.4,52.4z"
			/>
		<path id="Path_23605" class="st5" d="M-260.9,1.6l-89.4-44v-96.4l96.4,35.3V-2.8c0,2.7-2.2,4.8-4.8,4.8
			C-259.5,2.1-260.3,1.9-260.9,1.6z"/>
		<path id="Path_23606" class="st6" d="M-313.8-175.3l-36.5,36.5l96.4,35.3l36.6-36.9L-313.8-175.3z"/>
		<path id="Path_23607" class="st6" d="M-483.3-140.3l36.6,36.9l96.4-35.3l-36.5-36.5L-483.3-140.3z"/>
		<path id="Path_23608" class="st6" d="M-350.4,52.4l93.7-46.1C-255,5.5-254,3.8-254,2v-105.4l-96.4,35.3V52.4z"/>
		<path id="Path_23609" class="st7" d="M-398.6,11.6l-38.2-17.2c-1.4-0.7-2.3-2-2.4-3.5v-19.7c0-1.3,1.1-1.9,2.4-1.3l38.2,17.2
			c1.4,0.7,2.3,2,2.4,3.5v19.7C-396.2,11.6-397.3,12.2-398.6,11.6z"/>
		<g id="Group_36253" transform="translate(209.889 179.312)">
			<path id="Path_23610" class="st7" d="M-527.9-168c0,5.8-4.5,12.3-10,14.4s-10-0.8-10-6.6s4.5-12.3,10-14.4
				S-527.9-173.8-527.9-168L-527.9-168z"/>
			<path id="Path_23611" class="st8" d="M-545.9-161.1c0-5.4,3.9-11.4,9-13.9c-0.3,0.1-0.7,0.2-1.1,0.4c-5.5,2.1-10,8.6-10,14.4
				s4.5,8.8,10,6.6c0.4-0.1,0.7-0.3,1.1-0.5C-541.9-152.7-545.9-155.6-545.9-161.1L-545.9-161.1z"/>
			<path id="Path_23612" class="st8" d="M-543.6-156.6l4.4-1.7c0.5-0.2,0.8-0.6,0.8-1.1c0-0.3-0.2-0.6-0.5-0.6c-0.1,0-0.2,0-0.3,0.1
				l-4.4,1.7l0,0l0,0l0,0l1.2-2.6c0.6,0.3,1.4-0.5,1.3-1.3l-0.2-1.4c0-0.6-0.6-0.7-1.1-0.3l-1.4,1.2c-0.4,0.3-0.6,0.8-0.4,1.3
				c0.1,0.2,0.3,0.3,0.5,0.3l-1.2,2.6C-545.6-157.3-544.8-156.2-543.6-156.6L-543.6-156.6z"/>
			<path id="Path_23613" class="st8" d="M-530.9-164.1l-2.1-3.1c-0.2-0.3-0.7-0.3-1.1,0.1c-0.4,0.3-0.5,0.8-0.3,1.3l2.1,3.1l0,0l0,0
				l-2.4,0.9c0.1-0.2,0-0.5-0.2-0.6c-0.3-0.3-0.8-0.1-1.1,0.3c-0.1,0.1-1.2,1.4-1.2,1.5c-0.4,0.5-0.4,1.1,0,1.3l1.2,0.5
				c0.5,0.1,0.9-0.1,1.1-0.6c0.1-0.2,0.2-0.5,0.2-0.8l2.4-0.9C-531.1-161.5-530.3-163.2-530.9-164.1L-530.9-164.1z"/>
			<path id="Path_23614" class="st8" d="M-534.6-170.9c-0.3,0.1-0.5,0.2-0.6,0.4l-1.3-1.9c-0.6-0.9-2.2-0.3-2.9,1.1l-2.3,5.1
				c-0.2,0.5-0.1,0.9,0.3,1c0.5,0,0.9-0.3,1.1-0.7l2.3-5.1l0,0l0,0l1.3,1.9c-0.2,0.2-0.4,0.4-0.5,0.7c-0.2,0.5,0,0.9,0.4,0.9h1.4
				c0.6-0.1,1-0.6,1.1-1.1l0.2-1.6C-533.9-170.7-534.2-171-534.6-170.9L-534.6-170.9z"/>
		</g>
		<g id="Group_36254" transform="translate(234.723 169.289)">
			<path id="Path_23615" class="st7" d="M-531.6-164.1l-15.4,7.5c-0.5,0.3-0.9,0.8-1,1.4c0,0.5,0.4,0.8,1,0.5l15.4-7.5
				c0.5-0.3,0.9-0.8,1-1.4C-530.6-164.1-531.1-164.3-531.6-164.1z"/>
			<path id="Path_23616" class="st7" d="M-547-164.3c0.3-0.1,0.5-0.4,0.7-0.6l1.2-1.8v6.3c0,0.5,0.4,0.8,1,0.5
				c0.5-0.3,0.9-0.8,1-1.4v-6.3l1.2,0.6c0.2,0.1,0.5,0.1,0.7,0c0.3-0.1,0.5-0.4,0.7-0.6c0.4-0.6,0.4-1.2,0-1.4l-2.9-1.5
				c-0.1,0-0.2-0.1-0.3-0.1c-0.3,0-0.5,0.2-0.7,0.4c-0.1,0.1-0.2,0.2-0.3,0.4l-2.9,4.3c-0.4,0.6-0.4,1.2,0,1.4
				C-547.5-164.2-547.2-164.2-547-164.3L-547-164.3z"/>
			<path id="Path_23617" class="st7" d="M-537.4-169c0.3-0.1,0.5-0.4,0.7-0.6l1.2-1.8v6.3c0,0.5,0.4,0.8,1,0.5
				c0.5-0.3,0.9-0.8,1-1.4v-6.3l1.2,0.6c0.2,0.1,0.5,0.1,0.7,0c0.3-0.1,0.5-0.4,0.7-0.6c0.4-0.6,0.4-1.2,0-1.4l-2.9-1.5
				c-0.1,0-0.2-0.1-0.3-0.1c-0.3,0-0.5,0.2-0.7,0.4c-0.1,0.1-0.2,0.2-0.3,0.4l-2.9,4.3c-0.4,0.6-0.4,1.2,0,1.4
				C-537.9-168.9-537.6-168.9-537.4-169L-537.4-169z"/>
		</g>
		<g id="Group_36255" transform="translate(85.15 31.529)">
			<path id="Path_23618" class="st9" d="M-548-175.3l95.4,35.1l17.1,40.6l-96.4-35.3L-548-175.3z"/>
		</g>
		<path id="Path_23619" class="st9" d="M-237.8-143.8l-0.4,1l-15.7,39.3l-95.3,35l-1,0.4l0,0l17.1-40.6L-237.8-143.8z"/>
		<g id="Group_36256" transform="translate(179.781 66.296)">
			<path id="Path_23620" class="st7" d="M-530.9-134.7l0.5-0.2l0.8-0.3l-16.9-40.1l-0.7,0.3l-0.7,0.3l16.8,39.9L-530.9-134.7z"/>
		</g>
		<g id="Group_36257" transform="translate(84.871 30.771)">
			<path id="Path_23621" class="st6" d="M-453.1-139.2l-94.9-34.6l0.6-1.5l95.8,35.5L-453.1-139.2z"/>
		</g>
		<g id="Group_36258" transform="translate(196.919 30.778)">
			<path id="Path_23622" class="st6" d="M-434.5-173.8l-0.7,0.2l-94.4,34.7l-16.7,39.6l-1,0.4l0,0l-0.7-0.3l17.3-40.9l95.7-35.2
				l0.3,0.8L-434.5-173.8z"/>
		</g>
	</g>
	<g id="Group_36265" transform="translate(732.36 380.817)">
		<path id="Path_23623" class="st10" d="M-270.5-102.7c-8-21.4-29.4-34.5-50.1-44.1c-50.3-23.2-112-20.3-160.9,4.4
			c-22.1,11.2-41.3,31-45.1,55.5c-5.3,33.8,20.7,66.5,52.4,79.3c6.4,2.6,13,4.6,19.7,6l8.8,19.6c1.5,3.2,5.3,4.7,8.5,3.2
			c1.2-0.5,2.1-1.4,2.8-2.4l10.9-17.3c16.8,0.1,33.9-1.9,50.5-4.5c27.1-4.3,54.9-10.7,76.6-27.4S-261-77-270.5-102.7z"/>
		<path id="Path_23624" class="st11" d="M-278.4-115.3c-8-21.4-29.4-34.5-50.1-44.1c-50.3-23.2-112-20.3-160.9,4.4
			c-22.1,11.2-41.3,31-45.1,55.5c-5.3,33.8,20.7,66.5,52.4,79.3c6.4,2.6,13,4.6,19.7,6l8.8,19.6c1.5,3.2,5.3,4.7,8.5,3.2
			c1.2-0.5,2.1-1.4,2.8-2.4l10.9-17.3c16.8,0.1,33.9-1.9,50.5-4.5c27.1-4.3,54.9-10.7,76.6-27.4S-268.8-89.7-278.4-115.3z"/>
		<g id="Group_36260" transform="translate(0 3.347)">
			<path id="Path_23625" class="st12" d="M-543.3-117c-2.6,0-4.7-2.1-4.7-4.7c0-0.6,0.1-1.3,0.4-1.9c10.1-22.8,28.2-41.1,50.9-51.4
				c2.4-1,5.1,0.1,6.2,2.4c1,2.3,0,5.1-2.3,6.1c-20.6,9.3-37,25.9-46.1,46.6C-539.8-118.1-541.5-117-543.3-117z"/>
		</g>
		<g id="Group_36261" transform="translate(252.756 37.459)">
			<path id="Path_23626" class="st2" d="M-543.3-54c-2.6,0-4.7-2.1-4.7-4.7c0-1.3,0.5-2.5,1.5-3.4c28.4-26.3,37.8-71.2,22.4-106.7
				c-1-2.4,0-5.1,2.4-6.2s5.1,0,6.2,2.4c0,0,0,0,0,0.1c17,39,6.6,88.3-24.6,117.2C-541-54.5-542.1-54-543.3-54z"/>
		</g>
		<g id="Group_36262" transform="translate(288.799 77.749)">
			<path id="Path_23627" class="st12" d="M-543.3-118.7c-2.6,0-4.7-2.1-4.7-4.7c0-1,0.3-2,1-2.9c9.5-12.4,13.3-28.2,10.7-43.6
				c-0.5-2.5,1.2-5,3.8-5.4c2.5-0.5,5,1.2,5.4,3.8c3.1,18-1.4,36.4-12.5,50.9C-540.5-119.4-541.9-118.7-543.3-118.7z"/>
		</g>
		<g id="Group_36263" transform="translate(70.658 72.958)">
			<path id="Path_23628" class="st13" d="M-504.5-138.6c0,3.3-2.7,5.9-6,5.9h-0.4v1.7c0,3.5-2.8,6.4-6.3,6.5c-3.5,0-6.4-2.8-6.5-6.3
				c0-0.1,0-0.1,0-0.2v-1.7h-17.8c-3.5,0-6.4-2.8-6.4-6.4c0-0.9,0.2-1.9,0.6-2.7l12.8-29.6c1.3-3.3,5-4.8,8.3-3.5
				c3.2,1.3,4.8,4.8,3.6,8l-9.5,22.4h8.5v-4.5c0-3.5,2.8-6.4,6.3-6.5c3.5,0,6.4,2.8,6.5,6.3c0,0.1,0,0.1,0,0.2v4.5h0.4
				C-507.3-144.5-504.6-141.9-504.5-138.6L-504.5-138.6z"/>
			<path id="Path_23629" class="st13" d="M-460.2-150.3c0,15.8-7.9,25.8-20.4,25.8s-20.4-10-20.4-25.8c0-15.5,7.7-25,20.4-25
				S-460.2-165.8-460.2-150.3z M-487.8-150.2c0,9.4,2.4,14,7.3,14s7.3-4.6,7.3-14c0-9.1-2.3-13.4-7.3-13.4S-487.8-159.4-487.8-150.2
				L-487.8-150.2z"/>
			<path id="Path_23630" class="st13" d="M-412.1-138.6c0,3.3-2.7,5.9-6,5.9h-0.4v1.7c0,3.5-2.8,6.4-6.3,6.5c-3.5,0-6.4-2.8-6.5-6.3
				c0-0.1,0-0.1,0-0.2v-1.7h-17.8c-3.5,0-6.4-2.8-6.4-6.4c0-0.9,0.2-1.9,0.6-2.7l12.8-29.6c1.3-3.3,5-4.8,8.3-3.5
				c3.2,1.3,4.8,4.8,3.6,8l-9.5,22.4h8.5v-4.5c0-3.5,2.8-6.4,6.3-6.5c3.5,0,6.4,2.8,6.5,6.3c0,0.1,0,0.1,0,0.2v4.5h0.4
				C-414.9-144.5-412.2-141.9-412.1-138.6L-412.1-138.6z"/>
		</g>
		<g id="Group_36264" transform="translate(97.547 26.782)">
			<path id="Path_23631" class="st13" d="M-548-147.7v-26c0-0.9,0.7-1.6,1.5-1.6c0,0,0,0,0.1,0h15.7c0.9,0,1.6,0.7,1.6,1.5
				c0,0.9-0.7,1.5-1.6,1.5l0,0h-13.8v8.9h10.3c0.9,0,1.6,0.6,1.6,1.5l0,0c0,0.9-0.7,1.6-1.6,1.5h-10.3v11h14.4
				c0.9,0,1.6,0.7,1.6,1.5l0,0c0,0.9-0.7,1.6-1.6,1.5h-16.2C-547.3-146.1-548-146.8-548-147.7L-548-147.7z"/>
			<path id="Path_23632" class="st13" d="M-511.4-166.3c0,0.9-0.7,1.6-1.6,1.6h-0.1c-3.9,0-6.7,2.7-6.7,6.4v10.9
				c0,0.9-0.8,1.7-1.7,1.7s-1.7-0.8-1.7-1.7l0,0v-19c0-0.9,0.7-1.7,1.6-1.8h0.1c1,0,1.7,0.8,1.7,1.8v1.6c1.7-2,4.1-3.1,6.7-3.1
				C-512.2-167.9-511.4-167.2-511.4-166.3L-511.4-166.3z"/>
			<path id="Path_23633" class="st13" d="M-495.4-166.3c0,0.9-0.7,1.6-1.6,1.6h-0.1c-3.9,0-6.7,2.7-6.7,6.4v10.9
				c0,0.9-0.8,1.7-1.7,1.7s-1.7-0.8-1.7-1.7v-19c0-0.9,0.7-1.7,1.6-1.8h0.1c1,0,1.7,0.8,1.7,1.8v1.6c1.7-2,4.1-3.1,6.7-3.1
				C-496.2-167.9-495.4-167.2-495.4-166.3L-495.4-166.3z"/>
			<path id="Path_23635" class="st13" d="M-434.2-166.3c0,0.9-0.7,1.6-1.6,1.6h-0.1c-3.9,0-6.7,2.7-6.7,6.4v10.9
				c0,0.9-0.8,1.7-1.7,1.7s-1.7-0.8-1.7-1.7l0,0v-19c0-0.9,0.7-1.7,1.6-1.8h0.1c1,0,1.7,0.8,1.7,1.8v1.6c1.7-2,4.1-3.1,6.7-3.1
				C-435-167.9-434.3-167.2-434.2-166.3L-434.2-166.3z"/>
			<g>
				<path class="st13" d="M-474.4-159.6c0,1.3-0.4,2.2-1.3,2.9c-0.4,0.3-1.7,0.6-3.8,1.1c-2.8,0.6-5.2,0.9-7.2,0.9
					c-0.9,0-2-0.1-3.3-0.2c0,4.7,1.8,7,5.4,7c1,0,1.9-0.3,2.7-0.8c0.4-0.3,1.1-0.9,2.1-2c0.4-0.4,0.8-0.6,1.2-0.6
					c0.5,0,1,0.2,1.4,0.6s0.6,0.9,0.6,1.4c0,0.5-0.2,0.9-0.5,1.3c-2.1,2.3-4.6,3.5-7.5,3.5c-5.9,0-8.9-3.4-8.9-10.3
					c0-3.5,0.9-6.6,2.8-9.2c2.1-2.9,4.8-4.4,8-4.4c2.5,0,4.5,0.8,6.1,2.5C-475.2-164.2-474.4-162.1-474.4-159.6z M-478.1-159.4
					c-0.1-1.7-0.5-3.1-1.4-4.1c-0.8-1-1.9-1.5-3.1-1.5c-1.6,0-3,0.6-4.3,1.7c-1.3,1.2-2.2,2.8-2.8,5c0.9,0.1,1.8,0.1,2.8,0.1
					C-484.4-158.1-481.5-158.5-478.1-159.4z"/>
				<path class="st13" d="M-451.2-145.5c0,0.6-0.2,1.1-0.5,1.5s-0.8,0.6-1.3,0.6c-1,0-1.8-1.5-2.5-4.5c-2.1,2.9-4.6,4.3-7.6,4.3
					c-5,0-7.4-4-7.4-11.9c0-4.1,0.3-7.6,0.8-10.6c0.3-1.9,1.1-2.8,2.4-2.8c0.4,0,0.8,0.2,1.2,0.5c0.3,0.3,0.5,0.7,0.5,1.2
					c0,0.4-0.2,1.9-0.5,4.6c-0.4,2.7-0.5,5.2-0.5,7.5c0,5.3,1.5,8,4.4,8c1.9,0,3.4-0.7,4.5-2.2c1.1-1.5,1.7-3.6,1.7-6.2v-1.1
					c0-4.2,0.1-6.8,0.3-8c0.3-1.7,1-2.5,2.1-2.5c1,0,1.6,0.7,1.6,2.2c0,0.3-0.1,1.2-0.2,2.8c-0.1,1.6-0.2,3.1-0.2,4.5
					c0,3.2,0.2,6.1,0.7,8.8C-451.5-146.3-451.2-145.1-451.2-145.5z"/>
			</g>
		</g>
	</g>
	<g id="Group_36266" transform="translate(843.418 590.169)">
		<path id="Path_23636" class="st10" d="M-522.3-159.7c0,6.6-4.8,11.9-10.8,11.9s-10.8-5.3-10.8-11.9s4.8-11.9,10.8-11.9
			S-522.3-166.3-522.3-159.7z"/>
		<ellipse id="Ellipse_2771" class="st14" cx="-537.2" cy="-163.4" rx="10.8" ry="11.9"/>
	</g>
	<g id="Group_36267" transform="translate(867.853 634.267)">
		<ellipse id="Ellipse_2772" class="st10" cx="-537.8" cy="-164.7" rx="7.4" ry="8.1"/>
		<ellipse id="Ellipse_2773" class="st14" cx="-540.6" cy="-167.2" rx="7.4" ry="8.1"/>
	</g>
</g>
</svg>
