<svg xmlns="http://www.w3.org/2000/svg" viewBox="0 0 921.12 352.53"><defs><style>.cls-1{fill:#be1e2d;}.cls-2{fill:#009444;}.cls-3{fill:#ffa902;}.cls-4{fill:#006d44;}</style></defs><title>Fichier 1</title><g id="Calque_2" data-name="Calque 2"><g id="Calque_1-2" data-name="Calque 1"><path class="cls-1" d="M718.06,253.64l3.36-101.43s5.31-5.09,9.33-2.66,35.81-5.68,53.76,10.44,3.43,45.1-17,51.25l21.79,32.66-15.44,11.62-28.66-40.41-3,14-.76,24.69Z"/><polygon class="cls-2" points="593.41 251.26 643.7 151.29 651.23 151.29 707.28 253.33 703.33 253.79 681.25 255.52 670.46 234.24 631.62 234.01 620.76 253.33 594.99 253.64 593.41 252.26 593.41 251.26"/><polygon class="cls-3" points="359.93 251.26 410.21 151.29 417.74 151.29 473.79 253.33 469.85 253.79 447.76 255.52 436.97 234.24 398.13 234.01 387.28 253.33 361.5 253.64 359.93 252.26 359.93 251.26"/><polygon class="cls-2" points="805.58 251.26 855.86 151.29 863.39 151.29 919.44 253.33 915.5 253.79 893.41 255.52 882.62 234.24 843.78 234.01 832.93 253.33 807.15 253.64 805.58 252.26 805.58 251.26"/><path d="M289.92,162h-1.33c-2,.87-3,2-3,3.53s1,2.12,3,2.22a5.54,5.54,0,0,0,5.41-3.61C293.62,162.74,292.25,162,289.92,162Zm1.32,18.86v-1.15q0-4.36-2-4.37c-.89.31-1.33.59-1.33.84v.31a33.67,33.67,0,0,1-.38,4.06c-3.15.21-4.73.56-4.73,1.08s1.35,1.17,4.07,1.68c.82,4.15,2.18,6.21,4.07,6.21a2.74,2.74,0,0,0,1.32-.53A13.79,13.79,0,0,1,291,184.1l.66-.77c2.21.15,3.89.23,5,.23s1.8-.27,2-.84v-.54Q298.64,181.19,291.24,180.88ZM337.47,225q-3.41,0-3.41,4.07c0,1,.67,1.71,2,2.22h1.71c2.46,0,3.7-.82,3.7-2.45v-.54C340.64,226.14,339.3,225,337.47,225Zm0,0q-3.41,0-3.41,4.07c0,1,.67,1.71,2,2.22h1.71c2.46,0,3.7-.82,3.7-2.45v-.54C340.64,226.14,339.3,225,337.47,225Zm-46.23-44.16v-1.15q0-4.36-2-4.37c-.89.31-1.33.59-1.33.84v.31a33.67,33.67,0,0,1-.38,4.06c-3.15.21-4.73.56-4.73,1.08s1.35,1.17,4.07,1.68c.82,4.15,2.18,6.21,4.07,6.21a2.74,2.74,0,0,0,1.32-.53A13.79,13.79,0,0,1,291,184.1l.66-.77c2.21.15,3.89.23,5,.23s1.8-.27,2-.84v-.54Q298.64,181.19,291.24,180.88ZM289.92,162h-1.33c-2,.87-3,2-3,3.53s1,2.12,3,2.22a5.54,5.54,0,0,0,5.41-3.61C293.62,162.74,292.25,162,289.92,162Zm0,0h-1.33c-2,.87-3,2-3,3.53s1,2.12,3,2.22a5.54,5.54,0,0,0,5.41-3.61C293.62,162.74,292.25,162,289.92,162Zm1.32,18.86v-1.15q0-4.36-2-4.37c-.89.31-1.33.59-1.33.84v.31a33.67,33.67,0,0,1-.38,4.06c-3.15.21-4.73.56-4.73,1.08s1.35,1.17,4.07,1.68c.82,4.15,2.18,6.21,4.07,6.21a2.74,2.74,0,0,0,1.32-.53A13.79,13.79,0,0,1,291,184.1l.66-.77c2.21.15,3.89.23,5,.23s1.8-.27,2-.84v-.54Q298.64,181.19,291.24,180.88ZM337.47,225q-3.41,0-3.41,4.07c0,1,.67,1.71,2,2.22h1.71c2.46,0,3.7-.82,3.7-2.45v-.54C340.64,226.14,339.3,225,337.47,225Zm0,0q-3.41,0-3.41,4.07c0,1,.67,1.71,2,2.22h1.71c2.46,0,3.7-.82,3.7-2.45v-.54C340.64,226.14,339.3,225,337.47,225Zm-46.23-44.16v-1.15q0-4.36-2-4.37c-.89.31-1.33.59-1.33.84v.31a33.67,33.67,0,0,1-.38,4.06c-3.15.21-4.73.56-4.73,1.08s1.35,1.17,4.07,1.68c.82,4.15,2.18,6.21,4.07,6.21a2.74,2.74,0,0,0,1.32-.53A13.79,13.79,0,0,1,291,184.1l.66-.77c2.21.15,3.89.23,5,.23s1.8-.27,2-.84v-.54Q298.64,181.19,291.24,180.88ZM289.92,162h-1.33c-2,.87-3,2-3,3.53s1,2.12,3,2.22a5.54,5.54,0,0,0,5.41-3.61C293.62,162.74,292.25,162,289.92,162Zm0,0h-1.33c-2,.87-3,2-3,3.53s1,2.12,3,2.22a5.54,5.54,0,0,0,5.41-3.61C293.62,162.74,292.25,162,289.92,162Zm1.32,18.86v-1.15q0-4.36-2-4.37c-.89.31-1.33.59-1.33.84v.31a33.67,33.67,0,0,1-.38,4.06c-3.15.21-4.73.56-4.73,1.08s1.35,1.17,4.07,1.68c.82,4.15,2.18,6.21,4.07,6.21a2.74,2.74,0,0,0,1.32-.53A13.79,13.79,0,0,1,291,184.1l.66-.77c2.21.15,3.89.23,5,.23s1.8-.27,2-.84v-.54Q298.64,181.19,291.24,180.88ZM337.47,225q-3.41,0-3.41,4.07c0,1,.67,1.71,2,2.22h1.71c2.46,0,3.7-.82,3.7-2.45v-.54C340.64,226.14,339.3,225,337.47,225Zm0,0q-3.41,0-3.41,4.07c0,1,.67,1.71,2,2.22h1.71c2.46,0,3.7-.82,3.7-2.45v-.54C340.64,226.14,339.3,225,337.47,225Zm-46.23-44.16v-1.15q0-4.36-2-4.37c-.89.31-1.33.59-1.33.84v.31a33.67,33.67,0,0,1-.38,4.06c-3.15.21-4.73.56-4.73,1.08s1.35,1.17,4.07,1.68c.82,4.15,2.18,6.21,4.07,6.21a2.74,2.74,0,0,0,1.32-.53A13.79,13.79,0,0,1,291,184.1l.66-.77c2.21.15,3.89.23,5,.23s1.8-.27,2-.84v-.54Q298.64,181.19,291.24,180.88ZM289.92,162h-1.33c-2,.87-3,2-3,3.53s1,2.12,3,2.22a5.54,5.54,0,0,0,5.41-3.61C293.62,162.74,292.25,162,289.92,162Zm0,0h-1.33c-2,.87-3,2-3,3.53s1,2.12,3,2.22a5.54,5.54,0,0,0,5.41-3.61C293.62,162.74,292.25,162,289.92,162Zm1.32,18.86v-1.15q0-4.36-2-4.37c-.89.31-1.33.59-1.33.84v.31a33.67,33.67,0,0,1-.38,4.06c-3.15.21-4.73.56-4.73,1.08s1.35,1.17,4.07,1.68c.82,4.15,2.18,6.21,4.07,6.21a2.74,2.74,0,0,0,1.32-.53A13.79,13.79,0,0,1,291,184.1l.66-.77c2.21.15,3.89.23,5,.23s1.8-.27,2-.84v-.54Q298.64,181.19,291.24,180.88ZM337.47,225q-3.41,0-3.41,4.07c0,1,.67,1.71,2,2.22h1.71c2.46,0,3.7-.82,3.7-2.45v-.54C340.64,226.14,339.3,225,337.47,225Zm0,0q-3.41,0-3.41,4.07c0,1,.67,1.71,2,2.22h1.71c2.46,0,3.7-.82,3.7-2.45v-.54C340.64,226.14,339.3,225,337.47,225Zm-46.23-44.16v-1.15q0-4.36-2-4.37c-.89.31-1.33.59-1.33.84v.31a33.67,33.67,0,0,1-.38,4.06c-3.15.21-4.73.56-4.73,1.08s1.35,1.17,4.07,1.68c.82,4.15,2.18,6.21,4.07,6.21a2.74,2.74,0,0,0,1.32-.53A13.79,13.79,0,0,1,291,184.1l.66-.77c2.21.15,3.89.23,5,.23s1.8-.27,2-.84v-.54Q298.64,181.19,291.24,180.88ZM289.92,162h-1.33c-2,.87-3,2-3,3.53s1,2.12,3,2.22a5.54,5.54,0,0,0,5.41-3.61C293.62,162.74,292.25,162,289.92,162Zm0,0h-1.33c-2,.87-3,2-3,3.53s1,2.12,3,2.22a5.54,5.54,0,0,0,5.41-3.61C293.62,162.74,292.25,162,289.92,162Zm1.32,18.86v-1.15q0-4.36-2-4.37c-.89.31-1.33.59-1.33.84v.31a33.67,33.67,0,0,1-.38,4.06c-3.15.21-4.73.56-4.73,1.08s1.35,1.17,4.07,1.68c.82,4.15,2.18,6.21,4.07,6.21a2.74,2.74,0,0,0,1.32-.53A13.79,13.79,0,0,1,291,184.1l.66-.77c2.21.15,3.89.23,5,.23s1.8-.27,2-.84v-.54Q298.64,181.19,291.24,180.88ZM337.47,225q-3.41,0-3.41,4.07c0,1,.67,1.71,2,2.22h1.71c2.46,0,3.7-.82,3.7-2.45v-.54C340.64,226.14,339.3,225,337.47,225Zm0,0q-3.41,0-3.41,4.07c0,1,.67,1.71,2,2.22h1.71c2.46,0,3.7-.82,3.7-2.45v-.54C340.64,226.14,339.3,225,337.47,225Zm-46.23-44.16v-1.15q0-4.36-2-4.37c-.89.31-1.33.59-1.33.84v.31a33.67,33.67,0,0,1-.38,4.06c-3.15.21-4.73.56-4.73,1.08s1.35,1.17,4.07,1.68c.82,4.15,2.18,6.21,4.07,6.21a2.74,2.74,0,0,0,1.32-.53A13.79,13.79,0,0,1,291,184.1l.66-.77c2.21.15,3.89.23,5,.23s1.8-.27,2-.84v-.54Q298.64,181.19,291.24,180.88ZM289.92,162h-1.33c-2,.87-3,2-3,3.53s1,2.12,3,2.22a5.54,5.54,0,0,0,5.41-3.61C293.62,162.74,292.25,162,289.92,162Zm0,0h-1.33c-2,.87-3,2-3,3.53s1,2.12,3,2.22a5.54,5.54,0,0,0,5.41-3.61C293.62,162.74,292.25,162,289.92,162Zm1.32,18.86v-1.15q0-4.36-2-4.37c-.89.31-1.33.59-1.33.84v.31a33.67,33.67,0,0,1-.38,4.06c-3.15.21-4.73.56-4.73,1.08s1.35,1.17,4.07,1.68c.82,4.15,2.18,6.21,4.07,6.21a2.74,2.74,0,0,0,1.32-.53A13.79,13.79,0,0,1,291,184.1l.66-.77c2.21.15,3.89.23,5,.23s1.8-.27,2-.84v-.54Q298.64,181.19,291.24,180.88ZM337.47,225q-3.41,0-3.41,4.07c0,1,.67,1.71,2,2.22h1.71c2.46,0,3.7-.82,3.7-2.45v-.54C340.64,226.14,339.3,225,337.47,225Zm0,0q-3.41,0-3.41,4.07c0,1,.67,1.71,2,2.22h1.71c2.46,0,3.7-.82,3.7-2.45v-.54C340.64,226.14,339.3,225,337.47,225Zm-46.23-44.16v-1.15q0-4.36-2-4.37c-.89.31-1.33.59-1.33.84v.31a33.67,33.67,0,0,1-.38,4.06c-3.15.21-4.73.56-4.73,1.08s1.35,1.17,4.07,1.68c.82,4.15,2.18,6.21,4.07,6.21a2.74,2.74,0,0,0,1.32-.53A13.79,13.79,0,0,1,291,184.1l.66-.77c2.21.15,3.89.23,5,.23s1.8-.27,2-.84v-.54Q298.64,181.19,291.24,180.88ZM289.92,162h-1.33c-2,.87-3,2-3,3.53s1,2.12,3,2.22a5.54,5.54,0,0,0,5.41-3.61C293.62,162.74,292.25,162,289.92,162Zm0,0h-1.33c-2,.87-3,2-3,3.53s1,2.12,3,2.22a5.54,5.54,0,0,0,5.41-3.61C293.62,162.74,292.25,162,289.92,162Zm1.32,18.86v-1.15q0-4.36-2-4.37c-.89.31-1.33.59-1.33.84v.31a33.67,33.67,0,0,1-.38,4.06c-3.15.21-4.73.56-4.73,1.08s1.35,1.17,4.07,1.68c.82,4.15,2.18,6.21,4.07,6.21a2.74,2.74,0,0,0,1.32-.53A13.79,13.79,0,0,1,291,184.1l.66-.77c2.21.15,3.89.23,5,.23s1.8-.27,2-.84v-.54Q298.64,181.19,291.24,180.88ZM337.47,225q-3.41,0-3.41,4.07c0,1,.67,1.71,2,2.22h1.71c2.46,0,3.7-.82,3.7-2.45v-.54C340.64,226.14,339.3,225,337.47,225Zm0,0q-3.41,0-3.41,4.07c0,1,.67,1.71,2,2.22h1.71c2.46,0,3.7-.82,3.7-2.45v-.54C340.64,226.14,339.3,225,337.47,225Zm-46.23-44.16v-1.15q0-4.36-2-4.37c-.89.31-1.33.59-1.33.84v.31a33.67,33.67,0,0,1-.38,4.06c-3.15.21-4.73.56-4.73,1.08s1.35,1.17,4.07,1.68c.82,4.15,2.18,6.21,4.07,6.21a2.74,2.74,0,0,0,1.32-.53A13.79,13.79,0,0,1,291,184.1l.66-.77c2.21.15,3.89.23,5,.23s1.8-.27,2-.84v-.54Q298.64,181.19,291.24,180.88ZM289.92,162h-1.33c-2,.87-3,2-3,3.53s1,2.12,3,2.22a5.54,5.54,0,0,0,5.41-3.61C293.62,162.74,292.25,162,289.92,162Zm0,0h-1.33c-2,.87-3,2-3,3.53s1,2.12,3,2.22a5.54,5.54,0,0,0,5.41-3.61C293.62,162.74,292.25,162,289.92,162Zm1.32,18.86v-1.15q0-4.36-2-4.37c-.89.31-1.33.59-1.33.84v.31a33.67,33.67,0,0,1-.38,4.06c-3.15.21-4.73.56-4.73,1.08s1.35,1.17,4.07,1.68c.82,4.15,2.18,6.21,4.07,6.21a2.74,2.74,0,0,0,1.32-.53A13.79,13.79,0,0,1,291,184.1l.66-.77c2.21.15,3.89.23,5,.23s1.8-.27,2-.84v-.54Q298.64,181.19,291.24,180.88ZM337.47,225q-3.41,0-3.41,4.07c0,1,.67,1.71,2,2.22h1.71c2.46,0,3.7-.82,3.7-2.45v-.54C340.64,226.14,339.3,225,337.47,225Zm0,0q-3.41,0-3.41,4.07c0,1,.67,1.71,2,2.22h1.71c2.46,0,3.7-.82,3.7-2.45v-.54C340.64,226.14,339.3,225,337.47,225Zm-46.23-44.16v-1.15q0-4.36-2-4.37c-.89.31-1.33.59-1.33.84v.31a33.67,33.67,0,0,1-.38,4.06c-3.15.21-4.73.56-4.73,1.08s1.35,1.17,4.07,1.68c.82,4.15,2.18,6.21,4.07,6.21a2.74,2.74,0,0,0,1.32-.53A13.79,13.79,0,0,1,291,184.1l.66-.77c2.21.15,3.89.23,5,.23s1.8-.27,2-.84v-.54Q298.64,181.19,291.24,180.88ZM289.92,162h-1.33c-2,.87-3,2-3,3.53s1,2.12,3,2.22a5.54,5.54,0,0,0,5.41-3.61C293.62,162.74,292.25,162,289.92,162Zm0,0h-1.33c-2,.87-3,2-3,3.53s1,2.12,3,2.22a5.54,5.54,0,0,0,5.41-3.61C293.62,162.74,292.25,162,289.92,162Zm1.32,18.86v-1.15q0-4.36-2-4.37c-.89.31-1.33.59-1.33.84v.31a33.67,33.67,0,0,1-.38,4.06c-3.15.21-4.73.56-4.73,1.08s1.35,1.17,4.07,1.68c.82,4.15,2.18,6.21,4.07,6.21a2.74,2.74,0,0,0,1.32-.53A13.79,13.79,0,0,1,291,184.1l.66-.77c2.21.15,3.89.23,5,.23s1.8-.27,2-.84v-.54Q298.64,181.19,291.24,180.88ZM337.47,225q-3.41,0-3.41,4.07c0,1,.67,1.71,2,2.22h1.71c2.46,0,3.7-.82,3.7-2.45v-.54C340.64,226.14,339.3,225,337.47,225Zm0,0q-3.41,0-3.41,4.07c0,1,.67,1.71,2,2.22h1.71c2.46,0,3.7-.82,3.7-2.45v-.54C340.64,226.14,339.3,225,337.47,225Zm-46.23-44.16v-1.15q0-4.36-2-4.37c-.89.31-1.33.59-1.33.84v.31a33.67,33.67,0,0,1-.38,4.06c-3.15.21-4.73.56-4.73,1.08s1.35,1.17,4.07,1.68c.82,4.15,2.18,6.21,4.07,6.21a2.74,2.74,0,0,0,1.32-.53A13.79,13.79,0,0,1,291,184.1l.66-.77c2.21.15,3.89.23,5,.23s1.8-.27,2-.84v-.54Q298.64,181.19,291.24,180.88ZM289.92,162h-1.33c-2,.87-3,2-3,3.53s1,2.12,3,2.22a5.54,5.54,0,0,0,5.41-3.61C293.62,162.74,292.25,162,289.92,162Zm59.68,60q0-8.36-13.17-20.47l-9.09-7.67L311.8,183q-9.37-5.29-10.42-9c.82-2.2,1.7-3.3,2.65-3.3h2.09a33.52,33.52,0,0,1,6.72,1.07A50.36,50.36,0,0,1,326,179c1.39,1.64,2.49,2.46,3.32,2.46,1.14-.25,1.71-.54,1.71-.85q1.23-.06,9.46-9.58,4-4.44,4-7.59-.67-4-15.82-12-13.37-3.84-16.87-3.83h-2.65l-1.7.3c0-.2-.13-.3-.38-.3q-2.19,0-6.73.3-14.77,3.07-18.85,9l-5.4,6.83c-1.14,4.34-1.93,6.8-2.37,7.36v5.75a16.21,16.21,0,0,0,3.41,10.12c0,.62,1.8,2.6,5.4,6a117.49,117.49,0,0,0,18.85,11.73q4.92,1.77,16.87,12.58A72.54,72.54,0,0,1,323,224v4.6q-2.55,6.06-8.81,6.06h-1.33q-7.66,0-19.51-9.28c-2.72-3.17-4.64-4.83-5.78-5l-.66.3a117.17,117.17,0,0,0-11.84,12,3.18,3.18,0,0,0-2,3v1.61c.38.56.72.85,1,.85q0,2.44,7.39,7.05a22.18,22.18,0,0,0,7.1,4.68q17.54,7.89,29.94,7.89,12-1.75,15.91-3.52c6.31-3.28,9.67-5.91,10.05-7.9q6.43-5.22,6.43-17C350.61,224.92,350.17,222.46,349.6,222.05Zm-69.16,16.64c-.88-.46-1.32-.82-1.32-1.07v-.54a1.9,1.9,0,0,0,.66-1.15h.66v1.15l.38,1.3C280.57,238.38,280.44,238.49,280.44,238.69Zm27.39-51.6h.94v.31q5.78,3.3,5.78,4.06c0,.77-.35,1.15-1,1.15h-.38a34.79,34.79,0,0,1-6.35-4.68Q307.26,187.09,307.83,187.09Zm-3.42,3.07,5.69,4.91v.53h-1c-4.3-2.45-6.44-3.83-6.44-4.14v-.23C302.83,190.82,303.4,190.47,304.41,190.16Zm22.26-31.44.29-1.92q4.46,1.15,12.5,7.36a2.33,2.33,0,0,1-1.7,2.23h-.67a102.56,102.56,0,0,1-10.42-6.29Zm-1,6.83c0-.92.35-1.46,1-1.61,5,3.27,7.8,4.9,8.44,4.9v.31c0,1-.57,1.59-1.71,1.84-4.87-3.43-7.45-5.14-7.77-5.14Zm-.66,3.83h.38c0,.1,1.89,1.56,5.69,4.37v.31c-.57.72-1,1.07-1.33,1.07-3.48-2-5.4-3.42-5.78-4.14A1.46,1.46,0,0,1,325,169.38ZM297,153.81a40.93,40.93,0,0,1,10.42-1.38h3.41a52.09,52.09,0,0,1,8.43,1.38c1.32,0,2,1.92,2,5.76a57,57,0,0,1-2,8.74h-.38a5.26,5.26,0,0,0-2.75-1.08c-5.56-.82-8.33-2-8.33-3.6q-1.43-3.45-10.8-9.51Zm-16.87,14.73v-1.08a9.36,9.36,0,0,1,3-3.3q0-3.36,7.76-8.12l2.37.54q6.72,4.44,9.38,8.74v.23q-1.62,0-3.7,2.76-1.69,2.15-7.39,2.14h-1.7a81.79,81.79,0,0,0-10.14,2.46h-.28C279.5,172.65,279.72,171.19,280.16,168.54Zm11.46,24.61q-12.12-7.83-12.12-16.41v-.23c0-.76,3.35-1.69,10-2.76h1q1.8,0,5.78.31v1.07q.94,4.45,6.72,8.74v.54q-.46,1.69-11.17,8.74Zm15.16,4.6c0,.26-.92.9-2.75,1.92h-.28q-6.35-3.07-7.1-4.07v-.31l1.7-1.6a3.6,3.6,0,0,1,1.33.22c4,2.21,6.35,3.3,7.1,3.3Zm1.71,5.21v-.84l10-7.9,2.75,1.38q-8.82,8.13-10.8,8.13A9,9,0,0,1,308.49,203Zm8.43,5.45h-.76c-1.08-.67-1.61-1.13-1.61-1.38v-.23q10.43-7.61,10.42-8a3.1,3.1,0,0,1,2,1.38v.54Q324.78,203.65,316.92,208.41Zm3.69,3,9.76-6.83c1.52,0,2.87.93,4.07,2.76l7.4,7.9v.23a31.8,31.8,0,0,0-14.5,3.83h-.67C322.63,214.8,320.61,212.16,320.61,211.4ZM297,234.32a49.31,49.31,0,0,0,8.71,4.06v.31l-4.08.54q-2.93,0-5.3-3.53Zm9.38,13.11L304,248h-.28c-.26,0-2.18-.18-5.78-.54q-11.75-4.06-11.74-10.65,0-5.22,3.31-7.67h.38c.94,1.48,1.83,2.22,2.65,2.22a9.17,9.17,0,0,0-1.61,4.06v1.39q5.31,5.43,10.42,5.44,7.31,0,9.76-2.15h.38q2.37,2.61,2.65,4.07l-7.1,3.52Zm7.1,4.91a28.67,28.67,0,0,1-4.74-.84v-.23a10.37,10.37,0,0,0,5.4-2.23h.38l.66.31C315.21,251.34,314.64,252.34,313.51,252.34Zm22.26-4.68q-9,4.36-14.87,4.37h-.29v-.76a31.65,31.65,0,0,0-2.36-12v-.31q1.8,0,6.06-3.22H326q4.74,0,11.46,10C337.47,246.05,336.9,246.69,335.77,247.66ZM345.53,231a11.42,11.42,0,0,1-1,3.84l.37.53q0,1-3.69,6-.85-.15-1.71-1.83a21.13,21.13,0,0,0-11.84-7.36,33.68,33.68,0,0,1,.76-6.06L328,222.9a9.08,9.08,0,0,0,1.33-.31,17.69,17.69,0,0,1,10.51-3.3h1.33c.19,0,.29.11.29.31q4.07,0,4.07,9.81l-.29,1.39C345.43,230.8,345.53,230.87,345.53,231Zm-8.06-6q-3.41,0-3.41,4.07c0,1,.67,1.71,2,2.22h1.71c2.46,0,3.7-.82,3.7-2.45v-.54C340.64,226.14,339.3,225,337.47,225Zm-46.23-44.16v-1.15q0-4.36-2-4.37c-.89.31-1.33.59-1.33.84v.31a33.67,33.67,0,0,1-.38,4.06c-3.15.21-4.73.56-4.73,1.08s1.35,1.17,4.07,1.68c.82,4.15,2.18,6.21,4.07,6.21a2.74,2.74,0,0,0,1.32-.53A13.79,13.79,0,0,1,291,184.1l.66-.77c2.21.15,3.89.23,5,.23s1.8-.27,2-.84v-.54Q298.64,181.19,291.24,180.88Zm-2.65-13.11a5.54,5.54,0,0,0,5.41-3.61c-.38-1.42-1.75-2.14-4.08-2.14h-1.33c-2,.87-3,2-3,3.53S286.57,167.67,288.59,167.77Zm1.33-5.75h-1.33c-2,.87-3,2-3,3.53s1,2.12,3,2.22a5.54,5.54,0,0,0,5.41-3.61C293.62,162.74,292.25,162,289.92,162Zm1.32,18.86v-1.15q0-4.36-2-4.37c-.89.31-1.33.59-1.33.84v.31a33.67,33.67,0,0,1-.38,4.06c-3.15.21-4.73.56-4.73,1.08s1.35,1.17,4.07,1.68c.82,4.15,2.18,6.21,4.07,6.21a2.74,2.74,0,0,0,1.32-.53A13.79,13.79,0,0,1,291,184.1l.66-.77c2.21.15,3.89.23,5,.23s1.8-.27,2-.84v-.54Q298.64,181.19,291.24,180.88ZM337.47,225q-3.41,0-3.41,4.07c0,1,.67,1.71,2,2.22h1.71c2.46,0,3.7-.82,3.7-2.45v-.54C340.64,226.14,339.3,225,337.47,225Zm0,0q-3.41,0-3.41,4.07c0,1,.67,1.71,2,2.22h1.71c2.46,0,3.7-.82,3.7-2.45v-.54C340.64,226.14,339.3,225,337.47,225Zm-46.23-44.16v-1.15q0-4.36-2-4.37c-.89.31-1.33.59-1.33.84v.31a33.67,33.67,0,0,1-.38,4.06c-3.15.21-4.73.56-4.73,1.08s1.35,1.17,4.07,1.68c.82,4.15,2.18,6.21,4.07,6.21a2.74,2.74,0,0,0,1.32-.53A13.79,13.79,0,0,1,291,184.1l.66-.77c2.21.15,3.89.23,5,.23s1.8-.27,2-.84v-.54Q298.64,181.19,291.24,180.88ZM289.92,162h-1.33c-2,.87-3,2-3,3.53s1,2.12,3,2.22a5.54,5.54,0,0,0,5.41-3.61C293.62,162.74,292.25,162,289.92,162Zm0,0h-1.33c-2,.87-3,2-3,3.53s1,2.12,3,2.22a5.54,5.54,0,0,0,5.41-3.61C293.62,162.74,292.25,162,289.92,162Zm1.32,18.86v-1.15q0-4.36-2-4.37c-.89.31-1.33.59-1.33.84v.31a33.67,33.67,0,0,1-.38,4.06c-3.15.21-4.73.56-4.73,1.08s1.35,1.17,4.07,1.68c.82,4.15,2.18,6.21,4.07,6.21a2.74,2.74,0,0,0,1.32-.53A13.79,13.79,0,0,1,291,184.1l.66-.77c2.21.15,3.89.23,5,.23s1.8-.27,2-.84v-.54Q298.64,181.19,291.24,180.88ZM337.47,225q-3.41,0-3.41,4.07c0,1,.67,1.71,2,2.22h1.71c2.46,0,3.7-.82,3.7-2.45v-.54C340.64,226.14,339.3,225,337.47,225Zm0,0q-3.41,0-3.41,4.07c0,1,.67,1.71,2,2.22h1.71c2.46,0,3.7-.82,3.7-2.45v-.54C340.64,226.14,339.3,225,337.47,225Zm-46.23-44.16v-1.15q0-4.36-2-4.37c-.89.31-1.33.59-1.33.84v.31a33.67,33.67,0,0,1-.38,4.06c-3.15.21-4.73.56-4.73,1.08s1.35,1.17,4.07,1.68c.82,4.15,2.18,6.21,4.07,6.21a2.74,2.74,0,0,0,1.32-.53A13.79,13.79,0,0,1,291,184.1l.66-.77c2.21.15,3.89.23,5,.23s1.8-.27,2-.84v-.54Q298.64,181.19,291.24,180.88ZM289.92,162h-1.33c-2,.87-3,2-3,3.53s1,2.12,3,2.22a5.54,5.54,0,0,0,5.41-3.61C293.62,162.74,292.25,162,289.92,162Zm0,0h-1.33c-2,.87-3,2-3,3.53s1,2.12,3,2.22a5.54,5.54,0,0,0,5.41-3.61C293.62,162.74,292.25,162,289.92,162Zm1.32,18.86v-1.15q0-4.36-2-4.37c-.89.31-1.33.59-1.33.84v.31a33.67,33.67,0,0,1-.38,4.06c-3.15.21-4.73.56-4.73,1.08s1.35,1.17,4.07,1.68c.82,4.15,2.18,6.21,4.07,6.21a2.74,2.74,0,0,0,1.32-.53A13.79,13.79,0,0,1,291,184.1l.66-.77c2.21.15,3.89.23,5,.23s1.8-.27,2-.84v-.54Q298.64,181.19,291.24,180.88ZM337.47,225q-3.41,0-3.41,4.07c0,1,.67,1.71,2,2.22h1.71c2.46,0,3.7-.82,3.7-2.45v-.54C340.64,226.14,339.3,225,337.47,225Zm0,0q-3.41,0-3.41,4.07c0,1,.67,1.71,2,2.22h1.71c2.46,0,3.7-.82,3.7-2.45v-.54C340.64,226.14,339.3,225,337.47,225Zm-46.23-44.16v-1.15q0-4.36-2-4.37c-.89.31-1.33.59-1.33.84v.31a33.67,33.67,0,0,1-.38,4.06c-3.15.21-4.73.56-4.73,1.08s1.35,1.17,4.07,1.68c.82,4.15,2.18,6.21,4.07,6.21a2.74,2.74,0,0,0,1.32-.53A13.79,13.79,0,0,1,291,184.1l.66-.77c2.21.15,3.89.23,5,.23s1.8-.27,2-.84v-.54Q298.64,181.19,291.24,180.88ZM289.92,162h-1.33c-2,.87-3,2-3,3.53s1,2.12,3,2.22a5.54,5.54,0,0,0,5.41-3.61C293.62,162.74,292.25,162,289.92,162Zm0,0h-1.33c-2,.87-3,2-3,3.53s1,2.12,3,2.22a5.54,5.54,0,0,0,5.41-3.61C293.62,162.74,292.25,162,289.92,162Zm1.32,18.86v-1.15q0-4.36-2-4.37c-.89.31-1.33.59-1.33.84v.31a33.67,33.67,0,0,1-.38,4.06c-3.15.21-4.73.56-4.73,1.08s1.35,1.17,4.07,1.68c.82,4.15,2.18,6.21,4.07,6.21a2.74,2.74,0,0,0,1.32-.53A13.79,13.79,0,0,1,291,184.1l.66-.77c2.21.15,3.89.23,5,.23s1.8-.27,2-.84v-.54Q298.64,181.19,291.24,180.88ZM337.47,225q-3.41,0-3.41,4.07c0,1,.67,1.71,2,2.22h1.71c2.46,0,3.7-.82,3.7-2.45v-.54C340.64,226.14,339.3,225,337.47,225Zm0,0q-3.41,0-3.41,4.07c0,1,.67,1.71,2,2.22h1.71c2.46,0,3.7-.82,3.7-2.45v-.54C340.64,226.14,339.3,225,337.47,225Zm-46.23-44.16v-1.15q0-4.36-2-4.37c-.89.31-1.33.59-1.33.84v.31a33.67,33.67,0,0,1-.38,4.06c-3.15.21-4.73.56-4.73,1.08s1.35,1.17,4.07,1.68c.82,4.15,2.18,6.21,4.07,6.21a2.74,2.74,0,0,0,1.32-.53A13.79,13.79,0,0,1,291,184.1l.66-.77c2.21.15,3.89.23,5,.23s1.8-.27,2-.84v-.54Q298.64,181.19,291.24,180.88ZM289.92,162h-1.33c-2,.87-3,2-3,3.53s1,2.12,3,2.22a5.54,5.54,0,0,0,5.41-3.61C293.62,162.74,292.25,162,289.92,162Zm0,0h-1.33c-2,.87-3,2-3,3.53s1,2.12,3,2.22a5.54,5.54,0,0,0,5.41-3.61C293.62,162.74,292.25,162,289.92,162Zm1.32,18.86v-1.15q0-4.36-2-4.37c-.89.31-1.33.59-1.33.84v.31a33.67,33.67,0,0,1-.38,4.06c-3.15.21-4.73.56-4.73,1.08s1.35,1.17,4.07,1.68c.82,4.15,2.18,6.21,4.07,6.21a2.74,2.74,0,0,0,1.32-.53A13.79,13.79,0,0,1,291,184.1l.66-.77c2.21.15,3.89.23,5,.23s1.8-.27,2-.84v-.54Q298.64,181.19,291.24,180.88ZM337.47,225q-3.41,0-3.41,4.07c0,1,.67,1.71,2,2.22h1.71c2.46,0,3.7-.82,3.7-2.45v-.54C340.64,226.14,339.3,225,337.47,225Zm0,0q-3.41,0-3.41,4.07c0,1,.67,1.71,2,2.22h1.71c2.46,0,3.7-.82,3.7-2.45v-.54C340.64,226.14,339.3,225,337.47,225Zm-46.23-44.16v-1.15q0-4.36-2-4.37c-.89.31-1.33.59-1.33.84v.31a33.67,33.67,0,0,1-.38,4.06c-3.15.21-4.73.56-4.73,1.08s1.35,1.17,4.07,1.68c.82,4.15,2.18,6.21,4.07,6.21a2.74,2.74,0,0,0,1.32-.53A13.79,13.79,0,0,1,291,184.1l.66-.77c2.21.15,3.89.23,5,.23s1.8-.27,2-.84v-.54Q298.64,181.19,291.24,180.88ZM289.92,162h-1.33c-2,.87-3,2-3,3.53s1,2.12,3,2.22a5.54,5.54,0,0,0,5.41-3.61C293.62,162.74,292.25,162,289.92,162Zm0,0h-1.33c-2,.87-3,2-3,3.53s1,2.12,3,2.22a5.54,5.54,0,0,0,5.41-3.61C293.62,162.74,292.25,162,289.92,162Zm1.32,18.86v-1.15q0-4.36-2-4.37c-.89.31-1.33.59-1.33.84v.31a33.67,33.67,0,0,1-.38,4.06c-3.15.21-4.73.56-4.73,1.08s1.35,1.17,4.07,1.68c.82,4.15,2.18,6.21,4.07,6.21a2.74,2.74,0,0,0,1.32-.53A13.79,13.79,0,0,1,291,184.1l.66-.77c2.21.15,3.89.23,5,.23s1.8-.27,2-.84v-.54Q298.64,181.19,291.24,180.88ZM337.47,225q-3.41,0-3.41,4.07c0,1,.67,1.71,2,2.22h1.71c2.46,0,3.7-.82,3.7-2.45v-.54C340.64,226.14,339.3,225,337.47,225Zm0,0q-3.41,0-3.41,4.07c0,1,.67,1.71,2,2.22h1.71c2.46,0,3.7-.82,3.7-2.45v-.54C340.64,226.14,339.3,225,337.47,225Zm-46.23-44.16v-1.15q0-4.36-2-4.37c-.89.31-1.33.59-1.33.84v.31a33.67,33.67,0,0,1-.38,4.06c-3.15.21-4.73.56-4.73,1.08s1.35,1.17,4.07,1.68c.82,4.15,2.18,6.21,4.07,6.21a2.74,2.74,0,0,0,1.32-.53A13.79,13.79,0,0,1,291,184.1l.66-.77c2.21.15,3.89.23,5,.23s1.8-.27,2-.84v-.54Q298.64,181.19,291.24,180.88ZM289.92,162h-1.33c-2,.87-3,2-3,3.53s1,2.12,3,2.22a5.54,5.54,0,0,0,5.41-3.61C293.62,162.74,292.25,162,289.92,162Zm0,0h-1.33c-2,.87-3,2-3,3.53s1,2.12,3,2.22a5.54,5.54,0,0,0,5.41-3.61C293.62,162.74,292.25,162,289.92,162Zm1.32,18.86v-1.15q0-4.36-2-4.37c-.89.31-1.33.59-1.33.84v.31a33.67,33.67,0,0,1-.38,4.06c-3.15.21-4.73.56-4.73,1.08s1.35,1.17,4.07,1.68c.82,4.15,2.18,6.21,4.07,6.21a2.74,2.74,0,0,0,1.32-.53A13.79,13.79,0,0,1,291,184.1l.66-.77c2.21.15,3.89.23,5,.23s1.8-.27,2-.84v-.54Q298.64,181.19,291.24,180.88ZM337.47,225q-3.41,0-3.41,4.07c0,1,.67,1.71,2,2.22h1.71c2.46,0,3.7-.82,3.7-2.45v-.54C340.64,226.14,339.3,225,337.47,225Zm0,0q-3.41,0-3.41,4.07c0,1,.67,1.71,2,2.22h1.71c2.46,0,3.7-.82,3.7-2.45v-.54C340.64,226.14,339.3,225,337.47,225Zm-46.23-44.16v-1.15q0-4.36-2-4.37c-.89.31-1.33.59-1.33.84v.31a33.67,33.67,0,0,1-.38,4.06c-3.15.21-4.73.56-4.73,1.08s1.35,1.17,4.07,1.68c.82,4.15,2.18,6.21,4.07,6.21a2.74,2.74,0,0,0,1.32-.53A13.79,13.79,0,0,1,291,184.1l.66-.77c2.21.15,3.89.23,5,.23s1.8-.27,2-.84v-.54Q298.64,181.19,291.24,180.88ZM289.92,162h-1.33c-2,.87-3,2-3,3.53s1,2.12,3,2.22a5.54,5.54,0,0,0,5.41-3.61C293.62,162.74,292.25,162,289.92,162Zm0,0h-1.33c-2,.87-3,2-3,3.53s1,2.12,3,2.22a5.54,5.54,0,0,0,5.41-3.61C293.62,162.74,292.25,162,289.92,162Zm1.32,18.86v-1.15q0-4.36-2-4.37c-.89.31-1.33.59-1.33.84v.31a33.67,33.67,0,0,1-.38,4.06c-3.15.21-4.73.56-4.73,1.08s1.35,1.17,4.07,1.68c.82,4.15,2.18,6.21,4.07,6.21a2.74,2.74,0,0,0,1.32-.53A13.79,13.79,0,0,1,291,184.1l.66-.77c2.21.15,3.89.23,5,.23s1.8-.27,2-.84v-.54Q298.64,181.19,291.24,180.88ZM337.47,225q-3.41,0-3.41,4.07c0,1,.67,1.71,2,2.22h1.71c2.46,0,3.7-.82,3.7-2.45v-.54C340.64,226.14,339.3,225,337.47,225Zm0,0q-3.41,0-3.41,4.07c0,1,.67,1.71,2,2.22h1.71c2.46,0,3.7-.82,3.7-2.45v-.54C340.64,226.14,339.3,225,337.47,225Zm-46.23-44.16v-1.15q0-4.36-2-4.37c-.89.31-1.33.59-1.33.84v.31a33.67,33.67,0,0,1-.38,4.06c-3.15.21-4.73.56-4.73,1.08s1.35,1.17,4.07,1.68c.82,4.15,2.18,6.21,4.07,6.21a2.74,2.74,0,0,0,1.32-.53A13.79,13.79,0,0,1,291,184.1l.66-.77c2.21.15,3.89.23,5,.23s1.8-.27,2-.84v-.54Q298.64,181.19,291.24,180.88ZM289.92,162h-1.33c-2,.87-3,2-3,3.53s1,2.12,3,2.22a5.54,5.54,0,0,0,5.41-3.61C293.62,162.74,292.25,162,289.92,162Zm0,0h-1.33c-2,.87-3,2-3,3.53s1,2.12,3,2.22a5.54,5.54,0,0,0,5.41-3.61C293.62,162.74,292.25,162,289.92,162Zm1.32,18.86v-1.15q0-4.36-2-4.37c-.89.31-1.33.59-1.33.84v.31a33.67,33.67,0,0,1-.38,4.06c-3.15.21-4.73.56-4.73,1.08s1.35,1.17,4.07,1.68c.82,4.15,2.18,6.21,4.07,6.21a2.74,2.74,0,0,0,1.32-.53A13.79,13.79,0,0,1,291,184.1l.66-.77c2.21.15,3.89.23,5,.23s1.8-.27,2-.84v-.54Q298.64,181.19,291.24,180.88Zm0,0v-1.15q0-4.36-2-4.37c-.89.31-1.33.59-1.33.84v.31a33.67,33.67,0,0,1-.38,4.06c-3.15.21-4.73.56-4.73,1.08s1.35,1.17,4.07,1.68c.82,4.15,2.18,6.21,4.07,6.21a2.74,2.74,0,0,0,1.32-.53A13.79,13.79,0,0,1,291,184.1l.66-.77c2.21.15,3.89.23,5,.23s1.8-.27,2-.84v-.54Q298.64,181.19,291.24,180.88ZM289.92,162h-1.33c-2,.87-3,2-3,3.53s1,2.12,3,2.22a5.54,5.54,0,0,0,5.41-3.61C293.62,162.74,292.25,162,289.92,162Zm47.55,63q-3.41,0-3.41,4.07c0,1,.67,1.71,2,2.22h1.71c2.46,0,3.7-.82,3.7-2.45v-.54C340.64,226.14,339.3,225,337.47,225Zm0,0q-3.41,0-3.41,4.07c0,1,.67,1.71,2,2.22h1.71c2.46,0,3.7-.82,3.7-2.45v-.54C340.64,226.14,339.3,225,337.47,225Z"/><path class="cls-1" d="M315.21,249.35c0,2-.57,3-1.7,3a28.67,28.67,0,0,1-4.74-.84v-.23a10.37,10.37,0,0,0,5.4-2.23h.38Z"/><path class="cls-1" d="M305.74,238.38v.31l-4.08.54q-2.93,0-5.3-3.53l.67-1.38A49.31,49.31,0,0,0,305.74,238.38Z"/><path class="cls-2" d="M314.17,244.14l-7.1,3.52-.66-.23L304,248h-.28c-.26,0-2.18-.18-5.78-.54q-11.75-4.06-11.74-10.65,0-5.22,3.31-7.67h.38c.94,1.48,1.83,2.22,2.65,2.22a9.17,9.17,0,0,0-1.61,4.06v1.39q5.31,5.43,10.42,5.44,7.31,0,9.76-2.15h.38Q313.89,242.68,314.17,244.14Z"/><path class="cls-3" d="M337.47,245.74c0,.31-.57.95-1.7,1.92q-9,4.36-14.87,4.37h-.29v-.76a31.65,31.65,0,0,0-2.36-12v-.31q1.8,0,6.06-3.22H326Q330.75,235.7,337.47,245.74Z"/><path class="cls-2" d="M345.24,230.8l.29-1.39q0-9.81-4.07-9.81c0-.2-.1-.31-.29-.31h-1.33a17.69,17.69,0,0,0-10.51,3.3,9.08,9.08,0,0,1-1.33.31l.38,3.22a33.68,33.68,0,0,0-.76,6.06,21.13,21.13,0,0,1,11.84,7.36q.85,1.68,1.71,1.83,3.69-5,3.69-6l-.37-.53a11.42,11.42,0,0,0,1-3.84C345.53,230.87,345.43,230.8,345.24,230.8Zm-3.78-1.92c0,1.63-1.24,2.45-3.7,2.45h-1.71c-1.32-.51-2-1.25-2-2.22q0-4.06,3.41-4.07c1.83,0,3.17,1.1,4,3.3Z"/><path class="cls-2" d="M327,200.2v.54q-2.18,2.91-10,7.67h-.76c-1.08-.67-1.61-1.13-1.61-1.38v-.23q10.43-7.61,10.42-8A3.1,3.1,0,0,1,327,200.2Z"/><path class="cls-1" d="M341.84,215.23v.23a31.8,31.8,0,0,0-14.5,3.83h-.67c-4-4.49-6.06-7.13-6.06-7.89l9.76-6.83c1.52,0,2.87.93,4.07,2.76Z"/><path class="cls-2" d="M321.28,195.6q-8.82,8.13-10.8,8.13a9,9,0,0,1-2-.77v-.84l10-7.9Z"/><path class="cls-3" d="M310.1,195.07v.53h-1c-4.3-2.45-6.44-3.83-6.44-4.14v-.23c.12-.41.69-.76,1.7-1.07Z"/><path class="cls-1" d="M314.55,191.46c0,.77-.35,1.15-1,1.15h-.38a34.79,34.79,0,0,1-6.35-4.68q.48-.84,1.05-.84h.94v.31Q314.55,190.7,314.55,191.46Z"/><path class="cls-1" d="M306.78,197.21v.54c0,.26-.92.9-2.75,1.92h-.28q-6.35-3.07-7.1-4.07v-.31l1.7-1.6a3.6,3.6,0,0,1,1.33.22C303.65,196.12,306,197.21,306.78,197.21Z"/><path class="cls-3" d="M296.36,175.13v-1.07q-4-.31-5.78-.31h-1c-6.69,1.07-10,2-10,2.76v.23q0,8.59,12.12,16.41h.29q10.71-7.05,11.17-8.74v-.54Q297.31,179.58,296.36,175.13Zm2.28,7.59c-.19.57-.86.84-2,.84s-2.82-.08-5-.23l-.66.77a13.79,13.79,0,0,0,1.32,4.91,2.74,2.74,0,0,1-1.32.53c-1.89,0-3.25-2.06-4.07-6.21-2.72-.51-4.07-1.07-4.07-1.68s1.58-.87,4.73-1.08a33.67,33.67,0,0,0,.38-4.06v-.31c0-.25.44-.53,1.33-.84q2,0,2,4.37v1.15q7.39.31,7.4,1.3Z"/><path class="cls-1" d="M293.33,156.58,291,156q-7.77,4.76-7.76,8.12a9.36,9.36,0,0,0-3,3.3v1.08c-.44,2.65-.66,4.11-.66,4.37h.28a81.79,81.79,0,0,1,10.14-2.46h1.7q5.7,0,7.39-2.14,2.08-2.76,3.7-2.76v-.23Q300.06,161,293.33,156.58Zm-4.74,11.19q-3-.15-3-2.22c0-1.49,1-2.66,3-3.53h1.33c2.33,0,3.7.72,4.08,2.14A5.54,5.54,0,0,1,288.59,167.77Z"/><path class="cls-3" d="M331,173.75v.31c-.57.72-1,1.07-1.33,1.07-3.48-2-5.4-3.42-5.78-4.14a1.46,1.46,0,0,1,1-1.61h.38C325.35,169.48,327.24,170.94,331,173.75Z"/><path class="cls-3" d="M335.11,168.84v.31c0,1-.57,1.59-1.71,1.84-4.87-3.43-7.45-5.14-7.77-5.14v-.3c0-.92.35-1.46,1-1.61C331.67,167.21,334.47,168.84,335.11,168.84Z"/><path class="cls-3" d="M339.46,164.16a2.33,2.33,0,0,1-1.7,2.23h-.67a102.56,102.56,0,0,1-10.42-6.29v-1.38l.29-1.92Q331.42,158,339.46,164.16Z"/><path class="cls-2" d="M321.28,159.57a57,57,0,0,1-2,8.74h-.38a5.26,5.26,0,0,0-2.75-1.08c-5.56-.82-8.33-2-8.33-3.6q-1.43-3.45-10.8-9.51v-.31a40.93,40.93,0,0,1,10.42-1.38h3.41a52.09,52.09,0,0,1,8.43,1.38C320.61,153.81,321.28,155.73,321.28,159.57Z"/><path d="M397.25,194.37a7.73,7.73,0,0,0-4,2.38q0,4.22,3.6,4.22h.38c2.4-.36,3.6-1.25,3.6-2.69v-.22Q400.28,194.37,397.25,194.37Zm7.86-14.25h-1.32c-2.84.51-4.26,1.55-4.26,3.14q0,2,4.26,2.38c2.4-1.08,3.6-2.12,3.6-3.15Q407.39,181.41,405.11,180.12Zm13,.76c-2,0-3.25.69-3.88,2.07v.84a4.68,4.68,0,0,0,3.31,2.08c1.45,0,2.75-1,3.88-2.92A3.14,3.14,0,0,0,418.09,180.88Zm22.55,30.37a4.42,4.42,0,0,0-4.83,4q0,1.61,4.83,1.61h.66c.88-.46,1.33-.82,1.33-1.07v-2.38C442.63,212.32,442,211.6,440.64,211.25Zm0,0a4.42,4.42,0,0,0-4.83,4q0,1.61,4.83,1.61h.66c.88-.46,1.33-.82,1.33-1.07v-2.38C442.63,212.32,442,211.6,440.64,211.25Zm-22.55-30.37c-2,0-3.25.69-3.88,2.07v.84a4.68,4.68,0,0,0,3.31,2.08c1.45,0,2.75-1,3.88-2.92A3.14,3.14,0,0,0,418.09,180.88Zm-13-.76h-1.32c-2.84.51-4.26,1.55-4.26,3.14q0,2,4.26,2.38c2.4-1.08,3.6-2.12,3.6-3.15Q407.39,181.41,405.11,180.12Zm-7.86,14.25a7.73,7.73,0,0,0-4,2.38q0,4.22,3.6,4.22h.38c2.4-.36,3.6-1.25,3.6-2.69v-.22Q400.28,194.37,397.25,194.37Zm0,0a7.73,7.73,0,0,0-4,2.38q0,4.22,3.6,4.22h.38c2.4-.36,3.6-1.25,3.6-2.69v-.22Q400.28,194.37,397.25,194.37Zm7.86-14.25h-1.32c-2.84.51-4.26,1.55-4.26,3.14q0,2,4.26,2.38c2.4-1.08,3.6-2.12,3.6-3.15Q407.39,181.41,405.11,180.12Zm13,.76c-2,0-3.25.69-3.88,2.07v.84a4.68,4.68,0,0,0,3.31,2.08c1.45,0,2.75-1,3.88-2.92A3.14,3.14,0,0,0,418.09,180.88Zm22.55,30.37a4.42,4.42,0,0,0-4.83,4q0,1.61,4.83,1.61h.66c.88-.46,1.33-.82,1.33-1.07v-2.38C442.63,212.32,442,211.6,440.64,211.25Zm0,0a4.42,4.42,0,0,0-4.83,4q0,1.61,4.83,1.61h.66c.88-.46,1.33-.82,1.33-1.07v-2.38C442.63,212.32,442,211.6,440.64,211.25Zm-22.55-30.37c-2,0-3.25.69-3.88,2.07v.84a4.68,4.68,0,0,0,3.31,2.08c1.45,0,2.75-1,3.88-2.92A3.14,3.14,0,0,0,418.09,180.88Zm-13-.76h-1.32c-2.84.51-4.26,1.55-4.26,3.14q0,2,4.26,2.38c2.4-1.08,3.6-2.12,3.6-3.15Q407.39,181.41,405.11,180.12Zm-7.86,14.25a7.73,7.73,0,0,0-4,2.38q0,4.22,3.6,4.22h.38c2.4-.36,3.6-1.25,3.6-2.69v-.22Q400.28,194.37,397.25,194.37Zm0,0a7.73,7.73,0,0,0-4,2.38q0,4.22,3.6,4.22h.38c2.4-.36,3.6-1.25,3.6-2.69v-.22Q400.28,194.37,397.25,194.37Zm7.86-14.25h-1.32c-2.84.51-4.26,1.55-4.26,3.14q0,2,4.26,2.38c2.4-1.08,3.6-2.12,3.6-3.15Q407.39,181.41,405.11,180.12Zm13,.76c-2,0-3.25.69-3.88,2.07v.84a4.68,4.68,0,0,0,3.31,2.08c1.45,0,2.75-1,3.88-2.92A3.14,3.14,0,0,0,418.09,180.88Zm22.55,30.37a4.42,4.42,0,0,0-4.83,4q0,1.61,4.83,1.61h.66c.88-.46,1.33-.82,1.33-1.07v-2.38C442.63,212.32,442,211.6,440.64,211.25Zm0,0a4.42,4.42,0,0,0-4.83,4q0,1.61,4.83,1.61h.66c.88-.46,1.33-.82,1.33-1.07v-2.38C442.63,212.32,442,211.6,440.64,211.25Zm-22.55-30.37c-2,0-3.25.69-3.88,2.07v.84a4.68,4.68,0,0,0,3.31,2.08c1.45,0,2.75-1,3.88-2.92A3.14,3.14,0,0,0,418.09,180.88Zm-13-.76h-1.32c-2.84.51-4.26,1.55-4.26,3.14q0,2,4.26,2.38c2.4-1.08,3.6-2.12,3.6-3.15Q407.39,181.41,405.11,180.12Zm-7.86,14.25a7.73,7.73,0,0,0-4,2.38q0,4.22,3.6,4.22h.38c2.4-.36,3.6-1.25,3.6-2.69v-.22Q400.28,194.37,397.25,194.37Zm0,0a7.73,7.73,0,0,0-4,2.38q0,4.22,3.6,4.22h.38c2.4-.36,3.6-1.25,3.6-2.69v-.22Q400.28,194.37,397.25,194.37Zm7.86-14.25h-1.32c-2.84.51-4.26,1.55-4.26,3.14q0,2,4.26,2.38c2.4-1.08,3.6-2.12,3.6-3.15Q407.39,181.41,405.11,180.12Zm13,.76c-2,0-3.25.69-3.88,2.07v.84a4.68,4.68,0,0,0,3.31,2.08c1.45,0,2.75-1,3.88-2.92A3.14,3.14,0,0,0,418.09,180.88Zm22.55,30.37a4.42,4.42,0,0,0-4.83,4q0,1.61,4.83,1.61h.66c.88-.46,1.33-.82,1.33-1.07v-2.38C442.63,212.32,442,211.6,440.64,211.25Zm0,0a4.42,4.42,0,0,0-4.83,4q0,1.61,4.83,1.61h.66c.88-.46,1.33-.82,1.33-1.07v-2.38C442.63,212.32,442,211.6,440.64,211.25Zm-22.55-30.37c-2,0-3.25.69-3.88,2.07v.84a4.68,4.68,0,0,0,3.31,2.08c1.45,0,2.75-1,3.88-2.92A3.14,3.14,0,0,0,418.09,180.88Zm-13-.76h-1.32c-2.84.51-4.26,1.55-4.26,3.14q0,2,4.26,2.38c2.4-1.08,3.6-2.12,3.6-3.15Q407.39,181.41,405.11,180.12Zm-7.86,14.25a7.73,7.73,0,0,0-4,2.38q0,4.22,3.6,4.22h.38c2.4-.36,3.6-1.25,3.6-2.69v-.22Q400.28,194.37,397.25,194.37Zm75.13,50.76a150.25,150.25,0,0,0-9.2-18.56q-9.57-18.93-11.08-21.15l-9.85-19q-10.23-19.25-15-24.53-8.71-14.26-11.75-14.26h-1l-.56.22c0-.15-.13-.22-.38-.22h-2.28q-1.14,0-4.93,6.59-2.26,4.91-6.15,11.57-16.68,34.14-19.9,39.19-5.21,11.5-9.47,17.17c0,2.5-1.2,5.22-3.6,8.13q-3.32,6.9-7.86,15.34-2.17,7.2-3.6,7.2c0,1.73,4,2.61,12.12,2.61,0-.16.1-.24.29-.24l6.53.47a4.35,4.35,0,0,1,1.62-.23h1.61c.44,0,2.52.17,6.25.54h.66q3.89,0,3.89-2.69C391.57,250,393,247.89,393,247l4.92-7.14c0-1.27,2.28-1.91,6.82-1.91,0,.2.13.3.38.3a2.6,2.6,0,0,1,1.23-.3H409l3.89-.23c0,.15.13.23.38.23l.67-.23,1.89.23h12.41c1.13,0,2.78-.08,4.92-.23a12,12,0,0,1,2.94.76q6.63,11.82,8.81,15.1c0,2.82,1.51,4.22,4.55,4.22,4.16-.25,6.25-.51,6.25-.76q8.43-.39,8.43-.85,10.42,0,12.13-3.91C476.26,251.5,475,249.12,472.38,245.13Zm-35.62-57.65H437l1,.76a158.38,158.38,0,0,0,7.76,14.57c0,.46-1.29.82-3.88,1.08a54.3,54.3,0,0,0-14,4.74c-3-3.83-4.54-6.2-4.54-7.13V201c1.89.15,3,.23,3.22.23h.28q10.8,0,10.8-2.38a48.31,48.31,0,0,1-.94-9.73Zm-18.95-30.9h.28q10.8,15,12.41,19v.23q-9.75-.76-12.41-.77l-.95-.54c0-1.53-.09-3.29-.28-5.28Q417.24,156.59,417.81,156.58Zm-4.93-4.75c0-.31.22-.49.67-.54h.38c.31,0,.63.35.94,1.07-.19.51-.85.77-2,.77ZM411,155.5h1l.28,1.61q-.29,7.83-.28,13.19v1.84l-.38,2.68a74.45,74.45,0,0,0-8.81,1.3v-.3a3,3,0,0,0-.95.3l-.95-.53Q400.85,173.82,411,155.5Zm-20.64,87.25q-3.4,7.29-6.16,9.2H366.84l-3.22.31c0-.2-.35-.39-1-.54a1.64,1.64,0,0,1,.37-1.07l-.37-.53c0-.15.12-.23.37-.23a48.44,48.44,0,0,1,3.89-8c1.46-3.32,2.56-5,3.32-5a40.48,40.48,0,0,1,5.49,1.53l-4.26,8.74,1,1.31a3.6,3.6,0,0,0,.95-.23c1.38,0,3.7-2.92,6.91-8.74h.29q.85,0,9.76,2.91Zm27.18-10.35-.38,1.31H410.6a74.8,74.8,0,0,0-9.75.53,16.54,16.54,0,0,0-2.94-.23q-2.46,0-4.64,5.3H393c-6.95-1.75-10.42-3-10.42-3.77,3-5.16,4.55-8,4.55-8.43v-.54c-.33-.5-.64-.76-1-.76h-1.7a4.14,4.14,0,0,0-1.89.54,59.71,59.71,0,0,1-4.64,8.74,14.28,14.28,0,0,1-7.11-1.92q0-.61,2.93-5.29a86,86,0,0,1,7.11-13.95h1.33q2.64,6.36,4.54,7.67,4.08,5.28,14.79,5.28c3-.15,4.54-.43,4.54-.84,2.34,0,4.95-1.3,7.87-3.91v-1.61c-.57-.71-1-1.08-1.33-1.08h-1a2.54,2.54,0,0,0-2.57,1.85q-4.92,1.92-4.92,2.14a30.65,30.65,0,0,1-4.54-.3c-4.18,0-7.77-2.27-10.8-6.83-1.65-3.67-2.72-5.54-3.23-5.59h-.38l-2.27.3c0-1.74,1.1-4,3.31-6.9.63.21,1,.38,1,.54q5.78,8,13.35,8h2.94l1,.45c0,.52-.57,1.49-1.7,2.92,0,.71.79,1.25,2.36,1.6q7.86-.22,10.05-.22h.66a51.7,51.7,0,0,1,1.7,11.58Zm-12.41-42.24a2.61,2.61,0,0,0,.95-.31q4.54.32,7.87.31h4.16c.82,0,1.26,1.13,1.33,3.37v.31h-.29q-.47,0-3.6-.54a4.07,4.07,0,0,0-2.27.77,52.62,52.62,0,0,1-5.87,13.26c0,1-1.65,1.72-4.93,2.07q-5.22,0-10.42-6.05,0-2.16-3.6-3.15c.95-3.11,1.8-5,2.56-5.59q5.58-11.75,8.53-16.1a27.38,27.38,0,0,0,4.26.53,2.71,2.71,0,0,0,.94-.3l.67.3c3.15-.2,4.89-.3,5.2-.3,1,0,3.42.1,7.21.3l1.32-.3a69.06,69.06,0,0,1,9.1,1.07q2.92,0,2.93,10l.38,1.3c-.25,0-.38.11-.38.31.26,2.41.38,4.06.38,5a.94.94,0,0,1-1,1.07h-1.61a14.34,14.34,0,0,1-2.56-.23q-2.35,0-2.36-7.44l.38-.54c0-1.32-1.43-2.2-4.27-2.6h-5.87l-1.61.23c0-.16-2-.33-5.88-.54-3.09.56-4.64,1.18-4.64,1.84v.85C402.08,189.44,403.09,189.8,405.11,190.16Zm43.11,60.18-5.59-8.66q-2-7.44-5.87-7.44h-6.54q-2.28,0-7.21-.23c-.56,0-1-4.85-1.32-14.57-.19,0-.29-.07-.29-.23.32-1.22.64-1.83,1-1.83h4q2,2.37,3.6,2.37c1.71-.87,2.56-1.58,2.56-2.15-2.4-3.36-3.6-5.67-3.6-6.89h1.61q1.61,0,4.93-1.85,6-1.52,11.75-2.6a44.64,44.64,0,0,1,5.87,10.58q-9.3,2.39-11.75,3.68c-5.24,1.23-7.87,2.28-7.87,3.14v.54c.57.72,1,1.07,1.34,1.07h1.32a14.28,14.28,0,0,0,2.94-.53q3.89-1.85,15.34-4.45c.63.1.95.61.95,1.54-.32,0-2.81.78-7.48,2.37q-11.74,3.38-11.75,4.76c0,.5,1,.86,2.94,1.07.19,0,2.14-.43,5.87-1.31q9.28-3.22,12.41-3.22H458a18,18,0,0,0,2.28,4.53v.77h-.95a2.89,2.89,0,0,0-2.66,1.38v2.06l-1.6,4.22h-.38c-1.71,0-4.42-1.12-8.15-3.37h-3.22l-1.33,1v.31q0,1.46,10.42,5.83v.23c0,1.07-1.19,3.81-3.59,8.2ZM471.05,252c-.44,0-.67.11-.67.31q-15.54.77-18.94,1.53a4,4,0,0,1-2.27-.76q0-.54,1.32-.54,2.65,0,5.49-7.36h1.33q6.74,5,8.15,5a3.45,3.45,0,0,0,2.93-1.61v-1l-9.75-6.66v-1a38.61,38.61,0,0,1,2.93-5.83l.67.23,8.81,16.95Zm-30.41-35.11h.66c.88-.46,1.33-.82,1.33-1.07v-2.38c0-1.07-.67-1.79-2-2.14a4.42,4.42,0,0,0-4.83,4Q435.81,216.84,440.64,216.84Zm-23.12-31c1.45,0,2.75-1,3.88-2.92a3.14,3.14,0,0,0-3.31-2.07c-2,0-3.25.69-3.88,2.07v.84A4.68,4.68,0,0,0,417.52,185.87Zm-10.13-3.38q0-1.08-2.28-2.37h-1.32c-2.84.51-4.26,1.55-4.26,3.14q0,2,4.26,2.38C406.19,184.56,407.39,183.52,407.39,182.49Zm-10.14,11.88a7.73,7.73,0,0,0-4,2.38q0,4.22,3.6,4.22h.38c2.4-.36,3.6-1.25,3.6-2.69v-.22Q400.28,194.37,397.25,194.37Zm0,0a7.73,7.73,0,0,0-4,2.38q0,4.22,3.6,4.22h.38c2.4-.36,3.6-1.25,3.6-2.69v-.22Q400.28,194.37,397.25,194.37Zm7.86-14.25h-1.32c-2.84.51-4.26,1.55-4.26,3.14q0,2,4.26,2.38c2.4-1.08,3.6-2.12,3.6-3.15Q407.39,181.41,405.11,180.12Zm13,.76c-2,0-3.25.69-3.88,2.07v.84a4.68,4.68,0,0,0,3.31,2.08c1.45,0,2.75-1,3.88-2.92A3.14,3.14,0,0,0,418.09,180.88Zm22.55,30.37a4.42,4.42,0,0,0-4.83,4q0,1.61,4.83,1.61h.66c.88-.46,1.33-.82,1.33-1.07v-2.38C442.63,212.32,442,211.6,440.64,211.25Zm0,0a4.42,4.42,0,0,0-4.83,4q0,1.61,4.83,1.61h.66c.88-.46,1.33-.82,1.33-1.07v-2.38C442.63,212.32,442,211.6,440.64,211.25Zm-22.55-30.37c-2,0-3.25.69-3.88,2.07v.84a4.68,4.68,0,0,0,3.31,2.08c1.45,0,2.75-1,3.88-2.92A3.14,3.14,0,0,0,418.09,180.88Zm-13-.76h-1.32c-2.84.51-4.26,1.55-4.26,3.14q0,2,4.26,2.38c2.4-1.08,3.6-2.12,3.6-3.15Q407.39,181.41,405.11,180.12Zm-7.86,14.25a7.73,7.73,0,0,0-4,2.38q0,4.22,3.6,4.22h.38c2.4-.36,3.6-1.25,3.6-2.69v-.22Q400.28,194.37,397.25,194.37Zm0,0a7.73,7.73,0,0,0-4,2.38q0,4.22,3.6,4.22h.38c2.4-.36,3.6-1.25,3.6-2.69v-.22Q400.28,194.37,397.25,194.37Zm7.86-14.25h-1.32c-2.84.51-4.26,1.55-4.26,3.14q0,2,4.26,2.38c2.4-1.08,3.6-2.12,3.6-3.15Q407.39,181.41,405.11,180.12Zm13,.76c-2,0-3.25.69-3.88,2.07v.84a4.68,4.68,0,0,0,3.31,2.08c1.45,0,2.75-1,3.88-2.92A3.14,3.14,0,0,0,418.09,180.88Zm22.55,30.37a4.42,4.42,0,0,0-4.83,4q0,1.61,4.83,1.61h.66c.88-.46,1.33-.82,1.33-1.07v-2.38C442.63,212.32,442,211.6,440.64,211.25Zm0,0a4.42,4.42,0,0,0-4.83,4q0,1.61,4.83,1.61h.66c.88-.46,1.33-.82,1.33-1.07v-2.38C442.63,212.32,442,211.6,440.64,211.25Zm-22.55-30.37c-2,0-3.25.69-3.88,2.07v.84a4.68,4.68,0,0,0,3.31,2.08c1.45,0,2.75-1,3.88-2.92A3.14,3.14,0,0,0,418.09,180.88Zm-13-.76h-1.32c-2.84.51-4.26,1.55-4.26,3.14q0,2,4.26,2.38c2.4-1.08,3.6-2.12,3.6-3.15Q407.39,181.41,405.11,180.12Zm-7.86,14.25a7.73,7.73,0,0,0-4,2.38q0,4.22,3.6,4.22h.38c2.4-.36,3.6-1.25,3.6-2.69v-.22Q400.28,194.37,397.25,194.37Zm0,0a7.73,7.73,0,0,0-4,2.38q0,4.22,3.6,4.22h.38c2.4-.36,3.6-1.25,3.6-2.69v-.22Q400.28,194.37,397.25,194.37Zm7.86-14.25h-1.32c-2.84.51-4.26,1.55-4.26,3.14q0,2,4.26,2.38c2.4-1.08,3.6-2.12,3.6-3.15Q407.39,181.41,405.11,180.12Zm13,.76c-2,0-3.25.69-3.88,2.07v.84a4.68,4.68,0,0,0,3.31,2.08c1.45,0,2.75-1,3.88-2.92A3.14,3.14,0,0,0,418.09,180.88Zm22.55,30.37a4.42,4.42,0,0,0-4.83,4q0,1.61,4.83,1.61h.66c.88-.46,1.33-.82,1.33-1.07v-2.38C442.63,212.32,442,211.6,440.64,211.25Zm0,0a4.42,4.42,0,0,0-4.83,4q0,1.61,4.83,1.61h.66c.88-.46,1.33-.82,1.33-1.07v-2.38C442.63,212.32,442,211.6,440.64,211.25Zm-22.55-30.37c-2,0-3.25.69-3.88,2.07v.84a4.68,4.68,0,0,0,3.31,2.08c1.45,0,2.75-1,3.88-2.92A3.14,3.14,0,0,0,418.09,180.88Zm-13-.76h-1.32c-2.84.51-4.26,1.55-4.26,3.14q0,2,4.26,2.38c2.4-1.08,3.6-2.12,3.6-3.15Q407.39,181.41,405.11,180.12Zm-7.86,14.25a7.73,7.73,0,0,0-4,2.38q0,4.22,3.6,4.22h.38c2.4-.36,3.6-1.25,3.6-2.69v-.22Q400.28,194.37,397.25,194.37Zm0,0a7.73,7.73,0,0,0-4,2.38q0,4.22,3.6,4.22h.38c2.4-.36,3.6-1.25,3.6-2.69v-.22Q400.28,194.37,397.25,194.37Zm7.86-14.25h-1.32c-2.84.51-4.26,1.55-4.26,3.14q0,2,4.26,2.38c2.4-1.08,3.6-2.12,3.6-3.15Q407.39,181.41,405.11,180.12Zm13,.76c-2,0-3.25.69-3.88,2.07v.84a4.68,4.68,0,0,0,3.31,2.08c1.45,0,2.75-1,3.88-2.92A3.14,3.14,0,0,0,418.09,180.88Zm-20.84,13.49a7.73,7.73,0,0,0-4,2.38q0,4.22,3.6,4.22h.38c2.4-.36,3.6-1.25,3.6-2.69v-.22Q400.28,194.37,397.25,194.37Zm7.86-14.25h-1.32c-2.84.51-4.26,1.55-4.26,3.14q0,2,4.26,2.38c2.4-1.08,3.6-2.12,3.6-3.15Q407.39,181.41,405.11,180.12Zm13,.76c-2,0-3.25.69-3.88,2.07v.84a4.68,4.68,0,0,0,3.31,2.08c1.45,0,2.75-1,3.88-2.92A3.14,3.14,0,0,0,418.09,180.88Zm22.55,30.37a4.42,4.42,0,0,0-4.83,4q0,1.61,4.83,1.61h.66c.88-.46,1.33-.82,1.33-1.07v-2.38C442.63,212.32,442,211.6,440.64,211.25Zm0,0a4.42,4.42,0,0,0-4.83,4q0,1.61,4.83,1.61h.66c.88-.46,1.33-.82,1.33-1.07v-2.38C442.63,212.32,442,211.6,440.64,211.25Z"/><path d="M495,244.82a4.74,4.74,0,0,0-3.42,1.92v3.07c.69,1.28,2,1.91,4.08,1.91h.38q3.78-1.29,3.78-4.14A5.1,5.1,0,0,0,495,244.82Zm16.67-52.67H511q-4.72,1.31-4.73,3.07,0,3,4.45,3.6a5.38,5.38,0,0,0,4.73-2.53v-1.38Q515.47,192.84,511.69,192.15Zm39.88-1.07q-5.12.76-5.12,4.14v.22c1.52,1.49,2.87,2.23,4.07,2.23q5.51-.76,5.5-4.14C555.33,191.89,553.85,191.08,551.57,191.08Zm17,55.12c-2.21,0-3.57,1.21-4.07,3.61a3.14,3.14,0,0,0,3,1.61h1c2,0,3.09-1.18,3.41-3.53v-.61C572,246.87,570.89,246.51,568.62,246.2Zm-17-55.12q-5.12.76-5.12,4.14v.22c1.52,1.49,2.87,2.23,4.07,2.23q5.51-.76,5.5-4.14C555.33,191.89,553.85,191.08,551.57,191.08Zm17,55.12c-2.21,0-3.57,1.21-4.07,3.61a3.14,3.14,0,0,0,3,1.61h1c2,0,3.09-1.18,3.41-3.53v-.61C572,246.87,570.89,246.51,568.62,246.2Zm-56.93-54H511q-4.72,1.31-4.73,3.07,0,3,4.45,3.6a5.38,5.38,0,0,0,4.73-2.53v-1.38Q515.47,192.84,511.69,192.15ZM495,244.82a4.74,4.74,0,0,0-3.42,1.92v3.07c.69,1.28,2,1.91,4.08,1.91h.38q3.78-1.29,3.78-4.14A5.1,5.1,0,0,0,495,244.82Zm0,0a4.74,4.74,0,0,0-3.42,1.92v3.07c.69,1.28,2,1.91,4.08,1.91h.38q3.78-1.29,3.78-4.14A5.1,5.1,0,0,0,495,244.82Zm16.67-52.67H511q-4.72,1.31-4.73,3.07,0,3,4.45,3.6a5.38,5.38,0,0,0,4.73-2.53v-1.38Q515.47,192.84,511.69,192.15Zm39.88-1.07q-5.12.76-5.12,4.14v.22c1.52,1.49,2.87,2.23,4.07,2.23q5.51-.76,5.5-4.14C555.33,191.89,553.85,191.08,551.57,191.08Zm17,55.12c-2.21,0-3.57,1.21-4.07,3.61a3.14,3.14,0,0,0,3,1.61h1c2,0,3.09-1.18,3.41-3.53v-.61C572,246.87,570.89,246.51,568.62,246.2Zm-17-55.12q-5.12.76-5.12,4.14v.22c1.52,1.49,2.87,2.23,4.07,2.23q5.51-.76,5.5-4.14C555.33,191.89,553.85,191.08,551.57,191.08Zm17,55.12c-2.21,0-3.57,1.21-4.07,3.61a3.14,3.14,0,0,0,3,1.61h1c2,0,3.09-1.18,3.41-3.53v-.61C572,246.87,570.89,246.51,568.62,246.2Zm-56.93-54H511q-4.72,1.31-4.73,3.07,0,3,4.45,3.6a5.38,5.38,0,0,0,4.73-2.53v-1.38Q515.47,192.84,511.69,192.15ZM495,244.82a4.74,4.74,0,0,0-3.42,1.92v3.07c.69,1.28,2,1.91,4.08,1.91h.38q3.78-1.29,3.78-4.14A5.1,5.1,0,0,0,495,244.82Zm0,0a4.74,4.74,0,0,0-3.42,1.92v3.07c.69,1.28,2,1.91,4.08,1.91h.38q3.78-1.29,3.78-4.14A5.1,5.1,0,0,0,495,244.82Zm16.67-52.67H511q-4.72,1.31-4.73,3.07,0,3,4.45,3.6a5.38,5.38,0,0,0,4.73-2.53v-1.38Q515.47,192.84,511.69,192.15Zm39.88-1.07q-5.12.76-5.12,4.14v.22c1.52,1.49,2.87,2.23,4.07,2.23q5.51-.76,5.5-4.14C555.33,191.89,553.85,191.08,551.57,191.08Zm17,55.12c-2.21,0-3.57,1.21-4.07,3.61a3.14,3.14,0,0,0,3,1.61h1c2,0,3.09-1.18,3.41-3.53v-.61C572,246.87,570.89,246.51,568.62,246.2Zm-17-55.12q-5.12.76-5.12,4.14v.22c1.52,1.49,2.87,2.23,4.07,2.23q5.51-.76,5.5-4.14C555.33,191.89,553.85,191.08,551.57,191.08Zm17,55.12c-2.21,0-3.57,1.21-4.07,3.61a3.14,3.14,0,0,0,3,1.61h1c2,0,3.09-1.18,3.41-3.53v-.61C572,246.87,570.89,246.51,568.62,246.2Zm-56.93-54H511q-4.72,1.31-4.73,3.07,0,3,4.45,3.6a5.38,5.38,0,0,0,4.73-2.53v-1.38Q515.47,192.84,511.69,192.15ZM495,244.82a4.74,4.74,0,0,0-3.42,1.92v3.07c.69,1.28,2,1.91,4.08,1.91h.38q3.78-1.29,3.78-4.14A5.1,5.1,0,0,0,495,244.82Zm0,0a4.74,4.74,0,0,0-3.42,1.92v3.07c.69,1.28,2,1.91,4.08,1.91h.38q3.78-1.29,3.78-4.14A5.1,5.1,0,0,0,495,244.82Zm16.67-52.67H511q-4.72,1.31-4.73,3.07,0,3,4.45,3.6a5.38,5.38,0,0,0,4.73-2.53v-1.38Q515.47,192.84,511.69,192.15Zm39.88-1.07q-5.12.76-5.12,4.14v.22c1.52,1.49,2.87,2.23,4.07,2.23q5.51-.76,5.5-4.14C555.33,191.89,553.85,191.08,551.57,191.08Zm17,55.12c-2.21,0-3.57,1.21-4.07,3.61a3.14,3.14,0,0,0,3,1.61h1c2,0,3.09-1.18,3.41-3.53v-.61C572,246.87,570.89,246.51,568.62,246.2Zm-17-55.12q-5.12.76-5.12,4.14v.22c1.52,1.49,2.87,2.23,4.07,2.23q5.51-.76,5.5-4.14C555.33,191.89,553.85,191.08,551.57,191.08Zm17,55.12c-2.21,0-3.57,1.21-4.07,3.61a3.14,3.14,0,0,0,3,1.61h1c2,0,3.09-1.18,3.41-3.53v-.61C572,246.87,570.89,246.51,568.62,246.2Zm-56.93-54H511q-4.72,1.31-4.73,3.07,0,3,4.45,3.6a5.38,5.38,0,0,0,4.73-2.53v-1.38Q515.47,192.84,511.69,192.15ZM495,244.82a4.74,4.74,0,0,0-3.42,1.92v3.07c.69,1.28,2,1.91,4.08,1.91h.38q3.78-1.29,3.78-4.14A5.1,5.1,0,0,0,495,244.82Zm0,0a4.74,4.74,0,0,0-3.42,1.92v3.07c.69,1.28,2,1.91,4.08,1.91h.38q3.78-1.29,3.78-4.14A5.1,5.1,0,0,0,495,244.82Zm16.67-52.67H511q-4.72,1.31-4.73,3.07,0,3,4.45,3.6a5.38,5.38,0,0,0,4.73-2.53v-1.38Q515.47,192.84,511.69,192.15Zm39.88-1.07q-5.12.76-5.12,4.14v.22c1.52,1.49,2.87,2.23,4.07,2.23q5.51-.76,5.5-4.14C555.33,191.89,553.85,191.08,551.57,191.08Zm17,55.12c-2.21,0-3.57,1.21-4.07,3.61a3.14,3.14,0,0,0,3,1.61h1c2,0,3.09-1.18,3.41-3.53v-.61C572,246.87,570.89,246.51,568.62,246.2Zm-17-55.12q-5.12.76-5.12,4.14v.22c1.52,1.49,2.87,2.23,4.07,2.23q5.51-.76,5.5-4.14C555.33,191.89,553.85,191.08,551.57,191.08Zm17,55.12c-2.21,0-3.57,1.21-4.07,3.61a3.14,3.14,0,0,0,3,1.61h1c2,0,3.09-1.18,3.41-3.53v-.61C572,246.87,570.89,246.51,568.62,246.2Zm-56.93-54H511q-4.72,1.31-4.73,3.07,0,3,4.45,3.6a5.38,5.38,0,0,0,4.73-2.53v-1.38Q515.47,192.84,511.69,192.15ZM495,244.82a4.74,4.74,0,0,0-3.42,1.92v3.07c.69,1.28,2,1.91,4.08,1.91h.38q3.78-1.29,3.78-4.14A5.1,5.1,0,0,0,495,244.82Zm0,0a4.74,4.74,0,0,0-3.42,1.92v3.07c.69,1.28,2,1.91,4.08,1.91h.38q3.78-1.29,3.78-4.14A5.1,5.1,0,0,0,495,244.82Zm16.67-52.67H511q-4.72,1.31-4.73,3.07,0,3,4.45,3.6a5.38,5.38,0,0,0,4.73-2.53v-1.38Q515.47,192.84,511.69,192.15Zm39.88-1.07q-5.12.76-5.12,4.14v.22c1.52,1.49,2.87,2.23,4.07,2.23q5.51-.76,5.5-4.14C555.33,191.89,553.85,191.08,551.57,191.08Zm17,55.12c-2.21,0-3.57,1.21-4.07,3.61a3.14,3.14,0,0,0,3,1.61h1c2,0,3.09-1.18,3.41-3.53v-.61C572,246.87,570.89,246.51,568.62,246.2Zm-17-55.12q-5.12.76-5.12,4.14v.22c1.52,1.49,2.87,2.23,4.07,2.23q5.51-.76,5.5-4.14C555.33,191.89,553.85,191.08,551.57,191.08Zm17,55.12c-2.21,0-3.57,1.21-4.07,3.61a3.14,3.14,0,0,0,3,1.61h1c2,0,3.09-1.18,3.41-3.53v-.61C572,246.87,570.89,246.51,568.62,246.2Zm-56.93-54H511q-4.72,1.31-4.73,3.07,0,3,4.45,3.6a5.38,5.38,0,0,0,4.73-2.53v-1.38Q515.47,192.84,511.69,192.15ZM495,244.82a4.74,4.74,0,0,0-3.42,1.92v3.07c.69,1.28,2,1.91,4.08,1.91h.38q3.78-1.29,3.78-4.14A5.1,5.1,0,0,0,495,244.82Zm0,0a4.74,4.74,0,0,0-3.42,1.92v3.07c.69,1.28,2,1.91,4.08,1.91h.38q3.78-1.29,3.78-4.14A5.1,5.1,0,0,0,495,244.82Zm16.67-52.67H511q-4.72,1.31-4.73,3.07,0,3,4.45,3.6a5.38,5.38,0,0,0,4.73-2.53v-1.38Q515.47,192.84,511.69,192.15Zm39.88-1.07q-5.12.76-5.12,4.14v.22c1.52,1.49,2.87,2.23,4.07,2.23q5.51-.76,5.5-4.14C555.33,191.89,553.85,191.08,551.57,191.08Zm17,55.12c-2.21,0-3.57,1.21-4.07,3.61a3.14,3.14,0,0,0,3,1.61h1c2,0,3.09-1.18,3.41-3.53v-.61C572,246.87,570.89,246.51,568.62,246.2Zm-17-55.12q-5.12.76-5.12,4.14v.22c1.52,1.49,2.87,2.23,4.07,2.23q5.51-.76,5.5-4.14C555.33,191.89,553.85,191.08,551.57,191.08Zm17,55.12c-2.21,0-3.57,1.21-4.07,3.61a3.14,3.14,0,0,0,3,1.61h1c2,0,3.09-1.18,3.41-3.53v-.61C572,246.87,570.89,246.51,568.62,246.2Zm-56.93-54H511q-4.72,1.31-4.73,3.07,0,3,4.45,3.6a5.38,5.38,0,0,0,4.73-2.53v-1.38Q515.47,192.84,511.69,192.15ZM495,244.82a4.74,4.74,0,0,0-3.42,1.92v3.07c.69,1.28,2,1.91,4.08,1.91h.38q3.78-1.29,3.78-4.14A5.1,5.1,0,0,0,495,244.82Zm0,0a4.74,4.74,0,0,0-3.42,1.92v3.07c.69,1.28,2,1.91,4.08,1.91h.38q3.78-1.29,3.78-4.14A5.1,5.1,0,0,0,495,244.82Zm16.67-52.67H511q-4.72,1.31-4.73,3.07,0,3,4.45,3.6a5.38,5.38,0,0,0,4.73-2.53v-1.38Q515.47,192.84,511.69,192.15Zm39.88-1.07q-5.12.76-5.12,4.14v.22c1.52,1.49,2.87,2.23,4.07,2.23q5.51-.76,5.5-4.14C555.33,191.89,553.85,191.08,551.57,191.08Zm17,55.12c-2.21,0-3.57,1.21-4.07,3.61a3.14,3.14,0,0,0,3,1.61h1c2,0,3.09-1.18,3.41-3.53v-.61C572,246.87,570.89,246.51,568.62,246.2Zm-17-55.12q-5.12.76-5.12,4.14v.22c1.52,1.49,2.87,2.23,4.07,2.23q5.51-.76,5.5-4.14C555.33,191.89,553.85,191.08,551.57,191.08Zm17,55.12c-2.21,0-3.57,1.21-4.07,3.61a3.14,3.14,0,0,0,3,1.61h1c2,0,3.09-1.18,3.41-3.53v-.61C572,246.87,570.89,246.51,568.62,246.2Zm-56.93-54H511q-4.72,1.31-4.73,3.07,0,3,4.45,3.6a5.38,5.38,0,0,0,4.73-2.53v-1.38Q515.47,192.84,511.69,192.15ZM495,244.82a4.74,4.74,0,0,0-3.42,1.92v3.07c.69,1.28,2,1.91,4.08,1.91h.38q3.78-1.29,3.78-4.14A5.1,5.1,0,0,0,495,244.82Zm0,0a4.74,4.74,0,0,0-3.42,1.92v3.07c.69,1.28,2,1.91,4.08,1.91h.38q3.78-1.29,3.78-4.14A5.1,5.1,0,0,0,495,244.82Zm16.67-52.67H511q-4.72,1.31-4.73,3.07,0,3,4.45,3.6a5.38,5.38,0,0,0,4.73-2.53v-1.38Q515.47,192.84,511.69,192.15Zm39.88-1.07q-5.12.76-5.12,4.14v.22c1.52,1.49,2.87,2.23,4.07,2.23q5.51-.76,5.5-4.14C555.33,191.89,553.85,191.08,551.57,191.08Zm17,55.12c-2.21,0-3.57,1.21-4.07,3.61a3.14,3.14,0,0,0,3,1.61h1c2,0,3.09-1.18,3.41-3.53v-.61C572,246.87,570.89,246.51,568.62,246.2Zm-17-55.12q-5.12.76-5.12,4.14v.22c1.52,1.49,2.87,2.23,4.07,2.23q5.51-.76,5.5-4.14C555.33,191.89,553.85,191.08,551.57,191.08Zm17,55.12c-2.21,0-3.57,1.21-4.07,3.61a3.14,3.14,0,0,0,3,1.61h1c2,0,3.09-1.18,3.41-3.53v-.61C572,246.87,570.89,246.51,568.62,246.2Zm-56.93-54H511q-4.72,1.31-4.73,3.07,0,3,4.45,3.6a5.38,5.38,0,0,0,4.73-2.53v-1.38Q515.47,192.84,511.69,192.15ZM495,244.82a4.74,4.74,0,0,0-3.42,1.92v3.07c.69,1.28,2,1.91,4.08,1.91h.38q3.78-1.29,3.78-4.14A5.1,5.1,0,0,0,495,244.82Zm86.86-45.77q.66-9.44,1.71-34.42l-.67-4.14.29-.54-.29-1.38.29-1.92a5.2,5.2,0,0,0-3.41-5.29h-1.7l-1,.54L552.9,174.51q-7.21,6.68-18,17.41-3.14,4.14-3.79,4.14h-.29L524,188.63,508.28,169.3a114.4,114.4,0,0,0-16.68-17.94,28.05,28.05,0,0,1-6.06-3.83h-1l-2.75,1.61a10.07,10.07,0,0,0,.38,2.22l-.38,2.53.67,2.46-.67,18.16a17,17,0,0,1,.38,3.07c-.26,6.5-.38,11-.38,13.5l.38,1.37c-.26,0-.38.12-.38.31a24.88,24.88,0,0,1,.38,3.84v7.74l.29,1.92c-.19,0-.29.36-.29,1.07v.31a2,2,0,0,0,.29,1.07l-.29.54c.19,2.3.29,3.61.29,3.91a2,2,0,0,1-.29,1.08,2,2,0,0,1,.29,1.07v1.92a13.77,13.77,0,0,1-.29,2.76,9.81,9.81,0,0,1,.29,2.52v3.3l.38.54h-.38c0,.66.12,2.61.38,5.83a1.7,1.7,0,0,1-.38,1.07l.38,1.69v5.75a44.45,44.45,0,0,1-.38,5.2,2.11,2.11,0,0,1,.38,1.16,23.5,23.5,0,0,0-.67,3.6q0,.22.67,5.45l2.74,1.38,1.71-.23h8.81l2.36.23c0-.15.13-.23.38-.23l4.07.23a14.51,14.51,0,0,0,2.38-.23,3.46,3.46,0,0,0,1,.23H507c1.33,0,2.46-1.46,3.41-4.37a42.94,42.94,0,0,1-.38-5.22v-6.37l.38-1.38c-.25,0-.38-.27-.38-.83v-.54c0-2.35.13-4.94.38-7.75L510,230a6.73,6.73,0,0,0,.38-2.22v-1.61l-.38-.62h.38a2.43,2.43,0,0,0-.38-1.61c0-.15.13-.89.38-2.22q0-3.45-.66-9.66l.66-.23h.38q19.51,18.94,20.37,19h.38a18.29,18.29,0,0,1,4.45-1.69q.38,0,5.4-5.22,7.67-8.65,14-15.18h.28v1.69a17.13,17.13,0,0,0,.38,4.37,37.75,37.75,0,0,0-.38,5.22v8.27l.38,1.38c-.25,0-.38.29-.38.85v.31a34.44,34.44,0,0,0,.38,4.9l-.38,1.15a6.44,6.44,0,0,1,.38,2.22v.55l-.38,2.75c.26,0,.38.08.38.24-.25,0-.38.1-.38.29V244a2,2,0,0,0,.38,1.15l-.66,2.45c.19.47.28,2.84.28,7.13,0,1.08.79,2,2.37,2.77h3.12c1.39,0,3.1.1,5.12.3a75.63,75.63,0,0,1,7.77-.53q6.26,0,7.48-2.54v-5.44a1.77,1.77,0,0,1,.38-1.15,1.65,1.65,0,0,1-.38-1.07v-8a11,11,0,0,1,.38-2.52c-.25-.21-.38-.85-.38-1.92v-2.76a2,2,0,0,0-.28-1.07l.28-.62q.39-9.81.38-15.41v-4.14l.38-3.3c-.25,0-.38-.1-.38-.3a9.79,9.79,0,0,0,.38-2.46V203.5l-.38-1.38c.26,0,.38-.28.38-.85V201l-.38-.54h.38A2.1,2.1,0,0,0,581.88,199.05Zm-93.69-34.42v-2.76a11.15,11.15,0,0,1,.38-2.53c-.25-.21-.38-.85-.38-1.92V155.5Q490.56,157,498.42,166v.54l-1.7,1.37q-5.4,2-5.4,7.44c.94,4,2.75,6.06,5.4,6.06h1.7c1.14,0,1.83-.29,2.09-.85v-.76q-3.13-2.22-3.13-3.38v-1.07c0-2,1.27-3.78,3.79-5.22h.66l6.16,7.67v.85c-.94.71-1.64,2.1-2.08,4.14q-2.48,6.06-7.77,6.06-5.88-1.31-5.88-2.76-2.83,0-4.35-12.12C488.1,170.45,488.19,167.34,488.19,164.63Zm0,43.78a10.55,10.55,0,0,0,.38-2.76,3.52,3.52,0,0,0,1-.23,84.07,84.07,0,0,1,12.89.84c.94,0,1.42.64,1.42,1.92v6.06c0,.3-.7.58-2.09.83q-7.95-.52-12.88-.53c-.25,0-.51-.28-.76-.84a13.1,13.1,0,0,1,.38-1.69A25.23,25.23,0,0,0,488.19,208.41Zm.76,9.42c7.52.16,11.81.41,12.88.78v.3h-.28a25.83,25.83,0,0,1-4.17,4.67,55,55,0,0,1-9.19-3.83v-1.14Zm5,8.52v.53a35.11,35.11,0,0,1-4.37,3.61H489a46.1,46.1,0,0,1-.38-4.68v-1.92l.38-.53A18.39,18.39,0,0,1,494,226.35Zm9.94,24.84c0,1.33-.35,2-1.05,2.14H490.94c-1.58,0-2.37-.71-2.37-2.14a45.88,45.88,0,0,0,.38-5.52v-3.06c0-.37,1-.64,3-.85,2.15.21,4.2.3,6.16.3h1.33l2.36-.3c1.39.25,2.09.92,2.09,2ZM493,238.77c-3,0-4.46-.28-4.46-.84V235.7a1.65,1.65,0,0,1,.38-1.07,60.48,60.48,0,0,0,8.81-5.52,15.27,15.27,0,0,0,4.07,3.07c1.58,0,2.37,1.83,2.37,5.52Q504.2,238.77,493,238.77Zm11.17-10.51h-.66c-1.83-1-2.75-1.61-2.75-1.91v-.23c2.08-2.1,3.13-3.3,3.13-3.61h.28Zm0-8.82h-.95v-.83a2.31,2.31,0,0,0,.95.3Zm11.65-11a85.72,85.72,0,0,1-7.57-6.29,23.14,23.14,0,0,0-4.36.84c0-.45-5.12-.74-15.35-.84l-.38-1.38v-1.92q0-3.52-.28-8.58a2,2,0,0,0,.28-.85H489c3.34,1.84,5.85,2.76,7.49,2.76a28.66,28.66,0,0,0,8.14-1.07q7.11-3.83,7.11-7.21h.75l.67.31q4.54,6.13,8.52,10.5c-.94,2.92-1.64,4.37-2.08,4.37C517.59,205.23,516.36,208.36,515.85,208.41Zm12.88,11c0,.37-.22.55-.66.55l-4.45-4.37q-4.07-3.47-4.07-4.14c0-.47,1.58-4.68,4.73-12.66H525q3.69,2.84,3.69,4.68Zm4.75,3.92h-.29V207.64c0-1.23-.12-3.07-.38-5.52,1.83-1.43,2.75-2.35,2.75-2.76h.66q2.74,1.53,6.82,14Q535.09,222.36,533.48,223.36Zm27.65-3.61v-1.68h3.42l3.41.3c0-.2.09-.3.28-.3l5.11.84c-1.83,2.36-3.18,3.73-4.07,4.14h-.37l-3.7-2.23C562.49,220.47,561.13,220.11,561.13,219.75Zm4.75,6.6a30.48,30.48,0,0,1-4.08,3.83h-.38v-7.13Q565.77,225.51,565.88,226.35Zm9.85,26.45-.67.84-5.4-.31q-6.81.31-7.58.31l-.66-.31a9.22,9.22,0,0,1,.38-2.14l-.38-1.69a10.38,10.38,0,0,1,.38-1.61l-.38-2a10.36,10.36,0,0,0,.38-2.75q6.74,0,13,.3h.67v5l.29,2.76c-.2,0-.29.18-.29.53Zm0-14.57a2.67,2.67,0,0,1-.67,1.61l-1.71-.22H567.2l-1-.55H561.8c0-.3-.13-1.43-.38-3.37l.38-1.61c1.32-.3,3.6-1.87,6.82-4.68h1c1.58,2.36,3.51,3.53,5.78,3.53.19,1.84.29,3.22.29,4.14Zm-.29-10h-.38c-.19,0-.85-.64-2-1.91v-.23c0-.87.88-2.07,2.66-3.61h.38A48,48,0,0,1,575.44,228.26Zm.67-19.24a27.52,27.52,0,0,1-.38,3.84,1.68,1.68,0,0,1,.38,1.07l-.38,1.14c-2.34,0-6.07-.17-11.18-.53a26.83,26.83,0,0,1-2.75.23l-.67-.84v-.23q0-3.15-.37-8l.37-.54q0-.31,9.2-.54a22.33,22.33,0,0,0,5.78.85Zm.27-17.1-.27,1.38c.18,0,.27.08.27.23l-.27,1.69v6.05l-.38.54-5.4-.84-8.25.61c0-.92-.88-1.76-2.65-2.53l-2.74.54L547.78,209h-1.33a14.25,14.25,0,0,0-1.32-3.91q-3.6-8.13-5.5-9.05c0-1,1.62-3,4.83-5.82q7.2-7.14,7.77-7.13c.25,0,.38.25.38.76q3.79,8.28,13.64,8.28h3q3.32,0,7.1-3.29Zm.77-19.86-.38,2.76c.25,0,.38.08.38.23l-.38,1.69v3.6c0,.42-.8.77-2.37,1.08Q571.55,188,568,188l-3.41-.23q-6.82-2.07-6.82-7.21l.28-1.07c-.19,0-.5-.35-1-1.07v-.31a12.25,12.25,0,0,1,3-3.07q3-3.83,6.83-3.83a4.73,4.73,0,0,1,1.32,3.07,14.51,14.51,0,0,1-1.32,3.52c-3.42,1-5.12,1.77-5.12,2.23v.53c0,.41,1.35.7,4.08.85,2.71-.15,4.07-.51,4.07-1.08q2.46,0,4.45-5v-2.23c0-2.6-2.06-4.44-6.16-5.51a69,69,0,0,1,8.53-8.51l.38,2.76Zm-8.53,74.14c-2.21,0-3.57,1.21-4.07,3.61a3.14,3.14,0,0,0,3,1.61h1c2,0,3.09-1.18,3.41-3.53v-.61C572,246.87,570.89,246.51,568.62,246.2Zm-17-55.12q-5.12.76-5.12,4.14v.22c1.52,1.49,2.87,2.23,4.07,2.23q5.51-.76,5.5-4.14C555.33,191.89,553.85,191.08,551.57,191.08Zm-39.88,1.07H511q-4.72,1.31-4.73,3.07,0,3,4.45,3.6a5.38,5.38,0,0,0,4.73-2.53v-1.38Q515.47,192.84,511.69,192.15ZM495,244.82a4.74,4.74,0,0,0-3.42,1.92v3.07c.69,1.28,2,1.91,4.08,1.91h.38q3.78-1.29,3.78-4.14A5.1,5.1,0,0,0,495,244.82Zm0,0a4.74,4.74,0,0,0-3.42,1.92v3.07c.69,1.28,2,1.91,4.08,1.91h.38q3.78-1.29,3.78-4.14A5.1,5.1,0,0,0,495,244.82Zm16.67-52.67H511q-4.72,1.31-4.73,3.07,0,3,4.45,3.6a5.38,5.38,0,0,0,4.73-2.53v-1.38Q515.47,192.84,511.69,192.15Zm56.93,54c-2.21,0-3.57,1.21-4.07,3.61a3.14,3.14,0,0,0,3,1.61h1c2,0,3.09-1.18,3.41-3.53v-.61C572,246.87,570.89,246.51,568.62,246.2Zm-17-55.12q-5.12.76-5.12,4.14v.22c1.52,1.49,2.87,2.23,4.07,2.23q5.51-.76,5.5-4.14C555.33,191.89,553.85,191.08,551.57,191.08Zm17,55.12c-2.21,0-3.57,1.21-4.07,3.61a3.14,3.14,0,0,0,3,1.61h1c2,0,3.09-1.18,3.41-3.53v-.61C572,246.87,570.89,246.51,568.62,246.2Zm-17-55.12q-5.12.76-5.12,4.14v.22c1.52,1.49,2.87,2.23,4.07,2.23q5.51-.76,5.5-4.14C555.33,191.89,553.85,191.08,551.57,191.08Zm-39.88,1.07H511q-4.72,1.31-4.73,3.07,0,3,4.45,3.6a5.38,5.38,0,0,0,4.73-2.53v-1.38Q515.47,192.84,511.69,192.15ZM495,244.82a4.74,4.74,0,0,0-3.42,1.92v3.07c.69,1.28,2,1.91,4.08,1.91h.38q3.78-1.29,3.78-4.14A5.1,5.1,0,0,0,495,244.82Zm0,0a4.74,4.74,0,0,0-3.42,1.92v3.07c.69,1.28,2,1.91,4.08,1.91h.38q3.78-1.29,3.78-4.14A5.1,5.1,0,0,0,495,244.82Zm16.67-52.67H511q-4.72,1.31-4.73,3.07,0,3,4.45,3.6a5.38,5.38,0,0,0,4.73-2.53v-1.38Q515.47,192.84,511.69,192.15Zm56.93,54c-2.21,0-3.57,1.21-4.07,3.61a3.14,3.14,0,0,0,3,1.61h1c2,0,3.09-1.18,3.41-3.53v-.61C572,246.87,570.89,246.51,568.62,246.2Zm-17-55.12q-5.12.76-5.12,4.14v.22c1.52,1.49,2.87,2.23,4.07,2.23q5.51-.76,5.5-4.14C555.33,191.89,553.85,191.08,551.57,191.08Zm17,55.12c-2.21,0-3.57,1.21-4.07,3.61a3.14,3.14,0,0,0,3,1.61h1c2,0,3.09-1.18,3.41-3.53v-.61C572,246.87,570.89,246.51,568.62,246.2Zm-17-55.12q-5.12.76-5.12,4.14v.22c1.52,1.49,2.87,2.23,4.07,2.23q5.51-.76,5.5-4.14C555.33,191.89,553.85,191.08,551.57,191.08Zm-39.88,1.07H511q-4.72,1.31-4.73,3.07,0,3,4.45,3.6a5.38,5.38,0,0,0,4.73-2.53v-1.38Q515.47,192.84,511.69,192.15ZM495,244.82a4.74,4.74,0,0,0-3.42,1.92v3.07c.69,1.28,2,1.91,4.08,1.91h.38q3.78-1.29,3.78-4.14A5.1,5.1,0,0,0,495,244.82Zm0,0a4.74,4.74,0,0,0-3.42,1.92v3.07c.69,1.28,2,1.91,4.08,1.91h.38q3.78-1.29,3.78-4.14A5.1,5.1,0,0,0,495,244.82Zm16.67-52.67H511q-4.72,1.31-4.73,3.07,0,3,4.45,3.6a5.38,5.38,0,0,0,4.73-2.53v-1.38Q515.47,192.84,511.69,192.15Zm56.93,54c-2.21,0-3.57,1.21-4.07,3.61a3.14,3.14,0,0,0,3,1.61h1c2,0,3.09-1.18,3.41-3.53v-.61C572,246.87,570.89,246.51,568.62,246.2Zm-17-55.12q-5.12.76-5.12,4.14v.22c1.52,1.49,2.87,2.23,4.07,2.23q5.51-.76,5.5-4.14C555.33,191.89,553.85,191.08,551.57,191.08Zm17,55.12c-2.21,0-3.57,1.21-4.07,3.61a3.14,3.14,0,0,0,3,1.61h1c2,0,3.09-1.18,3.41-3.53v-.61C572,246.87,570.89,246.51,568.62,246.2Zm-17-55.12q-5.12.76-5.12,4.14v.22c1.52,1.49,2.87,2.23,4.07,2.23q5.51-.76,5.5-4.14C555.33,191.89,553.85,191.08,551.57,191.08Zm-39.88,1.07H511q-4.72,1.31-4.73,3.07,0,3,4.45,3.6a5.38,5.38,0,0,0,4.73-2.53v-1.38Q515.47,192.84,511.69,192.15ZM495,244.82a4.74,4.74,0,0,0-3.42,1.92v3.07c.69,1.28,2,1.91,4.08,1.91h.38q3.78-1.29,3.78-4.14A5.1,5.1,0,0,0,495,244.82Zm0,0a4.74,4.74,0,0,0-3.42,1.92v3.07c.69,1.28,2,1.91,4.08,1.91h.38q3.78-1.29,3.78-4.14A5.1,5.1,0,0,0,495,244.82Zm16.67-52.67H511q-4.72,1.31-4.73,3.07,0,3,4.45,3.6a5.38,5.38,0,0,0,4.73-2.53v-1.38Q515.47,192.84,511.69,192.15Zm56.93,54c-2.21,0-3.57,1.21-4.07,3.61a3.14,3.14,0,0,0,3,1.61h1c2,0,3.09-1.18,3.41-3.53v-.61C572,246.87,570.89,246.51,568.62,246.2Zm-17-55.12q-5.12.76-5.12,4.14v.22c1.52,1.49,2.87,2.23,4.07,2.23q5.51-.76,5.5-4.14C555.33,191.89,553.85,191.08,551.57,191.08Zm17,55.12c-2.21,0-3.57,1.21-4.07,3.61a3.14,3.14,0,0,0,3,1.61h1c2,0,3.09-1.18,3.41-3.53v-.61C572,246.87,570.89,246.51,568.62,246.2Zm-17-55.12q-5.12.76-5.12,4.14v.22c1.52,1.49,2.87,2.23,4.07,2.23q5.51-.76,5.5-4.14C555.33,191.89,553.85,191.08,551.57,191.08Zm-39.88,1.07H511q-4.72,1.31-4.73,3.07,0,3,4.45,3.6a5.38,5.38,0,0,0,4.73-2.53v-1.38Q515.47,192.84,511.69,192.15ZM495,244.82a4.74,4.74,0,0,0-3.42,1.92v3.07c.69,1.28,2,1.91,4.08,1.91h.38q3.78-1.29,3.78-4.14A5.1,5.1,0,0,0,495,244.82Zm0,0a4.74,4.74,0,0,0-3.42,1.92v3.07c.69,1.28,2,1.91,4.08,1.91h.38q3.78-1.29,3.78-4.14A5.1,5.1,0,0,0,495,244.82Zm16.67-52.67H511q-4.72,1.31-4.73,3.07,0,3,4.45,3.6a5.38,5.38,0,0,0,4.73-2.53v-1.38Q515.47,192.84,511.69,192.15Zm56.93,54c-2.21,0-3.57,1.21-4.07,3.61a3.14,3.14,0,0,0,3,1.61h1c2,0,3.09-1.18,3.41-3.53v-.61C572,246.87,570.89,246.51,568.62,246.2Zm-17-55.12q-5.12.76-5.12,4.14v.22c1.52,1.49,2.87,2.23,4.07,2.23q5.51-.76,5.5-4.14C555.33,191.89,553.85,191.08,551.57,191.08Zm17,55.12c-2.21,0-3.57,1.21-4.07,3.61a3.14,3.14,0,0,0,3,1.61h1c2,0,3.09-1.18,3.41-3.53v-.61C572,246.87,570.89,246.51,568.62,246.2Zm-17-55.12q-5.12.76-5.12,4.14v.22c1.52,1.49,2.87,2.23,4.07,2.23q5.51-.76,5.5-4.14C555.33,191.89,553.85,191.08,551.57,191.08Zm-39.88,1.07H511q-4.72,1.31-4.73,3.07,0,3,4.45,3.6a5.38,5.38,0,0,0,4.73-2.53v-1.38Q515.47,192.84,511.69,192.15ZM495,244.82a4.74,4.74,0,0,0-3.42,1.92v3.07c.69,1.28,2,1.91,4.08,1.91h.38q3.78-1.29,3.78-4.14A5.1,5.1,0,0,0,495,244.82Zm0,0a4.74,4.74,0,0,0-3.42,1.92v3.07c.69,1.28,2,1.91,4.08,1.91h.38q3.78-1.29,3.78-4.14A5.1,5.1,0,0,0,495,244.82Zm16.67-52.67H511q-4.72,1.31-4.73,3.07,0,3,4.45,3.6a5.38,5.38,0,0,0,4.73-2.53v-1.38Q515.47,192.84,511.69,192.15Zm56.93,54c-2.21,0-3.57,1.21-4.07,3.61a3.14,3.14,0,0,0,3,1.61h1c2,0,3.09-1.18,3.41-3.53v-.61C572,246.87,570.89,246.51,568.62,246.2Zm-17-55.12q-5.12.76-5.12,4.14v.22c1.52,1.49,2.87,2.23,4.07,2.23q5.51-.76,5.5-4.14C555.33,191.89,553.85,191.08,551.57,191.08Zm17,55.12c-2.21,0-3.57,1.21-4.07,3.61a3.14,3.14,0,0,0,3,1.61h1c2,0,3.09-1.18,3.41-3.53v-.61C572,246.87,570.89,246.51,568.62,246.2Zm-17-55.12q-5.12.76-5.12,4.14v.22c1.52,1.49,2.87,2.23,4.07,2.23q5.51-.76,5.5-4.14C555.33,191.89,553.85,191.08,551.57,191.08Zm-39.88,1.07H511q-4.72,1.31-4.73,3.07,0,3,4.45,3.6a5.38,5.38,0,0,0,4.73-2.53v-1.38Q515.47,192.84,511.69,192.15ZM495,244.82a4.74,4.74,0,0,0-3.42,1.92v3.07c.69,1.28,2,1.91,4.08,1.91h.38q3.78-1.29,3.78-4.14A5.1,5.1,0,0,0,495,244.82Zm0,0a4.74,4.74,0,0,0-3.42,1.92v3.07c.69,1.28,2,1.91,4.08,1.91h.38q3.78-1.29,3.78-4.14A5.1,5.1,0,0,0,495,244.82Zm16.67-52.67H511q-4.72,1.31-4.73,3.07,0,3,4.45,3.6a5.38,5.38,0,0,0,4.73-2.53v-1.38Q515.47,192.84,511.69,192.15Zm56.93,54c-2.21,0-3.57,1.21-4.07,3.61a3.14,3.14,0,0,0,3,1.61h1c2,0,3.09-1.18,3.41-3.53v-.61C572,246.87,570.89,246.51,568.62,246.2Zm-17-55.12q-5.12.76-5.12,4.14v.22c1.52,1.49,2.87,2.23,4.07,2.23q5.51-.76,5.5-4.14C555.33,191.89,553.85,191.08,551.57,191.08Zm17,55.12c-2.21,0-3.57,1.21-4.07,3.61a3.14,3.14,0,0,0,3,1.61h1c2,0,3.09-1.18,3.41-3.53v-.61C572,246.87,570.89,246.51,568.62,246.2Zm-17-55.12q-5.12.76-5.12,4.14v.22c1.52,1.49,2.87,2.23,4.07,2.23q5.51-.76,5.5-4.14C555.33,191.89,553.85,191.08,551.57,191.08Zm-39.88,1.07H511q-4.72,1.31-4.73,3.07,0,3,4.45,3.6a5.38,5.38,0,0,0,4.73-2.53v-1.38Q515.47,192.84,511.69,192.15ZM495,244.82a4.74,4.74,0,0,0-3.42,1.92v3.07c.69,1.28,2,1.91,4.08,1.91h.38q3.78-1.29,3.78-4.14A5.1,5.1,0,0,0,495,244.82Zm0,0a4.74,4.74,0,0,0-3.42,1.92v3.07c.69,1.28,2,1.91,4.08,1.91h.38q3.78-1.29,3.78-4.14A5.1,5.1,0,0,0,495,244.82Zm16.67-52.67H511q-4.72,1.31-4.73,3.07,0,3,4.45,3.6a5.38,5.38,0,0,0,4.73-2.53v-1.38Q515.47,192.84,511.69,192.15Zm56.93,54c-2.21,0-3.57,1.21-4.07,3.61a3.14,3.14,0,0,0,3,1.61h1c2,0,3.09-1.18,3.41-3.53v-.61C572,246.87,570.89,246.51,568.62,246.2Zm-17-55.12q-5.12.76-5.12,4.14v.22c1.52,1.49,2.87,2.23,4.07,2.23q5.51-.76,5.5-4.14C555.33,191.89,553.85,191.08,551.57,191.08Zm17,55.12c-2.21,0-3.57,1.21-4.07,3.61a3.14,3.14,0,0,0,3,1.61h1c2,0,3.09-1.18,3.41-3.53v-.61C572,246.87,570.89,246.51,568.62,246.2Zm-17-55.12q-5.12.76-5.12,4.14v.22c1.52,1.49,2.87,2.23,4.07,2.23q5.51-.76,5.5-4.14C555.33,191.89,553.85,191.08,551.57,191.08Zm-39.88,1.07H511q-4.72,1.31-4.73,3.07,0,3,4.45,3.6a5.38,5.38,0,0,0,4.73-2.53v-1.38Q515.47,192.84,511.69,192.15ZM495,244.82a4.74,4.74,0,0,0-3.42,1.92v3.07c.69,1.28,2,1.91,4.08,1.91h.38q3.78-1.29,3.78-4.14A5.1,5.1,0,0,0,495,244.82Zm16.67-52.67H511q-4.72,1.31-4.73,3.07,0,3,4.45,3.6a5.38,5.38,0,0,0,4.73-2.53v-1.38Q515.47,192.84,511.69,192.15ZM495,244.82a4.74,4.74,0,0,0-3.42,1.92v3.07c.69,1.28,2,1.91,4.08,1.91h.38q3.78-1.29,3.78-4.14A5.1,5.1,0,0,0,495,244.82Zm0,0a4.74,4.74,0,0,0-3.42,1.92v3.07c.69,1.28,2,1.91,4.08,1.91h.38q3.78-1.29,3.78-4.14A5.1,5.1,0,0,0,495,244.82Zm16.67-52.67H511q-4.72,1.31-4.73,3.07,0,3,4.45,3.6a5.38,5.38,0,0,0,4.73-2.53v-1.38Q515.47,192.84,511.69,192.15Zm39.88-1.07q-5.12.76-5.12,4.14v.22c1.52,1.49,2.87,2.23,4.07,2.23q5.51-.76,5.5-4.14C555.33,191.89,553.85,191.08,551.57,191.08Zm0,0q-5.12.76-5.12,4.14v.22c1.52,1.49,2.87,2.23,4.07,2.23q5.51-.76,5.5-4.14C555.33,191.89,553.85,191.08,551.57,191.08Zm17,55.12c-2.21,0-3.57,1.21-4.07,3.61a3.14,3.14,0,0,0,3,1.61h1c2,0,3.09-1.18,3.41-3.53v-.61C572,246.87,570.89,246.51,568.62,246.2Zm0,0c-2.21,0-3.57,1.21-4.07,3.61a3.14,3.14,0,0,0,3,1.61h1c2,0,3.09-1.18,3.41-3.53v-.61C572,246.87,570.89,246.51,568.62,246.2Z"/><path class="cls-1" d="M573.35,218.91c-1.83,2.36-3.18,3.73-4.07,4.14h-.37l-3.7-2.23c-2.72-.35-4.08-.71-4.08-1.07v-1.68h3.42l3.41.3c0-.2.09-.3.28-.3Z"/><path class="cls-1" d="M576.11,222.51a48,48,0,0,1-.67,5.75h-.38c-.19,0-.85-.64-2-1.91v-.23c0-.87.88-2.07,2.66-3.61Z"/><path class="cls-1" d="M565.88,226.35a30.48,30.48,0,0,1-4.08,3.83h-.38v-7.13Q565.77,225.51,565.88,226.35Z"/><path class="cls-1" d="M575.73,251.19l-.29-2.76v-5h-.67q-6.24-.3-13-.3a10.36,10.36,0,0,1-.38,2.75l.38,2a10.38,10.38,0,0,0-.38,1.61l.38,1.69a9.22,9.22,0,0,0-.38,2.14l.66.31q.76,0,7.58-.31l5.4.31.67-.84-.29-1.08C575.44,251.37,575.53,251.19,575.73,251.19Zm-3.7-3.3c-.32,2.35-1.45,3.53-3.41,3.53h-1a3.14,3.14,0,0,1-3-1.61c.5-2.4,1.86-3.61,4.07-3.61,2.27.31,3.41.67,3.41,1.08Z"/><path class="cls-1" d="M575.73,237.08v1.15a2.67,2.67,0,0,1-.67,1.61l-1.71-.22H567.2l-1-.55H561.8c0-.3-.13-1.43-.38-3.37l.38-1.61c1.32-.3,3.6-1.87,6.82-4.68h1c1.58,2.36,3.51,3.53,5.78,3.53C575.63,234.78,575.73,236.16,575.73,237.08Z"/><path class="cls-1" d="M576.11,209a27.52,27.52,0,0,1-.38,3.84,1.68,1.68,0,0,1,.38,1.07l-.38,1.14c-2.34,0-6.07-.17-11.18-.53a26.83,26.83,0,0,1-2.75.23l-.67-.84v-.23q0-3.15-.37-8l.37-.54q0-.31,9.2-.54a22.33,22.33,0,0,0,5.78.85Z"/><path class="cls-1" d="M577.15,172.06l-.38,2.76c.25,0,.38.08.38.23l-.38,1.69v3.6c0,.42-.8.77-2.37,1.08Q571.55,188,568,188l-3.41-.23q-6.82-2.07-6.82-7.21l.28-1.07c-.19,0-.5-.35-1-1.07v-.31a12.25,12.25,0,0,1,3-3.07q3-3.83,6.83-3.83a4.73,4.73,0,0,1,1.32,3.07,14.51,14.51,0,0,1-1.32,3.52c-3.42,1-5.12,1.77-5.12,2.23v.53c0,.41,1.35.7,4.08.85,2.71-.15,4.07-.51,4.07-1.08q2.46,0,4.45-5v-2.23c0-2.6-2.06-4.44-6.16-5.51a69,69,0,0,1,8.53-8.51l.38,2.76Z"/><path class="cls-1" d="M576.38,188.86q-3.78,3.28-7.1,3.29h-3q-9.86,0-13.64-8.28c0-.51-.13-.76-.38-.76s-3,2.37-7.77,7.13c-3.21,2.86-4.83,4.8-4.83,5.82q1.89.93,5.5,9.05a14.25,14.25,0,0,1,1.32,3.91h1.33l8.91-9.43,2.74-.54c1.77.77,2.65,1.61,2.65,2.53l8.25-.61,5.4.84.38-.54v-6.05l.27-1.69c0-.15-.09-.23-.27-.23l.27-1.38Zm-25.86,8.81c-1.2,0-2.55-.74-4.07-2.23v-.22q0-3.37,5.12-4.14c2.28,0,3.76.81,4.45,2.45Q556,196.91,550.52,197.67Z"/><path class="cls-1" d="M543,213.39q-7.95,9-9.56,10h-.29V207.64c0-1.23-.12-3.07-.38-5.52,1.83-1.43,2.75-2.35,2.75-2.76h.66Q539,200.89,543,213.39Z"/><path class="cls-1" d="M528.73,203.5v15.94c0,.37-.22.55-.66.55l-4.45-4.37q-4.07-3.47-4.07-4.14c0-.47,1.58-4.68,4.73-12.66H525Q528.73,201.66,528.73,203.5Z"/><path class="cls-1" d="M494,226.35v.53a35.11,35.11,0,0,1-4.37,3.61H489a46.1,46.1,0,0,1-.38-4.68v-1.92l.38-.53A18.39,18.39,0,0,1,494,226.35Z"/><path class="cls-1" d="M504.2,222.51v5.75h-.66c-1.83-1-2.75-1.61-2.75-1.91v-.23c2.08-2.1,3.13-3.3,3.13-3.61Z"/><path class="cls-1" d="M501.83,241.76l-2.36.3h-1.33c-2,0-4-.09-6.16-.3-2,.21-3,.48-3,.85v3.06a45.88,45.88,0,0,1-.38,5.52c0,1.43.79,2.14,2.37,2.14h11.93c.7-.1,1.05-.81,1.05-2.14v-7.44C503.92,242.68,503.22,242,501.83,241.76Zm-5.77,10h-.38c-2,0-3.39-.63-4.08-1.91v-3.07a4.74,4.74,0,0,1,3.42-1.92,5.1,5.1,0,0,1,4.82,2.76Q499.84,250.43,496.06,251.72Z"/><path class="cls-1" d="M504.2,237.7q0,1.06-11.17,1.07c-3,0-4.46-.28-4.46-.84V235.7a1.65,1.65,0,0,1,.38-1.07,60.48,60.48,0,0,0,8.81-5.52,15.27,15.27,0,0,0,4.07,3.07C503.41,232.18,504.2,234,504.2,237.7Z"/><path class="cls-1" d="M501.83,218.61v.3h-.28a25.83,25.83,0,0,1-4.17,4.67,55,55,0,0,1-9.19-3.83v-1.14l.76-.78C496.47,218,500.76,218.24,501.83,218.61Z"/><path class="cls-1" d="M503.92,208.18v6.06c0,.3-.7.58-2.09.83q-7.95-.52-12.88-.53c-.25,0-.51-.28-.76-.84a13.1,13.1,0,0,1,.38-1.69,25.23,25.23,0,0,0-.38-3.6,10.55,10.55,0,0,0,.38-2.76,3.52,3.52,0,0,0,1-.23,84.07,84.07,0,0,1,12.89.84C503.44,206.26,503.92,206.9,503.92,208.18Z"/><path class="cls-1" d="M513.11,184.18l-.67-.31h-.75q0,3.38-7.11,7.21a28.66,28.66,0,0,1-8.14,1.07c-1.64,0-4.15-.92-7.49-2.76h-.76a2,2,0,0,1-.28.85q.29,5.06.28,8.58v1.92l.38,1.38c10.23.1,15.35.39,15.35.84a23.14,23.14,0,0,1,4.36-.84,85.72,85.72,0,0,0,7.57,6.29c.51,0,1.74-3.18,3.7-9.36.44,0,1.14-1.45,2.08-4.37Q517.66,190.32,513.11,184.18Zm2.36,12.11a5.38,5.38,0,0,1-4.73,2.53q-4.46-.62-4.45-3.6,0-1.77,4.73-3.07h.67q3.78.69,3.78,2.76Z"/><path class="cls-1" d="M508,177.81v.85c-.94.71-1.64,2.1-2.08,4.14q-2.48,6.06-7.77,6.06-5.88-1.31-5.88-2.76-2.83,0-4.35-12.12c.19-3.53.28-6.64.28-9.35v-2.76a11.15,11.15,0,0,1,.38-2.53c-.25-.21-.38-.85-.38-1.92V155.5Q490.56,157,498.42,166v.54l-1.7,1.37q-5.4,2-5.4,7.44c.94,4,2.75,6.06,5.4,6.06h1.7c1.14,0,1.83-.29,2.09-.85v-.76q-3.13-2.22-3.13-3.38v-1.07c0-2,1.27-3.78,3.79-5.22h.66Z"/><path d="M645,147.61h2.28c.25,0,.38.07.38.23l.56-.23h1q3,0,11.74,14.26,4.74,5.28,15,24.53l9.85,19q1.51,2.22,11.09,21.16a150.74,150.74,0,0,1,9.19,18.55c2.58,4,3.88,6.36,3.88,7.13q-1.71,3.92-12.13,3.91,0,.46-8.43.85c0,.25-2.08.51-6.25.76-3,0-4.55-1.4-4.55-4.22q-2.18-3.28-8.81-15.1a12.56,12.56,0,0,0-2.93-.77c-2.15.16-3.79.23-4.93.23H649.52l-1.89-.23-.67.23c-.25,0-.38-.07-.38-.23l-3.88.23h-2.65a2.55,2.55,0,0,0-1.23.31c-.26,0-.38-.1-.38-.31q-6.83,0-6.82,1.92L626.69,247q0,1.38-4.26,6.29,0,2.69-3.89,2.68h-.66c-3.73-.36-5.81-.53-6.25-.53H610a4.29,4.29,0,0,0-1.61.23l-6.54-.46c-.19,0-.28.07-.28.23q-12.14,0-12.13-2.61,1.42,0,3.6-7.21,4.55-8.43,7.86-15.33c2.4-2.92,3.6-5.62,3.6-8.13Q608.8,216.46,614,205q3.21-5.07,19.89-39.18,3.89-6.67,6.16-11.58C642.57,149.8,644.22,147.61,645,147.61ZM596.28,250.12l.38.53a1.67,1.67,0,0,0-.38,1.08c.7.15,1,.33,1,.53l3.22-.31h17.34q2.75-1.9,6.16-9.2v-.3q-8.91-2.91-9.76-2.92H614q-4.83,8.75-6.92,8.75a3.39,3.39,0,0,1-1,.22l-1-1.3,4.26-8.74a40.48,40.48,0,0,0-5.49-1.53c-.76,0-1.86,1.66-3.32,5a48.82,48.82,0,0,0-3.88,8C596.41,249.88,596.28,250,596.28,250.12Zm23.59-46q-3.32,4.3-3.32,6.9l2.28-.3h.38q.75.07,3.22,5.59,4.55,6.82,10.8,6.83a30.65,30.65,0,0,0,4.54.3c0-.15,1.65-.86,4.93-2.14a2.51,2.51,0,0,1,2.56-1.84h1c.32,0,.76.35,1.33,1.07v1.61q-4.36,3.92-7.87,3.91c0,.41-1.51.69-4.54.84q-10.71,0-14.78-5.29-1.91-1.31-4.55-7.66h-1.33a86,86,0,0,0-7.1,13.95q-2.94,4.68-2.94,5.29a14.33,14.33,0,0,0,7.11,1.92q4-6.68,4.64-8.74a4.18,4.18,0,0,1,1.89-.54h1.71c.32,0,.63.26,1,.77v.53q0,.69-4.55,8.44c0,.76,3.47,2,10.42,3.75H627c1.46-3.52,3-5.29,4.65-5.29a16.5,16.5,0,0,1,2.93.23,74.85,74.85,0,0,1,9.76-.53h6.54l.38-1.31V229a51.23,51.23,0,0,0-1.71-11.57h-.66c-1.46,0-4.8.07-10,.23-1.58-.36-2.37-.9-2.37-1.61,1.13-1.43,1.7-2.41,1.7-2.92l-1-.46h-2.94q-7.57,0-13.35-8C620.82,204.5,620.5,204.32,619.87,204.11Zm13.36-25.61a144.37,144.37,0,0,0-8.53,16.11c-.76.61-1.61,2.48-2.56,5.59,2.4.67,3.6,1.71,3.6,3.15q5.22,6,10.42,6.05,4.94-.53,4.93-2.07A52.27,52.27,0,0,0,647,194.07a4.08,4.08,0,0,1,2.28-.77q3.12.54,3.6.54h.28v-.31c-.06-2.25-.51-3.37-1.33-3.37h-4.16q-3.32,0-7.87-.31a2.58,2.58,0,0,1-.94.31c-2-.36-3-.72-3-1.08v-.84c0-.66,1.54-1.28,4.64-1.84,3.91.21,5.87.38,5.87.54l1.61-.23h5.87q4.28.61,4.27,2.6l-.38.54q0,7.44,2.37,7.44a14.14,14.14,0,0,0,2.55.23h1.61a.94.94,0,0,0,1-1.07c0-.92-.13-2.59-.38-5,0-.2.12-.3.38-.3l-.38-1.31q0-10-2.94-10a70,70,0,0,0-9.09-1.08l-1.33.31c-3.79-.2-6.19-.31-7.2-.31-.32,0-2,.11-5.21.31l-.66-.31a2.67,2.67,0,0,1-1,.31A26.5,26.5,0,0,1,633.23,178.5ZM631,194.37q3,0,3.6,3.69v.23q0,2.15-3.6,2.68h-.38q-3.6,0-3.6-4.22A7.73,7.73,0,0,1,631,194.37Zm6.54-14.26h1.33c1.51.87,2.27,1.67,2.27,2.38q0,1.53-3.6,3.14-4.26-.37-4.26-2.37C633.23,181.67,634.65,180.63,637.49,180.11Zm7.2-24.61q-10.14,18.33-10.14,20.09l1,.54a2.61,2.61,0,0,1,1-.31v.31a71.62,71.62,0,0,1,8.81-1.31l.38-2.68V170.3q0-5.37.28-13.19l-.28-1.61Zm1.89-3.68v1.31c1.14,0,1.8-.26,2-.77-.31-.72-.63-1.07-.94-1.07h-.38C646.81,151.34,646.58,151.52,646.58,151.82Zm5.21,29.06a3.16,3.16,0,0,1,3.32,2.07q-1.71,2.91-3.88,2.91a4.61,4.61,0,0,1-3.32-2.07V183C648.54,181.57,649.84,180.88,651.79,180.88Zm-.28-24.3q-.57,0-1,12.65c.19,2,.29,3.75.29,5.29l.94.53q2.65,0,12.41.77v-.23q-1.61-4-12.41-19Zm12.69,54.13h-1.61q0,1.83,3.6,6.9c0,.56-.85,1.27-2.55,2.14q-1.62,0-3.6-2.37h-4c-.32,0-.63.61-.95,1.84,0,.15.09.23.28.23q.48,14.56,1.33,14.56c3.28.16,5.68.23,7.2.23h6.54q3.88,0,5.87,7.44l5.59,8.67.57.3c2.4-4.39,3.6-7.13,3.6-8.2v-.23q-10.43-4.38-10.42-5.83v-.31l1.32-1h3.22q5.6,3.38,8.15,3.37h.38l1.61-4.22v-2.07a2.89,2.89,0,0,1,2.65-1.38h1V230a18.12,18.12,0,0,1-2.27-4.53H691q-3.12,0-12.41,3.22Q673,230,672.73,230q-2.94-.32-2.94-1.08,0-1.38,11.75-4.75c4.67-1.58,7.17-2.38,7.48-2.38,0-.92-.31-1.43-.94-1.53q-11.48,2.61-15.35,4.45a13.61,13.61,0,0,1-2.94.53h-1.32c-.32,0-.76-.35-1.33-1.07v-.54c0-.87,2.62-1.91,7.86-3.14q2.47-1.31,11.75-3.68a44.45,44.45,0,0,0-5.87-10.58c-3.86.72-7.77,1.58-11.75,2.61C666.92,210.09,665.28,210.71,664.2,210.71Zm6.26-23.24v1.61a48.34,48.34,0,0,0,.94,9.74q0,2.38-10.8,2.38h-.28c-.25,0-1.33-.08-3.22-.23v.54q0,1.37,4.55,7.13a54.09,54.09,0,0,1,14-4.76c2.59-.25,3.88-.61,3.88-1.07a154.17,154.17,0,0,1-7.77-14.57l-1-.77Zm3.88,23.77c1.33.36,2,1.08,2,2.15v2.38c0,.25-.44.61-1.33,1.07h-.66q-4.83,0-4.83-1.61A4.43,4.43,0,0,1,674.34,211.24ZM695.28,234a38.18,38.18,0,0,0-2.94,5.83v1l9.76,6.67v1a3.46,3.46,0,0,1-2.94,1.62q-1.42,0-8.15-5h-1.32q-2.85,7.37-5.5,7.36-1.32,0-1.32.54a4,4,0,0,0,2.27.77q3.4-.77,19-1.54c0-.2.22-.31.66-.31v-.76l-8.81-16.95Z"/><path d="M743.59,147.45c2.9.21,4.64.31,5.21.31l.76-.31q15.44,1.08,23.21,4,14.4,5.52,17.52,11.65,5.6,6.82,5.59,14.49h-.28a6.22,6.22,0,0,1,.66,2,40.55,40.55,0,0,1-.66,5.44l.28.54a44,44,0,0,1-6.25,12.5,39.94,39.94,0,0,1-16.86,12.26c0,.26-.82.82-2.47,1.69q3.13,4.83,12.22,16.18,8,11.66,10.24,13.64V243q0,2-14.4,12.5c-2,1.54-3.38,2.3-4.27,2.3a5,5,0,0,1-5.21-4q0-.54-16.2-20.48,0-1.22-6.34-6.82h-.67c0,.56-.12.84-.38.84l.38,2.84c0,2-.12,5.6-.38,10.81l-.28.61c0,.16.1.23.28.23-.18,1.9-.28,3.33-.28,4.3v3.14l-.38,1.69a16.1,16.1,0,0,1,1,3.14c0,1.28-2.33,2.12-7,2.53l-1.8-.3q-2.55,0-17.9,1.15a13.56,13.56,0,0,1-3.51-1.38l.38-2v-4a10.94,10.94,0,0,0-.38-2.84,7.73,7.73,0,0,0,.38-2.61v-2.53a18.12,18.12,0,0,1,.67-2.3v-2.53q.84-16.63,1.42-17.63l-.38-1.69v-2.61a1.6,1.6,0,0,1,.38-1.07l-.38-.61.38-2a10.72,10.72,0,0,0-.38-2.22l.76-5.44c0-.21-.13-.31-.38-.31l.38-3.37v-6.29c0-.15.09-.23.28-.23,0-.21-.09-.31-.28-.31l.28-2a19,19,0,0,0-.28-3.68q.75-15.26,1.42-21.09l-.38-1.68v-.54a10.84,10.84,0,0,1,.38-2.61c0-.2-.13-.3-.38-.3l.38-1.38v-8q0-4.29,12.22-4.29Q734.12,148,743.59,147.45ZM739,226q-1.43,2.31-14,12.81c-2.09.3-3.13.66-3.13,1.07V241a7.39,7.39,0,0,1-.38,2.3l.67,2.84v2q.75,0,12-10.5,6-3.6,6-7.13a11.12,11.12,0,0,1-.37-2.53V226.5C739.71,226.14,739.45,226,739,226Zm-16.49,2.84v2.84l-.37,2.83.75.31q3.51-3,3.51-3.45a17.26,17.26,0,0,1-2.46-3.14h-.67C722.72,228.24,722.46,228.44,722.46,228.8Zm.38-10a2.1,2.1,0,0,1,.38,1.38q.57,0,11.18-9.66,1.14-.08,11.94-9.35c.69,0,1-.18,1-.54a4.68,4.68,0,0,1-1-1.76h-.67a10.91,10.91,0,0,0-8,3.76q-14.11,9.5-14.11,11.88A14.5,14.5,0,0,1,722.84,218.83Zm5.31-19.09v-.23c-.26,0-.38.08-.38.23l-2.46-.23h-1q-.75,6.53-1,6.52a2,2,0,0,1,.29.84h.75q5.22-3.37,10.52-7.36c-.25,0-.38-.1-.38-.3C730.93,199.56,728.84,199.74,728.15,199.74Zm-3.6-17.63q0,1.83-.29,7.43a2,2,0,0,1,.29.85h-.29l.29.54-.29.61.67.3q17.15-12.1,17.24-12.8a27.07,27.07,0,0,1,.66-5.14,2.83,2.83,0,0,1-.28-1.45h.28l-.66-1.69.38-.54a1.56,1.56,0,0,1-.38-.84c.25,0,.38-.1.38-.31h-.38Q724.55,179.59,724.55,182.11Zm0-29c.25,2.65.38,4.93.38,6.82v.61h.38q6.91-4.76,11.27-8.28l-1.8-.3h-3.13c-1.2,0-3,.1-5.3.3V152C725.27,152.23,724.67,152.62,724.55,153.13Zm.38,12v1.45c0,2-.13,5-.38,9.05h.76q3.69-2.15,16.1-11v-5.44c0-1-.09-2.41-.28-4.3q-2,0-15.44,10.28Zm-.38,87.33V253q10.61-1.14,14.11-1.15a.6.6,0,0,1,.67-.53l-.38-1.15a1.61,1.61,0,0,1,.38-.85,11.53,11.53,0,0,1-.38-2.84,14.72,14.72,0,0,1,.76-4.29,6.65,6.65,0,0,1-.38-2.3v-.54H739Q737.33,240.08,724.55,252.42Zm.76-27.07q3.12,2.15,3.12,3.14h.38q1.61,0,3.89-2.53H733V225a13.12,13.12,0,0,0-3.79-3.68Q725.31,224,725.31,225.35Zm.66-29.29v.31a20.07,20.07,0,0,1,3.22.31,87,87,0,0,1,9.47-.62h2.75a38.89,38.89,0,0,0,.76-9.05v-1.76c0-.36-.25-.54-.76-.54Q739.33,185.57,726,196.06Zm7.39-18.48c1,0,1.7.87,2.08,2.61-.06,1.69-1,2.53-2.74,2.53h-1.05a3.3,3.3,0,0,1-2.84-1.15v-.31Q730,177.59,733.36,177.58Zm-1,41.56c.31,0,1.61,1,3.88,3.07,1.52,0,2.9-1.69,4.17-5.06a22.85,22.85,0,0,0-2.75-2.84Q732.7,217.37,732.32,219.14Zm8.81-7.74V212c1.64,1.58,2.46,2.53,2.46,2.84h.28q1.62,0,5.31-3.68v-.31a9,9,0,0,0-3.13-3.14h-.38C742.89,209.56,741.38,210.78,741.13,211.4ZM745.67,152a18.57,18.57,0,0,1,.67,4.29v5.14a10.68,10.68,0,0,0,.38,2.53c-.26.25-.38.92-.38,2v.84l.38.62,3.5-.31H752c1.14,0,2.87.1,5.21.31.51,0,.85-1.61,1-4.83L758,161.1a14.77,14.77,0,0,0,.28-2.84V158a17.56,17.56,0,0,0-1.32-5.37h-.38q-.77,0-6.73-.61h-2.46c-.19,0-.29-.08-.29-.23A4.36,4.36,0,0,1,745.67,152Zm5.59,5.44c2.34.2,3.51,1.05,3.51,2.53s-1.27,2.35-3.79,2.61c-2.15-.62-3.22-1.49-3.22-2.61Q747.76,157.88,751.26,157.42Zm-3.5,61.72v.23a12,12,0,0,0,2.46,2.3q5.31-2.83,13-10.81V210a3,3,0,0,0-2.75-1.46Q749.47,216.08,747.76,219.14Zm2.08-14.57c0,1,1.07,2.23,3.22,3.76q.95,0,3.51-2.61v-.23q-2.94-2.3-4.55-2.3A3.55,3.55,0,0,0,749.84,204.57Zm3.6-6.21v.31L765.66,206h.76c.69-.2,1-.77,1-1.69v-1.15q-.37-.69-9.19-4.29c0-.26-.57-.72-1.7-1.38h-.38C754.48,197.52,753.57,197.8,753.44,198.36Zm.67,27q6.43,8,6.63,8h.37q3.42-1.83,9.86-8.81V224q-5.69-6.51-7-6.82Q760.17,219.3,754.11,225.35Zm8-3.14q4.26,1.23,4.26,2.83,0,3.15-5.68,3.45c-1.65-.3-2.47-.86-2.47-1.68Q758.27,222.21,762.16,222.21Zm-.29-27v.61c1.71,1.48,3.22,2.23,4.55,2.23h.28a6.62,6.62,0,0,1,.38-2,17.74,17.74,0,0,1-.66-2.84H766A21.82,21.82,0,0,1,761.87,195.22ZM763.2,154c.25,2.61.38,4.22.38,4.83a58.19,58.19,0,0,1-.67,9.43,41.79,41.79,0,0,1,7.68,2.84H771q6.81-4.68,9.47-9.66a39.19,39.19,0,0,0-13-6.6A23.72,23.72,0,0,0,763.2,154Zm0,82.8,4.92,5.91q1.51-.31,3.51-3.07v-.31q-1.14-1.22-6.25-3.14v-.54c.25-.56,1.29-1.15,3.12-1.76h1.42c2.34,1.18,3.86,1.76,4.55,1.76a6.42,6.42,0,0,0,2.84-2.6l-3.5-5.06h-.38l-10.23,8.51Zm8.15-48.37H772q16.86-1.92,16.86-3.69v-1.15h-1.7q-15.82,1.84-15.82,4.53Zm4.16,53.74-3.88,4v.3q0,1.55,3.88,4.84,2.19-.54,9.86-7.44v-.23c0-.31-.48-.69-1.42-1.15a2.88,2.88,0,0,1-2.75,1.68C779.87,244.13,778,243.47,775.51,242.14Zm-3.12-47.77.38.54a1.77,1.77,0,0,1-.38,1.15,38.56,38.56,0,0,1,.38,4.6v.85a2,2,0,0,1-.38,1.15,1.63,1.63,0,0,1,.38,1.07h-.38a2,2,0,0,1,.38,1.15h.28q3.88-2,3.89-2.53c-.38,0-.73-.38-1.05-1.15a11.3,11.3,0,0,0,.67-3.45v-2.22a1.74,1.74,0,0,1,.38-1.16,6.73,6.73,0,0,1-.67-2.53c-2.34,0-3.5.57-3.5,1.69A1.64,1.64,0,0,1,772.39,194.37Zm1.42-19.32a47.58,47.58,0,0,1,.66,6.83c-.25,0-.38.07-.38.23h.76l14.4-2.53v-1.69a17.79,17.79,0,0,0-4.93-12.27H784q-.76,0-8.44,7.75C774.57,173.37,774,173.93,773.81,175.05Zm5.21,63.1v.31a7.61,7.61,0,0,0,2.84,2h.38v-.3a3.76,3.76,0,0,0-1.8-2.84h-.38C779.74,237.31,779.4,237.59,779,238.15Zm2.84-47.22v6.82h.38a23.5,23.5,0,0,0,4.93-7.36l-.76-.31Z"/><path d="M856.13,147.61h2.27c.26,0,.38.07.38.23l.57-.23h1q3,0,11.75,14.26,4.74,5.28,15,24.53l9.85,19q1.51,2.22,11.08,21.16a148,148,0,0,1,9.19,18.55c2.59,4,3.89,6.36,3.89,7.13q-1.71,3.92-12.13,3.91,0,.46-8.43.85c0,.25-2.08.51-6.25.76-3,0-4.55-1.4-4.55-4.22q-2.18-3.28-8.81-15.1a12.69,12.69,0,0,0-2.94-.77c-2.14.16-3.78.23-4.92.23H860.68l-1.9-.23-.66.23c-.25,0-.38-.07-.38-.23l-3.88.23h-2.65a2.62,2.62,0,0,0-1.24.31c-.25,0-.37-.1-.37-.31q-6.83,0-6.83,1.92L837.85,247q0,1.38-4.26,6.29,0,2.69-3.89,2.68H829c-3.73-.36-5.81-.53-6.25-.53h-1.61a4.35,4.35,0,0,0-1.62.23l-6.53-.46c-.19,0-.29.07-.29.23q-12.12,0-12.12-2.61,1.43,0,3.6-7.21,4.54-8.43,7.86-15.33c2.4-2.92,3.6-5.62,3.6-8.13q4.26-5.67,9.47-17.17,3.23-5.07,19.9-39.18,3.88-6.67,6.16-11.58C853.73,149.8,855.37,147.61,856.13,147.61ZM807.44,250.12l.38.53a1.67,1.67,0,0,0-.38,1.08c.69.15,1,.33,1,.53l3.22-.31H829q2.75-1.9,6.16-9.2v-.3q-8.91-2.91-9.76-2.92h-.29q-4.83,8.75-6.91,8.75a3.39,3.39,0,0,1-1,.22l-1-1.3,4.26-8.74a40.48,40.48,0,0,0-5.49-1.53q-1.14,0-3.32,5a48.82,48.82,0,0,0-3.88,8C807.57,249.88,807.44,250,807.44,250.12Zm23.59-46q-3.31,4.3-3.32,6.9l2.28-.3h.37c.51,0,1.58,1.91,3.23,5.59q4.54,6.82,10.8,6.83a30.65,30.65,0,0,0,4.54.3q0-.23,4.93-2.14a2.51,2.51,0,0,1,2.56-1.84h1c.31,0,.76.35,1.32,1.07v1.61q-4.35,3.92-7.86,3.91c0,.41-1.51.69-4.55.84q-10.7,0-14.77-5.29-1.9-1.31-4.55-7.66h-1.33a85.19,85.19,0,0,0-7.1,13.95q-2.94,4.68-2.94,5.29a14.28,14.28,0,0,0,7.11,1.92q4-6.68,4.64-8.74a4.14,4.14,0,0,1,1.89-.54H831c.31,0,.63.26,1,.77v.53q0,.69-4.55,8.44c0,.76,3.47,2,10.42,3.75h.28c1.45-3.52,3-5.29,4.64-5.29a16.54,16.54,0,0,1,2.94.23,74.85,74.85,0,0,1,9.76-.53H862l.37-1.31V229a51.12,51.12,0,0,0-1.7-11.57H860c-1.46,0-4.8.07-10,.23-1.58-.36-2.36-.9-2.36-1.61,1.13-1.43,1.7-2.41,1.7-2.92l-1-.46h-2.94q-7.58,0-13.35-8C832,204.5,831.66,204.32,831,204.11Zm13.36-25.61a142.66,142.66,0,0,0-8.53,16.11c-.76.61-1.61,2.48-2.56,5.59,2.4.67,3.6,1.71,3.6,3.15q5.21,6,10.42,6.05c3.28-.35,4.93-1,4.93-2.07a52.62,52.62,0,0,0,5.87-13.26,4.07,4.07,0,0,1,2.27-.77q3.14.54,3.6.54h.29v-.31c-.07-2.25-.51-3.37-1.33-3.37h-4.17q-3.31,0-7.86-.31a2.61,2.61,0,0,1-.95.31q-3-.54-3-1.08v-.84c0-.66,1.55-1.28,4.64-1.84,3.92.21,5.88.38,5.88.54l1.61-.23h5.87q4.26.61,4.26,2.6l-.37.54c0,5,.78,7.44,2.36,7.44a14.26,14.26,0,0,0,2.56.23h1.61a.93.93,0,0,0,1-1.07c0-.92-.12-2.59-.37-5,0-.2.12-.3.37-.3l-.37-1.31q0-10-2.94-10a70.29,70.29,0,0,0-9.1-1.08l-1.32.31c-3.79-.2-6.19-.31-7.2-.31-.32,0-2.05.11-5.21.31l-.66-.31a2.67,2.67,0,0,1-1,.31A26.5,26.5,0,0,1,844.39,178.5Zm-2.28,15.87q3,0,3.6,3.69v.23q0,2.15-3.6,2.68h-.38q-3.6,0-3.6-4.22A7.73,7.73,0,0,1,842.11,194.37Zm6.54-14.26H850c1.52.87,2.28,1.67,2.28,2.38q0,1.53-3.6,3.14-4.26-.37-4.26-2.37C844.39,181.67,845.81,180.63,848.65,180.11Zm7.2-24.61q-10.14,18.33-10.14,20.09l.95.54a2.61,2.61,0,0,1,1-.31v.31a71.26,71.26,0,0,1,8.81-1.31l.37-2.68V170.3q0-5.37.29-13.19l-.29-1.61Zm1.89-3.68v1.31c1.14,0,1.8-.26,2-.77-.32-.72-.63-1.07-1-1.07h-.38C858,151.34,857.74,151.52,857.74,151.82ZM863,180.88a3.16,3.16,0,0,1,3.32,2.07c-1.14,1.94-2.43,2.91-3.89,2.91a4.61,4.61,0,0,1-3.31-2.07V183C859.7,181.57,861,180.88,863,180.88Zm-.28-24.3q-.57,0-.95,12.65c.19,2,.29,3.75.29,5.29l.94.53q2.65,0,12.41.77v-.23q-1.61-4-12.41-19Zm12.69,54.13h-1.61q0,1.83,3.6,6.9c0,.56-.85,1.27-2.56,2.14q-1.6,0-3.6-2.37h-4c-.32,0-.64.61-1,1.84,0,.15.09.23.28.23Q867,234,867.88,234c3.28.16,5.68.23,7.2.23h6.53q3.89,0,5.88,7.44l5.59,8.67.57.3c2.39-4.39,3.6-7.13,3.6-8.2v-.23q-10.43-4.38-10.43-5.83v-.31l1.33-1h3.22c3.73,2.25,6.44,3.37,8.15,3.37h.38l1.61-4.22v-2.07a2.89,2.89,0,0,1,2.65-1.38h1V230a18.36,18.36,0,0,1-2.28-4.53h-.66q-3.12,0-12.41,3.22c-3.73.87-5.68,1.31-5.87,1.31Q881,229.71,881,229q0-1.38,11.75-4.75c4.67-1.58,7.16-2.38,7.48-2.38,0-.92-.32-1.43-.95-1.53q-11.46,2.61-15.34,4.45a13.61,13.61,0,0,1-2.94.53h-1.32c-.32,0-.76-.35-1.33-1.07v-.54c0-.87,2.62-1.91,7.86-3.14q2.46-1.31,11.75-3.68A44.45,44.45,0,0,0,892,206.26c-3.86.72-7.77,1.58-11.75,2.61C878.08,210.09,876.43,210.71,875.36,210.71Zm6.25-23.24v1.61a48.32,48.32,0,0,0,.95,9.74q0,2.38-10.8,2.38h-.28c-.26,0-1.33-.08-3.22-.23v.54q0,1.37,4.54,7.13a54.23,54.23,0,0,1,14-4.76c2.59-.25,3.89-.61,3.89-1.07a154.17,154.17,0,0,1-7.77-14.57l-1-.77Zm3.89,23.77c1.32.36,2,1.08,2,2.15v2.38c0,.25-.44.61-1.33,1.07h-.66q-4.83,0-4.83-1.61A4.43,4.43,0,0,1,885.5,211.24ZM906.43,234a38.61,38.61,0,0,0-2.93,5.83v1l9.75,6.67v1a3.43,3.43,0,0,1-2.93,1.62q-1.43,0-8.15-5h-1.33q-2.83,7.37-5.49,7.36c-.89,0-1.33.18-1.33.54a4.08,4.08,0,0,0,2.28.77q3.41-.77,18.94-1.54c0-.2.22-.31.67-.31v-.76l-8.81-16.95Z"/><path class="cls-4" d="M238.12,235c-.64.31-1.13.54-1.61.79Q206.63,250.89,176.76,266a3.27,3.27,0,0,1-1.51.41v42a2.68,2.68,0,0,0,1.41-.44q39.75-22.93,79.52-45.8c.5-.29,1-.61,1.54-.95C251.13,252.41,244.63,243.73,238.12,235Z"/><path d="M176.53,251q27.24-13.65,54.42-27.4c.41-.21.8-.47,1.29-.75l-22.75-30.38c-.62.26-1.17.48-1.7.73q-15.51,7.16-31,14.36a3.32,3.32,0,0,1-1.52.37v43.35A2.9,2.9,0,0,0,176.53,251Z"/><path class="cls-1" d="M176.47,193.23q13-6,26-12c.41-.19.8-.43,1.3-.69-9.51-12.7-18.93-25.28-28.53-38.08l0,0v51A3.48,3.48,0,0,0,176.47,193.23Z"/><path d="M167.92,244q0,50.79,0,101.57c0,4.49-2,6.91-5.77,7a6,6,0,0,1-6.34-5.67c-.09-.95,0-1.92,0-2.88q0-59,0-118a17,17,0,0,0-1-5.56c-7.11-19.89-19.37-35.41-38.32-45.37-8.7-4.57-15.65-11-19.36-20.4-7.76-19.59,4.78-42.4,25.84-47.44,21.88-5.23,40.61,10.57,44.32,30a50.2,50.2,0,0,1,.66,9.42Q168,195.33,167.92,244ZM137.39,142.84a6.17,6.17,0,0,0-5.93-6.15,6.41,6.41,0,0,0-6.18,6.3,6,6,0,0,0,6.2,5.84A5.71,5.71,0,0,0,137.39,142.84Z"/><path d="M81.2,239.14c1.81-3.16,3.38-6,5-8.75a2,2,0,0,1,1.63-.7c6.7,1,13.8,2,21.25,3.49,4,.77,8,2.44,12.19,3.62s7.39-.15,8.1-3.37c.63-2.84-2-6.06-6-7Q112.1,223.7,102,221.63c-3.29-.67-6.57-1-10-1.53,1.36-2.43,2.77-5,4.27-7.5a2.06,2.06,0,0,1,1.55-.45c7.25,1,15,2.25,23.19,3.43a19.12,19.12,0,0,0,5.86.3c2.61-.49,3.86-2.22,3.57-4.4-.32-2.44-2.48-4.14-5.81-4.57-7.69-1-15-1.83-21.8-2.65-.45-.06-.91-.08-1.79-.15,3.89-6.87,7.54-13.33,11.08-19.56,14.44,5.1,28.55,22.06,35.14,36.27.28.6.17,4.5.17,5.12,0,24.87-.16,44.05-.17,81.74,0,.58-.1,1.11-.12,1.4-7.63-5.71-16.31-12-23.11-16.51C104.9,280,86.54,278,71.27,281.57c-1.42.33-2.89.9-4.28.65-4.13-.73-6.06-6.14-3.79-10.52C67,264.45,70.81,257.61,74.55,251a2.73,2.73,0,0,1,2.1-1c13-.15,26.77,3.59,42,11.51,4.27,2.21,7.94,1.2,9.22-2.51,1.14-3.31-1-7-5.15-9C110.35,244.17,99,240.74,88,239.84,85.85,239.66,83.72,239.4,81.2,239.14Z"/><path class="cls-3" d="M17.25,195.1h-12c.69,2.53,1.45,5,2.26,7.52H18.21C17.82,200.13,17.51,197.63,17.25,195.1Z"/><path class="cls-3" d="M19.35,229.57q2.79,5,5.94,9.78h4.09q-2.23-4.78-4.09-9.78Z"/><path class="cls-3" d="M20.09,212.34h-9q1.77,4.38,3.8,8.65h7.5C21.54,218.14,20.76,215.26,20.09,212.34Z"/><path class="cls-3" d="M16.51,180.84c0-1,0-2,0-3H1.64q.49,3.22,1.11,6.39H16.57C16.55,183.11,16.51,182,16.51,180.84Z"/><path class="cls-3" d="M30.53,246.81q4.47,6,9.47,11.48c-2.48-3.7-4.77-7.54-6.89-11.48Z"/><path class="cls-3" d="M18,160.62H0c.07,1.76.16,3.52.29,5.26h17C17.5,164.12,17.72,162.37,18,160.62Z"/><path class="cls-3" d="M154.31,0A154.49,154.49,0,0,0,1.94,129.15H26.42a139.46,139.46,0,0,1,260.37,3.55,92.55,92.55,0,0,1,20.15-2A154.48,154.48,0,0,0,154.31,0Z"/><path class="cls-3" d="M21.61,143.39H.27c-.1,1.37-.18,2.74-.24,4.12h20.5C20.87,146.13,21.23,144.75,21.61,143.39Z"/><path class="cls-3" d="M273.58,137.08a125.92,125.92,0,0,0-232.45-7.93h9A124.27,124.27,0,0,1,257.6,148.73,48.63,48.63,0,0,1,273.58,137.08Z"/><path class="cls-3" d="M31.25,162.39c.22-.6.47-1.18.7-1.77h-.42C31.43,161.21,31.33,161.8,31.25,162.39Z"/><path class="cls-3" d="M34.43,147.51h3.63q1.13-2.08,2.33-4.12H35.65C35.22,144.75,34.82,146.13,34.43,147.51Z"/></g></g></svg>