<?xml version="1.0" encoding="utf-8"?>
<!-- Generator: Adobe Illustrator 23.0.3, SVG Export Plug-In . SVG Version: 6.00 Build 0)  -->
<svg version="1.1" id="Calque_1" xmlns="http://www.w3.org/2000/svg" xmlns:xlink="http://www.w3.org/1999/xlink" x="0px" y="0px"
	 viewBox="0 0 180 309.7" style="enable-background:new 0 0 180 309.7;" xml:space="preserve">
<style type="text/css">
	.st0{fill:#BE202E;}
	.st1{fill:#FBA919;}
	.st2{fill:#BA8064;}
	.st3{fill:#DBA480;}
	.st4{opacity:0.1;fill:#460100;enable-background:new    ;}
	.st5{fill:#995B47;}
	.st6{fill:#A96E56;}
	.st7{fill:#67251D;}
	.st8{opacity:0.2;}
	.st9{fill:#460100;}
	.st10{fill:#FCC89D;}
	.st11{opacity:0.3;fill:#212121;enable-background:new    ;}
	.st12{opacity:0.15;fill:#212121;enable-background:new    ;}
	.st13{fill:#019547;}
</style>
<polygon class="st0" points="71.9,74.6 13.5,165.1 100.6,204.4 "/>
<polygon class="st1" points="124.2,59.2 83.9,121.7 144,148.8 "/>
<g id="no_cart_in_bag" transform="translate(-988 -7673)">
	<g id="no_cart" transform="translate(988 7673)">
		<g id="Group_5970" transform="translate(0 0)">
			<g id="Group_5967" transform="translate(17.408 92.119)">
				<path id="Path_17743" class="st2" d="M82.1,217.6l63.6-36.8l-50.9-33.5L82.1,217.6z"/>
				<path id="Path_17744" class="st3" d="M16.7,21.4l32.9-0.1L50.9,1l79.5,45.8L96,47.9v19.2L16.7,21.4z"/>
				<path id="Path_17745" class="st4" d="M93.9,83.7L51.5,2.1l-2.3,22l1.4,59.6H93.9z"/>
				<path id="Path_17746" class="st5" d="M25.8,69.2L15.6,21.8l34.6-0.1v37.2L25.8,69.2z"/>
				<path id="Path_17747" class="st6" d="M145.7,180.8l-49.1-22.2L95.5,121l1.1-72.5l36-1.1L145.7,180.8z"/>
				<path id="Path_17748" class="st3" d="M82.1,217.6l9.6-70.3l4.9-79.1L14.5,20.8L0,170.2L82.1,217.6z"/>
				<path id="Path_17749" class="st7" d="M73.4,80.5c-0.4,1.9-2.2,2.6-3.9,1.5c-1.8-1.2-2.8-3.4-2.4-5.6c0.4-1.9,2.2-2.6,3.9-1.5
					C72.8,76.2,73.7,78.3,73.4,80.5z"/>
				<path id="Path_17750" class="st7" d="M39.6,61c-0.4,1.9-2.2,2.6-3.9,1.5c-1.8-1.2-2.8-3.4-2.4-5.6c0.4-1.9,2.2-2.6,3.9-1.5
					C39,56.6,39.9,58.8,39.6,61z"/>
				<g id="Group_5965" transform="translate(31.503 60.166)" class="st8">
					<path id="Path_17751" class="st9" d="M22.6,76.9c-3,0-5.9-0.8-8.4-2.3C4.6,69.1-0.9,58.5,0.1,47.4L4.5,2.2
						C4.6,0.9,5.8-0.1,7.2,0s2.3,1.3,2.2,2.6L4.9,47.9c-0.9,9.1,3.7,18,11.6,22.6c5.7,3.4,13.1,1.4,16.5-4.3
						c0.9-1.5,1.4-3.2,1.6-4.9l3.8-39.4c0.1-1.3,1.3-2.3,2.6-2.2s2.3,1.3,2.2,2.6l0,0l-3.8,39.4C38.6,70.3,31.3,76.9,22.6,76.9
						L22.6,76.9z"/>
				</g>
				<path id="Path_17752" class="st10" d="M50.4,0l-1.3,20.6l-34.6,0.1l82.1,47.4V48.5l36-1.1L50.4,0z M95.4,47.4v18.7L19,21.9
					l31.2-0.1L51.5,2l76.8,44.3L95.4,47.4z"/>
				<g id="Group_5966" transform="translate(29.24 57.45)">
					<path id="Path_17753" class="st5" d="M22.6,76.9c-3,0-5.9-0.8-8.4-2.3C4.6,69.1-0.9,58.5,0.1,47.4L4.5,2.2
						C4.6,0.9,5.8-0.1,7.2,0s2.3,1.3,2.2,2.6L4.9,47.9c-0.9,9.1,3.7,18,11.6,22.6c5.7,3.4,13.1,1.4,16.5-4.3
						c0.9-1.5,1.4-3.2,1.6-4.9l3.8-39.4c0.1-1.3,1.3-2.3,2.6-2.2s2.3,1.3,2.2,2.6l-3.8,39.4C38.6,70.3,31.3,76.9,22.6,76.9z"/>
				</g>
				<path id="Path_17754" class="st5" d="M82.1,217.6l14.5-58.9V68.1L82.1,217.6z"/>
			</g>
			<g id="Group_5968" transform="translate(0 0)">
				<path id="Path_17755" class="st11" d="M45.5,83.1c-0.1-0.5,0.2-0.9,0.5-1.1c0.1-0.1,0.2-0.2,0.3-0.3l0,0
					c-0.1-0.1-0.3-0.1-0.4-0.1c-0.3-0.1-0.9-0.2-1-0.7c-0.1-0.5,0.2-0.9,0.5-1.1c0.1-0.1,0.2-0.2,0.3-0.3l0,0
					c-0.1-0.1-0.3-0.1-0.4-0.1c-0.3-0.1-0.9-0.2-1-0.7s0.2-0.9,0.5-1.1l0,0c0.1-0.1,0.2-0.3,0.3-0.5c0-0.1,0.1-0.3,0.3-0.3
					c0.2-0.1,0.4,0.1,0.5,0.3c0,0,0,0,0,0c0,0.4-0.2,0.8-0.5,1c-0.1,0.1-0.2,0.2-0.3,0.3l0,0c0.1,0.1,0.3,0.1,0.4,0.1
					c0.3,0.1,0.9,0.2,1,0.7c0.1,0.5-0.2,0.9-0.5,1.1c-0.1,0.1-0.2,0.2-0.3,0.3l0,0c0.1,0.1,0.3,0.1,0.4,0.1c0.3,0.1,0.9,0.2,1,0.7
					c0.1,0.5-0.2,0.9-0.5,1.1c-0.1,0.1-0.2,0.2-0.3,0.3l0,0c0.1,0,0.3,0.1,0.4,0.1c0.3,0.1,0.8,0.2,1,0.6c0.1,0.2,0,0.4-0.2,0.5
					c-0.2,0.1-0.3,0-0.5-0.1c-0.1-0.1-0.3-0.2-0.5-0.3l0,0C46.2,83.7,45.6,83.6,45.5,83.1z"/>
				<path id="Path_17765" class="st11" d="M132.7,96.9c0.1-0.5-0.2-0.9-0.5-1.1c-0.1-0.1-0.2-0.2-0.3-0.3l0,0
					c0.1-0.1,0.3-0.1,0.4-0.1c0.3-0.1,0.9-0.2,1-0.7s-0.2-0.9-0.5-1.1c-0.1-0.1-0.2-0.2-0.3-0.3l0,0c0.1-0.1,0.3-0.1,0.4-0.1
					c0.3-0.1,0.9-0.2,1-0.7s-0.2-0.9-0.5-1.1l0,0c-0.1-0.1-0.2-0.3-0.3-0.5c0-0.1-0.1-0.3-0.3-0.3c-0.2-0.1-0.4,0.1-0.5,0.3
					c0,0,0,0,0,0c0,0.4,0.2,0.8,0.5,1c0.1,0.1,0.2,0.2,0.3,0.3l0,0c-0.1,0.1-0.3,0.1-0.4,0.1c-0.3,0.1-0.9,0.2-1,0.7
					s0.2,0.9,0.5,1.1c0.1,0.1,0.2,0.2,0.3,0.3l0,0c-0.1,0.1-0.3,0.1-0.4,0.1c-0.3,0.1-0.9,0.2-1,0.7s0.2,0.9,0.5,1.1
					c0.1,0.1,0.2,0.2,0.3,0.3l0,0c-0.1,0-0.3,0.1-0.4,0.1c-0.3,0.1-0.8,0.2-1,0.6c-0.1,0.2,0,0.4,0.2,0.5c0.2,0.1,0.3,0,0.5-0.1
					c0.1-0.1,0.3-0.2,0.5-0.3l0,0C132.1,97.5,132.6,97.4,132.7,96.9z"/>
				<path id="Path_17756" class="st11" d="M0.2,126.9c-0.6-1.3,0-2.8,1.3-3.3c1.3-0.6,2.8,0,3.3,1.3c0.6,1.3,0,2.8-1.3,3.3
					c0,0,0,0,0,0C2.3,128.7,0.8,128.2,0.2,126.9z M4,125.2c-0.3-0.8-1.3-1.1-2-0.8c-0.8,0.3-1.1,1.3-0.8,2c0.3,0.8,1.3,1.1,2,0.8
					C3.9,126.9,4.3,126,4,125.2L4,125.2z"/>
				<path id="Path_17764" class="st11" d="M41.6,3.6c-0.6-1.3,0-2.8,1.3-3.3c1.3-0.6,2.8,0,3.3,1.3c0.6,1.3,0,2.8-1.3,3.3
					c0,0,0,0,0,0C43.6,5.4,42.1,4.8,41.6,3.6z M45.3,1.9c-0.3-0.8-1.3-1.1-2-0.8c-0.8,0.3-1.1,1.3-0.8,2c0.3,0.8,1.3,1.1,2,0.8
					C45.3,3.6,45.6,2.7,45.3,1.9L45.3,1.9z"/>
				<path id="Path_17757" class="st11" d="M96.4,58.5c-0.7,0.7-1.9,0.7-2.6-0.1c-0.7-0.7-0.7-1.8-0.1-2.5l-0.9-0.8
					c-1.1,1.3-1,3.2,0.2,4.3c1.2,1.1,3,1,4.2-0.1L96.4,58.5z"/>
				<path id="Path_17766" class="st12" d="M175.7,154.2c0.7,0.7,1.9,0.7,2.6-0.1c0.7-0.7,0.7-1.8,0.1-2.5l0.9-0.8
					c1.1,1.3,1,3.2-0.2,4.3c-1.2,1.1-3,1-4.2-0.1L175.7,154.2z"/>
				<path id="Union_11" class="st11" d="M8.6,55.6l1-3l-3-1l0.3-0.9l3,1l1-3l0.9,0.3l-1,3l3,1l-0.3,0.9l-3-1l-1,3L8.6,55.6z"/>
				<path id="Union_13" class="st11" d="M96.4,128.1l1-3l-3-1l0.3-0.9l3,1l1-3l0.9,0.3l-1,3l3,1l-0.3,0.9l-3-1l-1,3L96.4,128.1z"/>
				<path id="Union_12" class="st11" d="M108.6,10.7l0.6-1.8l-1.8-0.6l0.2-0.5l1.8,0.6l0.6-1.8l0.5,0.2l-0.6,1.8l1.8,0.6l-0.2,0.5
					l-1.8-0.6l-0.6,1.8L108.6,10.7z"/>
			</g>
		</g>
	</g>
</g>
<polygon class="st13" points="82.5,249.2 53.8,274 91.9,296.7 "/>
<polygon points="48.9,225.5 53,259.7 81,239.4 "/>
</svg>
