<?xml version="1.0" encoding="utf-8"?>
<!-- Generator: Adobe Illustrator 23.0.3, SVG Export Plug-In . SVG Version: 6.00 Build 0)  -->
<svg version="1.1" id="Calque_1" xmlns="http://www.w3.org/2000/svg" xmlns:xlink="http://www.w3.org/1999/xlink" x="0px" y="0px"
	 viewBox="0 0 800 600" style="enable-background:new 0 0 800 600;" xml:space="preserve">
<style type="text/css">
	.st0{fill:#FFFFE1;}
	.st1{fill:#BE1E2D;}
	.st2{fill:#009444;}
	.st3{fill:#FFA902;}
	.st4{fill:#006D44;}
	.st5{fill:#353535;}
	.st6{font-family:'OpenSans-Regular';}
	.st7{font-size:21px;}
	.st8{fill:#BF202F;}
	.st9{fill:#FBA819;}
	.st10{fill:#0E9648;}
</style>
<rect x="-7.5" y="-5" class="st0" width="817.4" height="611.6"/>
<g>
	<g id="Calque_1-2">
		<path class="st1" d="M483.1,288.8l1.1-32.7c0,0,1.7-1.6,3-0.9c1.3,0.8,11.5-1.8,17.3,3.4s1.1,14.5-5.5,16.5l7,10.5l-5,3.7l-9.2-13
			l-1,4.5l-0.2,8L483.1,288.8z"/>
		<polygon class="st2" points="442.8,288.1 459.1,255.8 461.5,255.8 479.6,288.7 478.3,288.9 471.2,289.5 467.7,282.6 455.2,282.5 
			451.7,288.7 443.4,288.8 442.8,288.4 		"/>
		<polygon class="st3" points="367.5,288.1 383.8,255.8 386.2,255.8 404.3,288.7 403,288.9 395.9,289.5 392.4,282.6 379.9,282.5 
			376.4,288.7 368.1,288.8 367.5,288.4 		"/>
		<polygon class="st2" points="511.3,288.1 527.5,255.8 529.9,255.8 548,288.7 546.7,288.9 539.6,289.5 536.1,282.6 523.6,282.5 
			520.1,288.7 511.8,288.8 511.3,288.4 		"/>
		<path d="M345,259.3h-0.4c-0.6,0.3-1,0.6-1,1.1s0.3,0.7,1,0.7c0.8,0,1.5-0.4,1.7-1.2C346.2,259.5,345.7,259.3,345,259.3z
			 M345.4,265.4V265c0-0.9-0.2-1.4-0.6-1.4c-0.3,0.1-0.4,0.2-0.4,0.3v0.1c0,0.4-0.1,0.9-0.1,1.3c-1,0.1-1.5,0.2-1.5,0.3
			s0.4,0.4,1.3,0.5c0.3,1.3,0.7,2,1.3,2c0.2,0,0.3-0.1,0.4-0.2c-0.2-0.5-0.4-1-0.4-1.6l0.2-0.2c0.7,0,1.3,0.1,1.6,0.1
			s0.6-0.1,0.6-0.3v-0.2C347.8,265.6,347,265.4,345.4,265.4L345.4,265.4z M360.3,279.6c-0.7,0-1.1,0.4-1.1,1.3
			c0,0.3,0.2,0.6,0.6,0.7h0.6c0.8,0,1.2-0.3,1.2-0.8v-0.2C361.3,280,360.9,279.6,360.3,279.6z M360.3,279.6c-0.7,0-1.1,0.4-1.1,1.3
			c0,0.3,0.2,0.6,0.6,0.7h0.6c0.8,0,1.2-0.3,1.2-0.8v-0.2C361.3,280,360.9,279.6,360.3,279.6z M345.4,265.4V265
			c0-0.9-0.2-1.4-0.6-1.4c-0.3,0.1-0.4,0.2-0.4,0.3v0.1c0,0.4-0.1,0.9-0.1,1.3c-1,0.1-1.5,0.2-1.5,0.3c0,0.2,0.4,0.4,1.3,0.5
			c0.3,1.3,0.7,2,1.3,2c0.2,0,0.3-0.1,0.4-0.2c-0.2-0.5-0.4-1-0.4-1.6l0.2-0.2c0.7,0,1.3,0.1,1.6,0.1s0.6-0.1,0.6-0.3v-0.2
			C347.8,265.6,347,265.4,345.4,265.4L345.4,265.4z M345,259.3h-0.4c-0.6,0.3-1,0.6-1,1.1s0.3,0.7,1,0.7c0.8,0,1.5-0.4,1.7-1.2
			C346.2,259.5,345.7,259.3,345,259.3z M345,259.3h-0.4c-0.6,0.3-1,0.6-1,1.1s0.3,0.7,1,0.7c0.8,0,1.5-0.4,1.7-1.2
			C346.2,259.5,345.7,259.3,345,259.3z M345.4,265.4V265c0-0.9-0.2-1.4-0.6-1.4c-0.3,0.1-0.4,0.2-0.4,0.3v0.1c0,0.4-0.1,0.9-0.1,1.3
			c-1,0.1-1.5,0.2-1.5,0.3s0.4,0.4,1.3,0.5c0.3,1.3,0.7,2,1.3,2c0.2,0,0.3-0.1,0.4-0.2c-0.2-0.5-0.4-1-0.4-1.6l0.2-0.2
			c0.7,0,1.3,0.1,1.6,0.1s0.6-0.1,0.6-0.3v-0.2C347.8,265.6,347,265.4,345.4,265.4L345.4,265.4z M360.3,279.6
			c-0.7,0-1.1,0.4-1.1,1.3c0,0.3,0.2,0.6,0.6,0.7h0.6c0.8,0,1.2-0.3,1.2-0.8v-0.2C361.3,280,360.9,279.6,360.3,279.6z M360.3,279.6
			c-0.7,0-1.1,0.4-1.1,1.3c0,0.3,0.2,0.6,0.6,0.7h0.6c0.8,0,1.2-0.3,1.2-0.8v-0.2C361.3,280,360.9,279.6,360.3,279.6z M345.4,265.4
			V265c0-0.9-0.2-1.4-0.6-1.4c-0.3,0.1-0.4,0.2-0.4,0.3v0.1c0,0.4-0.1,0.9-0.1,1.3c-1,0.1-1.5,0.2-1.5,0.3c0,0.2,0.4,0.4,1.3,0.5
			c0.3,1.3,0.7,2,1.3,2c0.2,0,0.3-0.1,0.4-0.2c-0.2-0.5-0.4-1-0.4-1.6l0.2-0.2c0.7,0,1.3,0.1,1.6,0.1s0.6-0.1,0.6-0.3v-0.2
			C347.8,265.6,347,265.4,345.4,265.4L345.4,265.4z M345,259.3h-0.4c-0.6,0.3-1,0.6-1,1.1s0.3,0.7,1,0.7c0.8,0,1.5-0.4,1.7-1.2
			C346.2,259.5,345.7,259.3,345,259.3z M345,259.3h-0.4c-0.6,0.3-1,0.6-1,1.1s0.3,0.7,1,0.7c0.8,0,1.5-0.4,1.7-1.2
			C346.2,259.5,345.7,259.3,345,259.3z M345.4,265.4V265c0-0.9-0.2-1.4-0.6-1.4c-0.3,0.1-0.4,0.2-0.4,0.3v0.1c0,0.4-0.1,0.9-0.1,1.3
			c-1,0.1-1.5,0.2-1.5,0.3s0.4,0.4,1.3,0.5c0.3,1.3,0.7,2,1.3,2c0.2,0,0.3-0.1,0.4-0.2c-0.2-0.5-0.4-1-0.4-1.6l0.2-0.2
			c0.7,0,1.3,0.1,1.6,0.1s0.6-0.1,0.6-0.3v-0.2C347.8,265.6,347,265.4,345.4,265.4L345.4,265.4z M360.3,279.6
			c-0.7,0-1.1,0.4-1.1,1.3c0,0.3,0.2,0.6,0.6,0.7h0.6c0.8,0,1.2-0.3,1.2-0.8v-0.2C361.3,280,360.9,279.6,360.3,279.6z M360.3,279.6
			c-0.7,0-1.1,0.4-1.1,1.3c0,0.3,0.2,0.6,0.6,0.7h0.6c0.8,0,1.2-0.3,1.2-0.8v-0.2C361.3,280,360.9,279.6,360.3,279.6z M345.4,265.4
			V265c0-0.9-0.2-1.4-0.6-1.4c-0.3,0.1-0.4,0.2-0.4,0.3v0.1c0,0.4-0.1,0.9-0.1,1.3c-1,0.1-1.5,0.2-1.5,0.3c0,0.2,0.4,0.4,1.3,0.5
			c0.3,1.3,0.7,2,1.3,2c0.2,0,0.3-0.1,0.4-0.2c-0.2-0.5-0.4-1-0.4-1.6l0.2-0.2c0.7,0,1.3,0.1,1.6,0.1s0.6-0.1,0.6-0.3v-0.2
			C347.8,265.6,347,265.4,345.4,265.4L345.4,265.4z M345,259.3h-0.4c-0.6,0.3-1,0.6-1,1.1s0.3,0.7,1,0.7c0.8,0,1.5-0.4,1.7-1.2
			C346.2,259.5,345.7,259.3,345,259.3z M345,259.3h-0.4c-0.6,0.3-1,0.6-1,1.1s0.3,0.7,1,0.7c0.8,0,1.5-0.4,1.7-1.2
			C346.2,259.5,345.7,259.3,345,259.3z M345.4,265.4V265c0-0.9-0.2-1.4-0.6-1.4c-0.3,0.1-0.4,0.2-0.4,0.3v0.1c0,0.4-0.1,0.9-0.1,1.3
			c-1,0.1-1.5,0.2-1.5,0.3s0.4,0.4,1.3,0.5c0.3,1.3,0.7,2,1.3,2c0.2,0,0.3-0.1,0.4-0.2c-0.2-0.5-0.4-1-0.4-1.6l0.2-0.2
			c0.7,0,1.3,0.1,1.6,0.1s0.6-0.1,0.6-0.3v-0.2C347.8,265.6,347,265.4,345.4,265.4L345.4,265.4z M360.3,279.6
			c-0.7,0-1.1,0.4-1.1,1.3c0,0.3,0.2,0.6,0.6,0.7h0.6c0.8,0,1.2-0.3,1.2-0.8v-0.2C361.3,280,360.9,279.6,360.3,279.6z M360.3,279.6
			c-0.7,0-1.1,0.4-1.1,1.3c0,0.3,0.2,0.6,0.6,0.7h0.6c0.8,0,1.2-0.3,1.2-0.8v-0.2C361.3,280,360.9,279.6,360.3,279.6z M345.4,265.4
			V265c0-0.9-0.2-1.4-0.6-1.4c-0.3,0.1-0.4,0.2-0.4,0.3v0.1c0,0.4-0.1,0.9-0.1,1.3c-1,0.1-1.5,0.2-1.5,0.3c0,0.2,0.4,0.4,1.3,0.5
			c0.3,1.3,0.7,2,1.3,2c0.2,0,0.3-0.1,0.4-0.2c-0.2-0.5-0.4-1-0.4-1.6l0.2-0.2c0.7,0,1.3,0.1,1.6,0.1s0.6-0.1,0.6-0.3v-0.2
			C347.8,265.6,347,265.4,345.4,265.4L345.4,265.4z M345,259.3h-0.4c-0.6,0.3-1,0.6-1,1.1s0.3,0.7,1,0.7c0.8,0,1.5-0.4,1.7-1.2
			C346.2,259.5,345.7,259.3,345,259.3z M345,259.3h-0.4c-0.6,0.3-1,0.6-1,1.1s0.3,0.7,1,0.7c0.8,0,1.5-0.4,1.7-1.2
			C346.2,259.5,345.7,259.3,345,259.3z M345.4,265.4V265c0-0.9-0.2-1.4-0.6-1.4c-0.3,0.1-0.4,0.2-0.4,0.3v0.1c0,0.4-0.1,0.9-0.1,1.3
			c-1,0.1-1.5,0.2-1.5,0.3s0.4,0.4,1.3,0.5c0.3,1.3,0.7,2,1.3,2c0.2,0,0.3-0.1,0.4-0.2c-0.2-0.5-0.4-1-0.4-1.6l0.2-0.2
			c0.7,0,1.3,0.1,1.6,0.1s0.6-0.1,0.6-0.3v-0.2C347.8,265.6,347,265.4,345.4,265.4L345.4,265.4z M360.3,279.6
			c-0.7,0-1.1,0.4-1.1,1.3c0,0.3,0.2,0.6,0.6,0.7h0.6c0.8,0,1.2-0.3,1.2-0.8v-0.2C361.3,280,360.9,279.6,360.3,279.6z M360.3,279.6
			c-0.7,0-1.1,0.4-1.1,1.3c0,0.3,0.2,0.6,0.6,0.7h0.6c0.8,0,1.2-0.3,1.2-0.8v-0.2C361.3,280,360.9,279.6,360.3,279.6z M345.4,265.4
			V265c0-0.9-0.2-1.4-0.6-1.4c-0.3,0.1-0.4,0.2-0.4,0.3v0.1c0,0.4-0.1,0.9-0.1,1.3c-1,0.1-1.5,0.2-1.5,0.3c0,0.2,0.4,0.4,1.3,0.5
			c0.3,1.3,0.7,2,1.3,2c0.2,0,0.3-0.1,0.4-0.2c-0.2-0.5-0.4-1-0.4-1.6l0.2-0.2c0.7,0,1.3,0.1,1.6,0.1s0.6-0.1,0.6-0.3v-0.2
			C347.8,265.6,347,265.4,345.4,265.4L345.4,265.4z M345,259.3h-0.4c-0.6,0.3-1,0.6-1,1.1s0.3,0.7,1,0.7c0.8,0,1.5-0.4,1.7-1.2
			C346.2,259.5,345.7,259.3,345,259.3z M345,259.3h-0.4c-0.6,0.3-1,0.6-1,1.1s0.3,0.7,1,0.7c0.8,0,1.5-0.4,1.7-1.2
			C346.2,259.5,345.7,259.3,345,259.3z M345.4,265.4V265c0-0.9-0.2-1.4-0.6-1.4c-0.3,0.1-0.4,0.2-0.4,0.3v0.1c0,0.4-0.1,0.9-0.1,1.3
			c-1,0.1-1.5,0.2-1.5,0.3s0.4,0.4,1.3,0.5c0.3,1.3,0.7,2,1.3,2c0.2,0,0.3-0.1,0.4-0.2c-0.2-0.5-0.4-1-0.4-1.6l0.2-0.2
			c0.7,0,1.3,0.1,1.6,0.1s0.6-0.1,0.6-0.3v-0.2C347.8,265.6,347,265.4,345.4,265.4L345.4,265.4z M360.3,279.6
			c-0.7,0-1.1,0.4-1.1,1.3c0,0.3,0.2,0.6,0.6,0.7h0.6c0.8,0,1.2-0.3,1.2-0.8v-0.2C361.3,280,360.9,279.6,360.3,279.6z M360.3,279.6
			c-0.7,0-1.1,0.4-1.1,1.3c0,0.3,0.2,0.6,0.6,0.7h0.6c0.8,0,1.2-0.3,1.2-0.8v-0.2C361.3,280,360.9,279.6,360.3,279.6z M345.4,265.4
			V265c0-0.9-0.2-1.4-0.6-1.4c-0.3,0.1-0.4,0.2-0.4,0.3v0.1c0,0.4-0.1,0.9-0.1,1.3c-1,0.1-1.5,0.2-1.5,0.3c0,0.2,0.4,0.4,1.3,0.5
			c0.3,1.3,0.7,2,1.3,2c0.2,0,0.3-0.1,0.4-0.2c-0.2-0.5-0.4-1-0.4-1.6l0.2-0.2c0.7,0,1.3,0.1,1.6,0.1s0.6-0.1,0.6-0.3v-0.2
			C347.8,265.6,347,265.4,345.4,265.4L345.4,265.4z M345,259.3h-0.4c-0.6,0.3-1,0.6-1,1.1s0.3,0.7,1,0.7c0.8,0,1.5-0.4,1.7-1.2
			C346.2,259.5,345.7,259.3,345,259.3z M345,259.3h-0.4c-0.6,0.3-1,0.6-1,1.1s0.3,0.7,1,0.7c0.8,0,1.5-0.4,1.7-1.2
			C346.2,259.5,345.7,259.3,345,259.3z M345.4,265.4V265c0-0.9-0.2-1.4-0.6-1.4c-0.3,0.1-0.4,0.2-0.4,0.3v0.1c0,0.4-0.1,0.9-0.1,1.3
			c-1,0.1-1.5,0.2-1.5,0.3s0.4,0.4,1.3,0.5c0.3,1.3,0.7,2,1.3,2c0.2,0,0.3-0.1,0.4-0.2c-0.2-0.5-0.4-1-0.4-1.6l0.2-0.2
			c0.7,0,1.3,0.1,1.6,0.1s0.6-0.1,0.6-0.3v-0.2C347.8,265.6,347,265.4,345.4,265.4L345.4,265.4z M360.3,279.6
			c-0.7,0-1.1,0.4-1.1,1.3c0,0.3,0.2,0.6,0.6,0.7h0.6c0.8,0,1.2-0.3,1.2-0.8v-0.2C361.3,280,360.9,279.6,360.3,279.6z M360.3,279.6
			c-0.7,0-1.1,0.4-1.1,1.3c0,0.3,0.2,0.6,0.6,0.7h0.6c0.8,0,1.2-0.3,1.2-0.8v-0.2C361.3,280,360.9,279.6,360.3,279.6z M345.4,265.4
			V265c0-0.9-0.2-1.4-0.6-1.4c-0.3,0.1-0.4,0.2-0.4,0.3v0.1c0,0.4-0.1,0.9-0.1,1.3c-1,0.1-1.5,0.2-1.5,0.3c0,0.2,0.4,0.4,1.3,0.5
			c0.3,1.3,0.7,2,1.3,2c0.2,0,0.3-0.1,0.4-0.2c-0.2-0.5-0.4-1-0.4-1.6l0.2-0.2c0.7,0,1.3,0.1,1.6,0.1s0.6-0.1,0.6-0.3v-0.2
			C347.8,265.6,347,265.4,345.4,265.4L345.4,265.4z M345,259.3h-0.4c-0.6,0.3-1,0.6-1,1.1s0.3,0.7,1,0.7c0.8,0,1.5-0.4,1.7-1.2
			C346.2,259.5,345.7,259.3,345,259.3z M345,259.3h-0.4c-0.6,0.3-1,0.6-1,1.1s0.3,0.7,1,0.7c0.8,0,1.5-0.4,1.7-1.2
			C346.2,259.5,345.7,259.3,345,259.3z M345.4,265.4V265c0-0.9-0.2-1.4-0.6-1.4c-0.3,0.1-0.4,0.2-0.4,0.3v0.1c0,0.4-0.1,0.9-0.1,1.3
			c-1,0.1-1.5,0.2-1.5,0.3s0.4,0.4,1.3,0.5c0.3,1.3,0.7,2,1.3,2c0.2,0,0.3-0.1,0.4-0.2c-0.2-0.5-0.4-1-0.4-1.6l0.2-0.2
			c0.7,0,1.3,0.1,1.6,0.1s0.6-0.1,0.6-0.3v-0.2C347.8,265.6,347,265.4,345.4,265.4L345.4,265.4z M360.3,279.6
			c-0.7,0-1.1,0.4-1.1,1.3c0,0.3,0.2,0.6,0.6,0.7h0.6c0.8,0,1.2-0.3,1.2-0.8v-0.2C361.3,280,360.9,279.6,360.3,279.6z M360.3,279.6
			c-0.7,0-1.1,0.4-1.1,1.3c0,0.3,0.2,0.6,0.6,0.7h0.6c0.8,0,1.2-0.3,1.2-0.8v-0.2C361.3,280,360.9,279.6,360.3,279.6z M345.4,265.4
			V265c0-0.9-0.2-1.4-0.6-1.4c-0.3,0.1-0.4,0.2-0.4,0.3v0.1c0,0.4-0.1,0.9-0.1,1.3c-1,0.1-1.5,0.2-1.5,0.3c0,0.2,0.4,0.4,1.3,0.5
			c0.3,1.3,0.7,2,1.3,2c0.2,0,0.3-0.1,0.4-0.2c-0.2-0.5-0.4-1-0.4-1.6l0.2-0.2c0.7,0,1.3,0.1,1.6,0.1s0.6-0.1,0.6-0.3v-0.2
			C347.8,265.6,347,265.4,345.4,265.4L345.4,265.4z M345,259.3h-0.4c-0.6,0.3-1,0.6-1,1.1s0.3,0.7,1,0.7c0.8,0,1.5-0.4,1.7-1.2
			C346.2,259.5,345.7,259.3,345,259.3z M345,259.3h-0.4c-0.6,0.3-1,0.6-1,1.1s0.3,0.7,1,0.7c0.8,0,1.5-0.4,1.7-1.2
			C346.2,259.5,345.7,259.3,345,259.3z M345.4,265.4V265c0-0.9-0.2-1.4-0.6-1.4c-0.3,0.1-0.4,0.2-0.4,0.3v0.1c0,0.4-0.1,0.9-0.1,1.3
			c-1,0.1-1.5,0.2-1.5,0.3s0.4,0.4,1.3,0.5c0.3,1.3,0.7,2,1.3,2c0.2,0,0.3-0.1,0.4-0.2c-0.2-0.5-0.4-1-0.4-1.6l0.2-0.2
			c0.7,0,1.3,0.1,1.6,0.1s0.6-0.1,0.6-0.3v-0.2C347.8,265.6,347,265.4,345.4,265.4L345.4,265.4z M360.3,279.6
			c-0.7,0-1.1,0.4-1.1,1.3c0,0.3,0.2,0.6,0.6,0.7h0.6c0.8,0,1.2-0.3,1.2-0.8v-0.2C361.3,280,360.9,279.6,360.3,279.6z M360.3,279.6
			c-0.7,0-1.1,0.4-1.1,1.3c0,0.3,0.2,0.6,0.6,0.7h0.6c0.8,0,1.2-0.3,1.2-0.8v-0.2C361.3,280,360.9,279.6,360.3,279.6z M345.4,265.4
			V265c0-0.9-0.2-1.4-0.6-1.4c-0.3,0.1-0.4,0.2-0.4,0.3v0.1c0,0.4-0.1,0.9-0.1,1.3c-1,0.1-1.5,0.2-1.5,0.3c0,0.2,0.4,0.4,1.3,0.5
			c0.3,1.3,0.7,2,1.3,2c0.2,0,0.3-0.1,0.4-0.2c-0.2-0.5-0.4-1-0.4-1.6l0.2-0.2c0.7,0,1.3,0.1,1.6,0.1s0.6-0.1,0.6-0.3v-0.2
			C347.8,265.6,347,265.4,345.4,265.4L345.4,265.4z M345,259.3h-0.4c-0.6,0.3-1,0.6-1,1.1s0.3,0.7,1,0.7c0.8,0,1.5-0.4,1.7-1.2
			C346.2,259.5,345.7,259.3,345,259.3z M364.2,278.6c0-1.8-1.4-4-4.2-6.6l-2.9-2.5l-5-3.5c-2-1.1-3.1-2.1-3.4-2.9
			c0.3-0.7,0.5-1.1,0.9-1.1h0.7c0.7,0,1.5,0.2,2.2,0.3c1.5,0.6,3,1.3,4.2,2.3c0.4,0.5,0.8,0.8,1.1,0.8c0.4-0.1,0.6-0.2,0.6-0.3
			c0.3,0,1.3-1,3.1-3.1c0.9-1,1.3-1.8,1.3-2.4c-0.1-0.9-1.8-2.2-5.1-3.9c-2.9-0.8-4.7-1.2-5.4-1.2h-0.9l-0.5,0.1
			c0-0.1,0-0.1-0.1-0.1c-0.5,0-1.2,0-2.2,0.1c-3.2,0.7-5.2,1.6-6.1,2.9l-1.7,2.2c-0.4,1.4-0.6,2.2-0.8,2.4v1.9
			c0,1.2,0.4,2.3,1.1,3.3c0,0.2,0.6,0.8,1.7,1.9c1.9,1.5,3.9,2.7,6.1,3.8c1.1,0.4,2.9,1.7,5.4,4.1c0.6,0.7,1.1,1.4,1.5,2.2v1.5
			c-0.5,1.3-1.5,2-2.8,2h-0.4c-1.6,0-3.7-1-6.3-3c-0.9-1-1.5-1.6-1.9-1.6l-0.2,0.1c-1.4,1.2-2.6,2.5-3.8,3.9c-0.4,0.2-0.7,0.5-0.6,1
			v0.5c0.1,0.2,0.2,0.3,0.3,0.3c0,0.5,0.8,1.3,2.4,2.3c0.7,0.6,1.4,1.2,2.3,1.5c3.8,1.7,7,2.5,9.7,2.5c2.6-0.4,4.3-0.8,5.1-1.1
			c2-1.1,3.1-1.9,3.2-2.5c1.4-1.1,2.1-3,2.1-5.5C364.5,279.6,364.4,278.8,364.2,278.6L364.2,278.6z M341.9,284
			c-0.3-0.1-0.4-0.3-0.4-0.3v-0.2c0.1-0.1,0.2-0.2,0.2-0.4h0.2v0.4l0.1,0.4C341.9,283.9,341.9,284,341.9,284L341.9,284z
			 M350.7,267.4h0.3v0.1c1.2,0.7,1.9,1.1,1.9,1.3c0,0.2-0.1,0.4-0.3,0.4h-0.1c-0.7-0.4-1.4-0.9-2-1.5
			C350.5,267.5,350.6,267.4,350.7,267.4L350.7,267.4z M349.6,268.4l1.8,1.6v0.2h-0.3c-1.4-0.8-2.1-1.2-2.1-1.3v-0.1
			C349.1,268.6,349.3,268.5,349.6,268.4L349.6,268.4z M356.8,258.2l0.1-0.6c1,0.2,2.3,1,4,2.4c0,0.3-0.2,0.6-0.5,0.7h-0.2
			c-1.2-0.6-2.3-1.3-3.4-2L356.8,258.2z M356.5,260.4c0-0.3,0.1-0.5,0.3-0.5c1.6,1.1,2.5,1.6,2.7,1.6v0.1c0,0.3-0.2,0.5-0.6,0.6
			C357.4,261.1,356.6,260.5,356.5,260.4L356.5,260.4z M356.3,261.7h0.1c0,0,0.6,0.5,1.8,1.4v0.1c-0.2,0.2-0.3,0.3-0.4,0.3
			c-1.1-0.6-1.7-1.1-1.9-1.3C355.9,261.9,356.1,261.7,356.3,261.7L356.3,261.7z M347.2,256.6c1.1-0.3,2.2-0.4,3.4-0.4h1.1
			c0.9,0.1,1.8,0.2,2.7,0.4c0.4,0,0.6,0.6,0.6,1.9c-0.1,1-0.4,1.9-0.6,2.8h-0.1c-0.3-0.2-0.6-0.3-0.9-0.3c-1.8-0.3-2.7-0.6-2.7-1.2
			c-0.3-0.7-1.5-1.8-3.5-3.1L347.2,256.6z M341.8,261.4v-0.3c0.2-0.4,0.6-0.8,1-1.1c0-0.7,0.8-1.6,2.5-2.6l0.8,0.2
			c1.4,1,2.5,1.9,3,2.8v0.1c-0.3,0-0.7,0.3-1.2,0.9c-0.4,0.5-1.2,0.7-2.4,0.7h-0.5c-1.1,0.2-2.2,0.5-3.3,0.8h-0.1
			C341.6,262.7,341.7,262.3,341.8,261.4L341.8,261.4z M345.5,269.3c-2.6-1.7-3.9-3.4-3.9-5.3V264c0-0.2,1.1-0.5,3.2-0.9h0.3
			c0.4,0,1,0,1.9,0.1v0.3c0.2,1,0.9,1.9,2.2,2.8v0.2C349.1,266.9,347.9,267.8,345.5,269.3L345.5,269.3z M350.4,270.8
			c0,0.1-0.3,0.3-0.9,0.6h-0.1c-1.4-0.7-2.1-1.1-2.3-1.3V270l0.5-0.5c0.1,0,0.3,0,0.4,0.1c1.3,0.7,2,1.1,2.3,1.1V270.8z
			 M350.9,272.5v-0.3l3.2-2.5l0.9,0.4c-1.9,1.7-3.1,2.6-3.5,2.6C351.4,272.7,351.2,272.6,350.9,272.5L350.9,272.5z M353.7,274.3
			h-0.2c-0.3-0.2-0.5-0.4-0.5-0.4v-0.1c2.2-1.6,3.4-2.5,3.4-2.6c0.3,0.1,0.5,0.2,0.6,0.4v0.2C356.4,272.4,355.4,273.2,353.7,274.3
			L353.7,274.3z M354.9,275.2l3.1-2.2c0.5,0,0.9,0.3,1.3,0.9l2.4,2.5v0.1c-1.6,0-3.2,0.5-4.7,1.2h-0.2
			C355.5,276.3,354.9,275.5,354.9,275.2L354.9,275.2z M347.2,282.6c0.9,0.5,1.8,1,2.8,1.3v0.1l-1.3,0.2c-0.6,0-1.2-0.4-1.7-1.1
			L347.2,282.6z M350.3,286.8l-0.8,0.2h-0.1c-0.1,0-0.7-0.1-1.9-0.2c-2.5-0.9-3.8-2-3.8-3.4c0-1.1,0.4-1.9,1.1-2.5h0.1
			c0.3,0.5,0.6,0.7,0.9,0.7c-0.3,0.4-0.5,0.8-0.5,1.3v0.4c1.1,1.2,2.3,1.8,3.4,1.8c1.6,0,2.6-0.2,3.1-0.7h0.1c0.5,0.6,0.8,1,0.9,1.3
			l-2.3,1.1L350.3,286.8z M352.6,288.4c-0.5,0-1-0.1-1.5-0.3v-0.1c0.6-0.1,1.2-0.3,1.7-0.7h0.1l0.2,0.1
			C353.1,288.1,352.9,288.4,352.6,288.4L352.6,288.4z M359.7,286.9c-1.9,0.9-3.5,1.4-4.8,1.4h-0.1v-0.2c0-1.3-0.3-2.6-0.8-3.9v-0.1
			c0.4,0,1-0.3,2-1h0.6c1,0,2.3,1.1,3.7,3.2C360.3,286.4,360.1,286.6,359.7,286.9L359.7,286.9z M362.9,281.5c0,0.4-0.1,0.8-0.3,1.2
			l0.1,0.2c0,0.2-0.4,0.9-1.2,1.9c-0.2,0-0.4-0.2-0.6-0.6c-1-1.2-2.3-2-3.8-2.4c0-0.7,0.1-1.3,0.2-2l-0.1-1c0.1,0,0.3-0.1,0.4-0.1
			c1-0.7,2.2-1.1,3.4-1.1h0.4c0.1,0,0.1,0,0.1,0.1c0.9,0,1.3,1.1,1.3,3.2V281.5C362.9,281.5,362.9,281.5,362.9,281.5z M360.3,279.6
			c-0.7,0-1.1,0.4-1.1,1.3c0,0.3,0.2,0.6,0.6,0.7h0.6c0.8,0,1.2-0.3,1.2-0.8v-0.2C361.3,280,360.9,279.6,360.3,279.6z M345.4,265.4
			V265c0-0.9-0.2-1.4-0.6-1.4c-0.3,0.1-0.4,0.2-0.4,0.3v0.1c0,0.4-0.1,0.9-0.1,1.3c-1,0.1-1.5,0.2-1.5,0.3c0,0.2,0.4,0.4,1.3,0.5
			c0.3,1.3,0.7,2,1.3,2c0.2,0,0.3-0.1,0.4-0.2c-0.2-0.5-0.4-1-0.4-1.6l0.2-0.2c0.7,0,1.3,0.1,1.6,0.1s0.6-0.1,0.6-0.3v-0.2
			C347.8,265.6,347,265.4,345.4,265.4L345.4,265.4z M344.5,261.1c0.8,0,1.5-0.4,1.7-1.2c-0.1-0.5-0.6-0.7-1.3-0.7h-0.4
			c-0.6,0.3-1,0.6-1,1.1C343.6,260.9,343.9,261.1,344.5,261.1L344.5,261.1z M345,259.3h-0.4c-0.6,0.3-1,0.6-1,1.1
			c0,0.5,0.3,0.7,1,0.7c0.8,0,1.5-0.4,1.7-1.2C346.2,259.5,345.7,259.3,345,259.3L345,259.3z M345.4,265.4V265
			c0-0.9-0.2-1.4-0.6-1.4c-0.3,0.1-0.4,0.2-0.4,0.3v0.1c0,0.4-0.1,0.9-0.1,1.3c-1,0.1-1.5,0.2-1.5,0.3c0,0.2,0.4,0.4,1.3,0.5
			c0.3,1.3,0.7,2,1.3,2c0.2,0,0.3-0.1,0.4-0.2c-0.2-0.5-0.4-1-0.4-1.6l0.2-0.2c0.7,0,1.3,0.1,1.6,0.1s0.6-0.1,0.6-0.3v-0.2
			C347.8,265.6,347,265.4,345.4,265.4L345.4,265.4z M360.3,279.6c-0.7,0-1.1,0.4-1.1,1.3c0,0.3,0.2,0.6,0.6,0.7h0.6
			c0.8,0,1.2-0.3,1.2-0.8v-0.2C361.3,280,360.9,279.6,360.3,279.6z M360.3,279.6c-0.7,0-1.1,0.4-1.1,1.3c0,0.3,0.2,0.6,0.6,0.7h0.6
			c0.8,0,1.2-0.3,1.2-0.8v-0.2C361.3,280,360.9,279.6,360.3,279.6z M345.4,265.4V265c0-0.9-0.2-1.4-0.6-1.4
			c-0.3,0.1-0.4,0.2-0.4,0.3v0.1c0,0.4-0.1,0.9-0.1,1.3c-1,0.1-1.5,0.2-1.5,0.3c0,0.2,0.4,0.4,1.3,0.5c0.3,1.3,0.7,2,1.3,2
			c0.2,0,0.3-0.1,0.4-0.2c-0.2-0.5-0.4-1-0.4-1.6l0.2-0.2c0.7,0,1.3,0.1,1.6,0.1s0.6-0.1,0.6-0.3v-0.2
			C347.8,265.6,347,265.4,345.4,265.4L345.4,265.4z M345,259.3h-0.4c-0.6,0.3-1,0.6-1,1.1s0.3,0.7,1,0.7c0.8,0,1.5-0.4,1.7-1.2
			C346.2,259.5,345.7,259.3,345,259.3z M345,259.3h-0.4c-0.6,0.3-1,0.6-1,1.1s0.3,0.7,1,0.7c0.8,0,1.5-0.4,1.7-1.2
			C346.2,259.5,345.7,259.3,345,259.3z M345.4,265.4V265c0-0.9-0.2-1.4-0.6-1.4c-0.3,0.1-0.4,0.2-0.4,0.3v0.1c0,0.4-0.1,0.9-0.1,1.3
			c-1,0.1-1.5,0.2-1.5,0.3s0.4,0.4,1.3,0.5c0.3,1.3,0.7,2,1.3,2c0.2,0,0.3-0.1,0.4-0.2c-0.2-0.5-0.4-1-0.4-1.6l0.2-0.2
			c0.7,0,1.3,0.1,1.6,0.1s0.6-0.1,0.6-0.3v-0.2C347.8,265.6,347,265.4,345.4,265.4L345.4,265.4z M360.3,279.6
			c-0.7,0-1.1,0.4-1.1,1.3c0,0.3,0.2,0.6,0.6,0.7h0.6c0.8,0,1.2-0.3,1.2-0.8v-0.2C361.3,280,360.9,279.6,360.3,279.6z M360.3,279.6
			c-0.7,0-1.1,0.4-1.1,1.3c0,0.3,0.2,0.6,0.6,0.7h0.6c0.8,0,1.2-0.3,1.2-0.8v-0.2C361.3,280,360.9,279.6,360.3,279.6z M345.4,265.4
			V265c0-0.9-0.2-1.4-0.6-1.4c-0.3,0.1-0.4,0.2-0.4,0.3v0.1c0,0.4-0.1,0.9-0.1,1.3c-1,0.1-1.5,0.2-1.5,0.3c0,0.2,0.4,0.4,1.3,0.5
			c0.3,1.3,0.7,2,1.3,2c0.2,0,0.3-0.1,0.4-0.2c-0.2-0.5-0.4-1-0.4-1.6l0.2-0.2c0.7,0,1.3,0.1,1.6,0.1s0.6-0.1,0.6-0.3v-0.2
			C347.8,265.6,347,265.4,345.4,265.4L345.4,265.4z M345,259.3h-0.4c-0.6,0.3-1,0.6-1,1.1s0.3,0.7,1,0.7c0.8,0,1.5-0.4,1.7-1.2
			C346.2,259.5,345.7,259.3,345,259.3z M345,259.3h-0.4c-0.6,0.3-1,0.6-1,1.1s0.3,0.7,1,0.7c0.8,0,1.5-0.4,1.7-1.2
			C346.2,259.5,345.7,259.3,345,259.3z M345.4,265.4V265c0-0.9-0.2-1.4-0.6-1.4c-0.3,0.1-0.4,0.2-0.4,0.3v0.1c0,0.4-0.1,0.9-0.1,1.3
			c-1,0.1-1.5,0.2-1.5,0.3s0.4,0.4,1.3,0.5c0.3,1.3,0.7,2,1.3,2c0.2,0,0.3-0.1,0.4-0.2c-0.2-0.5-0.4-1-0.4-1.6l0.2-0.2
			c0.7,0,1.3,0.1,1.6,0.1s0.6-0.1,0.6-0.3v-0.2C347.8,265.6,347,265.4,345.4,265.4L345.4,265.4z M360.3,279.6
			c-0.7,0-1.1,0.4-1.1,1.3c0,0.3,0.2,0.6,0.6,0.7h0.6c0.8,0,1.2-0.3,1.2-0.8v-0.2C361.3,280,360.9,279.6,360.3,279.6z M360.3,279.6
			c-0.7,0-1.1,0.4-1.1,1.3c0,0.3,0.2,0.6,0.6,0.7h0.6c0.8,0,1.2-0.3,1.2-0.8v-0.2C361.3,280,360.9,279.6,360.3,279.6z M345.4,265.4
			V265c0-0.9-0.2-1.4-0.6-1.4c-0.3,0.1-0.4,0.2-0.4,0.3v0.1c0,0.4-0.1,0.9-0.1,1.3c-1,0.1-1.5,0.2-1.5,0.3c0,0.2,0.4,0.4,1.3,0.5
			c0.3,1.3,0.7,2,1.3,2c0.2,0,0.3-0.1,0.4-0.2c-0.2-0.5-0.4-1-0.4-1.6l0.2-0.2c0.7,0,1.3,0.1,1.6,0.1s0.6-0.1,0.6-0.3v-0.2
			C347.8,265.6,347,265.4,345.4,265.4L345.4,265.4z M345,259.3h-0.4c-0.6,0.3-1,0.6-1,1.1s0.3,0.7,1,0.7c0.8,0,1.5-0.4,1.7-1.2
			C346.2,259.5,345.7,259.3,345,259.3z M345,259.3h-0.4c-0.6,0.3-1,0.6-1,1.1s0.3,0.7,1,0.7c0.8,0,1.5-0.4,1.7-1.2
			C346.2,259.5,345.7,259.3,345,259.3z M345.4,265.4V265c0-0.9-0.2-1.4-0.6-1.4c-0.3,0.1-0.4,0.2-0.4,0.3v0.1c0,0.4-0.1,0.9-0.1,1.3
			c-1,0.1-1.5,0.2-1.5,0.3s0.4,0.4,1.3,0.5c0.3,1.3,0.7,2,1.3,2c0.2,0,0.3-0.1,0.4-0.2c-0.2-0.5-0.4-1-0.4-1.6l0.2-0.2
			c0.7,0,1.3,0.1,1.6,0.1s0.6-0.1,0.6-0.3v-0.2C347.8,265.6,347,265.4,345.4,265.4L345.4,265.4z M360.3,279.6
			c-0.7,0-1.1,0.4-1.1,1.3c0,0.3,0.2,0.6,0.6,0.7h0.6c0.8,0,1.2-0.3,1.2-0.8v-0.2C361.3,280,360.9,279.6,360.3,279.6z M360.3,279.6
			c-0.7,0-1.1,0.4-1.1,1.3c0,0.3,0.2,0.6,0.6,0.7h0.6c0.8,0,1.2-0.3,1.2-0.8v-0.2C361.3,280,360.9,279.6,360.3,279.6z M345.4,265.4
			V265c0-0.9-0.2-1.4-0.6-1.4c-0.3,0.1-0.4,0.2-0.4,0.3v0.1c0,0.4-0.1,0.9-0.1,1.3c-1,0.1-1.5,0.2-1.5,0.3c0,0.2,0.4,0.4,1.3,0.5
			c0.3,1.3,0.7,2,1.3,2c0.2,0,0.3-0.1,0.4-0.2c-0.2-0.5-0.4-1-0.4-1.6l0.2-0.2c0.7,0,1.3,0.1,1.6,0.1s0.6-0.1,0.6-0.3v-0.2
			C347.8,265.6,347,265.4,345.4,265.4L345.4,265.4z M345,259.3h-0.4c-0.6,0.3-1,0.6-1,1.1s0.3,0.7,1,0.7c0.8,0,1.5-0.4,1.7-1.2
			C346.2,259.5,345.7,259.3,345,259.3z M345,259.3h-0.4c-0.6,0.3-1,0.6-1,1.1s0.3,0.7,1,0.7c0.8,0,1.5-0.4,1.7-1.2
			C346.2,259.5,345.7,259.3,345,259.3z M345.4,265.4V265c0-0.9-0.2-1.4-0.6-1.4c-0.3,0.1-0.4,0.2-0.4,0.3v0.1c0,0.4-0.1,0.9-0.1,1.3
			c-1,0.1-1.5,0.2-1.5,0.3s0.4,0.4,1.3,0.5c0.3,1.3,0.7,2,1.3,2c0.2,0,0.3-0.1,0.4-0.2c-0.2-0.5-0.4-1-0.4-1.6l0.2-0.2
			c0.7,0,1.3,0.1,1.6,0.1s0.6-0.1,0.6-0.3v-0.2C347.8,265.6,347,265.4,345.4,265.4L345.4,265.4z M360.3,279.6
			c-0.7,0-1.1,0.4-1.1,1.3c0,0.3,0.2,0.6,0.6,0.7h0.6c0.8,0,1.2-0.3,1.2-0.8v-0.2C361.3,280,360.9,279.6,360.3,279.6z M360.3,279.6
			c-0.7,0-1.1,0.4-1.1,1.3c0,0.3,0.2,0.6,0.6,0.7h0.6c0.8,0,1.2-0.3,1.2-0.8v-0.2C361.3,280,360.9,279.6,360.3,279.6z M345.4,265.4
			V265c0-0.9-0.2-1.4-0.6-1.4c-0.3,0.1-0.4,0.2-0.4,0.3v0.1c0,0.4-0.1,0.9-0.1,1.3c-1,0.1-1.5,0.2-1.5,0.3c0,0.2,0.4,0.4,1.3,0.5
			c0.3,1.3,0.7,2,1.3,2c0.2,0,0.3-0.1,0.4-0.2c-0.2-0.5-0.4-1-0.4-1.6l0.2-0.2c0.7,0,1.3,0.1,1.6,0.1s0.6-0.1,0.6-0.3v-0.2
			C347.8,265.6,347,265.4,345.4,265.4L345.4,265.4z M345,259.3h-0.4c-0.6,0.3-1,0.6-1,1.1s0.3,0.7,1,0.7c0.8,0,1.5-0.4,1.7-1.2
			C346.2,259.5,345.7,259.3,345,259.3z M345,259.3h-0.4c-0.6,0.3-1,0.6-1,1.1s0.3,0.7,1,0.7c0.8,0,1.5-0.4,1.7-1.2
			C346.2,259.5,345.7,259.3,345,259.3z M345.4,265.4V265c0-0.9-0.2-1.4-0.6-1.4c-0.3,0.1-0.4,0.2-0.4,0.3v0.1c0,0.4-0.1,0.9-0.1,1.3
			c-1,0.1-1.5,0.2-1.5,0.3s0.4,0.4,1.3,0.5c0.3,1.3,0.7,2,1.3,2c0.2,0,0.3-0.1,0.4-0.2c-0.2-0.5-0.4-1-0.4-1.6l0.2-0.2
			c0.7,0,1.3,0.1,1.6,0.1s0.6-0.1,0.6-0.3v-0.2C347.8,265.6,347,265.4,345.4,265.4L345.4,265.4z M360.3,279.6
			c-0.7,0-1.1,0.4-1.1,1.3c0,0.3,0.2,0.6,0.6,0.7h0.6c0.8,0,1.2-0.3,1.2-0.8v-0.2C361.3,280,360.9,279.6,360.3,279.6z M360.3,279.6
			c-0.7,0-1.1,0.4-1.1,1.3c0,0.3,0.2,0.6,0.6,0.7h0.6c0.8,0,1.2-0.3,1.2-0.8v-0.2C361.3,280,360.9,279.6,360.3,279.6z M345.4,265.4
			V265c0-0.9-0.2-1.4-0.6-1.4c-0.3,0.1-0.4,0.2-0.4,0.3v0.1c0,0.4-0.1,0.9-0.1,1.3c-1,0.1-1.5,0.2-1.5,0.3c0,0.2,0.4,0.4,1.3,0.5
			c0.3,1.3,0.7,2,1.3,2c0.2,0,0.3-0.1,0.4-0.2c-0.2-0.5-0.4-1-0.4-1.6l0.2-0.2c0.7,0,1.3,0.1,1.6,0.1s0.6-0.1,0.6-0.3v-0.2
			C347.8,265.6,347,265.4,345.4,265.4L345.4,265.4z M345,259.3h-0.4c-0.6,0.3-1,0.6-1,1.1s0.3,0.7,1,0.7c0.8,0,1.5-0.4,1.7-1.2
			C346.2,259.5,345.7,259.3,345,259.3z M345,259.3h-0.4c-0.6,0.3-1,0.6-1,1.1s0.3,0.7,1,0.7c0.8,0,1.5-0.4,1.7-1.2
			C346.2,259.5,345.7,259.3,345,259.3z M345.4,265.4V265c0-0.9-0.2-1.4-0.6-1.4c-0.3,0.1-0.4,0.2-0.4,0.3v0.1c0,0.4-0.1,0.9-0.1,1.3
			c-1,0.1-1.5,0.2-1.5,0.3s0.4,0.4,1.3,0.5c0.3,1.3,0.7,2,1.3,2c0.2,0,0.3-0.1,0.4-0.2c-0.2-0.5-0.4-1-0.4-1.6l0.2-0.2
			c0.7,0,1.3,0.1,1.6,0.1s0.6-0.1,0.6-0.3v-0.2C347.8,265.6,347,265.4,345.4,265.4L345.4,265.4z M360.3,279.6
			c-0.7,0-1.1,0.4-1.1,1.3c0,0.3,0.2,0.6,0.6,0.7h0.6c0.8,0,1.2-0.3,1.2-0.8v-0.2C361.3,280,360.9,279.6,360.3,279.6z M360.3,279.6
			c-0.7,0-1.1,0.4-1.1,1.3c0,0.3,0.2,0.6,0.6,0.7h0.6c0.8,0,1.2-0.3,1.2-0.8v-0.2C361.3,280,360.9,279.6,360.3,279.6z M345.4,265.4
			V265c0-0.9-0.2-1.4-0.6-1.4c-0.3,0.1-0.4,0.2-0.4,0.3v0.1c0,0.4-0.1,0.9-0.1,1.3c-1,0.1-1.5,0.2-1.5,0.3c0,0.2,0.4,0.4,1.3,0.5
			c0.3,1.3,0.7,2,1.3,2c0.2,0,0.3-0.1,0.4-0.2c-0.2-0.5-0.4-1-0.4-1.6l0.2-0.2c0.7,0,1.3,0.1,1.6,0.1s0.6-0.1,0.6-0.3v-0.2
			C347.8,265.6,347,265.4,345.4,265.4L345.4,265.4z M345,259.3h-0.4c-0.6,0.3-1,0.6-1,1.1s0.3,0.7,1,0.7c0.8,0,1.5-0.4,1.7-1.2
			C346.2,259.5,345.7,259.3,345,259.3z M345,259.3h-0.4c-0.6,0.3-1,0.6-1,1.1s0.3,0.7,1,0.7c0.8,0,1.5-0.4,1.7-1.2
			C346.2,259.5,345.7,259.3,345,259.3z M345.4,265.4V265c0-0.9-0.2-1.4-0.6-1.4c-0.3,0.1-0.4,0.2-0.4,0.3v0.1c0,0.4-0.1,0.9-0.1,1.3
			c-1,0.1-1.5,0.2-1.5,0.3s0.4,0.4,1.3,0.5c0.3,1.3,0.7,2,1.3,2c0.2,0,0.3-0.1,0.4-0.2c-0.2-0.5-0.4-1-0.4-1.6l0.2-0.2
			c0.7,0,1.3,0.1,1.6,0.1s0.6-0.1,0.6-0.3v-0.2C347.8,265.6,347,265.4,345.4,265.4L345.4,265.4z M360.3,279.6
			c-0.7,0-1.1,0.4-1.1,1.3c0,0.3,0.2,0.6,0.6,0.7h0.6c0.8,0,1.2-0.3,1.2-0.8v-0.2C361.3,280,360.9,279.6,360.3,279.6z M360.3,279.6
			c-0.7,0-1.1,0.4-1.1,1.3c0,0.3,0.2,0.6,0.6,0.7h0.6c0.8,0,1.2-0.3,1.2-0.8v-0.2C361.3,280,360.9,279.6,360.3,279.6z M345.4,265.4
			V265c0-0.9-0.2-1.4-0.6-1.4c-0.3,0.1-0.4,0.2-0.4,0.3v0.1c0,0.4-0.1,0.9-0.1,1.3c-1,0.1-1.5,0.2-1.5,0.3c0,0.2,0.4,0.4,1.3,0.5
			c0.3,1.3,0.7,2,1.3,2c0.2,0,0.3-0.1,0.4-0.2c-0.2-0.5-0.4-1-0.4-1.6l0.2-0.2c0.7,0,1.3,0.1,1.6,0.1s0.6-0.1,0.6-0.3v-0.2
			C347.8,265.6,347,265.4,345.4,265.4L345.4,265.4z M345,259.3h-0.4c-0.6,0.3-1,0.6-1,1.1s0.3,0.7,1,0.7c0.8,0,1.5-0.4,1.7-1.2
			C346.2,259.5,345.7,259.3,345,259.3z M345,259.3h-0.4c-0.6,0.3-1,0.6-1,1.1s0.3,0.7,1,0.7c0.8,0,1.5-0.4,1.7-1.2
			C346.2,259.5,345.7,259.3,345,259.3z M345.4,265.4V265c0-0.9-0.2-1.4-0.6-1.4c-0.3,0.1-0.4,0.2-0.4,0.3v0.1c0,0.4-0.1,0.9-0.1,1.3
			c-1,0.1-1.5,0.2-1.5,0.3s0.4,0.4,1.3,0.5c0.3,1.3,0.7,2,1.3,2c0.2,0,0.3-0.1,0.4-0.2c-0.2-0.5-0.4-1-0.4-1.6l0.2-0.2
			c0.7,0,1.3,0.1,1.6,0.1s0.6-0.1,0.6-0.3v-0.2C347.8,265.6,347,265.4,345.4,265.4L345.4,265.4z M345.4,265.4V265
			c0-0.9-0.2-1.4-0.6-1.4c-0.3,0.1-0.4,0.2-0.4,0.3v0.1c0,0.4-0.1,0.9-0.1,1.3c-1,0.1-1.5,0.2-1.5,0.3s0.4,0.4,1.3,0.5
			c0.3,1.3,0.7,2,1.3,2c0.2,0,0.3-0.1,0.4-0.2c-0.2-0.5-0.4-1-0.4-1.6l0.2-0.2c0.7,0,1.3,0.1,1.6,0.1s0.6-0.1,0.6-0.3v-0.2
			C347.8,265.6,347,265.4,345.4,265.4L345.4,265.4z M345,259.3h-0.4c-0.6,0.3-1,0.6-1,1.1s0.3,0.7,1,0.7c0.8,0,1.5-0.4,1.7-1.2
			C346.2,259.5,345.7,259.3,345,259.3z M360.3,279.6c-0.7,0-1.1,0.4-1.1,1.3c0,0.3,0.2,0.6,0.6,0.7h0.6c0.8,0,1.2-0.3,1.2-0.8v-0.2
			C361.3,280,360.9,279.6,360.3,279.6z M360.3,279.6c-0.7,0-1.1,0.4-1.1,1.3c0,0.3,0.2,0.6,0.6,0.7h0.6c0.8,0,1.2-0.3,1.2-0.8v-0.2
			C361.3,280,360.9,279.6,360.3,279.6z"/>
		<path class="st1" d="M353.1,287.5c0,0.6-0.2,1-0.5,1c-0.5,0-1-0.1-1.5-0.3v-0.1c0.6-0.1,1.2-0.3,1.7-0.7h0.1L353.1,287.5z"/>
		<path class="st1" d="M350.1,283.9L350.1,283.9l-1.3,0.3c-0.6,0-1.2-0.4-1.7-1.1l0.2-0.4C348.2,283.1,349.1,283.6,350.1,283.9z"/>
		<path class="st2" d="M352.8,285.8l-2.3,1.1l-0.2-0.1l-0.8,0.2h-0.1c-0.1,0-0.7-0.1-1.9-0.2c-2.5-0.9-3.8-2-3.8-3.4
			c0-1.1,0.4-1.9,1.1-2.5h0.1c0.3,0.5,0.6,0.7,0.9,0.7c-0.3,0.4-0.5,0.8-0.5,1.3v0.4c1.1,1.2,2.3,1.8,3.4,1.8c1.6,0,2.6-0.2,3.1-0.7
			h0.1C352.4,285,352.7,285.5,352.8,285.8z"/>
		<path class="st3" d="M360.3,286.3c0,0.1-0.2,0.3-0.5,0.6c-1.9,0.9-3.5,1.4-4.8,1.4h-0.1v-0.2c0-1.3-0.3-2.6-0.8-3.9v-0.1
			c0.4,0,1-0.3,2-1h0.5C357.6,283.1,358.9,284.1,360.3,286.3z"/>
		<path class="st2" d="M362.8,281.5l0.1-0.4c0-2.1-0.4-3.2-1.3-3.2c0-0.1,0-0.1-0.1-0.1h-0.4c-1.2,0-2.4,0.4-3.4,1.1
			c-0.1,0-0.3,0.1-0.4,0.1l0.1,1c-0.1,0.6-0.2,1.3-0.2,2c1.5,0.3,2.9,1.2,3.8,2.4c0.2,0.4,0.4,0.6,0.6,0.6c0.8-1.1,1.2-1.7,1.2-1.9
			l-0.1-0.2C362.7,282.4,362.9,282,362.8,281.5C362.9,281.5,362.9,281.5,362.8,281.5z M361.6,280.9c0,0.5-0.4,0.8-1.2,0.8h-0.6
			c-0.4-0.2-0.6-0.4-0.6-0.7c0-0.9,0.4-1.3,1.1-1.3c0.6,0,1,0.4,1.3,1.1V280.9z"/>
		<path class="st2" d="M356.9,271.6v0.2c-0.5,0.6-1.5,1.5-3.2,2.5h-0.2c-0.3-0.2-0.5-0.4-0.5-0.4v-0.1c2.2-1.6,3.4-2.5,3.4-2.6
			C356.6,271.2,356.8,271.4,356.9,271.6z"/>
		<path class="st1" d="M361.7,276.5L361.7,276.5c-1.6,0.1-3.2,0.5-4.7,1.3h-0.2c-1.3-1.4-2-2.3-2-2.5l3.1-2.2c0.5,0,0.9,0.3,1.3,0.9
			L361.7,276.5z"/>
		<path class="st2" d="M355.1,270.1c-1.9,1.7-3.1,2.6-3.5,2.6c-0.2-0.1-0.4-0.1-0.6-0.2v-0.3l3.2-2.5L355.1,270.1z"/>
		<path class="st3" d="M351.5,270v0.2h-0.3c-1.4-0.8-2.1-1.2-2.1-1.3v-0.1c0-0.1,0.2-0.2,0.5-0.3L351.5,270z"/>
		<path class="st1" d="M352.9,268.8c0,0.2-0.1,0.4-0.3,0.4h-0.1c-0.7-0.4-1.4-0.9-2-1.5c0.1-0.2,0.2-0.3,0.3-0.3h0.3v0.1
			C352.3,268.2,352.9,268.6,352.9,268.8z"/>
		<path class="st1" d="M350.4,270.6v0.2c0,0.1-0.3,0.3-0.9,0.6h-0.1c-1.4-0.7-2.1-1.1-2.3-1.3V270l0.5-0.5c0.1,0,0.3,0,0.4,0.1
			C349.4,270.3,350.2,270.6,350.4,270.6z"/>
		<path class="st3" d="M347,263.5v-0.3c-0.9-0.1-1.5-0.1-1.9-0.1h-0.3c-2.2,0.3-3.2,0.6-3.2,0.9v0.1c0,1.8,1.3,3.6,3.9,5.3h0.1
			c2.3-1.5,3.5-2.5,3.6-2.8v-0.2C348,265.4,347.2,264.5,347,263.5z M347.8,266c-0.1,0.2-0.3,0.3-0.6,0.3c-0.4,0-0.9,0-1.6-0.1
			l-0.2,0.2c0,0.5,0.2,1.1,0.4,1.6c-0.1,0.1-0.3,0.2-0.4,0.2c-0.6,0-1-0.7-1.3-2c-0.9-0.2-1.3-0.3-1.3-0.5c0-0.2,0.5-0.3,1.5-0.3
			c0.1-0.4,0.1-0.9,0.1-1.3v-0.1c0-0.1,0.1-0.2,0.4-0.3c0.4,0,0.6,0.5,0.6,1.4v0.4c1.6,0.1,2.4,0.2,2.4,0.4L347.8,266z"/>
		<path class="st1" d="M346.1,257.5l-0.8-0.2c-1.7,1-2.5,1.9-2.5,2.6c-0.4,0.3-0.7,0.6-1,1.1v0.3c-0.1,0.9-0.2,1.3-0.2,1.4h0.1
			c1.1-0.3,2.2-0.6,3.3-0.8h0.5c1.2,0,2-0.2,2.4-0.7c0.4-0.6,0.8-0.9,1.2-0.9v-0.1C348.5,259.4,347.5,258.5,346.1,257.5z
			 M344.5,261.2c-0.6,0-1-0.3-1-0.7c0-0.5,0.3-0.9,1-1.1h0.4c0.8,0,1.2,0.2,1.3,0.7C346,260.7,345.3,261.2,344.5,261.2z"/>
		<path class="st3" d="M358.2,263.1L358.2,263.1c-0.2,0.3-0.3,0.4-0.4,0.4c-1.1-0.6-1.7-1.1-1.9-1.3c0-0.2,0.1-0.4,0.3-0.5h0.1
			C356.4,261.7,357,262.2,358.2,263.1z"/>
		<path class="st3" d="M359.5,261.5L359.5,261.5c0,0.4-0.2,0.6-0.6,0.7c-1.6-1.1-2.4-1.7-2.5-1.7v-0.1c0-0.3,0.1-0.5,0.3-0.5
			C358.4,261,359.3,261.5,359.5,261.5z"/>
		<path class="st3" d="M360.9,260c0,0.3-0.2,0.6-0.5,0.7h-0.2c-1.2-0.6-2.3-1.3-3.4-2v-0.4l0.1-0.6
			C357.9,257.9,359.2,258.7,360.9,260z"/>
		<path class="st2" d="M355.1,258.5c-0.1,1-0.4,1.9-0.6,2.8h-0.1c-0.3-0.2-0.6-0.3-0.9-0.3c-1.8-0.3-2.7-0.6-2.7-1.2
			c-0.3-0.7-1.5-1.8-3.5-3.1v-0.1c1.1-0.3,2.2-0.4,3.4-0.4h1.1c0.9,0.1,1.8,0.2,2.7,0.4C354.9,256.6,355.1,257.3,355.1,258.5z"/>
		<path d="M379.6,269.7c-0.5,0.1-0.9,0.4-1.3,0.8c0,0.9,0.4,1.4,1.2,1.4h0.1c0.8-0.1,1.2-0.4,1.2-0.9v-0.1
			C380.6,270.1,380.2,269.7,379.6,269.7z M382.1,265.1h-0.4c-0.9,0.2-1.4,0.5-1.4,1c0,0.4,0.5,0.7,1.4,0.8c0.8-0.3,1.2-0.7,1.2-1
			C382.9,265.7,382.6,265.4,382.1,265.1z M386.3,265.4c-0.6,0-1,0.2-1.3,0.7v0.3c0.2,0.4,0.6,0.6,1.1,0.7c0.5,0,0.9-0.3,1.3-0.9
			C387.2,265.6,386.8,265.3,386.3,265.4L386.3,265.4z M393.6,275.2c-0.8-0.1-1.5,0.5-1.6,1.3c0,0,0,0,0,0c0,0.3,0.5,0.5,1.6,0.5h0.2
			c0.3-0.1,0.4-0.3,0.4-0.3v-0.8C394.2,275.5,394,275.3,393.6,275.2L393.6,275.2z M393.6,275.2c-0.8-0.1-1.5,0.5-1.6,1.3
			c0,0,0,0,0,0c0,0.3,0.5,0.5,1.6,0.5h0.2c0.3-0.1,0.4-0.3,0.4-0.3v-0.8C394.2,275.5,394,275.3,393.6,275.2L393.6,275.2z
			 M386.3,265.4c-0.6,0-1,0.2-1.3,0.7v0.3c0.2,0.4,0.6,0.6,1.1,0.7c0.5,0,0.9-0.3,1.3-0.9C387.2,265.6,386.8,265.3,386.3,265.4
			L386.3,265.4z M382.1,265.1h-0.4c-0.9,0.2-1.4,0.5-1.4,1c0,0.4,0.5,0.7,1.4,0.8c0.8-0.3,1.2-0.7,1.2-1
			C382.9,265.7,382.6,265.4,382.1,265.1z M379.6,269.7c-0.5,0.1-0.9,0.4-1.3,0.8c0,0.9,0.4,1.4,1.2,1.4h0.1c0.8-0.1,1.2-0.4,1.2-0.9
			v-0.1C380.6,270.1,380.2,269.7,379.6,269.7z M379.6,269.7c-0.5,0.1-0.9,0.4-1.3,0.8c0,0.9,0.4,1.4,1.2,1.4h0.1
			c0.8-0.1,1.2-0.4,1.2-0.9v-0.1C380.6,270.1,380.2,269.7,379.6,269.7z M382.1,265.1h-0.4c-0.9,0.2-1.4,0.5-1.4,1
			c0,0.4,0.5,0.7,1.4,0.8c0.8-0.3,1.2-0.7,1.2-1C382.9,265.7,382.6,265.4,382.1,265.1z M386.3,265.4c-0.6,0-1,0.2-1.3,0.7v0.3
			c0.2,0.4,0.6,0.6,1.1,0.7c0.5,0,0.9-0.3,1.3-0.9C387.2,265.6,386.8,265.3,386.3,265.4L386.3,265.4z M393.6,275.2
			c-0.8-0.1-1.5,0.5-1.6,1.3c0,0,0,0,0,0c0,0.3,0.5,0.5,1.6,0.5h0.2c0.3-0.1,0.4-0.3,0.4-0.3v-0.8
			C394.2,275.5,394,275.3,393.6,275.2L393.6,275.2z M393.6,275.2c-0.8-0.1-1.5,0.5-1.6,1.3c0,0,0,0,0,0c0,0.3,0.5,0.5,1.6,0.5h0.2
			c0.3-0.1,0.4-0.3,0.4-0.3v-0.8C394.2,275.5,394,275.3,393.6,275.2L393.6,275.2z M386.3,265.4c-0.6,0-1,0.2-1.3,0.7v0.3
			c0.2,0.4,0.6,0.6,1.1,0.7c0.5,0,0.9-0.3,1.3-0.9C387.2,265.6,386.8,265.3,386.3,265.4L386.3,265.4z M382.1,265.1h-0.4
			c-0.9,0.2-1.4,0.5-1.4,1c0,0.4,0.5,0.7,1.4,0.8c0.8-0.3,1.2-0.7,1.2-1C382.9,265.7,382.6,265.4,382.1,265.1z M379.6,269.7
			c-0.5,0.1-0.9,0.4-1.3,0.8c0,0.9,0.4,1.4,1.2,1.4h0.1c0.8-0.1,1.2-0.4,1.2-0.9v-0.1C380.6,270.1,380.2,269.7,379.6,269.7z
			 M379.6,269.7c-0.5,0.1-0.9,0.4-1.3,0.8c0,0.9,0.4,1.4,1.2,1.4h0.1c0.8-0.1,1.2-0.4,1.2-0.9v-0.1
			C380.6,270.1,380.2,269.7,379.6,269.7z M382.1,265.1h-0.4c-0.9,0.2-1.4,0.5-1.4,1c0,0.4,0.5,0.7,1.4,0.8c0.8-0.3,1.2-0.7,1.2-1
			C382.9,265.7,382.6,265.4,382.1,265.1z M386.3,265.4c-0.6,0-1,0.2-1.3,0.7v0.3c0.2,0.4,0.6,0.6,1.1,0.7c0.5,0,0.9-0.3,1.3-0.9
			C387.2,265.6,386.8,265.3,386.3,265.4L386.3,265.4z M393.6,275.2c-0.8-0.1-1.5,0.5-1.6,1.3c0,0,0,0,0,0c0,0.3,0.5,0.5,1.6,0.5h0.2
			c0.3-0.1,0.4-0.3,0.4-0.3v-0.8C394.2,275.5,394,275.3,393.6,275.2L393.6,275.2z M393.6,275.2c-0.8-0.1-1.5,0.5-1.6,1.3
			c0,0,0,0,0,0c0,0.3,0.5,0.5,1.6,0.5h0.2c0.3-0.1,0.4-0.3,0.4-0.3v-0.8C394.2,275.5,394,275.3,393.6,275.2L393.6,275.2z
			 M386.3,265.4c-0.6,0-1,0.2-1.3,0.7v0.3c0.2,0.4,0.6,0.6,1.1,0.7c0.5,0,0.9-0.3,1.3-0.9C387.2,265.6,386.8,265.3,386.3,265.4
			L386.3,265.4z M382.1,265.1h-0.4c-0.9,0.2-1.4,0.5-1.4,1c0,0.4,0.5,0.7,1.4,0.8c0.8-0.3,1.2-0.7,1.2-1
			C382.9,265.7,382.6,265.4,382.1,265.1z M379.6,269.7c-0.5,0.1-0.9,0.4-1.3,0.8c0,0.9,0.4,1.4,1.2,1.4h0.1c0.8-0.1,1.2-0.4,1.2-0.9
			v-0.1C380.6,270.1,380.2,269.7,379.6,269.7z M379.6,269.7c-0.5,0.1-0.9,0.4-1.3,0.8c0,0.9,0.4,1.4,1.2,1.4h0.1
			c0.8-0.1,1.2-0.4,1.2-0.9v-0.1C380.6,270.1,380.2,269.7,379.6,269.7z M382.1,265.1h-0.4c-0.9,0.2-1.4,0.5-1.4,1
			c0,0.4,0.5,0.7,1.4,0.8c0.8-0.3,1.2-0.7,1.2-1C382.9,265.7,382.6,265.4,382.1,265.1z M386.3,265.4c-0.6,0-1,0.2-1.3,0.7v0.3
			c0.2,0.4,0.6,0.6,1.1,0.7c0.5,0,0.9-0.3,1.3-0.9C387.2,265.6,386.8,265.3,386.3,265.4L386.3,265.4z M393.6,275.2
			c-0.8-0.1-1.5,0.5-1.6,1.3c0,0,0,0,0,0c0,0.3,0.5,0.5,1.6,0.5h0.2c0.3-0.1,0.4-0.3,0.4-0.3v-0.8
			C394.2,275.5,394,275.3,393.6,275.2L393.6,275.2z M393.6,275.2c-0.8-0.1-1.5,0.5-1.6,1.3c0,0,0,0,0,0c0,0.3,0.5,0.5,1.6,0.5h0.2
			c0.3-0.1,0.4-0.3,0.4-0.3v-0.8C394.2,275.5,394,275.3,393.6,275.2L393.6,275.2z M386.3,265.4c-0.6,0-1,0.2-1.3,0.7v0.3
			c0.2,0.4,0.6,0.6,1.1,0.7c0.5,0,0.9-0.3,1.3-0.9C387.2,265.6,386.8,265.3,386.3,265.4L386.3,265.4z M382.1,265.1h-0.4
			c-0.9,0.2-1.4,0.5-1.4,1c0,0.4,0.5,0.7,1.4,0.8c0.8-0.3,1.2-0.7,1.2-1C382.9,265.7,382.6,265.4,382.1,265.1z M379.6,269.7
			c-0.5,0.1-0.9,0.4-1.3,0.8c0,0.9,0.4,1.4,1.2,1.4h0.1c0.8-0.1,1.2-0.4,1.2-0.9v-0.1C380.6,270.1,380.2,269.7,379.6,269.7z
			 M403.8,286.1c-0.9-2.1-1.8-4.1-3-6c-2.1-4.1-3.2-6.3-3.6-6.8l-3.2-6.1c-2.2-4.1-3.8-6.8-4.8-7.9c-1.9-3.1-3.1-4.6-3.8-4.6h-0.3
			l-0.2,0.1c0,0,0-0.1-0.1-0.1h-0.7c-0.2,0-0.8,0.7-1.6,2.1c-0.5,1.1-1.1,2.3-2,3.7c-3.6,7.3-5.7,11.6-6.4,12.6
			c-1.1,2.5-2.1,4.3-3.1,5.5c0,0.8-0.4,1.7-1.2,2.6c-0.7,1.5-1.6,3.1-2.5,4.9c-0.5,1.5-0.9,2.3-1.2,2.3c0,0.6,1.3,0.8,3.9,0.8
			c0-0.1,0-0.1,0.1-0.1l2.1,0.2c0.2-0.1,0.3-0.1,0.5-0.1h0.5c0.1,0,0.8,0.1,2,0.2h0.2c0.8,0,1.3-0.3,1.3-0.9c0.9-1.1,1.4-1.7,1.4-2
			l1.6-2.3c0-0.4,0.7-0.6,2.2-0.6c0,0.1,0,0.1,0.1,0.1c0.1-0.1,0.3-0.1,0.4-0.1h0.9l1.3-0.1c0,0,0,0.1,0.1,0.1l0.2-0.1l0.6,0.1h4
			c0.4,0,0.9,0,1.6-0.1c0.3,0,0.6,0.1,0.9,0.2c1.4,2.5,2.4,4.2,2.8,4.9c0,0.9,0.5,1.4,1.5,1.4c1.3-0.1,2-0.2,2-0.2
			c1.8-0.1,2.7-0.2,2.7-0.3c2.2,0,3.5-0.4,3.9-1.3C405.1,288.2,404.7,287.4,403.8,286.1L403.8,286.1z M392.3,267.5L392.3,267.5
			l0.4,0.2c0.8,1.6,1.6,3.2,2.5,4.7c0,0.1-0.4,0.3-1.3,0.3c-1.6,0.3-3.1,0.8-4.5,1.5c-1-1.2-1.5-2-1.5-2.3v-0.2c0.6,0,1,0.1,1,0.1
			h0.1c2.3,0,3.5-0.3,3.5-0.8c-0.2-1-0.3-2.1-0.3-3.1L392.3,267.5z M386.2,257.5L386.2,257.5c2.4,3.2,3.7,5.3,4.1,6.1v0.1
			c-2.1-0.2-3.4-0.2-4-0.2l-0.3-0.2c0-0.5,0-1.1-0.1-1.7C386,258.9,386.1,257.5,386.2,257.5L386.2,257.5z M384.6,256
			c0-0.1,0.1-0.2,0.2-0.2h0.1c0.1,0,0.2,0.1,0.3,0.3c-0.1,0.2-0.3,0.2-0.6,0.2L384.6,256z M384,257.2h0.3l0.1,0.5
			c-0.1,1.7-0.1,3.1-0.1,4.3v0.6l-0.1,0.9c-1,0.1-1.9,0.2-2.8,0.4v-0.1c-0.1,0-0.2,0-0.3,0.1l-0.3-0.2
			C380.7,263.3,381.8,261.1,384,257.2z M377.4,285.3c-0.7,1.6-1.4,2.6-2,3h-5.6l-1,0.1c0-0.1-0.1-0.1-0.3-0.2c0-0.1,0-0.2,0.1-0.3
			l-0.1-0.2c0,0,0-0.1,0.1-0.1c0.3-0.9,0.8-1.8,1.3-2.6c0.5-1.1,0.8-1.6,1.1-1.6c0.6,0.1,1.2,0.3,1.8,0.5l-1.4,2.8l0.3,0.4
			c0.1,0,0.2,0,0.3-0.1c0.4,0,1.2-0.9,2.2-2.8h0.1c0.2,0,1.2,0.3,3.1,0.9L377.4,285.3z M386.1,282l-0.1,0.4h-2.1
			c-1.1,0-2.1,0-3.1,0.2c-0.3-0.1-0.6-0.1-0.9-0.1c-0.5,0-1,0.6-1.5,1.7h-0.1c-2.2-0.6-3.4-1-3.4-1.2c1-1.7,1.5-2.6,1.5-2.7v-0.2
			c-0.1-0.2-0.2-0.2-0.3-0.2h-0.5c-0.2,0-0.4,0.1-0.6,0.2c-0.4,1-0.9,1.9-1.5,2.8c-0.8,0-1.6-0.2-2.3-0.6c0-0.1,0.3-0.7,0.9-1.7
			c0.6-1.6,1.4-3.1,2.3-4.5h0.4c0.6,1.4,1.1,2.2,1.5,2.5c0.9,1.1,2.5,1.7,4.8,1.7c1,0,1.5-0.1,1.5-0.3c0.8,0,1.6-0.4,2.5-1.3v-0.5
			c-0.2-0.2-0.3-0.3-0.4-0.3h-0.3c-0.4,0-0.7,0.2-0.8,0.6c-1.1,0.4-1.6,0.6-1.6,0.7c-0.5,0-1,0-1.5-0.1c-1.3,0-2.5-0.7-3.5-2.2
			c-0.5-1.2-0.9-1.8-1-1.8h-0.1l-0.7,0.1c0-0.6,0.4-1.3,1.1-2.2c0.2,0.1,0.3,0.1,0.3,0.2c1.2,1.7,2.7,2.6,4.3,2.6h0.9l0.3,0.1
			c0,0.2-0.2,0.5-0.5,0.9c0,0.2,0.3,0.4,0.8,0.5c1.7,0,2.8-0.1,3.2-0.1h0.2c0.3,1.2,0.5,2.5,0.5,3.7L386.1,282z M382.1,268.4
			c0.1,0,0.2,0,0.3-0.1c1,0.1,1.8,0.1,2.5,0.1h1.3c0.3,0,0.4,0.4,0.4,1.1v0.1h-0.1c-0.1,0-0.5-0.1-1.2-0.2c-0.3,0-0.5,0.1-0.7,0.2
			c-0.4,1.5-1.1,2.9-1.9,4.3c0,0.3-0.5,0.6-1.6,0.7c-1.1,0-2.2-0.7-3.4-2c0-0.5-0.4-0.8-1.2-1c0.3-1,0.6-1.6,0.8-1.8
			c1.2-2.5,2.1-4.3,2.8-5.2c0.5,0.1,0.9,0.1,1.4,0.2c0.1,0,0.2,0,0.3-0.1l0.2,0.1c1-0.1,1.6-0.1,1.7-0.1c0.3,0,1.1,0,2.3,0.1
			l0.4-0.1c1,0,2,0.2,2.9,0.3c0.6,0,0.9,1.1,0.9,3.2l0.1,0.4c-0.1,0-0.1,0-0.1,0.1c0.1,0.8,0.1,1.3,0.1,1.6c0,0.2-0.1,0.3-0.3,0.3
			c0,0,0,0-0.1,0h-0.5c-0.3,0-0.6,0-0.8-0.1c-0.5,0-0.8-0.8-0.8-2.4l0.1-0.2c0-0.4-0.5-0.7-1.4-0.8h-1.9l-0.5,0.1
			c0-0.1-0.6-0.1-1.9-0.2c-1,0.2-1.5,0.4-1.5,0.6v0.3C381.1,268.1,381.5,268.3,382.1,268.4L382.1,268.4z M396,287.8l-1.8-2.8
			c-0.4-1.6-1.1-2.4-1.9-2.4h-2.1c-0.5,0-1.3,0-2.3-0.1c-0.2,0-0.3-1.6-0.4-4.7c-0.1,0-0.1,0-0.1-0.1c0.1-0.4,0.2-0.6,0.3-0.6h1.3
			c0.4,0.5,0.8,0.8,1.2,0.8c0.6-0.3,0.8-0.5,0.8-0.7c-0.8-1.1-1.2-1.8-1.2-2.2h0.5c0.3,0,0.9-0.2,1.6-0.6c1.3-0.3,2.6-0.6,3.8-0.8
			c0.8,1,1.4,2.2,1.9,3.4c-2,0.5-3.3,0.9-3.8,1.2c-1.7,0.4-2.5,0.7-2.5,1v0.2c0.2,0.2,0.3,0.3,0.4,0.3h0.4c0.3,0,0.6-0.1,0.9-0.2
			c0.8-0.4,2.5-0.9,4.9-1.4c0.2,0,0.3,0.2,0.3,0.5c-0.1,0-0.9,0.3-2.4,0.8c-2.5,0.7-3.8,1.2-3.8,1.5c0,0.2,0.3,0.3,0.9,0.3
			c0.1,0,0.7-0.1,1.9-0.4c2-0.7,3.3-1,4-1h0.2c0.2,0.5,0.4,1,0.7,1.5v0.2h-0.3c-0.3,0-0.7,0.1-0.9,0.4v0.7l-0.5,1.4h-0.1
			c-0.6,0-1.4-0.4-2.6-1.1h-1l-0.4,0.3v0.1c0,0.3,1.1,0.9,3.4,1.9v0.1c0,0.3-0.4,1.2-1.2,2.6L396,287.8z M403.4,288.3
			c-0.1,0-0.2,0-0.2,0.1c-3.3,0.2-5.4,0.3-6.1,0.5c-0.3,0-0.5-0.1-0.7-0.2c0-0.1,0.1-0.2,0.4-0.2c0.6,0,1.2-0.8,1.8-2.4h0.4
			c1.4,1.1,2.3,1.6,2.6,1.6c0.4,0,0.7-0.2,0.9-0.5v-0.3l-3.1-2.1v-0.3c0.3-0.7,0.6-1.3,0.9-1.9l0.2,0.1l2.8,5.5L403.4,288.3z
			 M393.6,277h0.2c0.3-0.1,0.4-0.3,0.4-0.3v-0.8c0-0.3-0.2-0.6-0.6-0.7c-0.8-0.1-1.5,0.5-1.6,1.3c0,0,0,0,0,0
			C392,276.8,392.5,277,393.6,277L393.6,277z M386.1,267c0.5,0,0.9-0.3,1.3-0.9c-0.2-0.4-0.6-0.7-1.1-0.7c-0.6,0-1,0.2-1.3,0.7v0.3
			C385.3,266.7,385.7,266.9,386.1,267L386.1,267z M382.9,265.9c0-0.2-0.2-0.5-0.7-0.8h-0.4c-0.9,0.2-1.4,0.5-1.4,1
			c0,0.4,0.5,0.7,1.4,0.8C382.5,266.6,382.9,266.2,382.9,265.9L382.9,265.9z M379.6,269.7c-0.5,0.1-0.9,0.4-1.3,0.8
			c0,0.9,0.4,1.4,1.2,1.4h0.1c0.8-0.1,1.2-0.4,1.2-0.9v-0.1C380.6,270.1,380.2,269.7,379.6,269.7L379.6,269.7z M379.6,269.7
			c-0.5,0.1-0.9,0.4-1.3,0.8c0,0.9,0.4,1.4,1.2,1.4h0.1c0.8-0.1,1.2-0.4,1.2-0.9v-0.1C380.6,270.1,380.2,269.7,379.6,269.7
			L379.6,269.7z M382.1,265.1h-0.4c-0.9,0.2-1.4,0.5-1.4,1c0,0.4,0.5,0.7,1.4,0.8c0.8-0.3,1.2-0.7,1.2-1
			C382.9,265.7,382.6,265.4,382.1,265.1L382.1,265.1z M386.3,265.4c-0.6,0-1,0.2-1.3,0.7v0.3c0.2,0.4,0.6,0.6,1.1,0.7
			c0.5,0,0.9-0.3,1.3-0.9C387.2,265.6,386.8,265.3,386.3,265.4L386.3,265.4z M393.6,275.2c-0.8-0.1-1.5,0.5-1.6,1.3c0,0,0,0,0,0
			c0,0.3,0.5,0.5,1.6,0.5h0.2c0.3-0.1,0.4-0.3,0.4-0.3v-0.8C394.2,275.5,394,275.3,393.6,275.2L393.6,275.2z M393.6,275.2
			c-0.8-0.1-1.5,0.5-1.6,1.3c0,0,0,0,0,0c0,0.3,0.5,0.5,1.6,0.5h0.2c0.3-0.1,0.4-0.3,0.4-0.3v-0.8
			C394.2,275.5,394,275.3,393.6,275.2L393.6,275.2z M386.3,265.4c-0.6,0-1,0.2-1.3,0.7v0.3c0.2,0.4,0.6,0.6,1.1,0.7
			c0.5,0,0.9-0.3,1.3-0.9C387.2,265.6,386.8,265.3,386.3,265.4L386.3,265.4z M382.1,265.1h-0.4c-0.9,0.2-1.4,0.5-1.4,1
			c0,0.4,0.5,0.7,1.4,0.8c0.8-0.3,1.2-0.7,1.2-1C382.9,265.7,382.6,265.4,382.1,265.1L382.1,265.1z M379.6,269.7
			c-0.5,0.1-0.9,0.4-1.3,0.8c0,0.9,0.4,1.4,1.2,1.4h0.1c0.8-0.1,1.2-0.4,1.2-0.9v-0.1C380.6,270.1,380.2,269.7,379.6,269.7
			L379.6,269.7z M379.6,269.7c-0.5,0.1-0.9,0.4-1.3,0.8c0,0.9,0.4,1.4,1.2,1.4h0.1c0.8-0.1,1.2-0.4,1.2-0.9v-0.1
			C380.6,270.1,380.2,269.7,379.6,269.7L379.6,269.7z M382.1,265.1h-0.4c-0.9,0.2-1.4,0.5-1.4,1c0,0.4,0.5,0.7,1.4,0.8
			c0.8-0.3,1.2-0.7,1.2-1C382.9,265.7,382.6,265.4,382.1,265.1L382.1,265.1z M386.3,265.4c-0.6,0-1,0.2-1.3,0.7v0.3
			c0.2,0.4,0.6,0.6,1.1,0.7c0.5,0,0.9-0.3,1.3-0.9C387.2,265.6,386.8,265.3,386.3,265.4L386.3,265.4z M393.6,275.2
			c-0.8-0.1-1.5,0.5-1.6,1.3c0,0,0,0,0,0c0,0.3,0.5,0.5,1.6,0.5h0.2c0.3-0.1,0.4-0.3,0.4-0.3v-0.8
			C394.2,275.5,394,275.3,393.6,275.2L393.6,275.2z M393.6,275.2c-0.8-0.1-1.5,0.5-1.6,1.3c0,0,0,0,0,0c0,0.3,0.5,0.5,1.6,0.5h0.2
			c0.3-0.1,0.4-0.3,0.4-0.3v-0.8C394.2,275.5,394,275.3,393.6,275.2L393.6,275.2z M386.3,265.4c-0.6,0-1,0.2-1.3,0.7v0.3
			c0.2,0.4,0.6,0.6,1.1,0.7c0.5,0,0.9-0.3,1.3-0.9C387.2,265.6,386.8,265.3,386.3,265.4L386.3,265.4z M382.1,265.1h-0.4
			c-0.9,0.2-1.4,0.5-1.4,1c0,0.4,0.5,0.7,1.4,0.8c0.8-0.3,1.2-0.7,1.2-1C382.9,265.7,382.6,265.4,382.1,265.1L382.1,265.1z
			 M379.6,269.7c-0.5,0.1-0.9,0.4-1.3,0.8c0,0.9,0.4,1.4,1.2,1.4h0.1c0.8-0.1,1.2-0.4,1.2-0.9v-0.1
			C380.6,270.1,380.2,269.7,379.6,269.7L379.6,269.7z M379.6,269.7c-0.5,0.1-0.9,0.4-1.3,0.8c0,0.9,0.4,1.4,1.2,1.4h0.1
			c0.8-0.1,1.2-0.4,1.2-0.9v-0.1C380.6,270.1,380.2,269.7,379.6,269.7L379.6,269.7z M382.1,265.1h-0.4c-0.9,0.2-1.4,0.5-1.4,1
			c0,0.4,0.5,0.7,1.4,0.8c0.8-0.3,1.2-0.7,1.2-1C382.9,265.7,382.6,265.4,382.1,265.1L382.1,265.1z M386.3,265.4
			c-0.6,0-1,0.2-1.3,0.7v0.3c0.2,0.4,0.6,0.6,1.1,0.7c0.5,0,0.9-0.3,1.3-0.9C387.2,265.6,386.8,265.3,386.3,265.4L386.3,265.4z
			 M393.6,275.2c-0.8-0.1-1.5,0.5-1.6,1.3c0,0,0,0,0,0c0,0.3,0.5,0.5,1.6,0.5h0.2c0.3-0.1,0.4-0.3,0.4-0.3v-0.8
			C394.2,275.5,394,275.3,393.6,275.2L393.6,275.2z M393.6,275.2c-0.8-0.1-1.5,0.5-1.6,1.3c0,0,0,0,0,0c0,0.3,0.5,0.5,1.6,0.5h0.2
			c0.3-0.1,0.4-0.3,0.4-0.3v-0.8C394.2,275.5,394,275.3,393.6,275.2L393.6,275.2z M386.3,265.4c-0.6,0-1,0.2-1.3,0.7v0.3
			c0.2,0.4,0.6,0.6,1.1,0.7c0.5,0,0.9-0.3,1.3-0.9C387.2,265.6,386.8,265.3,386.3,265.4L386.3,265.4z M382.1,265.1h-0.4
			c-0.9,0.2-1.4,0.5-1.4,1c0,0.4,0.5,0.7,1.4,0.8c0.8-0.3,1.2-0.7,1.2-1C382.9,265.7,382.6,265.4,382.1,265.1L382.1,265.1z
			 M379.6,269.7c-0.5,0.1-0.9,0.4-1.3,0.8c0,0.9,0.4,1.4,1.2,1.4h0.1c0.8-0.1,1.2-0.4,1.2-0.9v-0.1
			C380.6,270.1,380.2,269.7,379.6,269.7L379.6,269.7z M379.6,269.7c-0.5,0.1-0.9,0.4-1.3,0.8c0,0.9,0.4,1.4,1.2,1.4h0.1
			c0.8-0.1,1.2-0.4,1.2-0.9v-0.1C380.6,270.1,380.2,269.7,379.6,269.7L379.6,269.7z M382.1,265.1h-0.4c-0.9,0.2-1.4,0.5-1.4,1
			c0,0.4,0.5,0.7,1.4,0.8c0.8-0.3,1.2-0.7,1.2-1C382.9,265.7,382.6,265.4,382.1,265.1L382.1,265.1z M386.3,265.4
			c-0.6,0-1,0.2-1.3,0.7v0.3c0.2,0.4,0.6,0.6,1.1,0.7c0.5,0,0.9-0.3,1.3-0.9C387.2,265.6,386.8,265.3,386.3,265.4L386.3,265.4z
			 M379.6,269.7c-0.5,0.1-0.9,0.4-1.3,0.8c0,0.9,0.4,1.4,1.2,1.4h0.1c0.8-0.1,1.2-0.4,1.2-0.9v-0.1
			C380.6,270.1,380.2,269.7,379.6,269.7L379.6,269.7z M382.1,265.1h-0.4c-0.9,0.2-1.4,0.5-1.4,1c0,0.4,0.5,0.7,1.4,0.8
			c0.8-0.3,1.2-0.7,1.2-1C382.9,265.7,382.6,265.4,382.1,265.1L382.1,265.1z M386.3,265.4c-0.6,0-1,0.2-1.3,0.7v0.3
			c0.2,0.4,0.6,0.6,1.1,0.7c0.5,0,0.9-0.3,1.3-0.9C387.2,265.6,386.8,265.3,386.3,265.4L386.3,265.4z M393.6,275.2
			c-0.8-0.1-1.5,0.5-1.6,1.3c0,0,0,0,0,0c0,0.3,0.5,0.5,1.6,0.5h0.2c0.3-0.1,0.4-0.3,0.4-0.3v-0.8
			C394.2,275.5,394,275.3,393.6,275.2L393.6,275.2z M393.6,275.2c-0.8-0.1-1.5,0.5-1.6,1.3c0,0,0,0,0,0c0,0.3,0.5,0.5,1.6,0.5h0.2
			c0.3-0.1,0.4-0.3,0.4-0.3v-0.8C394.2,275.5,394,275.3,393.6,275.2L393.6,275.2z"/>
		<path d="M411.1,286c-0.4,0-0.8,0.3-1.1,0.6v1c0.2,0.4,0.6,0.6,1.3,0.6h0.1c0.8-0.3,1.2-0.7,1.2-1.3
			C412.4,286.3,411.8,286,411.1,286z M416.5,269h-0.2c-1,0.3-1.5,0.6-1.5,1c0,0.6,0.5,1,1.4,1.2c0.6,0,1.2-0.3,1.5-0.8v-0.4
			C417.7,269.5,417.3,269.2,416.5,269L416.5,269z M429.3,268.7c-1.1,0.2-1.7,0.6-1.7,1.3v0.1c0.5,0.5,0.9,0.7,1.3,0.7
			c1.2-0.2,1.8-0.6,1.8-1.3C430.6,268.9,430.1,268.7,429.3,268.7L429.3,268.7z M434.8,286.4c-0.7,0-1.2,0.4-1.3,1.2
			c0.2,0.3,0.6,0.6,1,0.5h0.3c0.6,0,1-0.4,1.1-1.1v-0.2C435.9,286.7,435.6,286.5,434.8,286.4L434.8,286.4z M429.3,268.7
			c-1.1,0.2-1.7,0.6-1.7,1.3v0.1c0.5,0.5,0.9,0.7,1.3,0.7c1.2-0.2,1.8-0.6,1.8-1.3C430.6,268.9,430.1,268.7,429.3,268.7L429.3,268.7
			z M434.8,286.4c-0.7,0-1.2,0.4-1.3,1.2c0.2,0.3,0.6,0.6,1,0.5h0.3c0.6,0,1-0.4,1.1-1.1v-0.2C435.9,286.7,435.6,286.5,434.8,286.4
			L434.8,286.4z M416.5,269h-0.2c-1,0.3-1.5,0.6-1.5,1c0,0.6,0.5,1,1.4,1.2c0.6,0,1.2-0.3,1.5-0.8v-0.4
			C417.7,269.5,417.3,269.2,416.5,269L416.5,269z M411.1,286c-0.4,0-0.8,0.3-1.1,0.6v1c0.2,0.4,0.6,0.6,1.3,0.6h0.1
			c0.8-0.3,1.2-0.7,1.2-1.3C412.4,286.3,411.8,286,411.1,286z M411.1,286c-0.4,0-0.8,0.3-1.1,0.6v1c0.2,0.4,0.6,0.6,1.3,0.6h0.1
			c0.8-0.3,1.2-0.7,1.2-1.3C412.4,286.3,411.8,286,411.1,286z M416.5,269h-0.2c-1,0.3-1.5,0.6-1.5,1c0,0.6,0.5,1,1.4,1.2
			c0.6,0,1.2-0.3,1.5-0.8v-0.4C417.7,269.5,417.3,269.2,416.5,269L416.5,269z M429.3,268.7c-1.1,0.2-1.7,0.6-1.7,1.3v0.1
			c0.5,0.5,0.9,0.7,1.3,0.7c1.2-0.2,1.8-0.6,1.8-1.3C430.6,268.9,430.1,268.7,429.3,268.7L429.3,268.7z M434.8,286.4
			c-0.7,0-1.2,0.4-1.3,1.2c0.2,0.3,0.6,0.6,1,0.5h0.3c0.6,0,1-0.4,1.1-1.1v-0.2C435.9,286.7,435.6,286.5,434.8,286.4L434.8,286.4z
			 M429.3,268.7c-1.1,0.2-1.7,0.6-1.7,1.3v0.1c0.5,0.5,0.9,0.7,1.3,0.7c1.2-0.2,1.8-0.6,1.8-1.3
			C430.6,268.9,430.1,268.7,429.3,268.7L429.3,268.7z M434.8,286.4c-0.7,0-1.2,0.4-1.3,1.2c0.2,0.3,0.6,0.6,1,0.5h0.3
			c0.6,0,1-0.4,1.1-1.1v-0.2C435.9,286.7,435.6,286.5,434.8,286.4L434.8,286.4z M416.5,269h-0.2c-1,0.3-1.5,0.6-1.5,1
			c0,0.6,0.5,1,1.4,1.2c0.6,0,1.2-0.3,1.5-0.8v-0.4C417.7,269.5,417.3,269.2,416.5,269L416.5,269z M411.1,286
			c-0.4,0-0.8,0.3-1.1,0.6v1c0.2,0.4,0.6,0.6,1.3,0.6h0.1c0.8-0.3,1.2-0.7,1.2-1.3C412.4,286.3,411.8,286,411.1,286z M411.1,286
			c-0.4,0-0.8,0.3-1.1,0.6v1c0.2,0.4,0.6,0.6,1.3,0.6h0.1c0.8-0.3,1.2-0.7,1.2-1.3C412.4,286.3,411.8,286,411.1,286z M416.5,269
			h-0.2c-1,0.3-1.5,0.6-1.5,1c0,0.6,0.5,1,1.4,1.2c0.6,0,1.2-0.3,1.5-0.8v-0.4C417.7,269.5,417.3,269.2,416.5,269L416.5,269z
			 M429.3,268.7c-1.1,0.2-1.7,0.6-1.7,1.3v0.1c0.5,0.5,0.9,0.7,1.3,0.7c1.2-0.2,1.8-0.6,1.8-1.3
			C430.6,268.9,430.1,268.7,429.3,268.7L429.3,268.7z M434.8,286.4c-0.7,0-1.2,0.4-1.3,1.2c0.2,0.3,0.6,0.6,1,0.5h0.3
			c0.6,0,1-0.4,1.1-1.1v-0.2C435.9,286.7,435.6,286.5,434.8,286.4L434.8,286.4z M429.3,268.7c-1.1,0.2-1.7,0.6-1.7,1.3v0.1
			c0.5,0.5,0.9,0.7,1.3,0.7c1.2-0.2,1.8-0.6,1.8-1.3C430.6,268.9,430.1,268.7,429.3,268.7L429.3,268.7z M434.8,286.4
			c-0.7,0-1.2,0.4-1.3,1.2c0.2,0.3,0.6,0.6,1,0.5h0.3c0.6,0,1-0.4,1.1-1.1v-0.2C435.9,286.7,435.6,286.5,434.8,286.4L434.8,286.4z
			 M416.5,269h-0.2c-1,0.3-1.5,0.6-1.5,1c0,0.6,0.5,1,1.4,1.2c0.6,0,1.2-0.3,1.5-0.8v-0.4C417.7,269.5,417.3,269.2,416.5,269
			L416.5,269z M411.1,286c-0.4,0-0.8,0.3-1.1,0.6v1c0.2,0.4,0.6,0.6,1.3,0.6h0.1c0.8-0.3,1.2-0.7,1.2-1.3
			C412.4,286.3,411.8,286,411.1,286z M411.1,286c-0.4,0-0.8,0.3-1.1,0.6v1c0.2,0.4,0.6,0.6,1.3,0.6h0.1c0.8-0.3,1.2-0.7,1.2-1.3
			C412.4,286.3,411.8,286,411.1,286z M416.5,269h-0.2c-1,0.3-1.5,0.6-1.5,1c0,0.6,0.5,1,1.4,1.2c0.6,0,1.2-0.3,1.5-0.8v-0.4
			C417.7,269.5,417.3,269.2,416.5,269L416.5,269z M429.3,268.7c-1.1,0.2-1.7,0.6-1.7,1.3v0.1c0.5,0.5,0.9,0.7,1.3,0.7
			c1.2-0.2,1.8-0.6,1.8-1.3C430.6,268.9,430.1,268.7,429.3,268.7L429.3,268.7z M434.8,286.4c-0.7,0-1.2,0.4-1.3,1.2
			c0.2,0.3,0.6,0.6,1,0.5h0.3c0.6,0,1-0.4,1.1-1.1v-0.2C435.9,286.7,435.6,286.5,434.8,286.4L434.8,286.4z M429.3,268.7
			c-1.1,0.2-1.7,0.6-1.7,1.3v0.1c0.5,0.5,0.9,0.7,1.3,0.7c1.2-0.2,1.8-0.6,1.8-1.3C430.6,268.9,430.1,268.7,429.3,268.7L429.3,268.7
			z M434.8,286.4c-0.7,0-1.2,0.4-1.3,1.2c0.2,0.3,0.6,0.6,1,0.5h0.3c0.6,0,1-0.4,1.1-1.1v-0.2C435.9,286.7,435.6,286.5,434.8,286.4
			L434.8,286.4z M416.5,269h-0.2c-1,0.3-1.5,0.6-1.5,1c0,0.6,0.5,1,1.4,1.2c0.6,0,1.2-0.3,1.5-0.8v-0.4
			C417.7,269.5,417.3,269.2,416.5,269L416.5,269z M411.1,286c-0.4,0-0.8,0.3-1.1,0.6v1c0.2,0.4,0.6,0.6,1.3,0.6h0.1
			c0.8-0.3,1.2-0.7,1.2-1.3C412.4,286.3,411.8,286,411.1,286z M411.1,286c-0.4,0-0.8,0.3-1.1,0.6v1c0.2,0.4,0.6,0.6,1.3,0.6h0.1
			c0.8-0.3,1.2-0.7,1.2-1.3C412.4,286.3,411.8,286,411.1,286z M416.5,269h-0.2c-1,0.3-1.5,0.6-1.5,1c0,0.6,0.5,1,1.4,1.2
			c0.6,0,1.2-0.3,1.5-0.8v-0.4C417.7,269.5,417.3,269.2,416.5,269L416.5,269z M429.3,268.7c-1.1,0.2-1.7,0.6-1.7,1.3v0.1
			c0.5,0.5,0.9,0.7,1.3,0.7c1.2-0.2,1.8-0.6,1.8-1.3C430.6,268.9,430.1,268.7,429.3,268.7L429.3,268.7z M434.8,286.4
			c-0.7,0-1.2,0.4-1.3,1.2c0.2,0.3,0.6,0.6,1,0.5h0.3c0.6,0,1-0.4,1.1-1.1v-0.2C435.9,286.7,435.6,286.5,434.8,286.4L434.8,286.4z
			 M429.3,268.7c-1.1,0.2-1.7,0.6-1.7,1.3v0.1c0.5,0.5,0.9,0.7,1.3,0.7c1.2-0.2,1.8-0.6,1.8-1.3
			C430.6,268.9,430.1,268.7,429.3,268.7L429.3,268.7z M434.8,286.4c-0.7,0-1.2,0.4-1.3,1.2c0.2,0.3,0.6,0.6,1,0.5h0.3
			c0.6,0,1-0.4,1.1-1.1v-0.2C435.9,286.7,435.6,286.5,434.8,286.4L434.8,286.4z M416.5,269h-0.2c-1,0.3-1.5,0.6-1.5,1
			c0,0.6,0.5,1,1.4,1.2c0.6,0,1.2-0.3,1.5-0.8v-0.4C417.7,269.5,417.3,269.2,416.5,269L416.5,269z M411.1,286
			c-0.4,0-0.8,0.3-1.1,0.6v1c0.2,0.4,0.6,0.6,1.3,0.6h0.1c0.8-0.3,1.2-0.7,1.2-1.3C412.4,286.3,411.8,286,411.1,286z M411.1,286
			c-0.4,0-0.8,0.3-1.1,0.6v1c0.2,0.4,0.6,0.6,1.3,0.6h0.1c0.8-0.3,1.2-0.7,1.2-1.3C412.4,286.3,411.8,286,411.1,286z M416.5,269
			h-0.2c-1,0.3-1.5,0.6-1.5,1c0,0.6,0.5,1,1.4,1.2c0.6,0,1.2-0.3,1.5-0.8v-0.4C417.7,269.5,417.3,269.2,416.5,269L416.5,269z
			 M429.3,268.7c-1.1,0.2-1.7,0.6-1.7,1.3v0.1c0.5,0.5,0.9,0.7,1.3,0.7c1.2-0.2,1.8-0.6,1.8-1.3
			C430.6,268.9,430.1,268.7,429.3,268.7L429.3,268.7z M434.8,286.4c-0.7,0-1.2,0.4-1.3,1.2c0.2,0.3,0.6,0.6,1,0.5h0.3
			c0.6,0,1-0.4,1.1-1.1v-0.2C435.9,286.7,435.6,286.5,434.8,286.4L434.8,286.4z M429.3,268.7c-1.1,0.2-1.7,0.6-1.7,1.3v0.1
			c0.5,0.5,0.9,0.7,1.3,0.7c1.2-0.2,1.8-0.6,1.8-1.3C430.6,268.9,430.1,268.7,429.3,268.7L429.3,268.7z M434.8,286.4
			c-0.7,0-1.2,0.4-1.3,1.2c0.2,0.3,0.6,0.6,1,0.5h0.3c0.6,0,1-0.4,1.1-1.1v-0.2C435.9,286.7,435.6,286.5,434.8,286.4L434.8,286.4z
			 M416.5,269h-0.2c-1,0.3-1.5,0.6-1.5,1c0,0.6,0.5,1,1.4,1.2c0.6,0,1.2-0.3,1.5-0.8v-0.4C417.7,269.5,417.3,269.2,416.5,269
			L416.5,269z M411.1,286c-0.4,0-0.8,0.3-1.1,0.6v1c0.2,0.4,0.6,0.6,1.3,0.6h0.1c0.8-0.3,1.2-0.7,1.2-1.3
			C412.4,286.3,411.8,286,411.1,286z M411.1,286c-0.4,0-0.8,0.3-1.1,0.6v1c0.2,0.4,0.6,0.6,1.3,0.6h0.1c0.8-0.3,1.2-0.7,1.2-1.3
			C412.4,286.3,411.8,286,411.1,286z M416.5,269h-0.2c-1,0.3-1.5,0.6-1.5,1c0,0.6,0.5,1,1.4,1.2c0.6,0,1.2-0.3,1.5-0.8v-0.4
			C417.7,269.5,417.3,269.2,416.5,269L416.5,269z M429.3,268.7c-1.1,0.2-1.7,0.6-1.7,1.3v0.1c0.5,0.5,0.9,0.7,1.3,0.7
			c1.2-0.2,1.8-0.6,1.8-1.3C430.6,268.9,430.1,268.7,429.3,268.7L429.3,268.7z M434.8,286.4c-0.7,0-1.2,0.4-1.3,1.2
			c0.2,0.3,0.6,0.6,1,0.5h0.3c0.6,0,1-0.4,1.1-1.1v-0.2C435.9,286.7,435.6,286.5,434.8,286.4L434.8,286.4z M429.3,268.7
			c-1.1,0.2-1.7,0.6-1.7,1.3v0.1c0.5,0.5,0.9,0.7,1.3,0.7c1.2-0.2,1.8-0.6,1.8-1.3C430.6,268.9,430.1,268.7,429.3,268.7L429.3,268.7
			z M434.8,286.4c-0.7,0-1.2,0.4-1.3,1.2c0.2,0.3,0.6,0.6,1,0.5h0.3c0.6,0,1-0.4,1.1-1.1v-0.2C435.9,286.7,435.6,286.5,434.8,286.4
			L434.8,286.4z M416.5,269h-0.2c-1,0.3-1.5,0.6-1.5,1c0,0.6,0.5,1,1.4,1.2c0.6,0,1.2-0.3,1.5-0.8v-0.4
			C417.7,269.5,417.3,269.2,416.5,269L416.5,269z M411.1,286c-0.4,0-0.8,0.3-1.1,0.6v1c0.2,0.4,0.6,0.6,1.3,0.6h0.1
			c0.8-0.3,1.2-0.7,1.2-1.3C412.4,286.3,411.8,286,411.1,286z M411.1,286c-0.4,0-0.8,0.3-1.1,0.6v1c0.2,0.4,0.6,0.6,1.3,0.6h0.1
			c0.8-0.3,1.2-0.7,1.2-1.3C412.4,286.3,411.8,286,411.1,286z M416.5,269h-0.2c-1,0.3-1.5,0.6-1.5,1c0,0.6,0.5,1,1.4,1.2
			c0.6,0,1.2-0.3,1.5-0.8v-0.4C417.7,269.5,417.3,269.2,416.5,269L416.5,269z M429.3,268.7c-1.1,0.2-1.7,0.6-1.7,1.3v0.1
			c0.5,0.5,0.9,0.7,1.3,0.7c1.2-0.2,1.8-0.6,1.8-1.3C430.6,268.9,430.1,268.7,429.3,268.7L429.3,268.7z M434.8,286.4
			c-0.7,0-1.2,0.4-1.3,1.2c0.2,0.3,0.6,0.6,1,0.5h0.3c0.6,0,1-0.4,1.1-1.1v-0.2C435.9,286.7,435.6,286.5,434.8,286.4L434.8,286.4z
			 M429.3,268.7c-1.1,0.2-1.7,0.6-1.7,1.3v0.1c0.5,0.5,0.9,0.7,1.3,0.7c1.2-0.2,1.8-0.6,1.8-1.3
			C430.6,268.9,430.1,268.7,429.3,268.7L429.3,268.7z M434.8,286.4c-0.7,0-1.2,0.4-1.3,1.2c0.2,0.3,0.6,0.6,1,0.5h0.3
			c0.6,0,1-0.4,1.1-1.1v-0.2C435.9,286.7,435.6,286.5,434.8,286.4L434.8,286.4z M416.5,269h-0.2c-1,0.3-1.5,0.6-1.5,1
			c0,0.6,0.5,1,1.4,1.2c0.6,0,1.2-0.3,1.5-0.8v-0.4C417.7,269.5,417.3,269.2,416.5,269L416.5,269z M411.1,286
			c-0.4,0-0.8,0.3-1.1,0.6v1c0.2,0.4,0.6,0.6,1.3,0.6h0.1c0.8-0.3,1.2-0.7,1.2-1.3C412.4,286.3,411.8,286,411.1,286z M411.1,286
			c-0.4,0-0.8,0.3-1.1,0.6v1c0.2,0.4,0.6,0.6,1.3,0.6h0.1c0.8-0.3,1.2-0.7,1.2-1.3C412.4,286.3,411.8,286,411.1,286z M416.5,269
			h-0.2c-1,0.3-1.5,0.6-1.5,1c0,0.6,0.5,1,1.4,1.2c0.6,0,1.2-0.3,1.5-0.8v-0.4C417.7,269.5,417.3,269.2,416.5,269L416.5,269z
			 M429.3,268.7c-1.1,0.2-1.7,0.6-1.7,1.3v0.1c0.5,0.5,0.9,0.7,1.3,0.7c1.2-0.2,1.8-0.6,1.8-1.3
			C430.6,268.9,430.1,268.7,429.3,268.7L429.3,268.7z M434.8,286.4c-0.7,0-1.2,0.4-1.3,1.2c0.2,0.3,0.6,0.6,1,0.5h0.3
			c0.6,0,1-0.4,1.1-1.1v-0.2C435.9,286.7,435.6,286.5,434.8,286.4L434.8,286.4z M429.3,268.7c-1.1,0.2-1.7,0.6-1.7,1.3v0.1
			c0.5,0.5,0.9,0.7,1.3,0.7c1.2-0.2,1.8-0.6,1.8-1.3C430.6,268.9,430.1,268.7,429.3,268.7L429.3,268.7z M434.8,286.4
			c-0.7,0-1.2,0.4-1.3,1.2c0.2,0.3,0.6,0.6,1,0.5h0.3c0.6,0,1-0.4,1.1-1.1v-0.2C435.9,286.7,435.6,286.5,434.8,286.4L434.8,286.4z
			 M416.5,269h-0.2c-1,0.3-1.5,0.6-1.5,1c0,0.6,0.5,1,1.4,1.2c0.6,0,1.2-0.3,1.5-0.8v-0.4C417.7,269.5,417.3,269.2,416.5,269
			L416.5,269z M411.1,286c-0.4,0-0.8,0.3-1.1,0.6v1c0.2,0.4,0.6,0.6,1.3,0.6h0.1c0.8-0.3,1.2-0.7,1.2-1.3
			C412.4,286.3,411.8,286,411.1,286z M439.1,271.2c0.1-2,0.3-5.7,0.6-11.1l-0.2-1.3l0.1-0.2l-0.1-0.4l0.1-0.6
			c0.1-0.8-0.4-1.4-1.1-1.7h-0.5l-0.3,0.2l-7.8,7.3c-1.6,1.4-3.5,3.3-5.8,5.6c-0.7,0.9-1.1,1.3-1.2,1.3h-0.1l-2.2-2.4l-5.1-6.2
			c-1.6-2.1-3.4-4.1-5.4-5.8c-0.7-0.3-1.4-0.7-2-1.2h-0.3l-0.9,0.5c0,0.2,0.1,0.5,0.1,0.7l-0.1,0.8l0.2,0.8l-0.2,5.9
			c0.1,0.3,0.1,0.7,0.1,1c-0.1,2.1-0.1,3.5-0.1,4.4l0.1,0.4c-0.1,0-0.1,0-0.1,0.1c0.1,0.4,0.1,0.8,0.1,1.2v2.5l0.1,0.6
			c-0.1,0-0.1,0.1-0.1,0.3v0.1c0,0.1,0,0.2,0.1,0.3l-0.1,0.2c0.1,0.7,0.1,1.2,0.1,1.3c0,0.1,0,0.2-0.1,0.3c0.1,0.1,0.1,0.2,0.1,0.3
			v0.6c0,0.3,0,0.6-0.1,0.9c0.1,0.3,0.1,0.5,0.1,0.8v1.1l0.1,0.2h-0.1c0,0.2,0,0.8,0.1,1.9c0,0.1,0,0.2-0.1,0.3l0.1,0.5v1.9
			c0,0.6,0,1.1-0.1,1.7c0.1,0.1,0.1,0.2,0.1,0.4c-0.1,0.4-0.2,0.8-0.2,1.2c0,0,0.1,0.6,0.2,1.8l0.9,0.4l0.6-0.1h2.8l0.8,0.1
			c0,0,0-0.1,0.1-0.1l1.3,0.1c0.3,0,0.5,0,0.8-0.1c0.1,0,0.2,0.1,0.3,0.1h0.2c0.4,0,0.8-0.5,1.1-1.4c-0.1-0.6-0.1-1.1-0.1-1.7v-2.1
			l0.1-0.4c-0.1,0-0.1-0.1-0.1-0.3v-0.2c0-0.8,0-1.6,0.1-2.5l-0.1-0.3c0.1-0.2,0.1-0.5,0.1-0.7V280l-0.1-0.2h0.1
			c0-0.2,0-0.4-0.1-0.5c0,0,0-0.3,0.1-0.7c0-0.7-0.1-1.8-0.2-3.1l0.2-0.1h0.1c4.2,4.1,6.4,6.1,6.6,6.1h0.1c0.5-0.2,0.9-0.4,1.4-0.5
			c0.1,0,0.7-0.6,1.7-1.7c1.6-1.9,3.2-3.5,4.5-4.9h0.1v0.5c0,0.5,0,0.9,0.1,1.4c-0.1,0.6-0.1,1.1-0.1,1.7v2.7l0.1,0.4
			c-0.1,0-0.1,0.1-0.1,0.3v0.1c0,0.5,0,1.1,0.1,1.6l-0.1,0.4c0.1,0.2,0.1,0.5,0.1,0.7v0.2l-0.1,0.9c0.1,0,0.1,0,0.1,0.1
			c-0.1,0-0.1,0-0.1,0.1v0.3c0,0.1,0,0.3,0.1,0.4l-0.2,0.8c0.1,0.2,0.1,0.9,0.1,2.3c0,0.3,0.3,0.6,0.8,0.9h1c0.4,0,1,0,1.7,0.1
			c0.8-0.1,1.7-0.2,2.5-0.2c1.3,0,2.2-0.3,2.4-0.8v-1.8c0-0.1,0-0.3,0.1-0.4c-0.1-0.1-0.1-0.2-0.1-0.3v-2.6c0-0.3,0.1-0.5,0.1-0.8
			c-0.1-0.1-0.1-0.3-0.1-0.6v-0.9c0-0.1,0-0.2-0.1-0.3l0.1-0.2c0.1-2.1,0.1-3.8,0.1-5V275l0.1-1.1c-0.1,0-0.1,0-0.1-0.1
			c0.1-0.3,0.1-0.5,0.1-0.8v-0.3l-0.1-0.4c0.1,0,0.1-0.1,0.1-0.3v-0.1l-0.1-0.2h0.1C439.3,271.5,439.2,271.4,439.1,271.2
			L439.1,271.2z M408.9,260.1v-0.9c0-0.3,0.1-0.5,0.1-0.8c-0.1-0.1-0.1-0.3-0.1-0.6v-0.6c0.5,0.3,1.6,1.5,3.3,3.4v0.2l-0.5,0.4
			c-1.2,0.4-1.7,1.2-1.7,2.4c0.3,1.3,0.9,2,1.7,2h0.5c0.4,0,0.6-0.1,0.7-0.3V265c-0.7-0.5-1-0.8-1-1.1v-0.3c0-0.6,0.4-1.2,1.2-1.7
			h0.2l2,2.5v0.3c-0.3,0.2-0.5,0.7-0.7,1.3c-0.5,1.3-1.4,2-2.5,2c-1.3-0.3-1.9-0.6-1.9-0.9c-0.6,0-1.1-1.3-1.4-3.9
			C408.9,262,408.9,261,408.9,260.1L408.9,260.1z M408.9,274.3c0.1-0.3,0.1-0.6,0.1-0.9c0.1,0,0.2,0,0.3-0.1c1.4,0,2.8,0.1,4.2,0.3
			c0.3,0,0.5,0.2,0.5,0.6v2c0,0.1-0.2,0.2-0.7,0.3c-1.7-0.1-3.1-0.2-4.2-0.2c-0.1,0-0.2-0.1-0.2-0.3c0-0.2,0.1-0.4,0.1-0.5
			C409,275,409,274.6,408.9,274.3L408.9,274.3z M409.2,277.3c2.4,0.1,3.8,0.1,4.2,0.3v0.1h-0.1c-0.4,0.6-0.8,1.1-1.3,1.5
			c-1-0.3-2-0.7-3-1.2v-0.4L409.2,277.3z M410.8,280v0.2c-0.4,0.4-0.9,0.8-1.4,1.2h-0.2c-0.1-0.5-0.1-1-0.1-1.5v-0.6l0.1-0.2
			C409.8,279.3,410.3,279.6,410.8,280L410.8,280z M414,288.1c0,0.4-0.1,0.6-0.3,0.7h-3.8c-0.5,0-0.8-0.2-0.8-0.7
			c0.1-0.6,0.1-1.2,0.1-1.8v-1c0-0.1,0.3-0.2,1-0.3c0.7,0.1,1.4,0.1,2,0.1h0.4l0.8-0.1c0.4,0.1,0.7,0.3,0.7,0.6L414,288.1z
			 M410.5,284.1c-1,0-1.4-0.1-1.4-0.3v-0.7c0-0.1,0-0.2,0.1-0.3c1-0.5,1.9-1.1,2.8-1.8c0.4,0.4,0.8,0.7,1.3,1c0.5,0,0.8,0.6,0.8,1.8
			C414.1,283.9,412.9,284.1,410.5,284.1z M414.1,280.7h-0.2c-0.6-0.3-0.9-0.5-0.9-0.6V280c0.7-0.7,1-1.1,1-1.2h0.1V280.7z
			 M414.1,277.8h-0.3v-0.3c0.1,0.1,0.2,0.1,0.3,0.1V277.8z M417.8,274.3c-0.9-0.6-1.7-1.3-2.4-2c-0.5,0-0.9,0.1-1.4,0.3
			c0-0.1-1.7-0.2-5-0.3l-0.1-0.4v-0.6c0-0.8,0-1.7-0.1-2.8c0.1-0.1,0.1-0.2,0.1-0.3h0.3c1.1,0.6,1.9,0.9,2.4,0.9
			c0.9,0,1.8-0.1,2.6-0.3c1.5-0.8,2.3-1.6,2.3-2.3h0.2l0.2,0.1c1,1.3,1.9,2.4,2.7,3.4c-0.3,0.9-0.5,1.4-0.7,1.4
			C418.4,273.2,418,274.2,417.8,274.3L417.8,274.3z M422,277.8c0,0.1-0.1,0.2-0.2,0.2l-1.4-1.4c-0.9-0.7-1.3-1.2-1.3-1.3
			c0-0.2,0.5-1.5,1.5-4.1h0.2c0.8,0.6,1.2,1.1,1.2,1.5L422,277.8z M423.5,279.1L423.5,279.1l-0.1-5.1c0-0.4,0-1-0.1-1.8
			c0.6-0.5,0.9-0.8,0.9-0.9h0.2c0.6,0.3,1.3,1.8,2.2,4.5C424.9,277.8,423.9,278.9,423.5,279.1L423.5,279.1z M432.4,277.9v-0.5h1.1
			l1.1,0.1c0-0.1,0-0.1,0.1-0.1l1.6,0.3c-0.6,0.8-1,1.2-1.3,1.3h-0.1l-1.2-0.7C432.9,278.1,432.4,278,432.4,277.9L432.4,277.9z
			 M434,280c-0.4,0.5-0.8,0.9-1.3,1.2h-0.1V279C433.5,279.5,433.9,279.9,434,280L434,280z M437.1,288.6l-0.2,0.3l-1.7-0.1
			c-1.5,0.1-2.3,0.1-2.4,0.1l-0.2-0.1c0-0.2,0.1-0.5,0.1-0.7l-0.1-0.5c0-0.2,0.1-0.3,0.1-0.5l-0.1-0.6c0.1-0.3,0.1-0.6,0.1-0.9
			c1.4,0,2.8,0,4.2,0.1h0.2v1.6l0.1,0.9c-0.1,0-0.1,0.1-0.1,0.2L437.1,288.6z M437.1,283.9c0,0.2-0.1,0.4-0.2,0.5l-0.6-0.1h-2
			l-0.3-0.2h-1.4c0-0.1,0-0.5-0.1-1.1l0.1-0.5c0.4-0.1,1.2-0.6,2.2-1.5h0.3c0.5,0.8,1.1,1.1,1.9,1.1c0.1,0.6,0.1,1,0.1,1.3
			L437.1,283.9z M437,280.7h-0.1c-0.1,0-0.3-0.2-0.6-0.6V280c0-0.3,0.3-0.7,0.9-1.2h0.1C437.2,279.4,437.2,280,437,280.7L437,280.7z
			 M437.3,274.4c0,0.4-0.1,0.8-0.1,1.2c0.1,0.1,0.1,0.2,0.1,0.3l-0.1,0.4c-0.8,0-2-0.1-3.6-0.2c-0.3,0-0.6,0.1-0.9,0.1l-0.2-0.3V276
			c0-0.7,0-1.5-0.1-2.6l0.1-0.2c0-0.1,1-0.1,3-0.2c0.6,0.2,1.2,0.3,1.9,0.3L437.3,274.4z M437.3,268.9l-0.1,0.4c0.1,0,0.1,0,0.1,0.1
			l-0.1,0.5v2l-0.1,0.2l-1.7-0.3l-2.7,0.2c0-0.3-0.3-0.6-0.9-0.8l-0.9,0.2l-2.9,3h-0.4c-0.1-0.4-0.2-0.9-0.4-1.3
			c-0.8-1.7-1.4-2.7-1.8-2.9c0-0.3,0.5-1,1.6-1.9c1.5-1.5,2.4-2.3,2.5-2.3c0.1,0,0.1,0.1,0.1,0.2c0.8,1.8,2.3,2.7,4.4,2.7h1
			c0.7,0,1.5-0.4,2.3-1.1V268.9z M437.6,262.5l-0.1,0.9c0.1,0,0.1,0,0.1,0.1l-0.1,0.5v1.2c0,0.1-0.3,0.2-0.8,0.3
			c-0.6,1.4-1.3,2.1-2.1,2.1l-1.1-0.1c-1.5-0.4-2.2-1.2-2.2-2.3l0.1-0.3c-0.1,0-0.2-0.1-0.3-0.3v-0.1c0.3-0.4,0.6-0.7,1-1
			c0.6-0.8,1.4-1.2,2.2-1.2c0.3,0.3,0.4,0.6,0.4,1c-0.1,0.4-0.2,0.8-0.4,1.1c-1.1,0.3-1.7,0.6-1.7,0.7v0.2c0,0.1,0.4,0.2,1.3,0.3
			c0.9,0,1.3-0.2,1.3-0.3c0.5,0,1-0.5,1.4-1.6v-0.7c0-0.8-0.7-1.4-2-1.8c0.8-1,1.8-1.9,2.8-2.7l0.1,0.9L437.6,262.5z M434.8,286.4
			c-0.7,0-1.2,0.4-1.3,1.2c0.2,0.3,0.6,0.6,1,0.5h0.3c0.6,0,1-0.4,1.1-1.1v-0.2C435.9,286.7,435.6,286.5,434.8,286.4L434.8,286.4z
			 M429.4,268.7c-1.1,0.2-1.7,0.6-1.7,1.3v0.1c0.5,0.5,0.9,0.7,1.3,0.7c1.2-0.2,1.8-0.6,1.8-1.3
			C430.6,268.9,430.1,268.7,429.4,268.7L429.4,268.7z M416.5,269h-0.2c-1,0.3-1.5,0.6-1.5,1c0,0.6,0.5,1,1.4,1.2
			c0.6,0,1.2-0.3,1.5-0.8v-0.4C417.7,269.5,417.3,269.2,416.5,269L416.5,269z M411.1,286c-0.4,0-0.8,0.3-1.1,0.6v1
			c0.2,0.4,0.6,0.6,1.3,0.6h0.1c0.8-0.3,1.2-0.7,1.2-1.3C412.4,286.3,411.8,286,411.1,286z M411.1,286c-0.4,0-0.8,0.3-1.1,0.6v1
			c0.2,0.4,0.6,0.6,1.3,0.6h0.1c0.8-0.3,1.2-0.7,1.2-1.3C412.4,286.3,411.8,286,411.1,286z M416.5,269h-0.2c-1,0.3-1.5,0.6-1.5,1
			c0,0.6,0.5,1,1.4,1.2c0.6,0,1.2-0.3,1.5-0.8v-0.4C417.7,269.5,417.3,269.2,416.5,269L416.5,269z M434.8,286.4
			c-0.7,0-1.2,0.4-1.3,1.2c0.2,0.3,0.6,0.6,1,0.5h0.3c0.6,0,1-0.4,1.1-1.1v-0.2C435.9,286.7,435.6,286.5,434.8,286.4L434.8,286.4z
			 M429.4,268.7c-1.1,0.2-1.7,0.6-1.7,1.3v0.1c0.5,0.5,0.9,0.7,1.3,0.7c1.2-0.2,1.8-0.6,1.8-1.3
			C430.6,268.9,430.1,268.7,429.4,268.7L429.4,268.7z M434.8,286.4c-0.7,0-1.2,0.4-1.3,1.2c0.2,0.3,0.6,0.6,1,0.5h0.3
			c0.6,0,1-0.4,1.1-1.1v-0.2C435.9,286.7,435.6,286.5,434.8,286.4L434.8,286.4z M429.4,268.7c-1.1,0.2-1.7,0.6-1.7,1.3v0.1
			c0.5,0.5,0.9,0.7,1.3,0.7c1.2-0.2,1.8-0.6,1.8-1.3C430.6,268.9,430.1,268.7,429.4,268.7L429.4,268.7z M416.5,269h-0.2
			c-1,0.3-1.5,0.6-1.5,1c0,0.6,0.5,1,1.4,1.2c0.6,0,1.2-0.3,1.5-0.8v-0.4C417.7,269.5,417.3,269.2,416.5,269L416.5,269z M411.1,286
			c-0.4,0-0.8,0.3-1.1,0.6v1c0.2,0.4,0.6,0.6,1.3,0.6h0.1c0.8-0.3,1.2-0.7,1.2-1.3C412.4,286.3,411.8,286,411.1,286z M411.1,286
			c-0.4,0-0.8,0.3-1.1,0.6v1c0.2,0.4,0.6,0.6,1.3,0.6h0.1c0.8-0.3,1.2-0.7,1.2-1.3C412.4,286.3,411.8,286,411.1,286z M416.5,269
			h-0.2c-1,0.3-1.5,0.6-1.5,1c0,0.6,0.5,1,1.4,1.2c0.6,0,1.2-0.3,1.5-0.8v-0.4C417.7,269.5,417.3,269.2,416.5,269L416.5,269z
			 M434.8,286.4c-0.7,0-1.2,0.4-1.3,1.2c0.2,0.3,0.6,0.6,1,0.5h0.3c0.6,0,1-0.4,1.1-1.1v-0.2C435.9,286.7,435.6,286.5,434.8,286.4
			L434.8,286.4z M429.4,268.7c-1.1,0.2-1.7,0.6-1.7,1.3v0.1c0.5,0.5,0.9,0.7,1.3,0.7c1.2-0.2,1.8-0.6,1.8-1.3
			C430.6,268.9,430.1,268.7,429.4,268.7L429.4,268.7z M434.8,286.4c-0.7,0-1.2,0.4-1.3,1.2c0.2,0.3,0.6,0.6,1,0.5h0.3
			c0.6,0,1-0.4,1.1-1.1v-0.2C435.9,286.7,435.6,286.5,434.8,286.4L434.8,286.4z M429.4,268.7c-1.1,0.2-1.7,0.6-1.7,1.3v0.1
			c0.5,0.5,0.9,0.7,1.3,0.7c1.2-0.2,1.8-0.6,1.8-1.3C430.6,268.9,430.1,268.7,429.4,268.7L429.4,268.7z M416.5,269h-0.2
			c-1,0.3-1.5,0.6-1.5,1c0,0.6,0.5,1,1.4,1.2c0.6,0,1.2-0.3,1.5-0.8v-0.4C417.7,269.5,417.3,269.2,416.5,269L416.5,269z M411.1,286
			c-0.4,0-0.8,0.3-1.1,0.6v1c0.2,0.4,0.6,0.6,1.3,0.6h0.1c0.8-0.3,1.2-0.7,1.2-1.3C412.4,286.3,411.8,286,411.1,286z M411.1,286
			c-0.4,0-0.8,0.3-1.1,0.6v1c0.2,0.4,0.6,0.6,1.3,0.6h0.1c0.8-0.3,1.2-0.7,1.2-1.3C412.4,286.3,411.8,286,411.1,286z M416.5,269
			h-0.2c-1,0.3-1.5,0.6-1.5,1c0,0.6,0.5,1,1.4,1.2c0.6,0,1.2-0.3,1.5-0.8v-0.4C417.7,269.5,417.3,269.2,416.5,269L416.5,269z
			 M434.8,286.4c-0.7,0-1.2,0.4-1.3,1.2c0.2,0.3,0.6,0.6,1,0.5h0.3c0.6,0,1-0.4,1.1-1.1v-0.2C435.9,286.7,435.6,286.5,434.8,286.4
			L434.8,286.4z M429.4,268.7c-1.1,0.2-1.7,0.6-1.7,1.3v0.1c0.5,0.5,0.9,0.7,1.3,0.7c1.2-0.2,1.8-0.6,1.8-1.3
			C430.6,268.9,430.1,268.7,429.4,268.7L429.4,268.7z M434.8,286.4c-0.7,0-1.2,0.4-1.3,1.2c0.2,0.3,0.6,0.6,1,0.5h0.3
			c0.6,0,1-0.4,1.1-1.1v-0.2C435.9,286.7,435.6,286.5,434.8,286.4L434.8,286.4z M429.4,268.7c-1.1,0.2-1.7,0.6-1.7,1.3v0.1
			c0.5,0.5,0.9,0.7,1.3,0.7c1.2-0.2,1.8-0.6,1.8-1.3C430.6,268.9,430.1,268.7,429.4,268.7L429.4,268.7z M416.5,269h-0.2
			c-1,0.3-1.5,0.6-1.5,1c0,0.6,0.5,1,1.4,1.2c0.6,0,1.2-0.3,1.5-0.8v-0.4C417.7,269.5,417.3,269.2,416.5,269L416.5,269z M411.1,286
			c-0.4,0-0.8,0.3-1.1,0.6v1c0.2,0.4,0.6,0.6,1.3,0.6h0.1c0.8-0.3,1.2-0.7,1.2-1.3C412.4,286.3,411.8,286,411.1,286z M411.1,286
			c-0.4,0-0.8,0.3-1.1,0.6v1c0.2,0.4,0.6,0.6,1.3,0.6h0.1c0.8-0.3,1.2-0.7,1.2-1.3C412.4,286.3,411.8,286,411.1,286z M416.5,269
			h-0.2c-1,0.3-1.5,0.6-1.5,1c0,0.6,0.5,1,1.4,1.2c0.6,0,1.2-0.3,1.5-0.8v-0.4C417.7,269.5,417.3,269.2,416.5,269L416.5,269z
			 M434.8,286.4c-0.7,0-1.2,0.4-1.3,1.2c0.2,0.3,0.6,0.6,1,0.5h0.3c0.6,0,1-0.4,1.1-1.1v-0.2C435.9,286.7,435.6,286.5,434.8,286.4
			L434.8,286.4z M429.4,268.7c-1.1,0.2-1.7,0.6-1.7,1.3v0.1c0.5,0.5,0.9,0.7,1.3,0.7c1.2-0.2,1.8-0.6,1.8-1.3
			C430.6,268.9,430.1,268.7,429.4,268.7L429.4,268.7z M434.8,286.4c-0.7,0-1.2,0.4-1.3,1.2c0.2,0.3,0.6,0.6,1,0.5h0.3
			c0.6,0,1-0.4,1.1-1.1v-0.2C435.9,286.7,435.6,286.5,434.8,286.4L434.8,286.4z M429.4,268.7c-1.1,0.2-1.7,0.6-1.7,1.3v0.1
			c0.5,0.5,0.9,0.7,1.3,0.7c1.2-0.2,1.8-0.6,1.8-1.3C430.6,268.9,430.1,268.7,429.4,268.7L429.4,268.7z M416.5,269h-0.2
			c-1,0.3-1.5,0.6-1.5,1c0,0.6,0.5,1,1.4,1.2c0.6,0,1.2-0.3,1.5-0.8v-0.4C417.7,269.5,417.3,269.2,416.5,269L416.5,269z M411.1,286
			c-0.4,0-0.8,0.3-1.1,0.6v1c0.2,0.4,0.6,0.6,1.3,0.6h0.1c0.8-0.3,1.2-0.7,1.2-1.3C412.4,286.3,411.8,286,411.1,286z M411.1,286
			c-0.4,0-0.8,0.3-1.1,0.6v1c0.2,0.4,0.6,0.6,1.3,0.6h0.1c0.8-0.3,1.2-0.7,1.2-1.3C412.4,286.3,411.8,286,411.1,286z M416.5,269
			h-0.2c-1,0.3-1.5,0.6-1.5,1c0,0.6,0.5,1,1.4,1.2c0.6,0,1.2-0.3,1.5-0.8v-0.4C417.7,269.5,417.3,269.2,416.5,269L416.5,269z
			 M434.8,286.4c-0.7,0-1.2,0.4-1.3,1.2c0.2,0.3,0.6,0.6,1,0.5h0.3c0.6,0,1-0.4,1.1-1.1v-0.2C435.9,286.7,435.6,286.5,434.8,286.4
			L434.8,286.4z M429.4,268.7c-1.1,0.2-1.7,0.6-1.7,1.3v0.1c0.5,0.5,0.9,0.7,1.3,0.7c1.2-0.2,1.8-0.6,1.8-1.3
			C430.6,268.9,430.1,268.7,429.4,268.7L429.4,268.7z M434.8,286.4c-0.7,0-1.2,0.4-1.3,1.2c0.2,0.3,0.6,0.6,1,0.5h0.3
			c0.6,0,1-0.4,1.1-1.1v-0.2C435.9,286.7,435.6,286.5,434.8,286.4L434.8,286.4z M429.4,268.7c-1.1,0.2-1.7,0.6-1.7,1.3v0.1
			c0.5,0.5,0.9,0.7,1.3,0.7c1.2-0.2,1.8-0.6,1.8-1.3C430.6,268.9,430.1,268.7,429.4,268.7L429.4,268.7z M416.5,269h-0.2
			c-1,0.3-1.5,0.6-1.5,1c0,0.6,0.5,1,1.4,1.2c0.6,0,1.2-0.3,1.5-0.8v-0.4C417.7,269.5,417.3,269.2,416.5,269L416.5,269z M411.1,286
			c-0.4,0-0.8,0.3-1.1,0.6v1c0.2,0.4,0.6,0.6,1.3,0.6h0.1c0.8-0.3,1.2-0.7,1.2-1.3C412.4,286.3,411.8,286,411.1,286z M411.1,286
			c-0.4,0-0.8,0.3-1.1,0.6v1c0.2,0.4,0.6,0.6,1.3,0.6h0.1c0.8-0.3,1.2-0.7,1.2-1.3C412.4,286.3,411.8,286,411.1,286z M416.5,269
			h-0.2c-1,0.3-1.5,0.6-1.5,1c0,0.6,0.5,1,1.4,1.2c0.6,0,1.2-0.3,1.5-0.8v-0.4C417.7,269.5,417.3,269.2,416.5,269L416.5,269z
			 M434.8,286.4c-0.7,0-1.2,0.4-1.3,1.2c0.2,0.3,0.6,0.6,1,0.5h0.3c0.6,0,1-0.4,1.1-1.1v-0.2C435.9,286.7,435.6,286.5,434.8,286.4
			L434.8,286.4z M429.4,268.7c-1.1,0.2-1.7,0.6-1.7,1.3v0.1c0.5,0.5,0.9,0.7,1.3,0.7c1.2-0.2,1.8-0.6,1.8-1.3
			C430.6,268.9,430.1,268.7,429.4,268.7L429.4,268.7z M434.8,286.4c-0.7,0-1.2,0.4-1.3,1.2c0.2,0.3,0.6,0.6,1,0.5h0.3
			c0.6,0,1-0.4,1.1-1.1v-0.2C435.9,286.7,435.6,286.5,434.8,286.4L434.8,286.4z M429.4,268.7c-1.1,0.2-1.7,0.6-1.7,1.3v0.1
			c0.5,0.5,0.9,0.7,1.3,0.7c1.2-0.2,1.8-0.6,1.8-1.3C430.6,268.9,430.1,268.7,429.4,268.7L429.4,268.7z M416.5,269h-0.2
			c-1,0.3-1.5,0.6-1.5,1c0,0.6,0.5,1,1.4,1.2c0.6,0,1.2-0.3,1.5-0.8v-0.4C417.7,269.5,417.3,269.2,416.5,269L416.5,269z M411.1,286
			c-0.4,0-0.8,0.3-1.1,0.6v1c0.2,0.4,0.6,0.6,1.3,0.6h0.1c0.8-0.3,1.2-0.7,1.2-1.3C412.4,286.3,411.8,286,411.1,286z M411.1,286
			c-0.4,0-0.8,0.3-1.1,0.6v1c0.2,0.4,0.6,0.6,1.3,0.6h0.1c0.8-0.3,1.2-0.7,1.2-1.3C412.4,286.3,411.8,286,411.1,286z M416.5,269
			h-0.2c-1,0.3-1.5,0.6-1.5,1c0,0.6,0.5,1,1.4,1.2c0.6,0,1.2-0.3,1.5-0.8v-0.4C417.7,269.5,417.3,269.2,416.5,269L416.5,269z
			 M434.8,286.4c-0.7,0-1.2,0.4-1.3,1.2c0.2,0.3,0.6,0.6,1,0.5h0.3c0.6,0,1-0.4,1.1-1.1v-0.2C435.9,286.7,435.6,286.5,434.8,286.4
			L434.8,286.4z M429.4,268.7c-1.1,0.2-1.7,0.6-1.7,1.3v0.1c0.5,0.5,0.9,0.7,1.3,0.7c1.2-0.2,1.8-0.6,1.8-1.3
			C430.6,268.9,430.1,268.7,429.4,268.7L429.4,268.7z M434.8,286.4c-0.7,0-1.2,0.4-1.3,1.2c0.2,0.3,0.6,0.6,1,0.5h0.3
			c0.6,0,1-0.4,1.1-1.1v-0.2C435.9,286.7,435.6,286.5,434.8,286.4L434.8,286.4z M429.4,268.7c-1.1,0.2-1.7,0.6-1.7,1.3v0.1
			c0.5,0.5,0.9,0.7,1.3,0.7c1.2-0.2,1.8-0.6,1.8-1.3C430.6,268.9,430.1,268.7,429.4,268.7L429.4,268.7z M416.5,269h-0.2
			c-1,0.3-1.5,0.6-1.5,1c0,0.6,0.5,1,1.4,1.2c0.6,0,1.2-0.3,1.5-0.8v-0.4C417.7,269.5,417.3,269.2,416.5,269L416.5,269z M411.1,286
			c-0.4,0-0.8,0.3-1.1,0.6v1c0.2,0.4,0.6,0.6,1.3,0.6h0.1c0.8-0.3,1.2-0.7,1.2-1.3C412.4,286.3,411.8,286,411.1,286z M411.1,286
			c-0.4,0-0.8,0.3-1.1,0.6v1c0.2,0.4,0.6,0.6,1.3,0.6h0.1c0.8-0.3,1.2-0.7,1.2-1.3C412.4,286.3,411.8,286,411.1,286z M416.5,269
			h-0.2c-1,0.3-1.5,0.6-1.5,1c0,0.6,0.5,1,1.4,1.2c0.6,0,1.2-0.3,1.5-0.8v-0.4C417.7,269.5,417.3,269.2,416.5,269L416.5,269z
			 M434.8,286.4c-0.7,0-1.2,0.4-1.3,1.2c0.2,0.3,0.6,0.6,1,0.5h0.3c0.6,0,1-0.4,1.1-1.1v-0.2C435.9,286.7,435.6,286.5,434.8,286.4
			L434.8,286.4z M429.4,268.7c-1.1,0.2-1.7,0.6-1.7,1.3v0.1c0.5,0.5,0.9,0.7,1.3,0.7c1.2-0.2,1.8-0.6,1.8-1.3
			C430.6,268.9,430.1,268.7,429.4,268.7L429.4,268.7z M434.8,286.4c-0.7,0-1.2,0.4-1.3,1.2c0.2,0.3,0.6,0.6,1,0.5h0.3
			c0.6,0,1-0.4,1.1-1.1v-0.2C435.9,286.7,435.6,286.5,434.8,286.4L434.8,286.4z M429.4,268.7c-1.1,0.2-1.7,0.6-1.7,1.3v0.1
			c0.5,0.5,0.9,0.7,1.3,0.7c1.2-0.2,1.8-0.6,1.8-1.3C430.6,268.9,430.1,268.7,429.4,268.7L429.4,268.7z M416.5,269h-0.2
			c-1,0.3-1.5,0.6-1.5,1c0,0.6,0.5,1,1.4,1.2c0.6,0,1.2-0.3,1.5-0.8v-0.4C417.7,269.5,417.3,269.2,416.5,269L416.5,269z M411.1,286
			c-0.4,0-0.8,0.3-1.1,0.6v1c0.2,0.4,0.6,0.6,1.3,0.6h0.1c0.8-0.3,1.2-0.7,1.2-1.3C412.4,286.3,411.8,286,411.1,286z M416.5,269
			h-0.2c-1,0.3-1.5,0.6-1.5,1c0,0.6,0.5,1,1.4,1.2c0.6,0,1.2-0.3,1.5-0.8v-0.4C417.7,269.5,417.3,269.2,416.5,269L416.5,269z
			 M411.1,286c-0.4,0-0.8,0.3-1.1,0.6v1c0.2,0.4,0.6,0.6,1.3,0.6h0.1c0.8-0.3,1.2-0.7,1.2-1.3C412.4,286.3,411.8,286,411.1,286z
			 M411.1,286c-0.4,0-0.8,0.3-1.1,0.6v1c0.2,0.4,0.6,0.6,1.3,0.6h0.1c0.8-0.3,1.2-0.7,1.2-1.3C412.4,286.3,411.8,286,411.1,286z
			 M416.5,269h-0.2c-1,0.3-1.5,0.6-1.5,1c0,0.6,0.5,1,1.4,1.2c0.6,0,1.2-0.3,1.5-0.8v-0.4C417.7,269.5,417.3,269.2,416.5,269
			L416.5,269z M429.3,268.7c-1.1,0.2-1.7,0.6-1.7,1.3v0.1c0.5,0.5,0.9,0.7,1.3,0.7c1.2-0.2,1.8-0.6,1.8-1.3
			C430.6,268.9,430.1,268.7,429.3,268.7L429.3,268.7z M429.3,268.7c-1.1,0.2-1.7,0.6-1.7,1.3v0.1c0.5,0.5,0.9,0.7,1.3,0.7
			c1.2-0.2,1.8-0.6,1.8-1.3C430.6,268.9,430.1,268.7,429.3,268.7L429.3,268.7z M434.8,286.4c-0.7,0-1.2,0.4-1.3,1.2
			c0.2,0.3,0.6,0.6,1,0.5h0.3c0.6,0,1-0.4,1.1-1.1v-0.2C435.9,286.7,435.6,286.5,434.8,286.4L434.8,286.4z M434.8,286.4
			c-0.7,0-1.2,0.4-1.3,1.2c0.2,0.3,0.6,0.6,1,0.5h0.3c0.6,0,1-0.4,1.1-1.1v-0.2C435.9,286.7,435.6,286.5,434.8,286.4L434.8,286.4z"
			/>
		<path class="st1" d="M436.4,277.6c-0.6,0.8-1,1.2-1.3,1.3h-0.1l-1.2-0.7c-0.9-0.1-1.3-0.2-1.3-0.3v-0.5h1.1l1.1,0.1
			c0-0.1,0-0.1,0.1-0.1L436.4,277.6z"/>
		<path class="st1" d="M437.3,278.8c0,0.6-0.1,1.2-0.2,1.9h-0.1c-0.1,0-0.3-0.2-0.6-0.6V280c0-0.3,0.3-0.7,0.9-1.2H437.3z"/>
		<path class="st1" d="M434,280c-0.4,0.5-0.8,0.9-1.3,1.2h-0.1V279C433.5,279.5,433.9,279.9,434,280z"/>
		<path class="st1" d="M437.1,288.1l-0.1-0.9v-1.6h-0.2c-1.3-0.1-2.7-0.1-4.2-0.1c0,0.3,0,0.6-0.1,0.9l0.1,0.6
			c-0.1,0.2-0.1,0.3-0.1,0.5l0.1,0.5c-0.1,0.2-0.1,0.5-0.1,0.7l0.2,0.1c0.2,0,1,0,2.4-0.1l1.7,0.1l0.2-0.3l-0.1-0.3
			C437.1,288.1,437.1,288.1,437.1,288.1z M436,287c-0.1,0.8-0.5,1.1-1.1,1.1h-0.3c-0.4,0-0.8-0.2-1-0.5c0.2-0.8,0.6-1.2,1.3-1.2
			c0.7,0.1,1.1,0.2,1.1,0.3L436,287z"/>
		<path class="st1" d="M437.1,283.5v0.4c0,0.2-0.1,0.4-0.2,0.5l-0.6-0.1h-2l-0.3-0.2h-1.4c0-0.1,0-0.5-0.1-1.1l0.1-0.5
			c0.4-0.1,1.2-0.6,2.2-1.5h0.3c0.5,0.8,1.1,1.1,1.9,1.1C437.1,282.8,437.1,283.2,437.1,283.5z"/>
		<path class="st1" d="M437.3,274.4c0,0.4-0.1,0.8-0.1,1.2c0.1,0.1,0.1,0.2,0.1,0.3l-0.1,0.4c-0.8,0-2-0.1-3.6-0.2
			c-0.3,0-0.6,0.1-0.9,0.1l-0.2-0.3V276c0-0.7,0-1.5-0.1-2.6l0.1-0.2c0-0.1,1-0.1,3-0.2c0.6,0.2,1.2,0.3,1.9,0.3L437.3,274.4z"/>
		<path class="st1" d="M437.6,262.5l-0.1,0.9c0.1,0,0.1,0,0.1,0.1l-0.1,0.5v1.2c0,0.1-0.3,0.2-0.8,0.3c-0.6,1.4-1.3,2.1-2.1,2.1
			l-1.1-0.1c-1.5-0.4-2.2-1.2-2.2-2.3l0.1-0.3c-0.1,0-0.2-0.1-0.3-0.3v-0.1c0.3-0.4,0.6-0.7,1-1c0.6-0.8,1.4-1.2,2.2-1.2
			c0.3,0.3,0.4,0.6,0.4,1c-0.1,0.4-0.2,0.8-0.4,1.1c-1.1,0.3-1.7,0.6-1.7,0.7v0.2c0,0.1,0.4,0.2,1.3,0.3c0.9,0,1.3-0.2,1.3-0.3
			c0.5,0,1-0.5,1.4-1.6v-0.7c0-0.8-0.7-1.4-2-1.8c0.8-1,1.8-1.9,2.8-2.7l0.1,0.9L437.6,262.5z"/>
		<path class="st1" d="M437.4,268c-0.8,0.7-1.6,1.1-2.3,1.1h-1c-2.1,0-3.6-0.9-4.4-2.7c0-0.2,0-0.2-0.1-0.2s-1,0.8-2.5,2.3
			c-1,0.9-1.6,1.5-1.6,1.9c0.4,0.2,1,1.2,1.8,2.9c0.2,0.4,0.3,0.8,0.4,1.3h0.4l2.9-3l0.9-0.2c0.6,0.2,0.9,0.5,0.9,0.8l2.7-0.2
			l1.7,0.3l0.1-0.2v-2l0.1-0.5c0,0,0-0.1-0.1-0.1l0.1-0.4L437.4,268z M429,270.8c-0.4,0-0.8-0.2-1.3-0.7V270c0-0.7,0.6-1.2,1.7-1.3
			c0.7,0,1.2,0.3,1.4,0.8C430.8,270.2,430.2,270.6,429,270.8z"/>
		<path class="st1" d="M426.6,275.9c-1.7,1.9-2.7,3-3.1,3.2h-0.1V274c0-0.4,0-1-0.1-1.8c0.6-0.5,0.9-0.8,0.9-0.9h0.2
			C425,271.7,425.7,273.2,426.6,275.9z"/>
		<path class="st1" d="M422,272.7v5.1c0,0.1-0.1,0.2-0.2,0.2l-1.4-1.4c-0.9-0.7-1.3-1.2-1.3-1.3c0-0.2,0.5-1.5,1.5-4.1h0.2
			C421.6,271.8,422,272.3,422,272.7z"/>
		<path class="st1" d="M410.8,280v0.2c-0.4,0.4-0.9,0.8-1.4,1.2h-0.2c-0.1-0.5-0.1-1-0.1-1.5v-0.6l0.1-0.2
			C409.8,279.3,410.3,279.6,410.8,280z"/>
		<path class="st1" d="M414.1,278.8v1.9h-0.2c-0.6-0.3-0.9-0.5-0.9-0.6V280C413.6,279.3,414,278.9,414.1,278.8L414.1,278.8z"/>
		<path class="st1" d="M413.3,285l-0.8,0.1h-0.4c-0.6,0-1.3,0-2-0.1c-0.6,0.1-1,0.2-1,0.3v1c0,0.6,0,1.2-0.1,1.8
			c0,0.5,0.3,0.7,0.8,0.7h3.8c0.2,0,0.3-0.3,0.3-0.7v-2.4C414,285.3,413.8,285.1,413.3,285z M411.5,288.2h-0.1
			c-0.6,0-1.1-0.2-1.3-0.6v-1c0.3-0.4,0.7-0.6,1.1-0.6c0.6,0,1.3,0.3,1.6,0.9C412.7,287.5,412.3,287.9,411.5,288.2L411.5,288.2z"/>
		<path class="st1" d="M414.1,283.7c0,0.2-1.2,0.3-3.6,0.3c-1,0-1.4-0.1-1.4-0.3v-0.7c0-0.1,0-0.2,0.1-0.3c1-0.5,1.9-1.1,2.8-1.8
			c0.4,0.4,0.8,0.7,1.3,1C413.8,281.9,414.1,282.5,414.1,283.7z"/>
		<path class="st1" d="M413.3,277.5L413.3,277.5L413.3,277.5c-0.5,0.7-0.9,1.2-1.4,1.6c-1-0.3-2-0.7-3-1.2v-0.4l0.2-0.3
			C411.6,277.4,413,277.4,413.3,277.5z"/>
		<path class="st1" d="M414,274.2v2c0,0.1-0.2,0.2-0.7,0.3c-1.7-0.1-3.1-0.2-4.2-0.2c-0.1,0-0.2-0.1-0.2-0.3c0-0.2,0.1-0.4,0.1-0.5
			c0-0.4-0.1-0.8-0.1-1.2c0.1-0.3,0.1-0.6,0.1-0.9c0.1,0,0.2,0,0.3-0.1c1.4,0,2.8,0.1,4.2,0.3C413.8,273.6,414,273.8,414,274.2z"/>
		<path class="st1" d="M417,266.4l-0.2-0.1h-0.2c0,0.7-0.8,1.5-2.3,2.3c-0.9,0.2-1.7,0.4-2.6,0.3c-0.5,0-1.3-0.3-2.4-0.9h-0.2
			c0,0.1,0,0.2-0.1,0.3c0.1,1.1,0.1,2,0.1,2.8v0.6l0.1,0.4c3.3,0,5,0.1,5,0.3c0.5-0.1,0.9-0.2,1.4-0.3c0.8,0.7,1.6,1.4,2.4,2
			c0.2,0,0.6-1,1.2-3c0.1,0,0.4-0.5,0.7-1.4C418.8,268.9,417.9,267.8,417,266.4z M417.7,270.3c-0.3,0.5-0.9,0.8-1.5,0.8
			c-1-0.1-1.4-0.5-1.4-1.2c0-0.4,0.5-0.7,1.5-1h0.2c0.8,0.1,1.2,0.4,1.2,0.9V270.3z"/>
		<path class="st1" d="M415.3,264.4v0.3c-0.3,0.2-0.5,0.7-0.7,1.3c-0.5,1.3-1.4,2-2.5,2c-1.3-0.3-1.9-0.6-1.9-0.9
			c-0.6,0-1.1-1.3-1.4-3.9c0.1-1.1,0.1-2.1,0.1-3v-0.9c0-0.3,0.1-0.5,0.1-0.8c-0.1-0.1-0.1-0.3-0.1-0.6v-0.6
			c0.5,0.3,1.6,1.5,3.3,3.4v0.2l-0.5,0.4c-1.2,0.4-1.7,1.2-1.7,2.4c0.3,1.3,0.9,2,1.7,2h0.5c0.4,0,0.6-0.1,0.7-0.3V265
			c-0.7-0.5-1-0.8-1-1.1v-0.3c0-0.6,0.4-1.2,1.2-1.7h0.2L415.3,264.4z"/>
		<path d="M459.5,254.6h0.7c0.1,0,0.1,0,0.1,0.1l0.2-0.1h0.3c0.6,0,1.9,1.5,3.8,4.6c1,1.1,2.6,3.8,4.8,7.9l3.2,6.1
			c0.3,0.5,1.5,2.8,3.6,6.8c1.1,1.9,2.1,3.9,3,6c0.8,1.3,1.3,2.1,1.3,2.3c-0.4,0.8-1.7,1.3-3.9,1.3c0,0.1-0.9,0.2-2.7,0.3
			c0,0.1-0.7,0.2-2,0.2c-1,0-1.5-0.5-1.5-1.4c-0.5-0.7-1.4-2.3-2.8-4.9c-0.3-0.1-0.6-0.2-0.9-0.2c-0.7,0.1-1.2,0.1-1.6,0.1h-4
			l-0.6-0.1l-0.2,0.1c-0.1,0-0.1,0-0.1-0.1l-1.3,0.1h-0.9c-0.1,0-0.3,0-0.4,0.1c-0.1,0-0.1,0-0.1-0.1c-1.5,0-2.2,0.2-2.2,0.6
			l-1.6,2.3c0,0.3-0.5,1-1.4,2c0,0.6-0.4,0.9-1.3,0.9h-0.2c-1.2-0.1-1.9-0.2-2-0.2h-0.5c-0.2,0-0.4,0-0.5,0.1l-2.1-0.1
			c-0.1,0-0.1,0-0.1,0.1c-2.6,0-3.9-0.3-3.9-0.8c0.3,0,0.7-0.8,1.2-2.3c1-1.8,1.8-3.5,2.5-4.9c0.8-0.9,1.2-1.8,1.2-2.6
			c0.9-1.2,1.9-3.1,3.1-5.5c0.7-1.1,2.8-5.3,6.4-12.6c0.8-1.4,1.5-2.7,2-3.7C458.7,255.4,459.2,254.6,459.5,254.6z M443.8,287.7
			l0.1,0.2c-0.1,0.1-0.1,0.2-0.1,0.3c0.2,0,0.3,0.1,0.3,0.2l1-0.1h5.6c0.6-0.4,1.3-1.4,2-3v-0.1c-1.9-0.6-3-0.9-3.1-0.9h-0.1
			c-1,1.9-1.8,2.8-2.2,2.8c-0.1,0-0.2,0.1-0.3,0.1l-0.3-0.4l1.4-2.8c-0.6-0.2-1.2-0.4-1.8-0.5c-0.2,0-0.6,0.5-1.1,1.6
			c-0.5,0.8-0.9,1.7-1.3,2.6C443.8,287.6,443.8,287.7,443.8,287.7z M451.4,272.9c-0.7,0.9-1.1,1.7-1.1,2.2l0.7-0.1h0.1
			c0.2,0,0.5,0.6,1,1.8c1,1.5,2.1,2.2,3.5,2.2c0.5,0.1,1,0.1,1.5,0.1c0,0,0.5-0.3,1.6-0.7c0.1-0.4,0.4-0.6,0.8-0.6h0.3
			c0.1,0,0.2,0.1,0.4,0.3v0.5c-0.9,0.8-1.8,1.3-2.5,1.3c0,0.1-0.5,0.2-1.5,0.3c-2.3,0-3.9-0.6-4.8-1.7c-0.4-0.3-0.9-1.1-1.5-2.5
			h-0.4c-0.9,1.4-1.7,2.9-2.3,4.5c-0.6,1-0.9,1.6-0.9,1.7c0.7,0.4,1.5,0.6,2.3,0.6c0.9-1.4,1.4-2.4,1.5-2.8c0.2-0.1,0.4-0.2,0.6-0.2
			h0.6c0.1,0,0.2,0.1,0.3,0.2v0.2c0,0.1-0.5,1.1-1.5,2.7c0,0.2,1.1,0.6,3.4,1.2h0.1c0.5-1.1,1-1.7,1.5-1.7c0.3,0,0.6,0,0.9,0.1
			c1-0.1,2.1-0.2,3.1-0.2h2.1l0.1-0.4v-1.1c0-1.3-0.2-2.5-0.6-3.7h-0.2c-0.5,0-1.5,0-3.2,0.1c-0.5-0.1-0.8-0.3-0.8-0.5
			c0.4-0.5,0.5-0.8,0.5-0.9l-0.3-0.1H456c-1.6,0-3.1-0.9-4.3-2.6C451.7,273,451.6,272.9,451.4,272.9L451.4,272.9z M455.7,264.6
			c-1,1.7-1.9,3.4-2.8,5.2c-0.2,0.2-0.5,0.8-0.8,1.8c0.8,0.2,1.2,0.6,1.2,1c1.1,1.3,2.2,1.9,3.4,2c1.1-0.1,1.6-0.3,1.6-0.7
			c0.8-1.3,1.5-2.8,1.9-4.3c0.2-0.2,0.5-0.2,0.7-0.2c0.7,0.1,1.1,0.2,1.2,0.2h0.1v-0.1c0-0.7-0.2-1.1-0.4-1.1h-1.3
			c-0.7,0-1.6,0-2.5-0.1c-0.1,0.1-0.2,0.1-0.3,0.1c-0.6-0.1-1-0.2-1-0.3v-0.3c0-0.2,0.5-0.4,1.5-0.6c1.3,0.1,1.9,0.1,1.9,0.2
			l0.5-0.1h1.9c0.9,0.1,1.4,0.4,1.4,0.8l-0.1,0.2c0,1.6,0.3,2.4,0.8,2.4c0.3,0,0.5,0.1,0.8,0.1h0.5c0.2,0,0.3-0.1,0.3-0.3
			c0,0,0,0,0-0.1c0-0.3,0-0.8-0.1-1.6c0-0.1,0-0.1,0.1-0.1l-0.1-0.4c0-2.2-0.3-3.2-0.9-3.2c-1-0.2-1.9-0.3-2.9-0.3l-0.4,0.1
			c-1.2-0.1-2-0.1-2.3-0.1c-0.1,0-0.6,0-1.7,0.1l-0.2-0.1c-0.1,0.1-0.2,0.1-0.3,0.1C456.6,264.8,456.1,264.7,455.7,264.6
			L455.7,264.6z M455,269.7c0.6,0,1,0.4,1.2,1.2v0.1c0,0.5-0.4,0.8-1.2,0.9h-0.1c-0.8,0-1.2-0.5-1.2-1.4
			C454,270.1,454.5,269.8,455,269.7z M457.1,265.1h0.4c0.5,0.3,0.7,0.5,0.7,0.8c0,0.3-0.4,0.7-1.2,1c-0.9-0.1-1.4-0.3-1.4-0.8
			C455.7,265.6,456.2,265.3,457.1,265.1L457.1,265.1z M459.4,257.2c-2.2,3.9-3.3,6.1-3.3,6.5l0.3,0.2c0.1-0.1,0.2-0.1,0.3-0.1v0.1
			c0.9-0.2,1.9-0.3,2.8-0.4l0.1-0.9V262c0-1.2,0-2.6,0.1-4.3l-0.1-0.5H459.4z M460,256v0.4c0.4,0,0.6-0.1,0.6-0.2
			c-0.1-0.2-0.2-0.3-0.3-0.3h-0.1C460.1,255.9,460,255.9,460,256L460,256z M461.7,265.4c0.5-0.1,0.9,0.2,1.1,0.7
			c-0.4,0.6-0.8,0.9-1.3,0.9c-0.4-0.1-0.8-0.3-1.1-0.7v-0.3C460.6,265.6,461,265.4,461.7,265.4L461.7,265.4z M461.6,257.5
			c-0.1,0-0.2,1.4-0.3,4.1c0.1,0.6,0.1,1.2,0.1,1.7l0.3,0.2c0.6,0,1.9,0.1,4,0.2v-0.1C465.3,262.8,464,260.8,461.6,257.5
			L461.6,257.5z M465.7,275h-0.5c0,0.4,0.4,1.1,1.2,2.2c0,0.2-0.3,0.4-0.8,0.7c-0.3,0-0.7-0.3-1.2-0.8h-1.3c-0.1,0-0.2,0.2-0.3,0.6
			c0,0,0,0.1,0.1,0.1c0.1,3.1,0.2,4.7,0.4,4.7c1.1,0.1,1.8,0.1,2.3,0.1h2.1c0.8,0,1.5,0.8,1.9,2.4l1.8,2.8l0.2,0.1
			c0.8-1.4,1.2-2.3,1.2-2.6v-0.1c-2.2-0.9-3.4-1.6-3.4-1.9v-0.1l0.4-0.3h1c1.2,0.7,2.1,1.1,2.6,1.1h0.1l0.5-1.4v-0.7
			c0.2-0.3,0.5-0.5,0.9-0.4h0.3v-0.3c-0.3-0.5-0.6-0.9-0.7-1.5h-0.2c-0.7,0-2,0.3-4,1c-1.2,0.3-1.8,0.4-1.9,0.4
			c-0.6-0.1-0.9-0.2-0.9-0.3c0-0.3,1.3-0.8,3.8-1.5c1.5-0.5,2.3-0.8,2.4-0.8c0-0.3-0.1-0.5-0.3-0.5c-2.5,0.6-4.1,1-5,1.4
			c-0.3,0.1-0.6,0.1-0.9,0.2h-0.4c-0.1,0-0.2-0.1-0.4-0.3v-0.2c0-0.3,0.8-0.6,2.5-1c0.5-0.3,1.8-0.7,3.8-1.2
			c-0.5-1.2-1.1-2.4-1.9-3.4c-1.2,0.2-2.5,0.5-3.8,0.8C466.6,274.8,466,275,465.7,275L465.7,275z M467.7,267.5v0.5
			c0,1.1,0.1,2.1,0.3,3.1c0,0.5-1.2,0.8-3.5,0.8h-0.1c-0.1,0-0.4,0-1-0.1v0.2c0,0.3,0.5,1.1,1.5,2.3c1.4-0.7,2.9-1.2,4.5-1.5
			c0.8-0.1,1.3-0.2,1.3-0.3c-0.9-1.5-1.8-3.1-2.5-4.7L467.7,267.5L467.7,267.5z M469,275.2c0.4,0.1,0.6,0.3,0.6,0.7v0.8
			c0,0.1-0.1,0.2-0.4,0.3H469c-1,0-1.6-0.2-1.6-0.5C467.5,275.7,468.2,275.1,469,275.2L469,275.2z M475.7,282.5
			c-0.4,0.6-0.7,1.2-0.9,1.9v0.3l3.1,2.2v0.3c-0.2,0.3-0.6,0.5-0.9,0.5c-0.3,0-1.2-0.5-2.6-1.6h-0.4c-0.6,1.6-1.2,2.4-1.8,2.4
			c-0.3,0-0.4,0.1-0.4,0.2c0.2,0.2,0.5,0.2,0.7,0.2c0.7-0.2,2.8-0.3,6.1-0.5c0-0.1,0.1-0.1,0.2-0.1v-0.2l-2.8-5.5L475.7,282.5z"/>
		<path d="M491.3,254.6c0.9,0.1,1.5,0.1,1.7,0.1l0.2-0.1c3.3,0.2,5.8,0.7,7.5,1.3c3.1,1.2,5,2.4,5.7,3.8c1.2,1.5,1.8,3,1.8,4.7h-0.1
			c0.1,0.2,0.2,0.4,0.2,0.6c0,0.6-0.1,1.2-0.2,1.8l0.1,0.2c-0.5,1.4-1.1,2.8-2,4c-1.4,1.8-3.3,3.1-5.4,4c0,0.1-0.3,0.3-0.8,0.5
			c0.7,1,2,2.8,3.9,5.2c1.7,2.5,2.8,4,3.3,4.4v0.4c0,0.4-1.5,1.8-4.6,4c-0.6,0.5-1.1,0.7-1.4,0.7c-0.8,0-1.5-0.5-1.7-1.3
			c0-0.1-1.7-2.3-5.2-6.6c0-0.3-0.7-1-2-2.2H492c0,0.2,0,0.3-0.1,0.3l0.1,0.9c0,0.6,0,1.8-0.1,3.5l-0.1,0.2c0,0.1,0,0.1,0.1,0.1
			c-0.1,0.6-0.1,1.1-0.1,1.4v1l-0.1,0.5c0.1,0.3,0.2,0.7,0.3,1c0,0.4-0.8,0.7-2.3,0.8l-0.6-0.1c-0.5,0-2.5,0.1-5.8,0.4
			c-0.4-0.1-0.8-0.2-1.1-0.4l0.1-0.6v-1.3c0-0.3,0-0.6-0.1-0.9c0.1-0.3,0.1-0.6,0.1-0.8v-0.8c0.1-0.3,0.1-0.5,0.2-0.7v-0.8
			c0.2-3.6,0.3-5.5,0.5-5.7l-0.1-0.5v-0.8c0-0.1,0-0.2,0.1-0.3l-0.1-0.2l0.1-0.6c0-0.2-0.1-0.5-0.1-0.7l0.2-1.8c0-0.1,0-0.1-0.1-0.1
			l0.1-1.1v-2c0,0,0-0.1,0.1-0.1c0-0.1,0-0.1-0.1-0.1l0.1-0.6c0-0.4,0-0.8-0.1-1.2c0.2-3.3,0.3-5.5,0.5-6.8l-0.1-0.5v-0.2
			c0-0.3,0-0.6,0.1-0.8c0-0.1,0-0.1-0.1-0.1l0.1-0.4v-2.6c0-0.9,1.3-1.4,3.9-1.4C488,254.8,489.3,254.7,491.3,254.6z M489.8,279.9
			c-0.3,0.5-1.8,1.9-4.5,4.1c-0.7,0.1-1,0.2-1,0.3v0.4c0,0.3,0,0.5-0.1,0.7l0.2,0.9v0.6c0.2,0,1.5-1.1,3.9-3.4
			c1.3-0.8,1.9-1.5,1.9-2.3c-0.1-0.3-0.1-0.5-0.1-0.8v-0.5C490,280,490,279.9,489.8,279.9z M484.5,280.8v0.9l-0.1,0.9l0.2,0.1
			c0.8-0.6,1.1-1,1.1-1.1c-0.3-0.3-0.6-0.6-0.8-1h-0.2C484.6,280.7,484.5,280.7,484.5,280.8L484.5,280.8z M484.6,277.6
			c0.1,0.1,0.1,0.3,0.1,0.4c0.1,0,1.3-1,3.6-3.1c0.2,0,1.5-1,3.9-3c0.2,0,0.3-0.1,0.3-0.2c-0.1-0.2-0.3-0.4-0.3-0.6H492
			c-1,0-1.9,0.5-2.6,1.2c-3,2-4.6,3.3-4.6,3.8C484.8,276.7,484.7,277.2,484.6,277.6L484.6,277.6z M486.3,271.5L486.3,271.5
			c-0.1-0.1-0.1,0-0.1,0l-0.8-0.1h-0.3c-0.2,1.4-0.3,2.1-0.3,2.1c0.1,0.1,0.1,0.2,0.1,0.3h0.2c1.1-0.7,2.3-1.5,3.4-2.4
			c-0.1,0-0.1,0-0.1-0.1C487.2,271.4,486.5,271.5,486.3,271.5L486.3,271.5z M485.2,265.8c0,0.4,0,1.2-0.1,2.4
			c0.1,0.1,0.1,0.2,0.1,0.3h-0.1l0.1,0.2l-0.1,0.2l0.2,0.1c3.7-2.6,5.5-4,5.6-4.1c0-0.6,0.1-1.1,0.2-1.7c-0.1-0.1-0.1-0.3-0.1-0.5
			h0.1l-0.2-0.5l0.1-0.2c-0.1-0.1-0.1-0.2-0.1-0.3c0.1,0,0.1,0,0.1-0.1h-0.1C487,263.8,485.1,265.2,485.2,265.8L485.2,265.8z
			 M485.2,256.4c0.1,0.9,0.1,1.6,0.1,2.2v0.2h0.1c1.5-1,2.7-1.9,3.6-2.7l-0.6-0.1h-1c-0.4,0-1,0-1.7,0.1v-0.1
			C485.4,256.1,485.2,256.3,485.2,256.4L485.2,256.4z M485.3,260.3v0.5c0,0.6,0,1.6-0.1,2.9h0.2c0.8-0.5,2.5-1.6,5.2-3.5v-1.8
			c0-0.3,0-0.8-0.1-1.4c-0.4,0-2.1,1.1-5,3.3L485.3,260.3z M485.2,288.5v0.2c2.3-0.2,3.8-0.4,4.6-0.4c0-0.1,0.1-0.2,0.2-0.2
			c0,0,0,0,0,0l-0.1-0.4c0-0.1,0.1-0.2,0.1-0.3c-0.1-0.3-0.1-0.6-0.1-0.9c0-0.5,0.1-0.9,0.2-1.4c-0.1-0.2-0.1-0.5-0.1-0.7v-0.2h-0.1
			C489.4,284.4,487.9,285.8,485.2,288.5L485.2,288.5z M485.4,279.7c0.7,0.5,1,0.8,1,1h0.1c0.3,0,0.8-0.3,1.3-0.8h0.1v-0.3
			c-0.3-0.5-0.7-0.9-1.2-1.2C485.8,279,485.4,279.4,485.4,279.7L485.4,279.7z M485.6,270.3L485.6,270.3c0.3,0.1,0.7,0.1,1,0.2
			c1-0.1,2-0.2,3.1-0.2h0.9c0.2-1,0.3-1.9,0.2-2.9v-0.6c0-0.1-0.1-0.2-0.2-0.2C490.1,266.8,488.5,268,485.6,270.3L485.6,270.3z
			 M488,264.3c0.3,0,0.5,0.3,0.7,0.8c0,0.5-0.3,0.8-0.9,0.8h-0.3c-0.3,0-0.7-0.1-0.9-0.4v-0.1C486.8,264.7,487.3,264.3,488,264.3
			L488,264.3z M487.7,277.7c0.1,0,0.5,0.3,1.3,1c0.5,0,0.9-0.5,1.3-1.6c-0.3-0.3-0.6-0.6-0.9-0.9
			C488.3,276.8,487.7,277.3,487.7,277.7L487.7,277.7z M490.5,275.2v0.2c0.5,0.5,0.8,0.8,0.8,0.9h0.1c0.3,0,0.9-0.4,1.7-1.2V275
			c-0.2-0.4-0.6-0.8-1-1H492C491.1,274.6,490.6,275,490.5,275.2L490.5,275.2z M492,256.1c0.1,0.5,0.2,0.9,0.2,1.4v1.7
			c0,0.3,0,0.5,0.1,0.8c-0.1,0.1-0.1,0.3-0.1,0.6v0.3l0.1,0.2l1.1-0.1h0.6c0.4,0,0.9,0,1.7,0.1c0.2,0,0.3-0.5,0.3-1.6l-0.1-0.5
			c0.1-0.3,0.1-0.6,0.1-0.9V258c0-0.6-0.2-1.2-0.4-1.7h-0.1c-0.2,0-0.9-0.1-2.2-0.2h-0.8c-0.1,0-0.1,0-0.1-0.1
			C492.3,256,492.1,256.1,492,256.1z M493.8,257.8c0.8,0.1,1.1,0.3,1.1,0.8c0,0.5-0.4,0.8-1.2,0.8c-0.7-0.2-1-0.5-1-0.8
			C492.6,258.2,493,257.9,493.8,257.8L493.8,257.8z M492.6,277.7L492.6,277.7c0.2,0.4,0.5,0.6,0.8,0.8c1.1-0.6,2.5-1.8,4.2-3.5v-0.3
			c-0.2-0.3-0.5-0.5-0.9-0.5C494.4,275.9,493,277.1,492.6,277.7L492.6,277.7z M493.3,273c0,0.3,0.3,0.7,1,1.2c0.2,0,0.6-0.3,1.1-0.8
			v-0.1c-0.6-0.5-1.1-0.7-1.5-0.7C493.7,272.6,493.5,272.8,493.3,273L493.3,273z M494.5,271L494.5,271l3.9,2.5h0.2
			c0.2-0.1,0.3-0.2,0.3-0.5v-0.4c-0.1-0.1-1.1-0.6-3-1.4c0-0.1-0.2-0.2-0.5-0.4h-0.1C494.8,270.7,494.5,270.8,494.5,271L494.5,271z
			 M494.7,279.7c1.4,1.7,2.1,2.6,2.1,2.6h0.1c0.7-0.4,1.8-1.3,3.2-2.8v-0.2c-1.2-1.4-2-2.1-2.3-2.2C497,277.5,496,278.4,494.7,279.7
			L494.7,279.7z M497.3,278.7c0.9,0.3,1.4,0.6,1.4,0.9c0,0.7-0.6,1-1.8,1.1c-0.5-0.1-0.8-0.3-0.8-0.5
			C496,279.2,496.4,278.7,497.3,278.7L497.3,278.7z M497.2,270v0.2c0.6,0.5,1,0.7,1.5,0.7h0.1c0-0.2,0-0.4,0.1-0.6
			c-0.1-0.3-0.2-0.6-0.2-0.9h-0.1C498.1,269.6,497.6,269.8,497.2,270L497.2,270z M497.6,256.7c0.1,0.8,0.1,1.4,0.1,1.6
			c0,1-0.1,2-0.2,3c0.9,0.2,1.7,0.5,2.5,0.9h0.1c1.5-1,2.5-2,3.1-3.1c-1.3-1-2.7-1.7-4.2-2.1C498.5,256.8,498.1,256.8,497.6,256.7z
			 M497.6,283.4l1.6,1.9c0.3-0.1,0.7-0.4,1.1-1v-0.1c-0.2-0.3-0.9-0.6-2-1V283c0.1-0.2,0.4-0.4,1-0.6h0.5c0.8,0.4,1.2,0.6,1.5,0.6
			c0.4-0.2,0.7-0.5,0.9-0.8l-1.1-1.6h-0.1L497.6,283.4L497.6,283.4z M500.2,267.8h0.2c3.6-0.4,5.4-0.8,5.4-1.2v-0.4h-0.5
			C501.9,266.6,500.2,267.1,500.2,267.8L500.2,267.8z M501.6,285.1l-1.3,1.3v0.1c0,0.3,0.4,0.9,1.3,1.6c0.5-0.1,1.5-0.9,3.2-2.4
			v-0.1c0-0.1-0.2-0.2-0.5-0.4c-0.2,0.3-0.5,0.6-0.9,0.5C503,285.8,502.4,285.6,501.6,285.1L501.6,285.1z M500.6,269.7l0.1,0.2
			c0,0.1,0,0.3-0.1,0.4c0.1,0.5,0.1,1,0.1,1.5v0.3c0,0.1,0,0.3-0.1,0.4c0.1,0.1,0.1,0.2,0.1,0.3h-0.1c0.1,0.1,0.1,0.2,0.1,0.4h0.1
			c0.8-0.4,1.3-0.7,1.3-0.8c-0.1,0-0.2-0.1-0.3-0.4c0.1-0.4,0.2-0.7,0.2-1.1v-0.7c0-0.1,0-0.3,0.1-0.4c-0.1-0.3-0.2-0.5-0.2-0.8
			c-0.8,0-1.1,0.2-1.1,0.5C500.7,269.6,500.6,269.7,500.6,269.7L500.6,269.7z M501,263.5c0.1,0.7,0.2,1.5,0.2,2.2
			c-0.1,0-0.1,0-0.1,0.1h0.2l4.6-0.8v-0.5c0-1.5-0.6-2.9-1.6-4h-0.1c-0.2,0-1.1,0.8-2.7,2.5C501.3,263,501.1,263.1,501,263.5
			L501,263.5z M502.7,283.9v0.1c0.3,0.3,0.6,0.5,0.9,0.6h0.1v-0.1c0-0.4-0.3-0.7-0.6-0.9H503C502.9,283.6,502.8,283.7,502.7,283.9
			L502.7,283.9z M503.6,268.6v2.2h0.1c0.7-0.7,1.2-1.5,1.6-2.4l-0.2-0.1L503.6,268.6z"/>
		<path d="M527.6,254.6h0.7c0.1,0,0.1,0,0.1,0.1l0.2-0.1h0.3c0.6,0,1.9,1.5,3.8,4.6c1,1.1,2.6,3.8,4.8,7.9l3.2,6.1
			c0.3,0.5,1.5,2.8,3.6,6.8c1.1,1.9,2.1,3.9,3,6c0.8,1.3,1.3,2.1,1.3,2.3c-0.4,0.8-1.7,1.3-3.9,1.3c0,0.1-0.9,0.2-2.7,0.3
			c0,0.1-0.7,0.2-2,0.2c-1,0-1.5-0.5-1.5-1.4c-0.5-0.7-1.4-2.3-2.8-4.9c-0.3-0.1-0.6-0.2-0.9-0.2c-0.7,0.1-1.2,0.1-1.6,0.1h-4
			l-0.6-0.1l-0.2,0.1c-0.1,0-0.1,0-0.1-0.1l-1.3,0.1H526c-0.1,0-0.3,0-0.4,0.1c-0.1,0-0.1,0-0.1-0.1c-1.5,0-2.2,0.2-2.2,0.6
			l-1.6,2.3c0,0.3-0.5,1-1.4,2c0,0.6-0.4,0.9-1.3,0.9h-0.2c-1.2-0.1-1.9-0.2-2-0.2h-0.5c-0.2,0-0.4,0-0.5,0.1l-2.1-0.1
			c-0.1,0-0.1,0-0.1,0.1c-2.6,0-3.9-0.3-3.9-0.8c0.3,0,0.7-0.8,1.2-2.3c1-1.8,1.8-3.5,2.5-4.9c0.8-0.9,1.2-1.8,1.2-2.6
			c0.9-1.2,1.9-3.1,3.1-5.5c0.7-1.1,2.8-5.3,6.4-12.6c0.8-1.4,1.5-2.7,2-3.7C526.8,255.4,527.3,254.6,527.6,254.6z M511.9,287.7
			l0.1,0.2c-0.1,0.1-0.1,0.2-0.1,0.3c0.2,0,0.3,0.1,0.3,0.2l1-0.1h5.6c0.6-0.4,1.3-1.4,2-3v-0.1c-1.9-0.6-3-0.9-3.1-0.9h-0.1
			c-1,1.9-1.8,2.8-2.2,2.8c-0.1,0-0.2,0.1-0.3,0.1l-0.3-0.4l1.4-2.8c-0.6-0.2-1.2-0.4-1.8-0.5c-0.2,0-0.6,0.5-1.1,1.6
			c-0.5,0.8-0.9,1.7-1.3,2.6C511.9,287.6,511.9,287.7,511.9,287.7z M519.5,272.9c-0.7,0.9-1.1,1.7-1.1,2.2l0.7-0.1h0.1
			c0.2,0,0.5,0.6,1,1.8c1,1.5,2.1,2.2,3.5,2.2c0.5,0.1,1,0.1,1.5,0.1c0,0,0.5-0.3,1.6-0.7c0.1-0.4,0.4-0.6,0.8-0.6h0.3
			c0.1,0,0.2,0.1,0.4,0.3v0.5c-0.9,0.8-1.8,1.3-2.5,1.3c0,0.1-0.5,0.2-1.5,0.3c-2.3,0-3.9-0.6-4.8-1.7c-0.4-0.3-0.9-1.1-1.5-2.5
			h-0.4c-0.9,1.4-1.7,2.9-2.3,4.5c-0.6,1-0.9,1.6-0.9,1.7c0.7,0.4,1.5,0.6,2.3,0.6c0.9-1.4,1.4-2.4,1.5-2.8c0.2-0.1,0.4-0.2,0.6-0.2
			h0.6c0.1,0,0.2,0.1,0.3,0.2v0.2c0,0.1-0.5,1.1-1.5,2.7c0,0.2,1.1,0.6,3.4,1.2h0.1c0.5-1.1,1-1.7,1.5-1.7c0.3,0,0.6,0,0.9,0.1
			c1-0.1,2.1-0.2,3.1-0.2h2.1l0.1-0.4v-1.1c0-1.3-0.2-2.5-0.5-3.7h-0.2c-0.5,0-1.5,0-3.2,0.1c-0.5-0.1-0.8-0.3-0.8-0.5
			c0.4-0.5,0.5-0.8,0.5-0.9l-0.3-0.1h-0.9c-1.6,0-3.1-0.9-4.3-2.6C519.8,273,519.7,272.9,519.5,272.9L519.5,272.9z M523.8,264.6
			c-1,1.7-1.9,3.4-2.8,5.2c-0.2,0.2-0.5,0.8-0.8,1.8c0.8,0.2,1.2,0.6,1.2,1c1.1,1.3,2.2,1.9,3.4,2c1.1-0.1,1.6-0.3,1.6-0.7
			c0.8-1.3,1.5-2.8,1.9-4.3c0.2-0.2,0.5-0.2,0.7-0.2c0.7,0.1,1.1,0.2,1.2,0.2h0.1v-0.1c0-0.7-0.2-1.1-0.4-1.1h-1.3
			c-0.7,0-1.6,0-2.5-0.1c-0.1,0.1-0.2,0.1-0.3,0.1c-0.6-0.1-1-0.2-1-0.3v-0.3c0-0.2,0.5-0.4,1.5-0.6c1.3,0.1,1.9,0.1,1.9,0.2
			l0.5-0.1h1.9c0.9,0.1,1.4,0.4,1.4,0.8l-0.1,0.2c0,1.6,0.3,2.4,0.8,2.4c0.3,0,0.5,0.1,0.8,0.1h0.5c0.2,0,0.3-0.1,0.3-0.3
			c0,0,0,0,0-0.1c0-0.3,0-0.8-0.1-1.6c0-0.1,0-0.1,0.1-0.1l-0.1-0.4c0-2.2-0.3-3.2-0.9-3.2c-1-0.2-2-0.3-2.9-0.3l-0.4,0.1
			c-1.2-0.1-2-0.1-2.3-0.1c-0.1,0-0.7,0-1.7,0.1l-0.2-0.1c-0.1,0.1-0.2,0.1-0.3,0.1C524.7,264.8,524.2,264.7,523.8,264.6
			L523.8,264.6z M523.1,269.7c0.6,0,1,0.4,1.2,1.2v0.1c0,0.5-0.4,0.8-1.2,0.9h-0.1c-0.8,0-1.2-0.5-1.2-1.4
			C522.1,270.1,522.6,269.8,523.1,269.7L523.1,269.7z M525.2,265.1h0.4c0.5,0.3,0.7,0.5,0.7,0.8c0,0.3-0.4,0.7-1.2,1
			c-0.9-0.1-1.4-0.3-1.4-0.8C523.8,265.6,524.3,265.3,525.2,265.1L525.2,265.1z M527.5,257.2c-2.2,3.9-3.3,6.1-3.3,6.5l0.3,0.2
			c0.1-0.1,0.2-0.1,0.3-0.1v0.1c0.9-0.2,1.9-0.3,2.8-0.4l0.1-0.9V262c0-1.2,0-2.6,0.1-4.3l-0.1-0.5L527.5,257.2z M528.1,256v0.4
			c0.4,0,0.6-0.1,0.6-0.2c-0.1-0.2-0.2-0.3-0.3-0.3h-0.1C528.2,255.9,528.1,255.9,528.1,256L528.1,256z M529.8,265.4
			c0.5-0.1,0.9,0.2,1.1,0.7c-0.4,0.6-0.8,0.9-1.3,0.9c-0.4-0.1-0.8-0.3-1.1-0.7v-0.3C528.7,265.6,529.2,265.4,529.8,265.4z
			 M529.7,257.5c-0.1,0-0.2,1.4-0.3,4.1c0.1,0.6,0.1,1.2,0.1,1.7l0.3,0.2c0.6,0,1.9,0.1,4,0.2v-0.1
			C533.5,262.8,532.1,260.8,529.7,257.5L529.7,257.5z M533.8,275h-0.5c0,0.4,0.4,1.1,1.2,2.2c0,0.2-0.3,0.4-0.8,0.7
			c-0.3,0-0.7-0.3-1.2-0.8h-1.3c-0.1,0-0.2,0.2-0.3,0.6c0,0,0,0.1,0.1,0.1c0.1,3.1,0.2,4.7,0.4,4.7c1.1,0.1,1.8,0.1,2.3,0.1h2.1
			c0.8,0,1.5,0.8,1.9,2.4l1.8,2.8l0.2,0.1c0.8-1.4,1.2-2.3,1.2-2.6v-0.1c-2.2-0.9-3.4-1.6-3.4-1.9v-0.1l0.4-0.3h1
			c1.2,0.7,2.1,1.1,2.6,1.1h0.1l0.5-1.4v-0.7c0.2-0.3,0.5-0.5,0.9-0.4h0.3v-0.2c-0.3-0.5-0.6-0.9-0.7-1.5h-0.2c-0.7,0-2,0.3-4,1
			c-1.2,0.3-1.8,0.4-1.9,0.4c-0.6-0.1-0.9-0.2-0.9-0.3c0-0.3,1.3-0.8,3.8-1.5c1.5-0.5,2.3-0.8,2.4-0.8c0-0.3-0.1-0.5-0.3-0.5
			c-2.5,0.6-4.1,1-4.9,1.4c-0.3,0.1-0.6,0.1-0.9,0.2h-0.4c-0.1,0-0.2-0.1-0.4-0.3v-0.2c0-0.3,0.8-0.6,2.5-1c0.5-0.3,1.8-0.7,3.8-1.2
			c-0.5-1.2-1.1-2.4-1.9-3.4c-1.2,0.2-2.5,0.5-3.8,0.8C534.7,274.8,534.1,275,533.8,275L533.8,275z M535.8,267.5v0.5
			c0,1.1,0.1,2.1,0.3,3.1c0,0.5-1.2,0.8-3.5,0.8h-0.1c-0.1,0-0.4,0-1-0.1v0.2c0,0.3,0.5,1.1,1.5,2.3c1.4-0.7,2.9-1.2,4.5-1.5
			c0.8-0.1,1.3-0.2,1.3-0.3c-0.9-1.5-1.8-3.1-2.5-4.7L535.8,267.5L535.8,267.5z M537.1,275.2c0.4,0.1,0.6,0.3,0.6,0.7v0.8
			c0,0.1-0.1,0.2-0.4,0.3h-0.2c-1,0-1.6-0.2-1.6-0.5C535.6,275.7,536.3,275.1,537.1,275.2L537.1,275.2z M543.8,282.5
			c-0.4,0.6-0.7,1.2-0.9,1.9v0.3l3.1,2.2v0.3c-0.2,0.3-0.6,0.5-0.9,0.5c-0.3,0-1.2-0.5-2.6-1.6H542c-0.6,1.6-1.2,2.4-1.8,2.4
			c-0.3,0-0.4,0.1-0.4,0.2c0.2,0.2,0.5,0.2,0.7,0.2c0.7-0.2,2.8-0.3,6.1-0.5c0-0.1,0.1-0.1,0.2-0.1v-0.2l-2.8-5.5L543.8,282.5z"/>
		<path class="st4" d="M328.3,282.8c-0.2,0.1-0.4,0.2-0.5,0.3c-6.4,3.2-12.8,6.5-19.3,9.7c-0.1,0.1-0.3,0.1-0.5,0.1v13.5
			c0.2,0,0.3-0.1,0.5-0.1c8.5-4.9,17.1-9.9,25.6-14.8c0.2-0.1,0.3-0.2,0.5-0.3C332.5,288.4,330.4,285.7,328.3,282.8z"/>
		<path d="M308.4,288c5.9-2.9,11.7-5.9,17.6-8.8c0.1-0.1,0.3-0.2,0.4-0.2l-7.3-9.8c-0.2,0.1-0.4,0.2-0.5,0.2
			c-3.3,1.5-6.7,3.1-10,4.6c-0.2,0.1-0.3,0.1-0.5,0.1v14C308.1,288.1,308.3,288.1,308.4,288z"/>
		<path class="st1" d="M308.4,269.4c2.8-1.3,5.6-2.6,8.4-3.9c0.1-0.1,0.3-0.1,0.4-0.2c-3.1-4.1-6.1-8.2-9.2-12.3l0,0v16.4
			C308.1,269.4,308.2,269.4,308.4,269.4z"/>
		<path d="M305.6,285.7c0,10.9,0,21.8,0,32.8c0,1.4-0.6,2.2-1.9,2.3c-1.1,0.1-2-0.8-2-1.8c0,0,0,0,0,0c0-0.3,0-0.6,0-0.9
			c0-12.7,0-25.4,0-38.1c0-0.6-0.1-1.2-0.3-1.8c-2.3-6.4-6.2-11.4-12.4-14.6c-2.8-1.5-5-3.5-6.2-6.6c-2.5-6.3,1.5-13.7,8.3-15.3
			c7.1-1.7,13.1,3.4,14.3,9.7c0.2,1,0.2,2,0.2,3C305.6,264.8,305.6,275.3,305.6,285.7z M295.8,253.1c0-1.1-0.8-1.9-1.9-2
			c-1.1,0-2,0.9-2,2c0,1.1,0.9,1.9,2,1.9c0,0,0,0,0,0c1,0,1.9-0.8,1.9-1.8C295.8,253.2,295.8,253.2,295.8,253.1z"/>
		<path d="M277.6,284.2c0.6-1,1.1-1.9,1.6-2.8c0.1-0.2,0.3-0.2,0.5-0.2c2.2,0.3,4.5,0.6,6.9,1.1c1.3,0.2,2.6,0.8,3.9,1.2
			c1.4,0.4,2.4,0,2.6-1.1c0.2-0.9-0.6-2-1.9-2.3c-2.4-0.6-4.7-1.1-6.9-1.5c-1.1-0.2-2.1-0.3-3.2-0.5c0.4-0.8,0.9-1.6,1.4-2.4
			c0.1-0.1,0.3-0.2,0.5-0.1c2.3,0.3,4.8,0.7,7.5,1.1c0.6,0.1,1.3,0.2,1.9,0.1c0.8-0.2,1.2-0.7,1.2-1.4c-0.1-0.8-0.8-1.3-1.9-1.5
			c-2.5-0.3-4.8-0.6-7-0.9c-0.1,0-0.3,0-0.6,0c1.3-2.2,2.4-4.3,3.6-6.3c4.7,1.6,9.2,7.1,11.3,11.7c0.1,0.2,0.1,1.5,0.1,1.7
			c0,8-0.1,14.2-0.1,26.4c0,0.2,0,0.4,0,0.5c-2.5-1.8-5.3-3.9-7.5-5.3c-6.2-4.1-12.1-4.7-17-3.5c-0.5,0.1-0.9,0.3-1.4,0.2
			c-1.3-0.2-2-2-1.2-3.4c1.2-2.3,2.5-4.5,3.7-6.7c0.2-0.2,0.4-0.3,0.7-0.3c4.2,0,8.6,1.2,13.5,3.7c1.4,0.7,2.6,0.4,3-0.8
			c0.4-1.1-0.3-2.3-1.7-2.9c-4-1.9-7.7-3-11.2-3.3C279.1,284.3,278.5,284.3,277.6,284.2z"/>
		<path class="st3" d="M257,270h-3.9c0.2,0.8,0.5,1.6,0.7,2.4h3.5C257.2,271.6,257.1,270.8,257,270z"/>
		<path class="st3" d="M257.7,281.1c0.6,1.1,1.2,2.1,1.9,3.2h1.3c-0.5-1-0.9-2.1-1.3-3.2H257.7z"/>
		<path class="st3" d="M257.9,275.5H255c0.4,0.9,0.8,1.9,1.2,2.8h2.4C258.4,277.4,258.2,276.5,257.9,275.5z"/>
		<path class="st3" d="M256.8,265.4c0-0.3,0-0.6,0-1H252c0.1,0.7,0.2,1.4,0.4,2.1h4.5C256.8,266.1,256.8,265.7,256.8,265.4z"/>
		<path class="st3" d="M261.3,286.6c1,1.3,2,2.5,3.1,3.7c-0.8-1.2-1.5-2.4-2.2-3.7H261.3z"/>
		<path class="st3" d="M257.3,258.8h-5.8c0,0.6,0.1,1.1,0.1,1.7h5.5C257.1,260,257.2,259.4,257.3,258.8z"/>
		<path class="st3" d="M301.2,207c-24.4,0-45.1,17.6-49.1,41.7h7.9c9.2-23.1,35.4-34.3,58.5-25.1c11.8,4.7,21.1,14.3,25.5,26.2
			c2.1-0.5,4.3-0.7,6.5-0.6C346.7,224.9,325.8,207,301.2,207z"/>
		<path class="st3" d="M258.4,253.3h-6.9c0,0.4-0.1,0.9-0.1,1.3h6.6C258.2,254.2,258.3,253.7,258.4,253.3z"/>
		<path class="st3" d="M339.7,251.3c-7.9-21-31.3-31.6-52.3-23.7c-10.1,3.8-18.2,11.4-22.7,21.2h2.9c13.8-17.3,39-20.3,56.3-6.5
			c4.4,3.5,8,7.8,10.6,12.8C336,253.4,337.7,252.1,339.7,251.3z"/>
		<path class="st3" d="M261.5,259.4c0.1-0.2,0.2-0.4,0.2-0.6h-0.1C261.6,259,261.6,259.2,261.5,259.4z"/>
		<path class="st3" d="M262.6,254.6h1.2c0.2-0.4,0.5-0.9,0.8-1.3H263C262.8,253.7,262.7,254.2,262.6,254.6z"/>
	</g>
</g>
<text transform="matrix(1 0 0 1 152.0967 347.3409)" class="st5 st6 st7">L’artisanat africain comme vous ne l’avez jamais vu</text>
<g id="XMLID_1_">
	<path id="XMLID_16_" class="st8" d="M185,451c10.4,18.1,19.9,34.7,30,52.3c-20.4,0-39.6,0-60,0C165.1,485.7,174.7,469,185,451z"/>
</g>
<g id="XMLID_2_">
	<path id="XMLID_3_" class="st9" d="M220.9,467c-10.4-18.1-19.9-34.7-30-52.3c20.4,0,39.6,0,60,0C240.8,432.3,231.2,449,220.9,467z"
		/>
</g>
<g id="XMLID_10_">
	<path id="XMLID_11_" class="st9" d="M817.9,304.5c-53.5-93.1-102.4-178.5-154.4-269.1c105,0,203.8,0,308.7,0
		C920.3,125.9,870.9,211.8,817.9,304.5z"/>
</g>
<g id="XMLID_4_">
	<path id="XMLID_5_" d="M643.2,154.7c10.4,18.1,19.9,34.7,30,52.3c-20.4,0-39.6,0-60,0C623.3,189.4,632.9,172.7,643.2,154.7z"/>
</g>
<g id="XMLID_8_">
	<path id="XMLID_9_" d="M6.5,414.7c80.7,140.4,154.4,269.2,232.8,405.8c-158.3,0-307.3,0-465.5,0C-147.9,683.9-73.4,554.4,6.5,414.7
		z"/>
</g>
<g id="XMLID_6_">
	<path id="XMLID_7_" class="st10" d="M609,169.9c-10.4-18.1-19.9-34.7-30-52.3c20.4,0,39.6,0,60,0
		C628.9,135.2,619.3,151.9,609,169.9z"/>
</g>
</svg>
