<?xml version="1.0" encoding="utf-8"?>
<!-- Generator: Adobe Illustrator 23.0.3, SVG Export Plug-In . SVG Version: 6.00 Build 0)  -->
<svg version="1.1" id="Calque_1" xmlns="http://www.w3.org/2000/svg" xmlns:xlink="http://www.w3.org/1999/xlink" x="0px" y="0px"
	 viewBox="0 0 900 800" style="enable-background:new 0 0 900 800;" xml:space="preserve">
<style type="text/css">
	.st0{fill:#FFFFE1;}
	.st1{fill:#BE1E2D;}
	.st2{fill:#009444;}
	.st3{fill:#FFA902;}
	.st4{fill:#006D44;}
	.st5{fill:#353535;}
	.st6{font-family:'OpenSans-Regular';}
	.st7{font-size:26.549px;}
	.st8{fill:#BF202F;}
	.st9{fill:#FBA819;}
	.st10{fill:#0E9648;}
</style>
<rect x="-22.4" y="-17.7" class="st0" width="939.1" height="837.7"/>
<g>
	<g id="Calque_1-2">
		<path class="st1" d="M557.4,386.1l1.4-41.4c0,0,2.2-2.1,3.8-1.1c1.6,1,14.6-2.3,21.9,4.3c7.3,6.6,1.4,18.4-6.9,20.9l8.9,13.3
			l-6.3,4.7l-11.7-16.5l-1.2,5.7l-0.3,10.1L557.4,386.1z"/>
		<polygon class="st2" points="506.6,385.1 527.1,344.4 530.1,344.4 553,386 551.4,386.2 542.4,386.9 538,378.2 522.1,378.1 
			517.7,386 507.2,386.1 506.6,385.5 		"/>
		<polygon class="st3" points="411.4,385.1 431.9,344.4 434.9,344.4 457.8,386 456.2,386.2 447.2,386.9 442.8,378.2 426.9,378.1 
			422.5,386 412,386.1 411.4,385.5 		"/>
		<polygon class="st2" points="593.1,385.1 613.6,344.4 616.6,344.4 639.5,386 637.9,386.2 628.9,386.9 624.5,378.2 608.6,378.1 
			604.2,386 593.7,386.1 593.1,385.5 		"/>
		<path d="M382.8,348.7h-0.5c-0.8,0.4-1.2,0.8-1.2,1.4c0,0.6,0.4,0.9,1.2,0.9c1,0,1.9-0.6,2.2-1.5
			C384.3,349,383.8,348.7,382.8,348.7z M383.3,356.4V356c0-1.2-0.3-1.8-0.8-1.8c-0.4,0.1-0.5,0.2-0.5,0.3v0.1c0,0.6-0.1,1.1-0.2,1.7
			c-1.3,0.1-1.9,0.2-1.9,0.4s0.6,0.5,1.7,0.7c0.3,1.7,0.9,2.5,1.7,2.5c0.2,0,0.4-0.1,0.5-0.2c-0.3-0.6-0.5-1.3-0.5-2l0.3-0.3
			c0.9,0.1,1.6,0.1,2,0.1c0.5,0,0.7-0.1,0.8-0.3V357C386.4,356.7,385.4,356.5,383.3,356.4L383.3,356.4z M402.2,374.4
			c-0.9,0-1.4,0.6-1.4,1.7c0,0.4,0.3,0.7,0.8,0.9h0.7c1,0,1.5-0.3,1.5-1v-0.2C403.5,374.9,402.9,374.4,402.2,374.4z M402.2,374.4
			c-0.9,0-1.4,0.6-1.4,1.7c0,0.4,0.3,0.7,0.8,0.9h0.7c1,0,1.5-0.3,1.5-1v-0.2C403.5,374.9,402.9,374.4,402.2,374.4z M383.3,356.4
			V356c0-1.2-0.3-1.8-0.8-1.8c-0.4,0.1-0.5,0.2-0.5,0.3v0.1c0,0.6-0.1,1.1-0.2,1.7c-1.3,0.1-1.9,0.2-1.9,0.4c0,0.2,0.6,0.5,1.7,0.7
			c0.3,1.7,0.9,2.5,1.7,2.5c0.2,0,0.4-0.1,0.5-0.2c-0.3-0.6-0.5-1.3-0.5-2l0.3-0.3c0.9,0.1,1.6,0.1,2,0.1c0.5,0,0.7-0.1,0.8-0.3V357
			C386.4,356.7,385.4,356.5,383.3,356.4L383.3,356.4z M382.8,348.7h-0.5c-0.8,0.4-1.2,0.8-1.2,1.4c0,0.6,0.4,0.9,1.2,0.9
			c1,0,1.9-0.6,2.2-1.5C384.3,349,383.8,348.7,382.8,348.7z M382.8,348.7h-0.5c-0.8,0.4-1.2,0.8-1.2,1.4c0,0.6,0.4,0.9,1.2,0.9
			c1,0,1.9-0.6,2.2-1.5C384.3,349,383.8,348.7,382.8,348.7z M383.3,356.4V356c0-1.2-0.3-1.8-0.8-1.8c-0.4,0.1-0.5,0.2-0.5,0.3v0.1
			c0,0.6-0.1,1.1-0.2,1.7c-1.3,0.1-1.9,0.2-1.9,0.4s0.6,0.5,1.7,0.7c0.3,1.7,0.9,2.5,1.7,2.5c0.2,0,0.4-0.1,0.5-0.2
			c-0.3-0.6-0.5-1.3-0.5-2l0.3-0.3c0.9,0.1,1.6,0.1,2,0.1c0.5,0,0.7-0.1,0.8-0.3V357C386.4,356.7,385.4,356.5,383.3,356.4
			L383.3,356.4z M402.2,374.4c-0.9,0-1.4,0.6-1.4,1.7c0,0.4,0.3,0.7,0.8,0.9h0.7c1,0,1.5-0.3,1.5-1v-0.2
			C403.5,374.9,402.9,374.4,402.2,374.4z M402.2,374.4c-0.9,0-1.4,0.6-1.4,1.7c0,0.4,0.3,0.7,0.8,0.9h0.7c1,0,1.5-0.3,1.5-1v-0.2
			C403.5,374.9,402.9,374.4,402.2,374.4z M383.3,356.4V356c0-1.2-0.3-1.8-0.8-1.8c-0.4,0.1-0.5,0.2-0.5,0.3v0.1
			c0,0.6-0.1,1.1-0.2,1.7c-1.3,0.1-1.9,0.2-1.9,0.4c0,0.2,0.6,0.5,1.7,0.7c0.3,1.7,0.9,2.5,1.7,2.5c0.2,0,0.4-0.1,0.5-0.2
			c-0.3-0.6-0.5-1.3-0.5-2l0.3-0.3c0.9,0.1,1.6,0.1,2,0.1c0.5,0,0.7-0.1,0.8-0.3V357C386.4,356.7,385.4,356.5,383.3,356.4
			L383.3,356.4z M382.8,348.7h-0.5c-0.8,0.4-1.2,0.8-1.2,1.4c0,0.6,0.4,0.9,1.2,0.9c1,0,1.9-0.6,2.2-1.5
			C384.3,349,383.8,348.7,382.8,348.7z M382.8,348.7h-0.5c-0.8,0.4-1.2,0.8-1.2,1.4c0,0.6,0.4,0.9,1.2,0.9c1,0,1.9-0.6,2.2-1.5
			C384.3,349,383.8,348.7,382.8,348.7z M383.3,356.4V356c0-1.2-0.3-1.8-0.8-1.8c-0.4,0.1-0.5,0.2-0.5,0.3v0.1c0,0.6-0.1,1.1-0.2,1.7
			c-1.3,0.1-1.9,0.2-1.9,0.4s0.6,0.5,1.7,0.7c0.3,1.7,0.9,2.5,1.7,2.5c0.2,0,0.4-0.1,0.5-0.2c-0.3-0.6-0.5-1.3-0.5-2l0.3-0.3
			c0.9,0.1,1.6,0.1,2,0.1c0.5,0,0.7-0.1,0.8-0.3V357C386.4,356.7,385.4,356.5,383.3,356.4L383.3,356.4z M402.2,374.4
			c-0.9,0-1.4,0.6-1.4,1.7c0,0.4,0.3,0.7,0.8,0.9h0.7c1,0,1.5-0.3,1.5-1v-0.2C403.5,374.9,402.9,374.4,402.2,374.4z M402.2,374.4
			c-0.9,0-1.4,0.6-1.4,1.7c0,0.4,0.3,0.7,0.8,0.9h0.7c1,0,1.5-0.3,1.5-1v-0.2C403.5,374.9,402.9,374.4,402.2,374.4z M383.3,356.4
			V356c0-1.2-0.3-1.8-0.8-1.8c-0.4,0.1-0.5,0.2-0.5,0.3v0.1c0,0.6-0.1,1.1-0.2,1.7c-1.3,0.1-1.9,0.2-1.9,0.4c0,0.2,0.6,0.5,1.7,0.7
			c0.3,1.7,0.9,2.5,1.7,2.5c0.2,0,0.4-0.1,0.5-0.2c-0.3-0.6-0.5-1.3-0.5-2l0.3-0.3c0.9,0.1,1.6,0.1,2,0.1c0.5,0,0.7-0.1,0.8-0.3V357
			C386.4,356.7,385.4,356.5,383.3,356.4L383.3,356.4z M382.8,348.7h-0.5c-0.8,0.4-1.2,0.8-1.2,1.4c0,0.6,0.4,0.9,1.2,0.9
			c1,0,1.9-0.6,2.2-1.5C384.3,349,383.8,348.7,382.8,348.7z M382.8,348.7h-0.5c-0.8,0.4-1.2,0.8-1.2,1.4c0,0.6,0.4,0.9,1.2,0.9
			c1,0,1.9-0.6,2.2-1.5C384.3,349,383.8,348.7,382.8,348.7z M383.3,356.4V356c0-1.2-0.3-1.8-0.8-1.8c-0.4,0.1-0.5,0.2-0.5,0.3v0.1
			c0,0.6-0.1,1.1-0.2,1.7c-1.3,0.1-1.9,0.2-1.9,0.4s0.6,0.5,1.7,0.7c0.3,1.7,0.9,2.5,1.7,2.5c0.2,0,0.4-0.1,0.5-0.2
			c-0.3-0.6-0.5-1.3-0.5-2l0.3-0.3c0.9,0.1,1.6,0.1,2,0.1c0.5,0,0.7-0.1,0.8-0.3V357C386.4,356.7,385.4,356.5,383.3,356.4
			L383.3,356.4z M402.2,374.4c-0.9,0-1.4,0.6-1.4,1.7c0,0.4,0.3,0.7,0.8,0.9h0.7c1,0,1.5-0.3,1.5-1v-0.2
			C403.5,374.9,402.9,374.4,402.2,374.4z M402.2,374.4c-0.9,0-1.4,0.6-1.4,1.7c0,0.4,0.3,0.7,0.8,0.9h0.7c1,0,1.5-0.3,1.5-1v-0.2
			C403.5,374.9,402.9,374.4,402.2,374.4z M383.3,356.4V356c0-1.2-0.3-1.8-0.8-1.8c-0.4,0.1-0.5,0.2-0.5,0.3v0.1
			c0,0.6-0.1,1.1-0.2,1.7c-1.3,0.1-1.9,0.2-1.9,0.4c0,0.2,0.6,0.5,1.7,0.7c0.3,1.7,0.9,2.5,1.7,2.5c0.2,0,0.4-0.1,0.5-0.2
			c-0.3-0.6-0.5-1.3-0.5-2l0.3-0.3c0.9,0.1,1.6,0.1,2,0.1c0.5,0,0.7-0.1,0.8-0.3V357C386.4,356.7,385.4,356.5,383.3,356.4
			L383.3,356.4z M382.8,348.7h-0.5c-0.8,0.4-1.2,0.8-1.2,1.4c0,0.6,0.4,0.9,1.2,0.9c1,0,1.9-0.6,2.2-1.5
			C384.3,349,383.8,348.7,382.8,348.7z M382.8,348.7h-0.5c-0.8,0.4-1.2,0.8-1.2,1.4c0,0.6,0.4,0.9,1.2,0.9c1,0,1.9-0.6,2.2-1.5
			C384.3,349,383.8,348.7,382.8,348.7z M383.3,356.4V356c0-1.2-0.3-1.8-0.8-1.8c-0.4,0.1-0.5,0.2-0.5,0.3v0.1c0,0.6-0.1,1.1-0.2,1.7
			c-1.3,0.1-1.9,0.2-1.9,0.4s0.6,0.5,1.7,0.7c0.3,1.7,0.9,2.5,1.7,2.5c0.2,0,0.4-0.1,0.5-0.2c-0.3-0.6-0.5-1.3-0.5-2l0.3-0.3
			c0.9,0.1,1.6,0.1,2,0.1c0.5,0,0.7-0.1,0.8-0.3V357C386.4,356.7,385.4,356.5,383.3,356.4L383.3,356.4z M402.2,374.4
			c-0.9,0-1.4,0.6-1.4,1.7c0,0.4,0.3,0.7,0.8,0.9h0.7c1,0,1.5-0.3,1.5-1v-0.2C403.5,374.9,402.9,374.4,402.2,374.4z M402.2,374.4
			c-0.9,0-1.4,0.6-1.4,1.7c0,0.4,0.3,0.7,0.8,0.9h0.7c1,0,1.5-0.3,1.5-1v-0.2C403.5,374.9,402.9,374.4,402.2,374.4z M383.3,356.4
			V356c0-1.2-0.3-1.8-0.8-1.8c-0.4,0.1-0.5,0.2-0.5,0.3v0.1c0,0.6-0.1,1.1-0.2,1.7c-1.3,0.1-1.9,0.2-1.9,0.4c0,0.2,0.6,0.5,1.7,0.7
			c0.3,1.7,0.9,2.5,1.7,2.5c0.2,0,0.4-0.1,0.5-0.2c-0.3-0.6-0.5-1.3-0.5-2l0.3-0.3c0.9,0.1,1.6,0.1,2,0.1c0.5,0,0.7-0.1,0.8-0.3V357
			C386.4,356.7,385.4,356.5,383.3,356.4L383.3,356.4z M382.8,348.7h-0.5c-0.8,0.4-1.2,0.8-1.2,1.4c0,0.6,0.4,0.9,1.2,0.9
			c1,0,1.9-0.6,2.2-1.5C384.3,349,383.8,348.7,382.8,348.7z M382.8,348.7h-0.5c-0.8,0.4-1.2,0.8-1.2,1.4c0,0.6,0.4,0.9,1.2,0.9
			c1,0,1.9-0.6,2.2-1.5C384.3,349,383.8,348.7,382.8,348.7z M383.3,356.4V356c0-1.2-0.3-1.8-0.8-1.8c-0.4,0.1-0.5,0.2-0.5,0.3v0.1
			c0,0.6-0.1,1.1-0.2,1.7c-1.3,0.1-1.9,0.2-1.9,0.4s0.6,0.5,1.7,0.7c0.3,1.7,0.9,2.5,1.7,2.5c0.2,0,0.4-0.1,0.5-0.2
			c-0.3-0.6-0.5-1.3-0.5-2l0.3-0.3c0.9,0.1,1.6,0.1,2,0.1c0.5,0,0.7-0.1,0.8-0.3V357C386.4,356.7,385.4,356.5,383.3,356.4
			L383.3,356.4z M402.2,374.4c-0.9,0-1.4,0.6-1.4,1.7c0,0.4,0.3,0.7,0.8,0.9h0.7c1,0,1.5-0.3,1.5-1v-0.2
			C403.5,374.9,402.9,374.4,402.2,374.4z M402.2,374.4c-0.9,0-1.4,0.6-1.4,1.7c0,0.4,0.3,0.7,0.8,0.9h0.7c1,0,1.5-0.3,1.5-1v-0.2
			C403.5,374.9,402.9,374.4,402.2,374.4z M383.3,356.4V356c0-1.2-0.3-1.8-0.8-1.8c-0.4,0.1-0.5,0.2-0.5,0.3v0.1
			c0,0.6-0.1,1.1-0.2,1.7c-1.3,0.1-1.9,0.2-1.9,0.4c0,0.2,0.6,0.5,1.7,0.7c0.3,1.7,0.9,2.5,1.7,2.5c0.2,0,0.4-0.1,0.5-0.2
			c-0.3-0.6-0.5-1.3-0.5-2l0.3-0.3c0.9,0.1,1.6,0.1,2,0.1c0.5,0,0.7-0.1,0.8-0.3V357C386.4,356.7,385.4,356.5,383.3,356.4
			L383.3,356.4z M382.8,348.7h-0.5c-0.8,0.4-1.2,0.8-1.2,1.4c0,0.6,0.4,0.9,1.2,0.9c1,0,1.9-0.6,2.2-1.5
			C384.3,349,383.8,348.7,382.8,348.7z M382.8,348.7h-0.5c-0.8,0.4-1.2,0.8-1.2,1.4c0,0.6,0.4,0.9,1.2,0.9c1,0,1.9-0.6,2.2-1.5
			C384.3,349,383.8,348.7,382.8,348.7z M383.3,356.4V356c0-1.2-0.3-1.8-0.8-1.8c-0.4,0.1-0.5,0.2-0.5,0.3v0.1c0,0.6-0.1,1.1-0.2,1.7
			c-1.3,0.1-1.9,0.2-1.9,0.4s0.6,0.5,1.7,0.7c0.3,1.7,0.9,2.5,1.7,2.5c0.2,0,0.4-0.1,0.5-0.2c-0.3-0.6-0.5-1.3-0.5-2l0.3-0.3
			c0.9,0.1,1.6,0.1,2,0.1c0.5,0,0.7-0.1,0.8-0.3V357C386.4,356.7,385.4,356.5,383.3,356.4L383.3,356.4z M402.2,374.4
			c-0.9,0-1.4,0.6-1.4,1.7c0,0.4,0.3,0.7,0.8,0.9h0.7c1,0,1.5-0.3,1.5-1v-0.2C403.5,374.9,402.9,374.4,402.2,374.4z M402.2,374.4
			c-0.9,0-1.4,0.6-1.4,1.7c0,0.4,0.3,0.7,0.8,0.9h0.7c1,0,1.5-0.3,1.5-1v-0.2C403.5,374.9,402.9,374.4,402.2,374.4z M383.3,356.4
			V356c0-1.2-0.3-1.8-0.8-1.8c-0.4,0.1-0.5,0.2-0.5,0.3v0.1c0,0.6-0.1,1.1-0.2,1.7c-1.3,0.1-1.9,0.2-1.9,0.4c0,0.2,0.6,0.5,1.7,0.7
			c0.3,1.7,0.9,2.5,1.7,2.5c0.2,0,0.4-0.1,0.5-0.2c-0.3-0.6-0.5-1.3-0.5-2l0.3-0.3c0.9,0.1,1.6,0.1,2,0.1c0.5,0,0.7-0.1,0.8-0.3V357
			C386.4,356.7,385.4,356.5,383.3,356.4L383.3,356.4z M382.8,348.7h-0.5c-0.8,0.4-1.2,0.8-1.2,1.4c0,0.6,0.4,0.9,1.2,0.9
			c1,0,1.9-0.6,2.2-1.5C384.3,349,383.8,348.7,382.8,348.7z M382.8,348.7h-0.5c-0.8,0.4-1.2,0.8-1.2,1.4c0,0.6,0.4,0.9,1.2,0.9
			c1,0,1.9-0.6,2.2-1.5C384.3,349,383.8,348.7,382.8,348.7z M383.3,356.4V356c0-1.2-0.3-1.8-0.8-1.8c-0.4,0.1-0.5,0.2-0.5,0.3v0.1
			c0,0.6-0.1,1.1-0.2,1.7c-1.3,0.1-1.9,0.2-1.9,0.4s0.6,0.5,1.7,0.7c0.3,1.7,0.9,2.5,1.7,2.5c0.2,0,0.4-0.1,0.5-0.2
			c-0.3-0.6-0.5-1.3-0.5-2l0.3-0.3c0.9,0.1,1.6,0.1,2,0.1c0.5,0,0.7-0.1,0.8-0.3V357C386.4,356.7,385.4,356.5,383.3,356.4
			L383.3,356.4z M402.2,374.4c-0.9,0-1.4,0.6-1.4,1.7c0,0.4,0.3,0.7,0.8,0.9h0.7c1,0,1.5-0.3,1.5-1v-0.2
			C403.5,374.9,402.9,374.4,402.2,374.4z M402.2,374.4c-0.9,0-1.4,0.6-1.4,1.7c0,0.4,0.3,0.7,0.8,0.9h0.7c1,0,1.5-0.3,1.5-1v-0.2
			C403.5,374.9,402.9,374.4,402.2,374.4z M383.3,356.4V356c0-1.2-0.3-1.8-0.8-1.8c-0.4,0.1-0.5,0.2-0.5,0.3v0.1
			c0,0.6-0.1,1.1-0.2,1.7c-1.3,0.1-1.9,0.2-1.9,0.4c0,0.2,0.6,0.5,1.7,0.7c0.3,1.7,0.9,2.5,1.7,2.5c0.2,0,0.4-0.1,0.5-0.2
			c-0.3-0.6-0.5-1.3-0.5-2l0.3-0.3c0.9,0.1,1.6,0.1,2,0.1c0.5,0,0.7-0.1,0.8-0.3V357C386.4,356.7,385.4,356.5,383.3,356.4
			L383.3,356.4z M382.8,348.7h-0.5c-0.8,0.4-1.2,0.8-1.2,1.4c0,0.6,0.4,0.9,1.2,0.9c1,0,1.9-0.6,2.2-1.5
			C384.3,349,383.8,348.7,382.8,348.7z M382.8,348.7h-0.5c-0.8,0.4-1.2,0.8-1.2,1.4c0,0.6,0.4,0.9,1.2,0.9c1,0,1.9-0.6,2.2-1.5
			C384.3,349,383.8,348.7,382.8,348.7z M383.3,356.4V356c0-1.2-0.3-1.8-0.8-1.8c-0.4,0.1-0.5,0.2-0.5,0.3v0.1c0,0.6-0.1,1.1-0.2,1.7
			c-1.3,0.1-1.9,0.2-1.9,0.4s0.6,0.5,1.7,0.7c0.3,1.7,0.9,2.5,1.7,2.5c0.2,0,0.4-0.1,0.5-0.2c-0.3-0.6-0.5-1.3-0.5-2l0.3-0.3
			c0.9,0.1,1.6,0.1,2,0.1c0.5,0,0.7-0.1,0.8-0.3V357C386.4,356.7,385.4,356.5,383.3,356.4L383.3,356.4z M402.2,374.4
			c-0.9,0-1.4,0.6-1.4,1.7c0,0.4,0.3,0.7,0.8,0.9h0.7c1,0,1.5-0.3,1.5-1v-0.2C403.5,374.9,402.9,374.4,402.2,374.4z M402.2,374.4
			c-0.9,0-1.4,0.6-1.4,1.7c0,0.4,0.3,0.7,0.8,0.9h0.7c1,0,1.5-0.3,1.5-1v-0.2C403.5,374.9,402.9,374.4,402.2,374.4z M383.3,356.4
			V356c0-1.2-0.3-1.8-0.8-1.8c-0.4,0.1-0.5,0.2-0.5,0.3v0.1c0,0.6-0.1,1.1-0.2,1.7c-1.3,0.1-1.9,0.2-1.9,0.4c0,0.2,0.6,0.5,1.7,0.7
			c0.3,1.7,0.9,2.5,1.7,2.5c0.2,0,0.4-0.1,0.5-0.2c-0.3-0.6-0.5-1.3-0.5-2l0.3-0.3c0.9,0.1,1.6,0.1,2,0.1c0.5,0,0.7-0.1,0.8-0.3V357
			C386.4,356.7,385.4,356.5,383.3,356.4L383.3,356.4z M382.8,348.7h-0.5c-0.8,0.4-1.2,0.8-1.2,1.4c0,0.6,0.4,0.9,1.2,0.9
			c1,0,1.9-0.6,2.2-1.5C384.3,349,383.8,348.7,382.8,348.7z M407.1,373.2c0-2.3-1.8-5.1-5.4-8.3l-3.7-3.1l-6.3-4.4
			c-2.5-1.4-4-2.7-4.2-3.7c0.3-0.9,0.7-1.3,1.1-1.3h0.9c0.9,0.1,1.8,0.2,2.7,0.4c1.9,0.7,3.7,1.7,5.4,2.9c0.6,0.7,1,1,1.4,1
			c0.5-0.1,0.7-0.2,0.7-0.3c0.3,0,1.6-1.3,3.9-3.9c1.1-1.2,1.6-2.2,1.6-3.1c-0.2-1.1-2.3-2.7-6.5-4.9c-3.6-1-5.9-1.6-6.9-1.6h-1.1
			L390,343c0-0.1-0.1-0.1-0.2-0.1c-0.6,0-1.5,0-2.7,0.1c-4,0.8-6.6,2.1-7.7,3.7l-2.2,2.8c-0.5,1.8-0.8,2.8-1,3v2.3
			c0,1.5,0.5,2.9,1.4,4.1c0,0.3,0.7,1.1,2.2,2.4c2.4,1.8,5,3.4,7.7,4.8c1.3,0.5,3.6,2.2,6.9,5.1c0.7,0.9,1.3,1.8,1.9,2.7v1.9
			c-0.7,1.6-1.9,2.5-3.6,2.5h-0.5c-2.1,0-4.7-1.3-8-3.8c-1.1-1.3-1.9-2-2.4-2l-0.3,0.1c-1.7,1.5-3.3,3.1-4.8,4.9
			c-0.5,0.2-0.8,0.7-0.8,1.2v0.7c0.2,0.2,0.3,0.3,0.4,0.3c0,0.7,1,1.6,3,2.9c0.8,0.8,1.8,1.5,2.9,1.9c4.8,2.1,8.8,3.2,12.2,3.2
			c3.3-0.5,5.4-1,6.5-1.4c2.6-1.3,3.9-2.4,4.1-3.2c1.7-1.4,2.6-3.7,2.6-6.9C407.6,374.4,407.4,373.4,407.1,373.2L407.1,373.2z
			 M378.9,380c-0.4-0.2-0.5-0.3-0.5-0.4v-0.2c0.1-0.1,0.2-0.3,0.3-0.5h0.3v0.5l0.2,0.5C379,379.9,378.9,379.9,378.9,380L378.9,380z
			 M390.1,358.9h0.4v0.1c1.6,0.9,2.4,1.4,2.4,1.7c0,0.3-0.1,0.5-0.4,0.5h-0.2c-0.9-0.5-1.8-1.2-2.6-1.9
			C389.8,359.1,390,359,390.1,358.9L390.1,358.9z M388.7,360.2l2.3,2v0.2h-0.4c-1.8-1-2.6-1.6-2.6-1.7v-0.1
			C388.1,360.5,388.3,360.3,388.7,360.2L388.7,360.2z M397.8,347.4l0.1-0.8c1.2,0.3,2.9,1.3,5.1,3c0,0.4-0.3,0.8-0.7,0.9H402
			c-1.5-0.8-2.9-1.6-4.2-2.6V347.4z M397.4,350.2c0-0.4,0.1-0.6,0.4-0.7c2,1.3,3.2,2,3.4,2v0.1c0,0.4-0.2,0.6-0.7,0.8
			c-2-1.4-3-2.1-3.2-2.1L397.4,350.2z M397.1,351.7h0.2c0,0,0.8,0.6,2.3,1.8v0.1c-0.2,0.3-0.4,0.4-0.5,0.4c-1.4-0.8-2.2-1.4-2.4-1.7
			C396.7,352.1,396.8,351.8,397.1,351.7L397.1,351.7z M385.7,345.4c1.4-0.4,2.8-0.6,4.2-0.6h1.4c1.2,0.1,2.3,0.3,3.4,0.6
			c0.5,0,0.8,0.8,0.8,2.3c-0.2,1.2-0.5,2.4-0.8,3.6h-0.2c-0.3-0.3-0.7-0.4-1.1-0.4c-2.3-0.3-3.4-0.8-3.4-1.5
			c-0.4-0.9-1.9-2.2-4.4-3.9V345.4z M378.8,351.4V351c0.3-0.5,0.7-1,1.2-1.3c0-0.9,1.1-2,3.2-3.3l1,0.2c1.8,1.2,3.1,2.4,3.8,3.6v0.1
			c-0.4,0-0.9,0.4-1.5,1.1c-0.5,0.6-1.5,0.9-3,0.9h-0.7c-1.4,0.2-2.8,0.6-4.1,1h-0.1C378.6,353.1,378.6,352.5,378.8,351.4
			L378.8,351.4z M383.5,361.4c-3.3-2.1-4.9-4.4-4.9-6.7v-0.1c0-0.3,1.4-0.7,4.1-1.1h0.4c0.5,0,1.3,0,2.4,0.1v0.4
			c0.3,1.2,1.2,2.4,2.7,3.6v0.2C388,358.3,386.5,359.5,383.5,361.4L383.5,361.4z M389.7,363.3c0,0.1-0.4,0.4-1.1,0.8h-0.1
			c-1.7-0.8-2.7-1.4-2.9-1.7v-0.1l0.7-0.7c0.2,0,0.4,0,0.5,0.1c1.6,0.9,2.6,1.3,2.9,1.3V363.3z M390.4,365.4v-0.3l4.1-3.2l1.1,0.6
			c-2.4,2.2-3.9,3.3-4.4,3.3C390.9,365.7,390.6,365.6,390.4,365.4L390.4,365.4z M393.8,367.7h-0.3c-0.4-0.3-0.7-0.5-0.7-0.6V367
			c2.8-2.1,4.3-3.2,4.2-3.3c0.3,0.1,0.6,0.3,0.8,0.6v0.2C397.3,365.3,396,366.4,393.8,367.7L393.8,367.7z M395.3,368.9l4-2.8
			c0.6,0,1.2,0.4,1.7,1.1l3,3.2v0.1c-2.1,0-4.1,0.6-5.9,1.6h-0.3C396.1,370.3,395.3,369.2,395.3,368.9L395.3,368.9z M385.7,378.2
			c1.1,0.7,2.3,1.2,3.6,1.7v0.1l-1.7,0.2c-0.8,0-1.5-0.5-2.2-1.4L385.7,378.2z M389.5,383.6l-1,0.2h-0.1c-0.1,0-0.9-0.1-2.4-0.2
			c-3.2-1.1-4.8-2.6-4.8-4.3c0-1.4,0.4-2.5,1.3-3.1h0.2c0.4,0.6,0.7,0.9,1.1,0.9c-0.3,0.5-0.6,1.1-0.7,1.7v0.6
			c1.4,1.5,2.9,2.2,4.2,2.2c2,0,3.3-0.3,4-0.9h0.2c0.6,0.7,1,1.3,1.1,1.7l-2.9,1.4L389.5,383.6z M392.4,385.6
			c-0.7-0.1-1.3-0.2-1.9-0.3v-0.1c0.8-0.1,1.6-0.4,2.2-0.9h0.2l0.3,0.1C393.1,385.2,392.9,385.6,392.4,385.6L392.4,385.6z
			 M401.5,383.7c-2.4,1.2-4.5,1.8-6.1,1.8h-0.1v-0.3c0-1.7-0.3-3.3-1-4.9v-0.1c0.5,0,1.3-0.4,2.5-1.3h0.7c1.3,0,2.8,1.4,4.7,4.1
			C402.2,383,402,383.3,401.5,383.7L401.5,383.7z M405.5,376.9c0,0.5-0.2,1.1-0.4,1.6l0.2,0.2c0,0.3-0.5,1.1-1.5,2.4
			c-0.2,0-0.5-0.3-0.7-0.7c-1.2-1.5-2.9-2.6-4.8-3c0-0.8,0.1-1.7,0.3-2.5l-0.2-1.3c0.2,0,0.4-0.1,0.5-0.1c1.2-0.9,2.8-1.4,4.3-1.3
			h0.5c0.1,0,0.1,0,0.1,0.1c1.1,0,1.7,1.3,1.7,4l-0.1,0.6C405.4,376.8,405.5,376.8,405.5,376.9z M402.2,374.4
			c-0.9,0-1.4,0.6-1.4,1.7c0,0.4,0.3,0.7,0.8,0.9h0.7c1,0,1.5-0.3,1.5-1v-0.2C403.5,374.9,402.9,374.4,402.2,374.4z M383.3,356.4
			V356c0-1.2-0.3-1.8-0.8-1.8c-0.4,0.1-0.5,0.2-0.5,0.3v0.1c0,0.6-0.1,1.1-0.2,1.7c-1.3,0.1-1.9,0.2-1.9,0.4c0,0.2,0.6,0.5,1.7,0.7
			c0.3,1.7,0.9,2.5,1.7,2.5c0.2,0,0.4-0.1,0.5-0.2c-0.3-0.6-0.5-1.3-0.5-2l0.3-0.3c0.9,0.1,1.6,0.1,2,0.1c0.5,0,0.7-0.1,0.8-0.3V357
			C386.4,356.7,385.4,356.5,383.3,356.4L383.3,356.4z M382.3,351.1c1,0,1.9-0.6,2.2-1.5c-0.2-0.6-0.7-0.9-1.7-0.9h-0.5
			c-0.8,0.4-1.2,0.8-1.2,1.4S381.4,351.1,382.3,351.1L382.3,351.1z M382.8,348.7h-0.5c-0.8,0.4-1.2,0.8-1.2,1.4s0.4,0.9,1.2,0.9
			c1,0,1.9-0.6,2.2-1.5C384.3,349,383.8,348.7,382.8,348.7L382.8,348.7z M383.3,356.4V356c0-1.2-0.3-1.8-0.8-1.8
			c-0.4,0.1-0.5,0.2-0.5,0.3v0.1c0,0.6-0.1,1.1-0.2,1.7c-1.3,0.1-1.9,0.2-1.9,0.4c0,0.2,0.6,0.5,1.7,0.7c0.3,1.7,0.9,2.5,1.7,2.5
			c0.2,0,0.4-0.1,0.5-0.2c-0.3-0.6-0.5-1.3-0.5-2l0.3-0.3c0.9,0.1,1.6,0.1,2,0.1c0.5,0,0.7-0.1,0.8-0.3V357
			C386.4,356.7,385.4,356.5,383.3,356.4L383.3,356.4z M402.2,374.4c-0.9,0-1.4,0.6-1.4,1.7c0,0.4,0.3,0.7,0.8,0.9h0.7
			c1,0,1.5-0.3,1.5-1v-0.2C403.5,374.9,402.9,374.4,402.2,374.4z M402.2,374.4c-0.9,0-1.4,0.6-1.4,1.7c0,0.4,0.3,0.7,0.8,0.9h0.7
			c1,0,1.5-0.3,1.5-1v-0.2C403.5,374.9,402.9,374.4,402.2,374.4z M383.3,356.4V356c0-1.2-0.3-1.8-0.8-1.8c-0.4,0.1-0.5,0.2-0.5,0.3
			v0.1c0,0.6-0.1,1.1-0.2,1.7c-1.3,0.1-1.9,0.2-1.9,0.4c0,0.2,0.6,0.5,1.7,0.7c0.3,1.7,0.9,2.5,1.7,2.5c0.2,0,0.4-0.1,0.5-0.2
			c-0.3-0.6-0.5-1.3-0.5-2l0.3-0.3c0.9,0.1,1.6,0.1,2,0.1c0.5,0,0.7-0.1,0.8-0.3V357C386.4,356.7,385.4,356.5,383.3,356.4
			L383.3,356.4z M382.8,348.7h-0.5c-0.8,0.4-1.2,0.8-1.2,1.4c0,0.6,0.4,0.9,1.2,0.9c1,0,1.9-0.6,2.2-1.5
			C384.3,349,383.8,348.7,382.8,348.7z M382.8,348.7h-0.5c-0.8,0.4-1.2,0.8-1.2,1.4c0,0.6,0.4,0.9,1.2,0.9c1,0,1.9-0.6,2.2-1.5
			C384.3,349,383.8,348.7,382.8,348.7z M383.3,356.4V356c0-1.2-0.3-1.8-0.8-1.8c-0.4,0.1-0.5,0.2-0.5,0.3v0.1c0,0.6-0.1,1.1-0.2,1.7
			c-1.3,0.1-1.9,0.2-1.9,0.4s0.6,0.5,1.7,0.7c0.3,1.7,0.9,2.5,1.7,2.5c0.2,0,0.4-0.1,0.5-0.2c-0.3-0.6-0.5-1.3-0.5-2l0.3-0.3
			c0.9,0.1,1.6,0.1,2,0.1c0.5,0,0.7-0.1,0.8-0.3V357C386.4,356.7,385.4,356.5,383.3,356.4L383.3,356.4z M402.2,374.4
			c-0.9,0-1.4,0.6-1.4,1.7c0,0.4,0.3,0.7,0.8,0.9h0.7c1,0,1.5-0.3,1.5-1v-0.2C403.5,374.9,402.9,374.4,402.2,374.4z M402.2,374.4
			c-0.9,0-1.4,0.6-1.4,1.7c0,0.4,0.3,0.7,0.8,0.9h0.7c1,0,1.5-0.3,1.5-1v-0.2C403.5,374.9,402.9,374.4,402.2,374.4z M383.3,356.4
			V356c0-1.2-0.3-1.8-0.8-1.8c-0.4,0.1-0.5,0.2-0.5,0.3v0.1c0,0.6-0.1,1.1-0.2,1.7c-1.3,0.1-1.9,0.2-1.9,0.4c0,0.2,0.6,0.5,1.7,0.7
			c0.3,1.7,0.9,2.5,1.7,2.5c0.2,0,0.4-0.1,0.5-0.2c-0.3-0.6-0.5-1.3-0.5-2l0.3-0.3c0.9,0.1,1.6,0.1,2,0.1c0.5,0,0.7-0.1,0.8-0.3V357
			C386.4,356.7,385.4,356.5,383.3,356.4L383.3,356.4z M382.8,348.7h-0.5c-0.8,0.4-1.2,0.8-1.2,1.4c0,0.6,0.4,0.9,1.2,0.9
			c1,0,1.9-0.6,2.2-1.5C384.3,349,383.8,348.7,382.8,348.7z M382.8,348.7h-0.5c-0.8,0.4-1.2,0.8-1.2,1.4c0,0.6,0.4,0.9,1.2,0.9
			c1,0,1.9-0.6,2.2-1.5C384.3,349,383.8,348.7,382.8,348.7z M383.3,356.4V356c0-1.2-0.3-1.8-0.8-1.8c-0.4,0.1-0.5,0.2-0.5,0.3v0.1
			c0,0.6-0.1,1.1-0.2,1.7c-1.3,0.1-1.9,0.2-1.9,0.4s0.6,0.5,1.7,0.7c0.3,1.7,0.9,2.5,1.7,2.5c0.2,0,0.4-0.1,0.5-0.2
			c-0.3-0.6-0.5-1.3-0.5-2l0.3-0.3c0.9,0.1,1.6,0.1,2,0.1c0.5,0,0.7-0.1,0.8-0.3V357C386.4,356.7,385.4,356.5,383.3,356.4
			L383.3,356.4z M402.2,374.4c-0.9,0-1.4,0.6-1.4,1.7c0,0.4,0.3,0.7,0.8,0.9h0.7c1,0,1.5-0.3,1.5-1v-0.2
			C403.5,374.9,402.9,374.4,402.2,374.4z M402.2,374.4c-0.9,0-1.4,0.6-1.4,1.7c0,0.4,0.3,0.7,0.8,0.9h0.7c1,0,1.5-0.3,1.5-1v-0.2
			C403.5,374.9,402.9,374.4,402.2,374.4z M383.3,356.4V356c0-1.2-0.3-1.8-0.8-1.8c-0.4,0.1-0.5,0.2-0.5,0.3v0.1
			c0,0.6-0.1,1.1-0.2,1.7c-1.3,0.1-1.9,0.2-1.9,0.4c0,0.2,0.6,0.5,1.7,0.7c0.3,1.7,0.9,2.5,1.7,2.5c0.2,0,0.4-0.1,0.5-0.2
			c-0.3-0.6-0.5-1.3-0.5-2l0.3-0.3c0.9,0.1,1.6,0.1,2,0.1c0.5,0,0.7-0.1,0.8-0.3V357C386.4,356.7,385.4,356.5,383.3,356.4
			L383.3,356.4z M382.8,348.7h-0.5c-0.8,0.4-1.2,0.8-1.2,1.4c0,0.6,0.4,0.9,1.2,0.9c1,0,1.9-0.6,2.2-1.5
			C384.3,349,383.8,348.7,382.8,348.7z M382.8,348.7h-0.5c-0.8,0.4-1.2,0.8-1.2,1.4c0,0.6,0.4,0.9,1.2,0.9c1,0,1.9-0.6,2.2-1.5
			C384.3,349,383.8,348.7,382.8,348.7z M383.3,356.4V356c0-1.2-0.3-1.8-0.8-1.8c-0.4,0.1-0.5,0.2-0.5,0.3v0.1c0,0.6-0.1,1.1-0.2,1.7
			c-1.3,0.1-1.9,0.2-1.9,0.4s0.6,0.5,1.7,0.7c0.3,1.7,0.9,2.5,1.7,2.5c0.2,0,0.4-0.1,0.5-0.2c-0.3-0.6-0.5-1.3-0.5-2l0.3-0.3
			c0.9,0.1,1.6,0.1,2,0.1c0.5,0,0.7-0.1,0.8-0.3V357C386.4,356.7,385.4,356.5,383.3,356.4L383.3,356.4z M402.2,374.4
			c-0.9,0-1.4,0.6-1.4,1.7c0,0.4,0.3,0.7,0.8,0.9h0.7c1,0,1.5-0.3,1.5-1v-0.2C403.5,374.9,402.9,374.4,402.2,374.4z M402.2,374.4
			c-0.9,0-1.4,0.6-1.4,1.7c0,0.4,0.3,0.7,0.8,0.9h0.7c1,0,1.5-0.3,1.5-1v-0.2C403.5,374.9,402.9,374.4,402.2,374.4z M383.3,356.4
			V356c0-1.2-0.3-1.8-0.8-1.8c-0.4,0.1-0.5,0.2-0.5,0.3v0.1c0,0.6-0.1,1.1-0.2,1.7c-1.3,0.1-1.9,0.2-1.9,0.4c0,0.2,0.6,0.5,1.7,0.7
			c0.3,1.7,0.9,2.5,1.7,2.5c0.2,0,0.4-0.1,0.5-0.2c-0.3-0.6-0.5-1.3-0.5-2l0.3-0.3c0.9,0.1,1.6,0.1,2,0.1c0.5,0,0.7-0.1,0.8-0.3V357
			C386.4,356.7,385.4,356.5,383.3,356.4L383.3,356.4z M382.8,348.7h-0.5c-0.8,0.4-1.2,0.8-1.2,1.4c0,0.6,0.4,0.9,1.2,0.9
			c1,0,1.9-0.6,2.2-1.5C384.3,349,383.8,348.7,382.8,348.7z M382.8,348.7h-0.5c-0.8,0.4-1.2,0.8-1.2,1.4c0,0.6,0.4,0.9,1.2,0.9
			c1,0,1.9-0.6,2.2-1.5C384.3,349,383.8,348.7,382.8,348.7z M383.3,356.4V356c0-1.2-0.3-1.8-0.8-1.8c-0.4,0.1-0.5,0.2-0.5,0.3v0.1
			c0,0.6-0.1,1.1-0.2,1.7c-1.3,0.1-1.9,0.2-1.9,0.4s0.6,0.5,1.7,0.7c0.3,1.7,0.9,2.5,1.7,2.5c0.2,0,0.4-0.1,0.5-0.2
			c-0.3-0.6-0.5-1.3-0.5-2l0.3-0.3c0.9,0.1,1.6,0.1,2,0.1c0.5,0,0.7-0.1,0.8-0.3V357C386.4,356.7,385.4,356.5,383.3,356.4
			L383.3,356.4z M402.2,374.4c-0.9,0-1.4,0.6-1.4,1.7c0,0.4,0.3,0.7,0.8,0.9h0.7c1,0,1.5-0.3,1.5-1v-0.2
			C403.5,374.9,402.9,374.4,402.2,374.4z M402.2,374.4c-0.9,0-1.4,0.6-1.4,1.7c0,0.4,0.3,0.7,0.8,0.9h0.7c1,0,1.5-0.3,1.5-1v-0.2
			C403.5,374.9,402.9,374.4,402.2,374.4z M383.3,356.4V356c0-1.2-0.3-1.8-0.8-1.8c-0.4,0.1-0.5,0.2-0.5,0.3v0.1
			c0,0.6-0.1,1.1-0.2,1.7c-1.3,0.1-1.9,0.2-1.9,0.4c0,0.2,0.6,0.5,1.7,0.7c0.3,1.7,0.9,2.5,1.7,2.5c0.2,0,0.4-0.1,0.5-0.2
			c-0.3-0.6-0.5-1.3-0.5-2l0.3-0.3c0.9,0.1,1.6,0.1,2,0.1c0.5,0,0.7-0.1,0.8-0.3V357C386.4,356.7,385.4,356.5,383.3,356.4
			L383.3,356.4z M382.8,348.7h-0.5c-0.8,0.4-1.2,0.8-1.2,1.4c0,0.6,0.4,0.9,1.2,0.9c1,0,1.9-0.6,2.2-1.5
			C384.3,349,383.8,348.7,382.8,348.7z M382.8,348.7h-0.5c-0.8,0.4-1.2,0.8-1.2,1.4c0,0.6,0.4,0.9,1.2,0.9c1,0,1.9-0.6,2.2-1.5
			C384.3,349,383.8,348.7,382.8,348.7z M383.3,356.4V356c0-1.2-0.3-1.8-0.8-1.8c-0.4,0.1-0.5,0.2-0.5,0.3v0.1c0,0.6-0.1,1.1-0.2,1.7
			c-1.3,0.1-1.9,0.2-1.9,0.4s0.6,0.5,1.7,0.7c0.3,1.7,0.9,2.5,1.7,2.5c0.2,0,0.4-0.1,0.5-0.2c-0.3-0.6-0.5-1.3-0.5-2l0.3-0.3
			c0.9,0.1,1.6,0.1,2,0.1c0.5,0,0.7-0.1,0.8-0.3V357C386.4,356.7,385.4,356.5,383.3,356.4L383.3,356.4z M402.2,374.4
			c-0.9,0-1.4,0.6-1.4,1.7c0,0.4,0.3,0.7,0.8,0.9h0.7c1,0,1.5-0.3,1.5-1v-0.2C403.5,374.9,402.9,374.4,402.2,374.4z M402.2,374.4
			c-0.9,0-1.4,0.6-1.4,1.7c0,0.4,0.3,0.7,0.8,0.9h0.7c1,0,1.5-0.3,1.5-1v-0.2C403.5,374.9,402.9,374.4,402.2,374.4z M383.3,356.4
			V356c0-1.2-0.3-1.8-0.8-1.8c-0.4,0.1-0.5,0.2-0.5,0.3v0.1c0,0.6-0.1,1.1-0.2,1.7c-1.3,0.1-1.9,0.2-1.9,0.4c0,0.2,0.6,0.5,1.7,0.7
			c0.3,1.7,0.9,2.5,1.7,2.5c0.2,0,0.4-0.1,0.5-0.2c-0.3-0.6-0.5-1.3-0.5-2l0.3-0.3c0.9,0.1,1.6,0.1,2,0.1c0.5,0,0.7-0.1,0.8-0.3V357
			C386.4,356.7,385.4,356.5,383.3,356.4L383.3,356.4z M382.8,348.7h-0.5c-0.8,0.4-1.2,0.8-1.2,1.4c0,0.6,0.4,0.9,1.2,0.9
			c1,0,1.9-0.6,2.2-1.5C384.3,349,383.8,348.7,382.8,348.7z M382.8,348.7h-0.5c-0.8,0.4-1.2,0.8-1.2,1.4c0,0.6,0.4,0.9,1.2,0.9
			c1,0,1.9-0.6,2.2-1.5C384.3,349,383.8,348.7,382.8,348.7z M383.3,356.4V356c0-1.2-0.3-1.8-0.8-1.8c-0.4,0.1-0.5,0.2-0.5,0.3v0.1
			c0,0.6-0.1,1.1-0.2,1.7c-1.3,0.1-1.9,0.2-1.9,0.4s0.6,0.5,1.7,0.7c0.3,1.7,0.9,2.5,1.7,2.5c0.2,0,0.4-0.1,0.5-0.2
			c-0.3-0.6-0.5-1.3-0.5-2l0.3-0.3c0.9,0.1,1.6,0.1,2,0.1c0.5,0,0.7-0.1,0.8-0.3V357C386.4,356.7,385.4,356.5,383.3,356.4
			L383.3,356.4z M402.2,374.4c-0.9,0-1.4,0.6-1.4,1.7c0,0.4,0.3,0.7,0.8,0.9h0.7c1,0,1.5-0.3,1.5-1v-0.2
			C403.5,374.9,402.9,374.4,402.2,374.4z M402.2,374.4c-0.9,0-1.4,0.6-1.4,1.7c0,0.4,0.3,0.7,0.8,0.9h0.7c1,0,1.5-0.3,1.5-1v-0.2
			C403.5,374.9,402.9,374.4,402.2,374.4z M383.3,356.4V356c0-1.2-0.3-1.8-0.8-1.8c-0.4,0.1-0.5,0.2-0.5,0.3v0.1
			c0,0.6-0.1,1.1-0.2,1.7c-1.3,0.1-1.9,0.2-1.9,0.4c0,0.2,0.6,0.5,1.7,0.7c0.3,1.7,0.9,2.5,1.7,2.5c0.2,0,0.4-0.1,0.5-0.2
			c-0.3-0.6-0.5-1.3-0.5-2l0.3-0.3c0.9,0.1,1.6,0.1,2,0.1c0.5,0,0.7-0.1,0.8-0.3V357C386.4,356.7,385.4,356.5,383.3,356.4
			L383.3,356.4z M382.8,348.7h-0.5c-0.8,0.4-1.2,0.8-1.2,1.4c0,0.6,0.4,0.9,1.2,0.9c1,0,1.9-0.6,2.2-1.5
			C384.3,349,383.8,348.7,382.8,348.7z M382.8,348.7h-0.5c-0.8,0.4-1.2,0.8-1.2,1.4c0,0.6,0.4,0.9,1.2,0.9c1,0,1.9-0.6,2.2-1.5
			C384.3,349,383.8,348.7,382.8,348.7z M383.3,356.4V356c0-1.2-0.3-1.8-0.8-1.8c-0.4,0.1-0.5,0.2-0.5,0.3v0.1c0,0.6-0.1,1.1-0.2,1.7
			c-1.3,0.1-1.9,0.2-1.9,0.4s0.6,0.5,1.7,0.7c0.3,1.7,0.9,2.5,1.7,2.5c0.2,0,0.4-0.1,0.5-0.2c-0.3-0.6-0.5-1.3-0.5-2l0.3-0.3
			c0.9,0.1,1.6,0.1,2,0.1c0.5,0,0.7-0.1,0.8-0.3V357C386.4,356.7,385.4,356.5,383.3,356.4L383.3,356.4z M402.2,374.4
			c-0.9,0-1.4,0.6-1.4,1.7c0,0.4,0.3,0.7,0.8,0.9h0.7c1,0,1.5-0.3,1.5-1v-0.2C403.5,374.9,402.9,374.4,402.2,374.4z M402.2,374.4
			c-0.9,0-1.4,0.6-1.4,1.7c0,0.4,0.3,0.7,0.8,0.9h0.7c1,0,1.5-0.3,1.5-1v-0.2C403.5,374.9,402.9,374.4,402.2,374.4z M383.3,356.4
			V356c0-1.2-0.3-1.8-0.8-1.8c-0.4,0.1-0.5,0.2-0.5,0.3v0.1c0,0.6-0.1,1.1-0.2,1.7c-1.3,0.1-1.9,0.2-1.9,0.4c0,0.2,0.6,0.5,1.7,0.7
			c0.3,1.7,0.9,2.5,1.7,2.5c0.2,0,0.4-0.1,0.5-0.2c-0.3-0.6-0.5-1.3-0.5-2l0.3-0.3c0.9,0.1,1.6,0.1,2,0.1c0.5,0,0.7-0.1,0.8-0.3V357
			C386.4,356.7,385.4,356.5,383.3,356.4L383.3,356.4z M382.8,348.7h-0.5c-0.8,0.4-1.2,0.8-1.2,1.4c0,0.6,0.4,0.9,1.2,0.9
			c1,0,1.9-0.6,2.2-1.5C384.3,349,383.8,348.7,382.8,348.7z M382.8,348.7h-0.5c-0.8,0.4-1.2,0.8-1.2,1.4c0,0.6,0.4,0.9,1.2,0.9
			c1,0,1.9-0.6,2.2-1.5C384.3,349,383.8,348.7,382.8,348.7z M383.3,356.4V356c0-1.2-0.3-1.8-0.8-1.8c-0.4,0.1-0.5,0.2-0.5,0.3v0.1
			c0,0.6-0.1,1.1-0.2,1.7c-1.3,0.1-1.9,0.2-1.9,0.4s0.6,0.5,1.7,0.7c0.3,1.7,0.9,2.5,1.7,2.5c0.2,0,0.4-0.1,0.5-0.2
			c-0.3-0.6-0.5-1.3-0.5-2l0.3-0.3c0.9,0.1,1.6,0.1,2,0.1c0.5,0,0.7-0.1,0.8-0.3V357C386.4,356.7,385.4,356.5,383.3,356.4
			L383.3,356.4z M383.3,356.4V356c0-1.2-0.3-1.8-0.8-1.8c-0.4,0.1-0.5,0.2-0.5,0.3v0.1c0,0.6-0.1,1.1-0.2,1.7
			c-1.3,0.1-1.9,0.2-1.9,0.4s0.6,0.5,1.7,0.7c0.3,1.7,0.9,2.5,1.7,2.5c0.2,0,0.4-0.1,0.5-0.2c-0.3-0.6-0.5-1.3-0.5-2l0.3-0.3
			c0.9,0.1,1.6,0.1,2,0.1c0.5,0,0.7-0.1,0.8-0.3V357C386.4,356.7,385.4,356.5,383.3,356.4L383.3,356.4z M382.8,348.7h-0.5
			c-0.8,0.4-1.2,0.8-1.2,1.4c0,0.6,0.4,0.9,1.2,0.9c1,0,1.9-0.6,2.2-1.5C384.3,349,383.8,348.7,382.8,348.7z M402.2,374.4
			c-0.9,0-1.4,0.6-1.4,1.7c0,0.4,0.3,0.7,0.8,0.9h0.7c1,0,1.5-0.3,1.5-1v-0.2C403.5,374.9,402.9,374.4,402.2,374.4z M402.2,374.4
			c-0.9,0-1.4,0.6-1.4,1.7c0,0.4,0.3,0.7,0.8,0.9h0.7c1,0,1.5-0.3,1.5-1v-0.2C403.5,374.9,402.9,374.4,402.2,374.4z"/>
		<path class="st1" d="M393.1,384.4c0,0.8-0.2,1.2-0.7,1.2c-0.7-0.1-1.3-0.2-1.9-0.3v-0.1c0.8-0.1,1.6-0.4,2.2-0.9h0.2L393.1,384.4z
			"/>
		<path class="st1" d="M389.3,379.9v0.1l-1.7,0.2c-0.8,0-1.5-0.5-2.2-1.4l0.3-0.6C386.8,378.9,388,379.4,389.3,379.9z"/>
		<path class="st2" d="M392.7,382.2l-2.9,1.4l-0.3-0.1l-1,0.2h-0.1c-0.1,0-0.9-0.1-2.4-0.2c-3.2-1.1-4.8-2.6-4.8-4.3
			c0-1.4,0.4-2.5,1.3-3.1h0.2c0.4,0.6,0.7,0.9,1.1,0.9c-0.3,0.5-0.6,1.1-0.7,1.7v0.6c1.4,1.5,2.9,2.2,4.2,2.2c2,0,3.3-0.3,4-0.9h0.2
			C392.3,381.3,392.6,381.8,392.7,382.2z"/>
		<path class="st3" d="M402.2,382.9c0,0.1-0.2,0.4-0.7,0.8c-2.4,1.2-4.5,1.8-6.1,1.8h-0.1v-0.3c0-1.7-0.3-3.3-1-4.9v-0.1
			c0.5,0,1.3-0.4,2.5-1.3h0.7C398.8,378.8,400.4,380.2,402.2,382.9z"/>
		<path class="st2" d="M405.4,376.8l0.1-0.6c0-2.7-0.6-4-1.7-4c0-0.1,0-0.1-0.1-0.1h-0.5c-1.5,0-3,0.5-4.3,1.3
			c-0.2,0.1-0.4,0.1-0.5,0.1l0.2,1.3c-0.2,0.8-0.3,1.6-0.3,2.5c1.9,0.4,3.6,1.5,4.8,3c0.2,0.5,0.5,0.7,0.7,0.7
			c1-1.4,1.5-2.2,1.5-2.4l-0.2-0.2c0.2-0.5,0.4-1,0.4-1.6C405.5,376.8,405.4,376.8,405.4,376.8z M403.8,376c0,0.7-0.5,1-1.5,1h-0.7
			c-0.5-0.2-0.8-0.5-0.8-0.9c0-1.1,0.5-1.7,1.4-1.7c0.7,0,1.3,0.4,1.6,1.3V376z"/>
		<path class="st2" d="M397.9,364.3v0.2c-0.6,0.8-2,1.8-4.1,3.1h-0.3c-0.4-0.3-0.7-0.5-0.7-0.6V367c2.8-2.1,4.3-3.2,4.2-3.3
			C397.5,363.8,397.7,364,397.9,364.3z"/>
		<path class="st1" d="M404,370.4L404,370.4c-2.1,0.1-4.1,0.7-5.9,1.7h-0.3c-1.6-1.8-2.5-2.9-2.5-3.2l4-2.8c0.6,0,1.2,0.4,1.7,1.1
			L404,370.4z"/>
		<path class="st2" d="M395.6,362.4c-2.4,2.2-3.9,3.3-4.4,3.3c-0.3-0.1-0.6-0.2-0.8-0.3v-0.3l4.1-3.2L395.6,362.4z"/>
		<path class="st3" d="M391,362.2v0.2h-0.4c-1.8-1-2.6-1.6-2.6-1.7v-0.1c0-0.2,0.3-0.3,0.7-0.4L391,362.2z"/>
		<path class="st1" d="M392.8,360.8c0,0.3-0.1,0.5-0.4,0.5h-0.2c-0.9-0.5-1.8-1.2-2.6-1.9c0.1-0.2,0.3-0.3,0.4-0.3h0.4v0.1
			C392.1,360,392.8,360.5,392.8,360.8z"/>
		<path class="st1" d="M389.7,363.1v0.2c0,0.1-0.4,0.4-1.1,0.8h-0.1c-1.7-0.8-2.7-1.4-2.9-1.7v-0.1l0.7-0.7c0.2,0,0.4,0,0.5,0.1
			C388.4,362.7,389.4,363.1,389.7,363.1z"/>
		<path class="st3" d="M385.4,354.1v-0.4c-1.1-0.1-1.9-0.1-2.4-0.1h-0.4c-2.7,0.4-4.1,0.8-4.1,1.1v0.1c0,2.3,1.6,4.6,4.9,6.7h0.1
			c2.9-1.9,4.4-3.1,4.6-3.6v-0.2C386.6,356.5,385.7,355.3,385.4,354.1z M386.4,357.2c-0.1,0.2-0.4,0.3-0.8,0.3s-1.1,0-2-0.1
			l-0.3,0.3c0.1,0.7,0.2,1.4,0.5,2c-0.2,0.1-0.3,0.2-0.5,0.2c-0.8,0-1.3-0.8-1.7-2.5c-1.1-0.2-1.7-0.4-1.7-0.7s0.6-0.4,1.9-0.4
			c0.1-0.5,0.1-1.1,0.2-1.7v-0.1c0-0.1,0.2-0.2,0.5-0.3c0.5,0,0.8,0.6,0.8,1.8v0.5c2,0.1,3,0.3,3,0.5L386.4,357.2z"/>
		<path class="st1" d="M384.2,346.5l-1-0.2c-2.1,1.3-3.2,2.4-3.2,3.3c-0.5,0.3-0.9,0.8-1.2,1.3v0.4c-0.2,1.1-0.3,1.7-0.3,1.8h0.1
			c1.4-0.4,2.7-0.8,4.1-1h0.7c1.5,0,2.6-0.3,3-0.9c0.6-0.8,1.1-1.1,1.5-1.1v-0.1C387.3,348.9,386,347.7,384.2,346.5z M382.3,351.1
			c-0.8,0-1.2-0.3-1.2-0.9c0-0.6,0.4-1.1,1.2-1.4h0.5c1,0,1.5,0.3,1.7,0.9C384.1,350.5,383.2,351.1,382.3,351.1z"/>
		<path class="st3" d="M399.6,353.5v0.1c-0.2,0.3-0.4,0.4-0.5,0.4c-1.4-0.8-2.2-1.4-2.4-1.7c0-0.3,0.1-0.6,0.4-0.7h0.2
			C397.3,351.8,398,352.4,399.6,353.5z"/>
		<path class="st3" d="M401.2,351.5v0.1c0,0.4-0.2,0.6-0.7,0.8c-2-1.4-3-2.1-3.2-2.1v-0.1c0-0.4,0.1-0.6,0.4-0.7
			C399.8,350.9,401,351.5,401.2,351.5z"/>
		<path class="st3" d="M403,349.6c0,0.4-0.3,0.8-0.7,0.9H402c-1.5-0.8-2.9-1.6-4.2-2.6v-0.6l0.1-0.8
			C399.1,346.9,400.8,347.9,403,349.6z"/>
		<path class="st2" d="M395.6,347.7c-0.2,1.2-0.5,2.4-0.8,3.6h-0.2c-0.3-0.3-0.7-0.4-1.1-0.4c-2.3-0.3-3.4-0.8-3.4-1.5
			c-0.4-0.9-1.9-2.2-4.4-3.9v-0.1c1.4-0.4,2.8-0.6,4.2-0.6h1.4c1.2,0.1,2.3,0.3,3.4,0.6C395.3,345.4,395.6,346.2,395.6,347.7z"/>
		<path d="M426.6,361.9c-0.6,0.1-1.2,0.5-1.6,1c0,1.1,0.5,1.7,1.5,1.7h0.2c1-0.1,1.5-0.5,1.5-1.1v-0.1
			C427.9,362.4,427.4,361.9,426.6,361.9z M429.8,356.1h-0.5c-1.2,0.2-1.7,0.6-1.7,1.3c0,0.5,0.6,0.9,1.7,1c1-0.4,1.5-0.9,1.5-1.3
			C430.7,356.8,430.4,356.5,429.8,356.1z M435.1,356.4c-0.8,0-1.3,0.3-1.6,0.8v0.3c0.3,0.5,0.8,0.8,1.3,0.8c0.6,0,1.1-0.4,1.6-1.2
			C436.2,356.7,435.7,356.4,435.1,356.4L435.1,356.4z M444.3,368.8c-1-0.1-1.9,0.6-2,1.6c0,0,0,0,0,0c0,0.4,0.7,0.7,2,0.7h0.3
			c0.4-0.2,0.5-0.3,0.5-0.4v-1C445.1,369.3,444.8,369,444.3,368.8L444.3,368.8z M444.3,368.8c-1-0.1-1.9,0.6-2,1.6c0,0,0,0,0,0
			c0,0.4,0.7,0.7,2,0.7h0.3c0.4-0.2,0.5-0.3,0.5-0.4v-1C445.1,369.3,444.8,369,444.3,368.8L444.3,368.8z M435.1,356.4
			c-0.8,0-1.3,0.3-1.6,0.8v0.3c0.3,0.5,0.8,0.8,1.3,0.8c0.6,0,1.1-0.4,1.6-1.2C436.2,356.7,435.7,356.4,435.1,356.4L435.1,356.4z
			 M429.8,356.1h-0.5c-1.2,0.2-1.7,0.6-1.7,1.3c0,0.5,0.6,0.9,1.7,1c1-0.4,1.5-0.9,1.5-1.3C430.7,356.8,430.4,356.5,429.8,356.1z
			 M426.6,361.9c-0.6,0.1-1.2,0.5-1.6,1c0,1.1,0.5,1.7,1.5,1.7h0.2c1-0.1,1.5-0.5,1.5-1.1v-0.1C427.9,362.4,427.4,361.9,426.6,361.9
			z M426.6,361.9c-0.6,0.1-1.2,0.5-1.6,1c0,1.1,0.5,1.7,1.5,1.7h0.2c1-0.1,1.5-0.5,1.5-1.1v-0.1
			C427.9,362.4,427.4,361.9,426.6,361.9z M429.8,356.1h-0.5c-1.2,0.2-1.7,0.6-1.7,1.3c0,0.5,0.6,0.9,1.7,1c1-0.4,1.5-0.9,1.5-1.3
			C430.7,356.8,430.4,356.5,429.8,356.1z M435.1,356.4c-0.8,0-1.3,0.3-1.6,0.8v0.3c0.3,0.5,0.8,0.8,1.3,0.8c0.6,0,1.1-0.4,1.6-1.2
			C436.2,356.7,435.7,356.4,435.1,356.4L435.1,356.4z M444.3,368.8c-1-0.1-1.9,0.6-2,1.6c0,0,0,0,0,0c0,0.4,0.7,0.7,2,0.7h0.3
			c0.4-0.2,0.5-0.3,0.5-0.4v-1C445.1,369.3,444.8,369,444.3,368.8L444.3,368.8z M444.3,368.8c-1-0.1-1.9,0.6-2,1.6c0,0,0,0,0,0
			c0,0.4,0.7,0.7,2,0.7h0.3c0.4-0.2,0.5-0.3,0.5-0.4v-1C445.1,369.3,444.8,369,444.3,368.8L444.3,368.8z M435.1,356.4
			c-0.8,0-1.3,0.3-1.6,0.8v0.3c0.3,0.5,0.8,0.8,1.3,0.8c0.6,0,1.1-0.4,1.6-1.2C436.2,356.7,435.7,356.4,435.1,356.4L435.1,356.4z
			 M429.8,356.1h-0.5c-1.2,0.2-1.7,0.6-1.7,1.3c0,0.5,0.6,0.9,1.7,1c1-0.4,1.5-0.9,1.5-1.3C430.7,356.8,430.4,356.5,429.8,356.1z
			 M426.6,361.9c-0.6,0.1-1.2,0.5-1.6,1c0,1.1,0.5,1.7,1.5,1.7h0.2c1-0.1,1.5-0.5,1.5-1.1v-0.1C427.9,362.4,427.4,361.9,426.6,361.9
			z M426.6,361.9c-0.6,0.1-1.2,0.5-1.6,1c0,1.1,0.5,1.7,1.5,1.7h0.2c1-0.1,1.5-0.5,1.5-1.1v-0.1
			C427.9,362.4,427.4,361.9,426.6,361.9z M429.8,356.1h-0.5c-1.2,0.2-1.7,0.6-1.7,1.3c0,0.5,0.6,0.9,1.7,1c1-0.4,1.5-0.9,1.5-1.3
			C430.7,356.8,430.4,356.5,429.8,356.1z M435.1,356.4c-0.8,0-1.3,0.3-1.6,0.8v0.3c0.3,0.5,0.8,0.8,1.3,0.8c0.6,0,1.1-0.4,1.6-1.2
			C436.2,356.7,435.7,356.4,435.1,356.4L435.1,356.4z M444.3,368.8c-1-0.1-1.9,0.6-2,1.6c0,0,0,0,0,0c0,0.4,0.7,0.7,2,0.7h0.3
			c0.4-0.2,0.5-0.3,0.5-0.4v-1C445.1,369.3,444.8,369,444.3,368.8L444.3,368.8z M444.3,368.8c-1-0.1-1.9,0.6-2,1.6c0,0,0,0,0,0
			c0,0.4,0.7,0.7,2,0.7h0.3c0.4-0.2,0.5-0.3,0.5-0.4v-1C445.1,369.3,444.8,369,444.3,368.8L444.3,368.8z M435.1,356.4
			c-0.8,0-1.3,0.3-1.6,0.8v0.3c0.3,0.5,0.8,0.8,1.3,0.8c0.6,0,1.1-0.4,1.6-1.2C436.2,356.7,435.7,356.4,435.1,356.4L435.1,356.4z
			 M429.8,356.1h-0.5c-1.2,0.2-1.7,0.6-1.7,1.3c0,0.5,0.6,0.9,1.7,1c1-0.4,1.5-0.9,1.5-1.3C430.7,356.8,430.4,356.5,429.8,356.1z
			 M426.6,361.9c-0.6,0.1-1.2,0.5-1.6,1c0,1.1,0.5,1.7,1.5,1.7h0.2c1-0.1,1.5-0.5,1.5-1.1v-0.1C427.9,362.4,427.4,361.9,426.6,361.9
			z M426.6,361.9c-0.6,0.1-1.2,0.5-1.6,1c0,1.1,0.5,1.7,1.5,1.7h0.2c1-0.1,1.5-0.5,1.5-1.1v-0.1
			C427.9,362.4,427.4,361.9,426.6,361.9z M429.8,356.1h-0.5c-1.2,0.2-1.7,0.6-1.7,1.3c0,0.5,0.6,0.9,1.7,1c1-0.4,1.5-0.9,1.5-1.3
			C430.7,356.8,430.4,356.5,429.8,356.1z M435.1,356.4c-0.8,0-1.3,0.3-1.6,0.8v0.3c0.3,0.5,0.8,0.8,1.3,0.8c0.6,0,1.1-0.4,1.6-1.2
			C436.2,356.7,435.7,356.4,435.1,356.4L435.1,356.4z M444.3,368.8c-1-0.1-1.9,0.6-2,1.6c0,0,0,0,0,0c0,0.4,0.7,0.7,2,0.7h0.3
			c0.4-0.2,0.5-0.3,0.5-0.4v-1C445.1,369.3,444.8,369,444.3,368.8L444.3,368.8z M444.3,368.8c-1-0.1-1.9,0.6-2,1.6c0,0,0,0,0,0
			c0,0.4,0.7,0.7,2,0.7h0.3c0.4-0.2,0.5-0.3,0.5-0.4v-1C445.1,369.3,444.8,369,444.3,368.8L444.3,368.8z M435.1,356.4
			c-0.8,0-1.3,0.3-1.6,0.8v0.3c0.3,0.5,0.8,0.8,1.3,0.8c0.6,0,1.1-0.4,1.6-1.2C436.2,356.7,435.7,356.4,435.1,356.4L435.1,356.4z
			 M429.8,356.1h-0.5c-1.2,0.2-1.7,0.6-1.7,1.3c0,0.5,0.6,0.9,1.7,1c1-0.4,1.5-0.9,1.5-1.3C430.7,356.8,430.4,356.5,429.8,356.1z
			 M426.6,361.9c-0.6,0.1-1.2,0.5-1.6,1c0,1.1,0.5,1.7,1.5,1.7h0.2c1-0.1,1.5-0.5,1.5-1.1v-0.1C427.9,362.4,427.4,361.9,426.6,361.9
			z M457.2,382.6c-1.1-2.6-2.3-5.1-3.8-7.6c-2.6-5.1-4.1-8-4.5-8.6l-4-7.7c-2.8-5.2-4.8-8.6-6.1-10c-2.4-3.9-4-5.8-4.8-5.8h-0.4
			l-0.2,0.1c0-0.1-0.1-0.1-0.2-0.1h-0.9c-0.3,0-1,0.9-2,2.7c-0.6,1.3-1.5,2.9-2.5,4.7c-4.5,9.3-7.2,14.6-8.1,16
			c-1.4,3.1-2.7,5.5-3.9,7c0,1-0.5,2.1-1.5,3.3c-0.9,1.9-2,4-3.2,6.3c-0.6,2-1.1,2.9-1.5,2.9c0,0.7,1.6,1.1,4.9,1.1
			c0-0.1,0-0.1,0.1-0.1l2.7,0.2c0.2-0.1,0.4-0.1,0.7-0.1h0.7c0.2,0,1,0.1,2.5,0.2h0.3c1.1,0,1.6-0.4,1.6-1.1
			c1.2-1.3,1.7-2.2,1.7-2.6l2-2.9c0-0.5,0.9-0.8,2.8-0.8c0,0.1,0.1,0.1,0.2,0.1c0.2-0.1,0.3-0.1,0.5-0.1h1.1l1.6-0.1
			c0,0.1,0.1,0.1,0.2,0.1l0.3-0.1l0.8,0.1h5.1c0.5,0,1.1,0,2-0.1c0.4,0.1,0.8,0.2,1.2,0.3c1.8,3.2,3,5.3,3.6,6.2
			c0,1.1,0.6,1.7,1.9,1.7c1.7-0.1,2.5-0.2,2.5-0.3c2.3-0.1,3.4-0.2,3.4-0.3c2.8,0,4.5-0.5,4.9-1.6
			C458.8,385.2,458.3,384.3,457.2,382.6L457.2,382.6z M442.7,359.1L442.7,359.1l0.5,0.3c1,2,2,4,3.2,5.9c0,0.2-0.5,0.3-1.6,0.4
			c-2,0.4-3.9,1-5.7,1.9c-1.2-1.6-1.9-2.5-1.9-2.9v-0.2c0.8,0.1,1.2,0.1,1.3,0.1h0.1c2.9,0,4.4-0.3,4.4-1c-0.3-1.3-0.4-2.6-0.4-4
			L442.7,359.1z M435,346.5h0.1c2.9,4.1,4.6,6.7,5.1,7.7v0.1c-2.7-0.2-4.3-0.3-5.1-0.3l-0.4-0.2c0-0.6,0-1.3-0.1-2.2
			C434.7,348.2,434.8,346.5,435,346.5L435,346.5z M432.9,344.6c0-0.1,0.1-0.2,0.3-0.2h0.2c0.1,0,0.3,0.1,0.4,0.4
			c-0.1,0.2-0.3,0.3-0.8,0.3L432.9,344.6z M432.2,346.1h0.4l0.1,0.7c-0.1,2.1-0.1,3.9-0.1,5.4v0.8l-0.2,1.1
			c-1.2,0.1-2.4,0.3-3.6,0.5v-0.1c-0.1,0-0.3,0.1-0.4,0.1l-0.4-0.2C428,353.8,429.4,351.1,432.2,346.1z M423.8,381.7
			c-0.9,2-1.8,3.2-2.5,3.8h-7.1l-1.3,0.1c0-0.1-0.1-0.2-0.4-0.2c0-0.2,0.1-0.3,0.2-0.4l-0.2-0.2c0-0.1,0-0.1,0.2-0.1
			c0.4-1.1,1-2.2,1.6-3.3c0.6-1.4,1-2,1.4-2c0.8,0.2,1.5,0.4,2.2,0.6l-1.7,3.6l0.4,0.5c0.1,0,0.3,0,0.4-0.1c0.6,0,1.5-1.2,2.8-3.6
			h0.1c0.2,0,1.6,0.4,4,1.2L423.8,381.7z M434.8,377.4l-0.2,0.5H432c-1.3,0-2.7,0.1-4,0.2c-0.4-0.1-0.8-0.1-1.2-0.1
			c-0.7,0-1.3,0.7-1.9,2.2h-0.1c-2.8-0.7-4.2-1.2-4.2-1.5c1.2-2.1,1.9-3.3,1.9-3.4v-0.2c-0.1-0.2-0.3-0.3-0.4-0.3h-0.7
			c-0.3,0-0.5,0.1-0.8,0.2c-0.5,1.2-1.2,2.4-1.9,3.6c-1,0-2-0.3-2.9-0.8c0-0.2,0.4-0.9,1.2-2.2c0.8-2,1.8-3.9,2.9-5.7h0.5
			c0.7,1.7,1.3,2.8,1.9,3.1c1.1,1.4,3.1,2.2,6,2.2c1.2-0.1,1.9-0.2,1.9-0.3c1,0,2-0.5,3.2-1.6v-0.7c-0.2-0.3-0.4-0.4-0.5-0.4h-0.4
			c-0.5,0-0.9,0.3-1,0.8c-1.3,0.5-2,0.8-2,0.9c-0.6,0-1.2,0-1.9-0.1c-1.7,0-3.2-0.9-4.4-2.8c-0.7-1.5-1.1-2.3-1.3-2.3h-0.2l-0.9,0.1
			c0-0.7,0.4-1.6,1.3-2.8c0.3,0.1,0.4,0.2,0.4,0.2c1.6,2.2,3.4,3.3,5.4,3.3h1.2l0.4,0.2c0,0.2-0.2,0.6-0.7,1.2c0,0.3,0.3,0.5,1,0.7
			c2.1-0.1,3.5-0.1,4.1-0.1h0.3c0.4,1.5,0.6,3.1,0.7,4.7L434.8,377.4z M429.8,360.2c0.1,0,0.3-0.1,0.4-0.1c1.2,0.1,2.3,0.1,3.2,0.1
			h1.7c0.3,0,0.5,0.5,0.5,1.4v0.1h-0.1c-0.1,0-0.6-0.1-1.5-0.2c-0.3,0-0.7,0.1-0.9,0.3c-0.5,1.9-1.3,3.7-2.4,5.4
			c0,0.4-0.7,0.7-2,0.8c-1.4,0-2.8-0.8-4.2-2.5c0-0.6-0.5-1-1.5-1.3c0.4-1.3,0.7-2,1-2.3c1.5-3.2,2.7-5.4,3.5-6.6
			c0.6,0.1,1.2,0.2,1.7,0.2c0.1,0,0.3-0.1,0.4-0.1l0.3,0.1c1.3-0.1,2-0.1,2.1-0.1c0.4,0,1.4,0,2.9,0.1l0.5-0.1
			c1.2,0.1,2.5,0.2,3.7,0.4c0.8,0,1.2,1.4,1.2,4.1l0.2,0.5c-0.1,0-0.2,0-0.2,0.1c0.1,1,0.2,1.7,0.2,2c0,0.2-0.1,0.4-0.3,0.4
			c0,0-0.1,0-0.1,0h-0.7c-0.4,0-0.7,0-1-0.1c-0.6,0-1-1-1-3l0.2-0.2c0-0.5-0.6-0.9-1.7-1.1h-2.4l-0.7,0.1c0-0.1-0.8-0.1-2.4-0.2
			c-1.3,0.2-1.9,0.5-1.9,0.8v0.3C428.5,359.9,429,360.1,429.8,360.2L429.8,360.2z M447.4,384.8l-2.3-3.5c-0.5-2-1.3-3-2.4-3H440
			c-0.6,0-1.6,0-2.9-0.1c-0.2,0-0.4-2-0.5-5.9c-0.1,0-0.1,0-0.1-0.1c0.1-0.5,0.3-0.7,0.4-0.7h1.6c0.5,0.6,1,1,1.5,1
			c0.7-0.4,1-0.6,1-0.9c-1-1.4-1.5-2.3-1.5-2.8h0.7c0.4,0,1.1-0.3,2-0.8c1.6-0.4,3.2-0.8,4.8-1.1c1,1.3,1.8,2.8,2.4,4.3
			c-2.5,0.6-4.1,1.1-4.8,1.5c-2.1,0.5-3.2,0.9-3.2,1.3v0.2c0.2,0.3,0.4,0.4,0.5,0.4h0.5c0.4,0,0.8-0.1,1.2-0.2
			c1.1-0.5,3.1-1.1,6.3-1.8c0.3,0,0.4,0.2,0.4,0.6c-0.1,0-1.1,0.3-3,1c-3.2,0.9-4.8,1.6-4.8,1.9c0,0.2,0.4,0.4,1.2,0.4
			c0.1,0,0.9-0.2,2.4-0.5c2.5-0.9,4.2-1.3,5.1-1.3h0.2c0.2,0.7,0.5,1.3,0.9,1.8v0.3h-0.4c-0.4,0-0.9,0.2-1.1,0.6v0.8l-0.7,1.7H450
			c-0.7,0-1.8-0.5-3.3-1.4h-1.3l-0.5,0.4v0.1c0,0.4,1.4,1.2,4.2,2.4v0.1c0,0.4-0.5,1.6-1.5,3.3L447.4,384.8z M456.7,385.4
			c-0.2,0-0.3,0-0.3,0.1c-4.2,0.2-6.8,0.4-7.7,0.6c-0.3,0-0.7-0.1-0.9-0.3c0-0.1,0.2-0.2,0.5-0.2c0.7,0,1.5-1,2.2-3h0.5
			c1.8,1.4,2.9,2,3.3,2c0.5,0,0.9-0.2,1.2-0.7v-0.4l-4-2.7v-0.4c0.3-0.8,0.7-1.6,1.2-2.4l0.3,0.1l3.6,6.9L456.7,385.4z M444.3,371.1
			h0.3c0.4-0.2,0.5-0.3,0.5-0.4v-1c0-0.4-0.3-0.7-0.8-0.9c-1-0.1-1.9,0.6-2,1.6c0,0,0,0,0,0C442.3,370.9,442.9,371.1,444.3,371.1
			L444.3,371.1z M434.8,358.5c0.6,0,1.1-0.4,1.6-1.2c-0.2-0.6-0.8-0.9-1.3-0.8c-0.8,0-1.3,0.3-1.6,0.8v0.3
			C433.8,358.1,434.3,358.4,434.8,358.5L434.8,358.5z M430.7,357.1c0-0.3-0.3-0.6-0.9-1h-0.5c-1.2,0.2-1.7,0.6-1.7,1.3
			c0,0.5,0.6,0.9,1.7,1C430.2,357.9,430.7,357.5,430.7,357.1L430.7,357.1z M426.6,361.9c-0.6,0.1-1.2,0.5-1.6,1
			c0,1.1,0.5,1.7,1.5,1.7h0.2c1-0.1,1.5-0.5,1.5-1.1v-0.1C427.9,362.4,427.4,361.9,426.6,361.9L426.6,361.9z M426.6,361.9
			c-0.6,0.1-1.2,0.5-1.6,1c0,1.1,0.5,1.7,1.5,1.7h0.2c1-0.1,1.5-0.5,1.5-1.1v-0.1C427.9,362.4,427.4,361.9,426.6,361.9L426.6,361.9z
			 M429.8,356.1h-0.5c-1.2,0.2-1.7,0.6-1.7,1.3c0,0.5,0.6,0.9,1.7,1c1-0.4,1.5-0.9,1.5-1.3C430.7,356.8,430.4,356.5,429.8,356.1
			L429.8,356.1z M435.1,356.4c-0.8,0-1.3,0.3-1.6,0.8v0.3c0.3,0.5,0.8,0.8,1.3,0.8c0.6,0,1.1-0.4,1.6-1.2
			C436.2,356.7,435.7,356.4,435.1,356.4L435.1,356.4z M444.3,368.8c-1-0.1-1.9,0.6-2,1.6c0,0,0,0,0,0c0,0.4,0.7,0.7,2,0.7h0.3
			c0.4-0.2,0.5-0.3,0.5-0.4v-1C445.1,369.3,444.8,369,444.3,368.8L444.3,368.8z M444.3,368.8c-1-0.1-1.9,0.6-2,1.6c0,0,0,0,0,0
			c0,0.4,0.7,0.7,2,0.7h0.3c0.4-0.2,0.5-0.3,0.5-0.4v-1C445.1,369.3,444.8,369,444.3,368.8L444.3,368.8z M435.1,356.4
			c-0.8,0-1.3,0.3-1.6,0.8v0.3c0.3,0.5,0.8,0.8,1.3,0.8c0.6,0,1.1-0.4,1.6-1.2C436.2,356.7,435.7,356.4,435.1,356.4L435.1,356.4z
			 M429.8,356.1h-0.5c-1.2,0.2-1.7,0.6-1.7,1.3c0,0.5,0.6,0.9,1.7,1c1-0.4,1.5-0.9,1.5-1.3C430.7,356.8,430.4,356.5,429.8,356.1
			L429.8,356.1z M426.6,361.9c-0.6,0.1-1.2,0.5-1.6,1c0,1.1,0.5,1.7,1.5,1.7h0.2c1-0.1,1.5-0.5,1.5-1.1v-0.1
			C427.9,362.4,427.4,361.9,426.6,361.9L426.6,361.9z M426.6,361.9c-0.6,0.1-1.2,0.5-1.6,1c0,1.1,0.5,1.7,1.5,1.7h0.2
			c1-0.1,1.5-0.5,1.5-1.1v-0.1C427.9,362.4,427.4,361.9,426.6,361.9L426.6,361.9z M429.8,356.1h-0.5c-1.2,0.2-1.7,0.6-1.7,1.3
			c0,0.5,0.6,0.9,1.7,1c1-0.4,1.5-0.9,1.5-1.3C430.7,356.8,430.4,356.5,429.8,356.1L429.8,356.1z M435.1,356.4
			c-0.8,0-1.3,0.3-1.6,0.8v0.3c0.3,0.5,0.8,0.8,1.3,0.8c0.6,0,1.1-0.4,1.6-1.2C436.2,356.7,435.7,356.4,435.1,356.4L435.1,356.4z
			 M444.3,368.8c-1-0.1-1.9,0.6-2,1.6c0,0,0,0,0,0c0,0.4,0.7,0.7,2,0.7h0.3c0.4-0.2,0.5-0.3,0.5-0.4v-1
			C445.1,369.3,444.8,369,444.3,368.8L444.3,368.8z M444.3,368.8c-1-0.1-1.9,0.6-2,1.6c0,0,0,0,0,0c0,0.4,0.7,0.7,2,0.7h0.3
			c0.4-0.2,0.5-0.3,0.5-0.4v-1C445.1,369.3,444.8,369,444.3,368.8L444.3,368.8z M435.1,356.4c-0.8,0-1.3,0.3-1.6,0.8v0.3
			c0.3,0.5,0.8,0.8,1.3,0.8c0.6,0,1.1-0.4,1.6-1.2C436.2,356.7,435.7,356.4,435.1,356.4L435.1,356.4z M429.8,356.1h-0.5
			c-1.2,0.2-1.7,0.6-1.7,1.3c0,0.5,0.6,0.9,1.7,1c1-0.4,1.5-0.9,1.5-1.3C430.7,356.8,430.4,356.5,429.8,356.1L429.8,356.1z
			 M426.6,361.9c-0.6,0.1-1.2,0.5-1.6,1c0,1.1,0.5,1.7,1.5,1.7h0.2c1-0.1,1.5-0.5,1.5-1.1v-0.1C427.9,362.4,427.4,361.9,426.6,361.9
			L426.6,361.9z M426.6,361.9c-0.6,0.1-1.2,0.5-1.6,1c0,1.1,0.5,1.7,1.5,1.7h0.2c1-0.1,1.5-0.5,1.5-1.1v-0.1
			C427.9,362.4,427.4,361.9,426.6,361.9L426.6,361.9z M429.8,356.1h-0.5c-1.2,0.2-1.7,0.6-1.7,1.3c0,0.5,0.6,0.9,1.7,1
			c1-0.4,1.5-0.9,1.5-1.3C430.7,356.8,430.4,356.5,429.8,356.1L429.8,356.1z M435.1,356.4c-0.8,0-1.3,0.3-1.6,0.8v0.3
			c0.3,0.5,0.8,0.8,1.3,0.8c0.6,0,1.1-0.4,1.6-1.2C436.2,356.7,435.7,356.4,435.1,356.4L435.1,356.4z M444.3,368.8
			c-1-0.1-1.9,0.6-2,1.6c0,0,0,0,0,0c0,0.4,0.7,0.7,2,0.7h0.3c0.4-0.2,0.5-0.3,0.5-0.4v-1C445.1,369.3,444.8,369,444.3,368.8
			L444.3,368.8z M444.3,368.8c-1-0.1-1.9,0.6-2,1.6c0,0,0,0,0,0c0,0.4,0.7,0.7,2,0.7h0.3c0.4-0.2,0.5-0.3,0.5-0.4v-1
			C445.1,369.3,444.8,369,444.3,368.8L444.3,368.8z M435.1,356.4c-0.8,0-1.3,0.3-1.6,0.8v0.3c0.3,0.5,0.8,0.8,1.3,0.8
			c0.6,0,1.1-0.4,1.6-1.2C436.2,356.7,435.7,356.4,435.1,356.4L435.1,356.4z M429.8,356.1h-0.5c-1.2,0.2-1.7,0.6-1.7,1.3
			c0,0.5,0.6,0.9,1.7,1c1-0.4,1.5-0.9,1.5-1.3C430.7,356.8,430.4,356.5,429.8,356.1L429.8,356.1z M426.6,361.9
			c-0.6,0.1-1.2,0.5-1.6,1c0,1.1,0.5,1.7,1.5,1.7h0.2c1-0.1,1.5-0.5,1.5-1.1v-0.1C427.9,362.4,427.4,361.9,426.6,361.9L426.6,361.9z
			 M426.6,361.9c-0.6,0.1-1.2,0.5-1.6,1c0,1.1,0.5,1.7,1.5,1.7h0.2c1-0.1,1.5-0.5,1.5-1.1v-0.1C427.9,362.4,427.4,361.9,426.6,361.9
			L426.6,361.9z M429.8,356.1h-0.5c-1.2,0.2-1.7,0.6-1.7,1.3c0,0.5,0.6,0.9,1.7,1c1-0.4,1.5-0.9,1.5-1.3
			C430.7,356.8,430.4,356.5,429.8,356.1L429.8,356.1z M435.1,356.4c-0.8,0-1.3,0.3-1.6,0.8v0.3c0.3,0.5,0.8,0.8,1.3,0.8
			c0.6,0,1.1-0.4,1.6-1.2C436.2,356.7,435.7,356.4,435.1,356.4L435.1,356.4z M426.6,361.9c-0.6,0.1-1.2,0.5-1.6,1
			c0,1.1,0.5,1.7,1.5,1.7h0.2c1-0.1,1.5-0.5,1.5-1.1v-0.1C427.9,362.4,427.4,361.9,426.6,361.9L426.6,361.9z M429.8,356.1h-0.5
			c-1.2,0.2-1.7,0.6-1.7,1.3c0,0.5,0.6,0.9,1.7,1c1-0.4,1.5-0.9,1.5-1.3C430.7,356.8,430.4,356.5,429.8,356.1L429.8,356.1z
			 M435.1,356.4c-0.8,0-1.3,0.3-1.6,0.8v0.3c0.3,0.5,0.8,0.8,1.3,0.8c0.6,0,1.1-0.4,1.6-1.2C436.2,356.7,435.7,356.4,435.1,356.4
			L435.1,356.4z M444.3,368.8c-1-0.1-1.9,0.6-2,1.6c0,0,0,0,0,0c0,0.4,0.7,0.7,2,0.7h0.3c0.4-0.2,0.5-0.3,0.5-0.4v-1
			C445.1,369.3,444.8,369,444.3,368.8L444.3,368.8z M444.3,368.8c-1-0.1-1.9,0.6-2,1.6c0,0,0,0,0,0c0,0.4,0.7,0.7,2,0.7h0.3
			c0.4-0.2,0.5-0.3,0.5-0.4v-1C445.1,369.3,444.8,369,444.3,368.8L444.3,368.8z"/>
		<path d="M466.4,382.5c-0.6,0-1.1,0.3-1.4,0.8v1.3c0.3,0.5,0.8,0.8,1.7,0.8h0.2c1-0.4,1.5-0.9,1.5-1.7
			C468,382.9,467.2,382.5,466.4,382.5z M473.2,361H473c-1.3,0.4-1.9,0.8-1.9,1.3c0,0.8,0.6,1.3,1.8,1.5c0.8,0,1.5-0.4,1.9-1v-0.6
			C474.8,361.6,474.3,361.2,473.2,361L473.2,361z M489.5,360.6c-1.4,0.2-2.1,0.8-2.1,1.7v0.1c0.6,0.6,1.2,0.9,1.7,0.9
			c1.5-0.2,2.2-0.8,2.2-1.7C491,360.9,490.4,360.6,489.5,360.6L489.5,360.6z M496.4,383.1c-0.9,0-1.5,0.5-1.7,1.5
			c0.2,0.4,0.7,0.7,1.2,0.7h0.4c0.8,0,1.3-0.5,1.4-1.4v-0.2C497.8,383.3,497.4,383.2,496.4,383.1L496.4,383.1z M489.5,360.6
			c-1.4,0.2-2.1,0.8-2.1,1.7v0.1c0.6,0.6,1.2,0.9,1.7,0.9c1.5-0.2,2.2-0.8,2.2-1.7C491,360.9,490.4,360.6,489.5,360.6L489.5,360.6z
			 M496.4,383.1c-0.9,0-1.5,0.5-1.7,1.5c0.2,0.4,0.7,0.7,1.2,0.7h0.4c0.8,0,1.3-0.5,1.4-1.4v-0.2
			C497.8,383.3,497.4,383.2,496.4,383.1L496.4,383.1z M473.2,361.1H473c-1.3,0.4-1.9,0.8-1.9,1.3c0,0.8,0.6,1.3,1.8,1.5
			c0.8,0,1.5-0.4,1.9-1v-0.6C474.8,361.6,474.3,361.2,473.2,361.1L473.2,361.1z M466.4,382.5c-0.6,0-1.1,0.3-1.4,0.8v1.3
			c0.3,0.5,0.8,0.8,1.7,0.8h0.2c1-0.4,1.5-0.9,1.5-1.7C468,382.9,467.2,382.5,466.4,382.5z M466.4,382.5c-0.6,0-1.1,0.3-1.4,0.8v1.3
			c0.3,0.5,0.8,0.8,1.7,0.8h0.2c1-0.4,1.5-0.9,1.5-1.7C468,382.9,467.2,382.5,466.4,382.5z M473.2,361H473c-1.3,0.4-1.9,0.8-1.9,1.3
			c0,0.8,0.6,1.3,1.8,1.5c0.8,0,1.5-0.4,1.9-1v-0.6C474.8,361.6,474.3,361.2,473.2,361L473.2,361z M489.5,360.6
			c-1.4,0.2-2.1,0.8-2.1,1.7v0.1c0.6,0.6,1.2,0.9,1.7,0.9c1.5-0.2,2.2-0.8,2.2-1.7C491,360.9,490.4,360.6,489.5,360.6L489.5,360.6z
			 M496.4,383.1c-0.9,0-1.5,0.5-1.7,1.5c0.2,0.4,0.7,0.7,1.2,0.7h0.4c0.8,0,1.3-0.5,1.4-1.4v-0.2
			C497.8,383.3,497.4,383.2,496.4,383.1L496.4,383.1z M489.5,360.6c-1.4,0.2-2.1,0.8-2.1,1.7v0.1c0.6,0.6,1.2,0.9,1.7,0.9
			c1.5-0.2,2.2-0.8,2.2-1.7C491,360.9,490.4,360.6,489.5,360.6L489.5,360.6z M496.4,383.1c-0.9,0-1.5,0.5-1.7,1.5
			c0.2,0.4,0.7,0.7,1.2,0.7h0.4c0.8,0,1.3-0.5,1.4-1.4v-0.2C497.8,383.3,497.4,383.2,496.4,383.1L496.4,383.1z M473.2,361.1H473
			c-1.3,0.4-1.9,0.8-1.9,1.3c0,0.8,0.6,1.3,1.8,1.5c0.8,0,1.5-0.4,1.9-1v-0.6C474.8,361.6,474.3,361.2,473.2,361.1L473.2,361.1z
			 M466.4,382.5c-0.6,0-1.1,0.3-1.4,0.8v1.3c0.3,0.5,0.8,0.8,1.7,0.8h0.2c1-0.4,1.5-0.9,1.5-1.7C468,382.9,467.2,382.5,466.4,382.5z
			 M466.4,382.5c-0.6,0-1.1,0.3-1.4,0.8v1.3c0.3,0.5,0.8,0.8,1.7,0.8h0.2c1-0.4,1.5-0.9,1.5-1.7C468,382.9,467.2,382.5,466.4,382.5z
			 M473.2,361H473c-1.3,0.4-1.9,0.8-1.9,1.3c0,0.8,0.6,1.3,1.8,1.5c0.8,0,1.5-0.4,1.9-1v-0.6C474.8,361.6,474.3,361.2,473.2,361
			L473.2,361z M489.5,360.6c-1.4,0.2-2.1,0.8-2.1,1.7v0.1c0.6,0.6,1.2,0.9,1.7,0.9c1.5-0.2,2.2-0.8,2.2-1.7
			C491,360.9,490.4,360.6,489.5,360.6L489.5,360.6z M496.4,383.1c-0.9,0-1.5,0.5-1.7,1.5c0.2,0.4,0.7,0.7,1.2,0.7h0.4
			c0.8,0,1.3-0.5,1.4-1.4v-0.2C497.8,383.3,497.4,383.2,496.4,383.1L496.4,383.1z M489.5,360.6c-1.4,0.2-2.1,0.8-2.1,1.7v0.1
			c0.6,0.6,1.2,0.9,1.7,0.9c1.5-0.2,2.2-0.8,2.2-1.7C491,360.9,490.4,360.6,489.5,360.6L489.5,360.6z M496.4,383.1
			c-0.9,0-1.5,0.5-1.7,1.5c0.2,0.4,0.7,0.7,1.2,0.7h0.4c0.8,0,1.3-0.5,1.4-1.4v-0.2C497.8,383.3,497.4,383.2,496.4,383.1
			L496.4,383.1z M473.2,361.1H473c-1.3,0.4-1.9,0.8-1.9,1.3c0,0.8,0.6,1.3,1.8,1.5c0.8,0,1.5-0.4,1.9-1v-0.6
			C474.8,361.6,474.3,361.2,473.2,361.1L473.2,361.1z M466.4,382.5c-0.6,0-1.1,0.3-1.4,0.8v1.3c0.3,0.5,0.8,0.8,1.7,0.8h0.2
			c1-0.4,1.5-0.9,1.5-1.7C468,382.9,467.2,382.5,466.4,382.5z M466.4,382.5c-0.6,0-1.1,0.3-1.4,0.8v1.3c0.3,0.5,0.8,0.8,1.7,0.8h0.2
			c1-0.4,1.5-0.9,1.5-1.7C468,382.9,467.2,382.5,466.4,382.5z M473.2,361H473c-1.3,0.4-1.9,0.8-1.9,1.3c0,0.8,0.6,1.3,1.8,1.5
			c0.8,0,1.5-0.4,1.9-1v-0.6C474.8,361.6,474.3,361.2,473.2,361L473.2,361z M489.5,360.6c-1.4,0.2-2.1,0.8-2.1,1.7v0.1
			c0.6,0.6,1.2,0.9,1.7,0.9c1.5-0.2,2.2-0.8,2.2-1.7C491,360.9,490.4,360.6,489.5,360.6L489.5,360.6z M496.4,383.1
			c-0.9,0-1.5,0.5-1.7,1.5c0.2,0.4,0.7,0.7,1.2,0.7h0.4c0.8,0,1.3-0.5,1.4-1.4v-0.2C497.8,383.3,497.4,383.2,496.4,383.1
			L496.4,383.1z M489.5,360.6c-1.4,0.2-2.1,0.8-2.1,1.7v0.1c0.6,0.6,1.2,0.9,1.7,0.9c1.5-0.2,2.2-0.8,2.2-1.7
			C491,360.9,490.4,360.6,489.5,360.6L489.5,360.6z M496.4,383.1c-0.9,0-1.5,0.5-1.7,1.5c0.2,0.4,0.7,0.7,1.2,0.7h0.4
			c0.8,0,1.3-0.5,1.4-1.4v-0.2C497.8,383.3,497.4,383.2,496.4,383.1L496.4,383.1z M473.2,361.1H473c-1.3,0.4-1.9,0.8-1.9,1.3
			c0,0.8,0.6,1.3,1.8,1.5c0.8,0,1.5-0.4,1.9-1v-0.6C474.8,361.6,474.3,361.2,473.2,361.1L473.2,361.1z M466.4,382.5
			c-0.6,0-1.1,0.3-1.4,0.8v1.3c0.3,0.5,0.8,0.8,1.7,0.8h0.2c1-0.4,1.5-0.9,1.5-1.7C468,382.9,467.2,382.5,466.4,382.5z M466.4,382.5
			c-0.6,0-1.1,0.3-1.4,0.8v1.3c0.3,0.5,0.8,0.8,1.7,0.8h0.2c1-0.4,1.5-0.9,1.5-1.7C468,382.9,467.2,382.5,466.4,382.5z M473.2,361
			H473c-1.3,0.4-1.9,0.8-1.9,1.3c0,0.8,0.6,1.3,1.8,1.5c0.8,0,1.5-0.4,1.9-1v-0.6C474.8,361.6,474.3,361.2,473.2,361L473.2,361z
			 M489.5,360.6c-1.4,0.2-2.1,0.8-2.1,1.7v0.1c0.6,0.6,1.2,0.9,1.7,0.9c1.5-0.2,2.2-0.8,2.2-1.7C491,360.9,490.4,360.6,489.5,360.6
			L489.5,360.6z M496.4,383.1c-0.9,0-1.5,0.5-1.7,1.5c0.2,0.4,0.7,0.7,1.2,0.7h0.4c0.8,0,1.3-0.5,1.4-1.4v-0.2
			C497.8,383.3,497.4,383.2,496.4,383.1L496.4,383.1z M489.5,360.6c-1.4,0.2-2.1,0.8-2.1,1.7v0.1c0.6,0.6,1.2,0.9,1.7,0.9
			c1.5-0.2,2.2-0.8,2.2-1.7C491,360.9,490.4,360.6,489.5,360.6L489.5,360.6z M496.4,383.1c-0.9,0-1.5,0.5-1.7,1.5
			c0.2,0.4,0.7,0.7,1.2,0.7h0.4c0.8,0,1.3-0.5,1.4-1.4v-0.2C497.8,383.3,497.4,383.2,496.4,383.1L496.4,383.1z M473.2,361.1H473
			c-1.3,0.4-1.9,0.8-1.9,1.3c0,0.8,0.6,1.3,1.8,1.5c0.8,0,1.5-0.4,1.9-1v-0.6C474.8,361.6,474.3,361.2,473.2,361.1L473.2,361.1z
			 M466.4,382.5c-0.6,0-1.1,0.3-1.4,0.8v1.3c0.3,0.5,0.8,0.8,1.7,0.8h0.2c1-0.4,1.5-0.9,1.5-1.7C468,382.9,467.2,382.5,466.4,382.5z
			 M466.4,382.5c-0.6,0-1.1,0.3-1.4,0.8v1.3c0.3,0.5,0.8,0.8,1.7,0.8h0.2c1-0.4,1.5-0.9,1.5-1.7C468,382.9,467.2,382.5,466.4,382.5z
			 M473.2,361H473c-1.3,0.4-1.9,0.8-1.9,1.3c0,0.8,0.6,1.3,1.8,1.5c0.8,0,1.5-0.4,1.9-1v-0.6C474.8,361.6,474.3,361.2,473.2,361
			L473.2,361z M489.5,360.6c-1.4,0.2-2.1,0.8-2.1,1.7v0.1c0.6,0.6,1.2,0.9,1.7,0.9c1.5-0.2,2.2-0.8,2.2-1.7
			C491,360.9,490.4,360.6,489.5,360.6L489.5,360.6z M496.4,383.1c-0.9,0-1.5,0.5-1.7,1.5c0.2,0.4,0.7,0.7,1.2,0.7h0.4
			c0.8,0,1.3-0.5,1.4-1.4v-0.2C497.8,383.3,497.4,383.2,496.4,383.1L496.4,383.1z M489.5,360.6c-1.4,0.2-2.1,0.8-2.1,1.7v0.1
			c0.6,0.6,1.2,0.9,1.7,0.9c1.5-0.2,2.2-0.8,2.2-1.7C491,360.9,490.4,360.6,489.5,360.6L489.5,360.6z M496.4,383.1
			c-0.9,0-1.5,0.5-1.7,1.5c0.2,0.4,0.7,0.7,1.2,0.7h0.4c0.8,0,1.3-0.5,1.4-1.4v-0.2C497.8,383.3,497.4,383.2,496.4,383.1
			L496.4,383.1z M473.2,361.1H473c-1.3,0.4-1.9,0.8-1.9,1.3c0,0.8,0.6,1.3,1.8,1.5c0.8,0,1.5-0.4,1.9-1v-0.6
			C474.8,361.6,474.3,361.2,473.2,361.1L473.2,361.1z M466.4,382.5c-0.6,0-1.1,0.3-1.4,0.8v1.3c0.3,0.5,0.8,0.8,1.7,0.8h0.2
			c1-0.4,1.5-0.9,1.5-1.7C468,382.9,467.2,382.5,466.4,382.5z M466.4,382.5c-0.6,0-1.1,0.3-1.4,0.8v1.3c0.3,0.5,0.8,0.8,1.7,0.8h0.2
			c1-0.4,1.5-0.9,1.5-1.7C468,382.9,467.2,382.5,466.4,382.5z M473.2,361H473c-1.3,0.4-1.9,0.8-1.9,1.3c0,0.8,0.6,1.3,1.8,1.5
			c0.8,0,1.5-0.4,1.9-1v-0.6C474.8,361.6,474.3,361.2,473.2,361L473.2,361z M489.5,360.6c-1.4,0.2-2.1,0.8-2.1,1.7v0.1
			c0.6,0.6,1.2,0.9,1.7,0.9c1.5-0.2,2.2-0.8,2.2-1.7C491,360.9,490.4,360.6,489.5,360.6L489.5,360.6z M496.4,383.1
			c-0.9,0-1.5,0.5-1.7,1.5c0.2,0.4,0.7,0.7,1.2,0.7h0.4c0.8,0,1.3-0.5,1.4-1.4v-0.2C497.8,383.3,497.4,383.2,496.4,383.1
			L496.4,383.1z M489.5,360.6c-1.4,0.2-2.1,0.8-2.1,1.7v0.1c0.6,0.6,1.2,0.9,1.7,0.9c1.5-0.2,2.2-0.8,2.2-1.7
			C491,360.9,490.4,360.6,489.5,360.6L489.5,360.6z M496.4,383.1c-0.9,0-1.5,0.5-1.7,1.5c0.2,0.4,0.7,0.7,1.2,0.7h0.4
			c0.8,0,1.3-0.5,1.4-1.4v-0.2C497.8,383.3,497.4,383.2,496.4,383.1L496.4,383.1z M473.2,361.1H473c-1.3,0.4-1.9,0.8-1.9,1.3
			c0,0.8,0.6,1.3,1.8,1.5c0.8,0,1.5-0.4,1.9-1v-0.6C474.8,361.6,474.3,361.2,473.2,361.1L473.2,361.1z M466.4,382.5
			c-0.6,0-1.1,0.3-1.4,0.8v1.3c0.3,0.5,0.8,0.8,1.7,0.8h0.2c1-0.4,1.5-0.9,1.5-1.7C468,382.9,467.2,382.5,466.4,382.5z M466.4,382.5
			c-0.6,0-1.1,0.3-1.4,0.8v1.3c0.3,0.5,0.8,0.8,1.7,0.8h0.2c1-0.4,1.5-0.9,1.5-1.7C468,382.9,467.2,382.5,466.4,382.5z M473.2,361
			H473c-1.3,0.4-1.9,0.8-1.9,1.3c0,0.8,0.6,1.3,1.8,1.5c0.8,0,1.5-0.4,1.9-1v-0.6C474.8,361.6,474.3,361.2,473.2,361L473.2,361z
			 M489.5,360.6c-1.4,0.2-2.1,0.8-2.1,1.7v0.1c0.6,0.6,1.2,0.9,1.7,0.9c1.5-0.2,2.2-0.8,2.2-1.7C491,360.9,490.4,360.6,489.5,360.6
			L489.5,360.6z M496.4,383.1c-0.9,0-1.5,0.5-1.7,1.5c0.2,0.4,0.7,0.7,1.2,0.7h0.4c0.8,0,1.3-0.5,1.4-1.4v-0.2
			C497.8,383.3,497.4,383.2,496.4,383.1L496.4,383.1z M489.5,360.6c-1.4,0.2-2.1,0.8-2.1,1.7v0.1c0.6,0.6,1.2,0.9,1.7,0.9
			c1.5-0.2,2.2-0.8,2.2-1.7C491,360.9,490.4,360.6,489.5,360.6L489.5,360.6z M496.4,383.1c-0.9,0-1.5,0.5-1.7,1.5
			c0.2,0.4,0.7,0.7,1.2,0.7h0.4c0.8,0,1.3-0.5,1.4-1.4v-0.2C497.8,383.3,497.4,383.2,496.4,383.1L496.4,383.1z M473.2,361.1H473
			c-1.3,0.4-1.9,0.8-1.9,1.3c0,0.8,0.6,1.3,1.8,1.5c0.8,0,1.5-0.4,1.9-1v-0.6C474.8,361.6,474.3,361.2,473.2,361.1L473.2,361.1z
			 M466.4,382.5c-0.6,0-1.1,0.3-1.4,0.8v1.3c0.3,0.5,0.8,0.8,1.7,0.8h0.2c1-0.4,1.5-0.9,1.5-1.7C468,382.9,467.2,382.5,466.4,382.5z
			 M466.4,382.5c-0.6,0-1.1,0.3-1.4,0.8v1.3c0.3,0.5,0.8,0.8,1.7,0.8h0.2c1-0.4,1.5-0.9,1.5-1.7C468,382.9,467.2,382.5,466.4,382.5z
			 M473.2,361H473c-1.3,0.4-1.9,0.8-1.9,1.3c0,0.8,0.6,1.3,1.8,1.5c0.8,0,1.5-0.4,1.9-1v-0.6C474.8,361.6,474.3,361.2,473.2,361
			L473.2,361z M489.5,360.6c-1.4,0.2-2.1,0.8-2.1,1.7v0.1c0.6,0.6,1.2,0.9,1.7,0.9c1.5-0.2,2.2-0.8,2.2-1.7
			C491,360.9,490.4,360.6,489.5,360.6L489.5,360.6z M496.4,383.1c-0.9,0-1.5,0.5-1.7,1.5c0.2,0.4,0.7,0.7,1.2,0.7h0.4
			c0.8,0,1.3-0.5,1.4-1.4v-0.2C497.8,383.3,497.4,383.2,496.4,383.1L496.4,383.1z M489.5,360.6c-1.4,0.2-2.1,0.8-2.1,1.7v0.1
			c0.6,0.6,1.2,0.9,1.7,0.9c1.5-0.2,2.2-0.8,2.2-1.7C491,360.9,490.4,360.6,489.5,360.6L489.5,360.6z M496.4,383.1
			c-0.9,0-1.5,0.5-1.7,1.5c0.2,0.4,0.7,0.7,1.2,0.7h0.4c0.8,0,1.3-0.5,1.4-1.4v-0.2C497.8,383.3,497.4,383.2,496.4,383.1
			L496.4,383.1z M473.2,361.1H473c-1.3,0.4-1.9,0.8-1.9,1.3c0,0.8,0.6,1.3,1.8,1.5c0.8,0,1.5-0.4,1.9-1v-0.6
			C474.8,361.6,474.3,361.2,473.2,361.1L473.2,361.1z M466.4,382.5c-0.6,0-1.1,0.3-1.4,0.8v1.3c0.3,0.5,0.8,0.8,1.7,0.8h0.2
			c1-0.4,1.5-0.9,1.5-1.7C468,382.9,467.2,382.5,466.4,382.5z M501.8,363.8c0.2-2.6,0.4-7.2,0.7-14l-0.3-1.7l0.1-0.2l-0.1-0.6
			l0.1-0.8c0.1-0.9-0.5-1.8-1.4-2.2h-0.7l-0.4,0.2l-9.9,9.2c-2,1.8-4.4,4.2-7.3,7.1c-0.9,1.1-1.4,1.7-1.5,1.7H481l-2.8-3l-6.4-7.9
			c-2-2.7-4.3-5.1-6.8-7.3c-0.9-0.4-1.7-0.9-2.5-1.6h-0.4l-1.1,0.7c0,0.3,0.1,0.6,0.2,0.9l-0.2,1l0.3,1l-0.3,7.4
			c0.1,0.4,0.1,0.8,0.2,1.3c-0.1,2.7-0.2,4.5-0.2,5.5l0.2,0.6c-0.1,0-0.2,0-0.2,0.1c0.1,0.5,0.1,1,0.2,1.6v3.2l0.1,0.8
			c-0.1,0-0.1,0.1-0.1,0.4v0.1c0,0.2,0,0.3,0.1,0.4l-0.1,0.2c0.1,0.9,0.1,1.5,0.1,1.6c0,0.2,0,0.3-0.1,0.4c0.1,0.1,0.1,0.3,0.1,0.4
			v0.8c0,0.4,0,0.8-0.1,1.1c0.1,0.3,0.1,0.7,0.1,1v1.3l0.2,0.2h-0.2c0,0.3,0,1.1,0.2,2.4c0,0.2-0.1,0.3-0.2,0.4l0.2,0.7v2.3
			c0,0.7-0.1,1.4-0.2,2.1c0.1,0.1,0.2,0.3,0.2,0.5c-0.1,0.5-0.2,1-0.3,1.5c0,0.1,0.1,0.8,0.3,2.2l1.1,0.6l0.7-0.1h3.6l1,0.1
			c0-0.1,0.1-0.1,0.2-0.1l1.7,0.1c0.3,0,0.7,0,1-0.1c0.1,0.1,0.3,0.1,0.4,0.1h0.3c0.5,0,1-0.6,1.4-1.8c-0.1-0.7-0.1-1.4-0.2-2.1
			v-2.6l0.2-0.6c-0.1,0-0.2-0.1-0.2-0.3V380c0-1,0.1-2,0.2-3.2l-0.2-0.4c0.1-0.3,0.2-0.6,0.2-0.9v-0.7l-0.2-0.3h0.2
			c0-0.2,0-0.5-0.2-0.7c0-0.1,0.1-0.4,0.2-0.9c0-0.9-0.1-2.3-0.3-3.9l0.3-0.1h0.2c5.3,5.1,8.1,7.7,8.3,7.7h0.2
			c0.6-0.3,1.2-0.5,1.8-0.7c0.1,0,0.8-0.7,2.2-2.1c2.1-2.4,4-4.4,5.7-6.2h0.1v0.7c0,0.6,0,1.2,0.2,1.8c-0.1,0.7-0.2,1.4-0.2,2.1v3.4
			l0.2,0.6c-0.1,0-0.2,0.1-0.2,0.3v0.1c0,0.7,0.1,1.3,0.2,2l-0.2,0.5c0.1,0.3,0.2,0.6,0.2,0.9v0.2l-0.2,1.1c0.1,0,0.2,0,0.2,0.1
			c-0.1,0-0.2,0-0.2,0.1v0.4c0,0.2,0.1,0.3,0.2,0.5l-0.3,1c0.1,0.2,0.1,1.2,0.1,2.9c0,0.4,0.3,0.8,1,1.1h1.3c0.6,0,1.3,0,2.1,0.1
			c1.1-0.1,2.1-0.2,3.2-0.2c1.7,0,2.7-0.3,3-1v-2.2c0-0.2,0-0.3,0.2-0.5c-0.1-0.1-0.2-0.3-0.2-0.4v-3.3c0-0.3,0.1-0.7,0.2-1
			c-0.1-0.1-0.2-0.3-0.2-0.8v-1.1c0-0.2,0-0.3-0.1-0.4l0.1-0.3c0.1-2.7,0.2-4.8,0.2-6.3v-1.7l0.2-1.3c-0.1,0-0.2,0-0.2-0.1
			c0.1-0.3,0.1-0.7,0.2-1v-0.4l-0.2-0.6c0.1,0,0.2-0.1,0.2-0.3v-0.1l-0.2-0.2h0.2C502,364.2,502,364,501.8,363.8L501.8,363.8z
			 M463.6,349.8v-1.1c0-0.3,0.1-0.7,0.2-1c-0.1-0.1-0.2-0.3-0.2-0.8v-0.8c0.6,0.4,2,1.8,4.2,4.3v0.2l-0.7,0.6
			c-1.5,0.5-2.2,1.6-2.2,3c0.4,1.6,1.1,2.5,2.2,2.5h0.7c0.5,0,0.7-0.1,0.9-0.3V356c-0.9-0.6-1.3-1.1-1.3-1.4v-0.4
			c0-0.8,0.5-1.5,1.5-2.1h0.3l2.5,3.1v0.3c-0.4,0.3-0.7,0.9-0.8,1.7c-0.7,1.6-1.7,2.5-3.2,2.5c-1.6-0.4-2.4-0.7-2.4-1.1
			c-0.8,0-1.4-1.6-1.8-4.9C463.6,352.2,463.7,350.9,463.6,349.8L463.6,349.8z M463.6,367.7c0.1-0.4,0.2-0.7,0.2-1.1
			c0.1,0,0.3,0,0.4-0.1c1.8,0,3.5,0.1,5.3,0.3c0.4,0,0.6,0.3,0.6,0.8v2.5c0,0.1-0.3,0.2-0.9,0.3c-2.2-0.1-3.9-0.2-5.3-0.2
			c-0.1,0-0.2-0.1-0.3-0.3c0-0.2,0.1-0.5,0.2-0.7C463.8,368.6,463.7,368.1,463.6,367.7L463.6,367.7z M464,371.5
			c3.1,0.1,4.8,0.2,5.3,0.3v0.1h-0.1c-0.5,0.7-1.1,1.3-1.7,1.9c-1.3-0.4-2.5-0.9-3.7-1.6v-0.5L464,371.5z M466,375v0.2
			c-0.6,0.5-1.1,1-1.8,1.5H464c-0.1-0.6-0.1-1.3-0.2-1.9V374l0.2-0.2C464.7,374.1,465.4,374.5,466,375L466,375z M470,385.1
			c0,0.5-0.1,0.8-0.4,0.9h-4.8c-0.6,0-1-0.3-1-0.9c0.1-0.7,0.1-1.5,0.2-2.3v-1.2c0-0.2,0.4-0.3,1.2-0.3c0.9,0.1,1.7,0.1,2.5,0.1h0.5
			l1-0.1c0.6,0.1,0.9,0.4,0.9,0.8L470,385.1z M465.6,380c-1.2,0-1.8-0.1-1.8-0.3v-0.9c0-0.2,0.1-0.3,0.2-0.4
			c1.3-0.6,2.5-1.4,3.6-2.3c0.5,0.5,1,0.9,1.7,1.3c0.6,0,1,0.7,1,2.3C470.2,379.9,468.7,380,465.6,380z M470.2,375.8h-0.3
			c-0.7-0.4-1.1-0.7-1.1-0.8v-0.1c0.8-0.9,1.3-1.3,1.3-1.5h0.1V375.8z M470.2,372.2h-0.4v-0.3c0.1,0.1,0.3,0.1,0.4,0.1V372.2z
			 M474.9,367.7c-1.1-0.8-2.1-1.7-3.1-2.6c-0.6,0.1-1.2,0.2-1.8,0.3c0-0.2-2.1-0.3-6.3-0.3l-0.2-0.6v-0.8c0-1,0-2.1-0.1-3.5
			c0.1-0.1,0.1-0.2,0.1-0.3h0.3c1.4,0.8,2.4,1.1,3.1,1.1c1.1,0,2.2-0.1,3.3-0.4c1.9-1,2.9-2,2.9-2.9h0.3l0.3,0.1
			c1.2,1.7,2.4,3.1,3.5,4.3c-0.4,1.2-0.7,1.8-0.8,1.8C475.6,366.4,475.1,367.6,474.9,367.7L474.9,367.7z M480.2,372.2
			c0,0.2-0.1,0.2-0.3,0.2l-1.8-1.8c-1.1-0.9-1.7-1.5-1.7-1.7c0-0.2,0.6-1.9,1.9-5.2h0.3c1,0.8,1.5,1.4,1.5,1.9L480.2,372.2z
			 M482.1,373.8H482v-6.4c0-0.5,0-1.3-0.2-2.3c0.7-0.6,1.1-1,1.1-1.1h0.3c0.7,0.4,1.7,2.3,2.8,5.7
			C483.9,372.1,482.6,373.5,482.1,373.8L482.1,373.8z M493.4,372.3v-0.7h1.4l1.4,0.1c0-0.1,0-0.1,0.1-0.1l2.1,0.3
			c-0.7,1-1.3,1.5-1.7,1.7h-0.2l-1.5-0.9C493.9,372.6,493.4,372.4,493.4,372.3L493.4,372.3z M495.3,375c-0.5,0.6-1.1,1.1-1.7,1.6
			h-0.2v-2.9C494.7,374.3,495.3,374.7,495.3,375L495.3,375z M499.3,385.8l-0.3,0.3l-2.2-0.1c-1.9,0.1-2.9,0.1-3.1,0.1l-0.3-0.1
			c0-0.3,0.1-0.6,0.2-0.9l-0.2-0.7c0-0.2,0.1-0.4,0.2-0.7l-0.2-0.8c0.1-0.4,0.2-0.7,0.2-1.1c1.8,0,3.6,0,5.3,0.1h0.3v2l0.1,1.1
			c-0.1,0-0.1,0.1-0.1,0.2L499.3,385.8z M499.3,379.8c0,0.2-0.1,0.5-0.3,0.7l-0.7-0.1h-2.5l-0.4-0.2h-1.8c0-0.1-0.1-0.6-0.2-1.4
			l0.2-0.7c0.5-0.1,1.5-0.8,2.8-1.9h0.4c0.6,1,1.4,1.4,2.4,1.4c0.1,0.8,0.1,1.3,0.1,1.7L499.3,379.8z M499.2,375.7h-0.2
			c-0.1,0-0.3-0.3-0.8-0.8v-0.1c0-0.4,0.4-0.8,1.1-1.5h0.2C499.4,374.2,499.4,375,499.2,375.7L499.2,375.7z M499.5,367.9
			c0,0.5-0.1,1-0.2,1.6c0.1,0.1,0.2,0.3,0.2,0.4l-0.2,0.5c-1,0-2.5-0.1-4.6-0.2c-0.4,0.1-0.7,0.1-1.1,0.1l-0.3-0.3v-0.1
			c0-0.9-0.1-1.9-0.2-3.3l0.2-0.2c0-0.1,1.3-0.2,3.8-0.2c0.8,0.2,1.6,0.3,2.4,0.3L499.5,367.9z M499.6,360.9l-0.1,0.6
			c0.1,0,0.1,0,0.1,0.1l-0.1,0.7v2.5l-0.2,0.2l-2.2-0.3l-3.4,0.2c0-0.4-0.4-0.7-1.1-1l-1.1,0.2l-3.6,3.8h-0.5
			c-0.1-0.6-0.3-1.1-0.5-1.6c-1-2.2-1.7-3.4-2.2-3.7c0-0.4,0.7-1.2,2-2.4c2-1.9,3-2.9,3.2-2.9c0.1,0,0.2,0.1,0.2,0.3
			c1,2.3,2.9,3.4,5.6,3.4h1.2c0.9,0,1.9-0.4,2.9-1.3V360.9z M499.9,352.8l-0.2,1.1c0.1,0,0.2,0,0.2,0.1l-0.2,0.7v1.5
			c0,0.2-0.3,0.3-1,0.4c-0.8,1.8-1.6,2.7-2.6,2.7l-1.4-0.1c-1.9-0.6-2.8-1.5-2.8-2.9l0.1-0.4c-0.1,0-0.2-0.1-0.4-0.4v-0.1
			c0.3-0.5,0.7-0.9,1.2-1.3c0.8-1,1.7-1.6,2.8-1.6c0.3,0.3,0.5,0.8,0.5,1.3c-0.1,0.5-0.3,1-0.5,1.4c-1.4,0.4-2.1,0.7-2.1,0.9v0.2
			c0,0.2,0.6,0.3,1.7,0.3c1.1-0.1,1.7-0.2,1.7-0.4c0.7,0,1.3-0.7,1.8-2v-0.9c0-1.1-0.8-1.8-2.5-2.2c1.1-1.3,2.2-2.4,3.5-3.5l0.2,1.1
			L499.9,352.8z M496.4,383.1c-0.9,0-1.5,0.5-1.7,1.5c0.2,0.4,0.7,0.7,1.2,0.7h0.4c0.8,0,1.3-0.5,1.4-1.4v-0.2
			C497.8,383.3,497.4,383.2,496.4,383.1L496.4,383.1z M489.5,360.6c-1.4,0.2-2.1,0.8-2.1,1.7v0.1c0.6,0.6,1.2,0.9,1.7,0.9
			c1.5-0.2,2.2-0.8,2.2-1.7C491,360.9,490.4,360.6,489.5,360.6L489.5,360.6z M473.2,361H473c-1.3,0.4-1.9,0.8-1.9,1.3
			c0,0.8,0.6,1.3,1.8,1.5c0.8,0,1.5-0.4,1.9-1v-0.6C474.8,361.6,474.3,361.2,473.2,361L473.2,361z M466.4,382.5
			c-0.6,0-1.1,0.3-1.4,0.8v1.3c0.3,0.5,0.8,0.8,1.7,0.8h0.2c1-0.4,1.5-0.9,1.5-1.7C468,382.9,467.2,382.5,466.4,382.5z M466.4,382.5
			c-0.6,0-1.1,0.3-1.4,0.8v1.3c0.3,0.5,0.8,0.8,1.7,0.8h0.2c1-0.4,1.5-0.9,1.5-1.7C468,382.9,467.2,382.5,466.4,382.5z M473.2,361
			H473c-1.3,0.4-1.9,0.8-1.9,1.3c0,0.8,0.6,1.3,1.8,1.5c0.8,0,1.5-0.4,1.9-1v-0.6C474.8,361.6,474.3,361.2,473.2,361L473.2,361z
			 M496.4,383.1c-0.9,0-1.5,0.5-1.7,1.5c0.2,0.4,0.7,0.7,1.2,0.7h0.4c0.8,0,1.3-0.5,1.4-1.4v-0.2
			C497.8,383.3,497.4,383.2,496.4,383.1L496.4,383.1z M489.5,360.6c-1.4,0.2-2.1,0.8-2.1,1.7v0.1c0.6,0.6,1.2,0.9,1.7,0.9
			c1.5-0.2,2.2-0.8,2.2-1.7C491,360.9,490.4,360.6,489.5,360.6L489.5,360.6z M496.4,383.1c-0.9,0-1.5,0.5-1.7,1.5
			c0.2,0.4,0.7,0.7,1.2,0.7h0.4c0.8,0,1.3-0.5,1.4-1.4v-0.2C497.8,383.3,497.4,383.2,496.4,383.1L496.4,383.1z M489.5,360.6
			c-1.4,0.2-2.1,0.8-2.1,1.7v0.1c0.6,0.6,1.2,0.9,1.7,0.9c1.5-0.2,2.2-0.8,2.2-1.7C491,360.9,490.4,360.6,489.5,360.6L489.5,360.6z
			 M473.2,361H473c-1.3,0.4-1.9,0.8-1.9,1.3c0,0.8,0.6,1.3,1.8,1.5c0.8,0,1.5-0.4,1.9-1v-0.6C474.8,361.6,474.3,361.2,473.2,361
			L473.2,361z M466.4,382.5c-0.6,0-1.1,0.3-1.4,0.8v1.3c0.3,0.5,0.8,0.8,1.7,0.8h0.2c1-0.4,1.5-0.9,1.5-1.7
			C468,382.9,467.2,382.5,466.4,382.5z M466.4,382.5c-0.6,0-1.1,0.3-1.4,0.8v1.3c0.3,0.5,0.8,0.8,1.7,0.8h0.2c1-0.4,1.5-0.9,1.5-1.7
			C468,382.9,467.2,382.5,466.4,382.5z M473.2,361H473c-1.3,0.4-1.9,0.8-1.9,1.3c0,0.8,0.6,1.3,1.8,1.5c0.8,0,1.5-0.4,1.9-1v-0.6
			C474.8,361.6,474.3,361.2,473.2,361L473.2,361z M496.4,383.1c-0.9,0-1.5,0.5-1.7,1.5c0.2,0.4,0.7,0.7,1.2,0.7h0.4
			c0.8,0,1.3-0.5,1.4-1.4v-0.2C497.8,383.3,497.4,383.2,496.4,383.1L496.4,383.1z M489.5,360.6c-1.4,0.2-2.1,0.8-2.1,1.7v0.1
			c0.6,0.6,1.2,0.9,1.7,0.9c1.5-0.2,2.2-0.8,2.2-1.7C491,360.9,490.4,360.6,489.5,360.6L489.5,360.6z M496.4,383.1
			c-0.9,0-1.5,0.5-1.7,1.5c0.2,0.4,0.7,0.7,1.2,0.7h0.4c0.8,0,1.3-0.5,1.4-1.4v-0.2C497.8,383.3,497.4,383.2,496.4,383.1
			L496.4,383.1z M489.5,360.6c-1.4,0.2-2.1,0.8-2.1,1.7v0.1c0.6,0.6,1.2,0.9,1.7,0.9c1.5-0.2,2.2-0.8,2.2-1.7
			C491,360.9,490.4,360.6,489.5,360.6L489.5,360.6z M473.2,361H473c-1.3,0.4-1.9,0.8-1.9,1.3c0,0.8,0.6,1.3,1.8,1.5
			c0.8,0,1.5-0.4,1.9-1v-0.6C474.8,361.6,474.3,361.2,473.2,361L473.2,361z M466.4,382.5c-0.6,0-1.1,0.3-1.4,0.8v1.3
			c0.3,0.5,0.8,0.8,1.7,0.8h0.2c1-0.4,1.5-0.9,1.5-1.7C468,382.9,467.2,382.5,466.4,382.5z M466.4,382.5c-0.6,0-1.1,0.3-1.4,0.8v1.3
			c0.3,0.5,0.8,0.8,1.7,0.8h0.2c1-0.4,1.5-0.9,1.5-1.7C468,382.9,467.2,382.5,466.4,382.5z M473.2,361H473c-1.3,0.4-1.9,0.8-1.9,1.3
			c0,0.8,0.6,1.3,1.8,1.5c0.8,0,1.5-0.4,1.9-1v-0.6C474.8,361.6,474.3,361.2,473.2,361L473.2,361z M496.4,383.1
			c-0.9,0-1.5,0.5-1.7,1.5c0.2,0.4,0.7,0.7,1.2,0.7h0.4c0.8,0,1.3-0.5,1.4-1.4v-0.2C497.8,383.3,497.4,383.2,496.4,383.1
			L496.4,383.1z M489.5,360.6c-1.4,0.2-2.1,0.8-2.1,1.7v0.1c0.6,0.6,1.2,0.9,1.7,0.9c1.5-0.2,2.2-0.8,2.2-1.7
			C491,360.9,490.4,360.6,489.5,360.6L489.5,360.6z M496.4,383.1c-0.9,0-1.5,0.5-1.7,1.5c0.2,0.4,0.7,0.7,1.2,0.7h0.4
			c0.8,0,1.3-0.5,1.4-1.4v-0.2C497.8,383.3,497.4,383.2,496.4,383.1L496.4,383.1z M489.5,360.6c-1.4,0.2-2.1,0.8-2.1,1.7v0.1
			c0.6,0.6,1.2,0.9,1.7,0.9c1.5-0.2,2.2-0.8,2.2-1.7C491,360.9,490.4,360.6,489.5,360.6L489.5,360.6z M473.2,361H473
			c-1.3,0.4-1.9,0.8-1.9,1.3c0,0.8,0.6,1.3,1.8,1.5c0.8,0,1.5-0.4,1.9-1v-0.6C474.8,361.6,474.3,361.2,473.2,361L473.2,361z
			 M466.4,382.5c-0.6,0-1.1,0.3-1.4,0.8v1.3c0.3,0.5,0.8,0.8,1.7,0.8h0.2c1-0.4,1.5-0.9,1.5-1.7C468,382.9,467.2,382.5,466.4,382.5z
			 M466.4,382.5c-0.6,0-1.1,0.3-1.4,0.8v1.3c0.3,0.5,0.8,0.8,1.7,0.8h0.2c1-0.4,1.5-0.9,1.5-1.7C468,382.9,467.2,382.5,466.4,382.5z
			 M473.2,361H473c-1.3,0.4-1.9,0.8-1.9,1.3c0,0.8,0.6,1.3,1.8,1.5c0.8,0,1.5-0.4,1.9-1v-0.6C474.8,361.6,474.3,361.2,473.2,361
			L473.2,361z M496.4,383.1c-0.9,0-1.5,0.5-1.7,1.5c0.2,0.4,0.7,0.7,1.2,0.7h0.4c0.8,0,1.3-0.5,1.4-1.4v-0.2
			C497.8,383.3,497.4,383.2,496.4,383.1L496.4,383.1z M489.5,360.6c-1.4,0.2-2.1,0.8-2.1,1.7v0.1c0.6,0.6,1.2,0.9,1.7,0.9
			c1.5-0.2,2.2-0.8,2.2-1.7C491,360.9,490.4,360.6,489.5,360.6L489.5,360.6z M496.4,383.1c-0.9,0-1.5,0.5-1.7,1.5
			c0.2,0.4,0.7,0.7,1.2,0.7h0.4c0.8,0,1.3-0.5,1.4-1.4v-0.2C497.8,383.3,497.4,383.2,496.4,383.1L496.4,383.1z M489.5,360.6
			c-1.4,0.2-2.1,0.8-2.1,1.7v0.1c0.6,0.6,1.2,0.9,1.7,0.9c1.5-0.2,2.2-0.8,2.2-1.7C491,360.9,490.4,360.6,489.5,360.6L489.5,360.6z
			 M473.2,361H473c-1.3,0.4-1.9,0.8-1.9,1.3c0,0.8,0.6,1.3,1.8,1.5c0.8,0,1.5-0.4,1.9-1v-0.6C474.8,361.6,474.3,361.2,473.2,361
			L473.2,361z M466.4,382.5c-0.6,0-1.1,0.3-1.4,0.8v1.3c0.3,0.5,0.8,0.8,1.7,0.8h0.2c1-0.4,1.5-0.9,1.5-1.7
			C468,382.9,467.2,382.5,466.4,382.5z M466.4,382.5c-0.6,0-1.1,0.3-1.4,0.8v1.3c0.3,0.5,0.8,0.8,1.7,0.8h0.2c1-0.4,1.5-0.9,1.5-1.7
			C468,382.9,467.2,382.5,466.4,382.5z M473.2,361H473c-1.3,0.4-1.9,0.8-1.9,1.3c0,0.8,0.6,1.3,1.8,1.5c0.8,0,1.5-0.4,1.9-1v-0.6
			C474.8,361.6,474.3,361.2,473.2,361L473.2,361z M496.4,383.1c-0.9,0-1.5,0.5-1.7,1.5c0.2,0.4,0.7,0.7,1.2,0.7h0.4
			c0.8,0,1.3-0.5,1.4-1.4v-0.2C497.8,383.3,497.4,383.2,496.4,383.1L496.4,383.1z M489.5,360.6c-1.4,0.2-2.1,0.8-2.1,1.7v0.1
			c0.6,0.6,1.2,0.9,1.7,0.9c1.5-0.2,2.2-0.8,2.2-1.7C491,360.9,490.4,360.6,489.5,360.6L489.5,360.6z M496.4,383.1
			c-0.9,0-1.5,0.5-1.7,1.5c0.2,0.4,0.7,0.7,1.2,0.7h0.4c0.8,0,1.3-0.5,1.4-1.4v-0.2C497.8,383.3,497.4,383.2,496.4,383.1
			L496.4,383.1z M489.5,360.6c-1.4,0.2-2.1,0.8-2.1,1.7v0.1c0.6,0.6,1.2,0.9,1.7,0.9c1.5-0.2,2.2-0.8,2.2-1.7
			C491,360.9,490.4,360.6,489.5,360.6L489.5,360.6z M473.2,361H473c-1.3,0.4-1.9,0.8-1.9,1.3c0,0.8,0.6,1.3,1.8,1.5
			c0.8,0,1.5-0.4,1.9-1v-0.6C474.8,361.6,474.3,361.2,473.2,361L473.2,361z M466.4,382.5c-0.6,0-1.1,0.3-1.4,0.8v1.3
			c0.3,0.5,0.8,0.8,1.7,0.8h0.2c1-0.4,1.5-0.9,1.5-1.7C468,382.9,467.2,382.5,466.4,382.5z M466.4,382.5c-0.6,0-1.1,0.3-1.4,0.8v1.3
			c0.3,0.5,0.8,0.8,1.7,0.8h0.2c1-0.4,1.5-0.9,1.5-1.7C468,382.9,467.2,382.5,466.4,382.5z M473.2,361H473c-1.3,0.4-1.9,0.8-1.9,1.3
			c0,0.8,0.6,1.3,1.8,1.5c0.8,0,1.5-0.4,1.9-1v-0.6C474.8,361.6,474.3,361.2,473.2,361L473.2,361z M496.4,383.1
			c-0.9,0-1.5,0.5-1.7,1.5c0.2,0.4,0.7,0.7,1.2,0.7h0.4c0.8,0,1.3-0.5,1.4-1.4v-0.2C497.8,383.3,497.4,383.2,496.4,383.1
			L496.4,383.1z M489.5,360.6c-1.4,0.2-2.1,0.8-2.1,1.7v0.1c0.6,0.6,1.2,0.9,1.7,0.9c1.5-0.2,2.2-0.8,2.2-1.7
			C491,360.9,490.4,360.6,489.5,360.6L489.5,360.6z M496.4,383.1c-0.9,0-1.5,0.5-1.7,1.5c0.2,0.4,0.7,0.7,1.2,0.7h0.4
			c0.8,0,1.3-0.5,1.4-1.4v-0.2C497.8,383.3,497.4,383.2,496.4,383.1L496.4,383.1z M489.5,360.6c-1.4,0.2-2.1,0.8-2.1,1.7v0.1
			c0.6,0.6,1.2,0.9,1.7,0.9c1.5-0.2,2.2-0.8,2.2-1.7C491,360.9,490.4,360.6,489.5,360.6L489.5,360.6z M473.2,361H473
			c-1.3,0.4-1.9,0.8-1.9,1.3c0,0.8,0.6,1.3,1.8,1.5c0.8,0,1.5-0.4,1.9-1v-0.6C474.8,361.6,474.3,361.2,473.2,361L473.2,361z
			 M466.4,382.5c-0.6,0-1.1,0.3-1.4,0.8v1.3c0.3,0.5,0.8,0.8,1.7,0.8h0.2c1-0.4,1.5-0.9,1.5-1.7C468,382.9,467.2,382.5,466.4,382.5z
			 M466.4,382.5c-0.6,0-1.1,0.3-1.4,0.8v1.3c0.3,0.5,0.8,0.8,1.7,0.8h0.2c1-0.4,1.5-0.9,1.5-1.7C468,382.9,467.2,382.5,466.4,382.5z
			 M473.2,361H473c-1.3,0.4-1.9,0.8-1.9,1.3c0,0.8,0.6,1.3,1.8,1.5c0.8,0,1.5-0.4,1.9-1v-0.6C474.8,361.6,474.3,361.2,473.2,361
			L473.2,361z M496.4,383.1c-0.9,0-1.5,0.5-1.7,1.5c0.2,0.4,0.7,0.7,1.2,0.7h0.4c0.8,0,1.3-0.5,1.4-1.4v-0.2
			C497.8,383.3,497.4,383.2,496.4,383.1L496.4,383.1z M489.5,360.6c-1.4,0.2-2.1,0.8-2.1,1.7v0.1c0.6,0.6,1.2,0.9,1.7,0.9
			c1.5-0.2,2.2-0.8,2.2-1.7C491,360.9,490.4,360.6,489.5,360.6L489.5,360.6z M496.4,383.1c-0.9,0-1.5,0.5-1.7,1.5
			c0.2,0.4,0.7,0.7,1.2,0.7h0.4c0.8,0,1.3-0.5,1.4-1.4v-0.2C497.8,383.3,497.4,383.2,496.4,383.1L496.4,383.1z M489.5,360.6
			c-1.4,0.2-2.1,0.8-2.1,1.7v0.1c0.6,0.6,1.2,0.9,1.7,0.9c1.5-0.2,2.2-0.8,2.2-1.7C491,360.9,490.4,360.6,489.5,360.6L489.5,360.6z
			 M473.2,361H473c-1.3,0.4-1.9,0.8-1.9,1.3c0,0.8,0.6,1.3,1.8,1.5c0.8,0,1.5-0.4,1.9-1v-0.6C474.8,361.6,474.3,361.2,473.2,361
			L473.2,361z M466.4,382.5c-0.6,0-1.1,0.3-1.4,0.8v1.3c0.3,0.5,0.8,0.8,1.7,0.8h0.2c1-0.4,1.5-0.9,1.5-1.7
			C468,382.9,467.2,382.5,466.4,382.5z M466.4,382.5c-0.6,0-1.1,0.3-1.4,0.8v1.3c0.3,0.5,0.8,0.8,1.7,0.8h0.2c1-0.4,1.5-0.9,1.5-1.7
			C468,382.9,467.2,382.5,466.4,382.5z M473.2,361H473c-1.3,0.4-1.9,0.8-1.9,1.3c0,0.8,0.6,1.3,1.8,1.5c0.8,0,1.5-0.4,1.9-1v-0.6
			C474.8,361.6,474.3,361.2,473.2,361L473.2,361z M496.4,383.1c-0.9,0-1.5,0.5-1.7,1.5c0.2,0.4,0.7,0.7,1.2,0.7h0.4
			c0.8,0,1.3-0.5,1.4-1.4v-0.2C497.8,383.3,497.4,383.2,496.4,383.1L496.4,383.1z M489.5,360.6c-1.4,0.2-2.1,0.8-2.1,1.7v0.1
			c0.6,0.6,1.2,0.9,1.7,0.9c1.5-0.2,2.2-0.8,2.2-1.7C491,360.9,490.4,360.6,489.5,360.6L489.5,360.6z M496.4,383.1
			c-0.9,0-1.5,0.5-1.7,1.5c0.2,0.4,0.7,0.7,1.2,0.7h0.4c0.8,0,1.3-0.5,1.4-1.4v-0.2C497.8,383.3,497.4,383.2,496.4,383.1
			L496.4,383.1z M489.5,360.6c-1.4,0.2-2.1,0.8-2.1,1.7v0.1c0.6,0.6,1.2,0.9,1.7,0.9c1.5-0.2,2.2-0.8,2.2-1.7
			C491,360.9,490.4,360.6,489.5,360.6L489.5,360.6z M473.2,361H473c-1.3,0.4-1.9,0.8-1.9,1.3c0,0.8,0.6,1.3,1.8,1.5
			c0.8,0,1.5-0.4,1.9-1v-0.6C474.8,361.6,474.3,361.2,473.2,361L473.2,361z M466.4,382.5c-0.6,0-1.1,0.3-1.4,0.8v1.3
			c0.3,0.5,0.8,0.8,1.7,0.8h0.2c1-0.4,1.5-0.9,1.5-1.7C468,382.9,467.2,382.5,466.4,382.5z M473.2,361H473c-1.3,0.4-1.9,0.8-1.9,1.3
			c0,0.8,0.6,1.3,1.8,1.5c0.8,0,1.5-0.4,1.9-1v-0.6C474.8,361.6,474.3,361.2,473.2,361L473.2,361z M466.4,382.5
			c-0.6,0-1.1,0.3-1.4,0.8v1.3c0.3,0.5,0.8,0.8,1.7,0.8h0.2c1-0.4,1.5-0.9,1.5-1.7C468,382.9,467.2,382.5,466.4,382.5z M466.4,382.5
			c-0.6,0-1.1,0.3-1.4,0.8v1.3c0.3,0.5,0.8,0.8,1.7,0.8h0.2c1-0.4,1.5-0.9,1.5-1.7C468,382.9,467.2,382.5,466.4,382.5z M473.2,361
			H473c-1.3,0.4-1.9,0.8-1.9,1.3c0,0.8,0.6,1.3,1.8,1.5c0.8,0,1.5-0.4,1.9-1v-0.6C474.8,361.6,474.3,361.2,473.2,361L473.2,361z
			 M489.5,360.6c-1.4,0.2-2.1,0.8-2.1,1.7v0.1c0.6,0.6,1.2,0.9,1.7,0.9c1.5-0.2,2.2-0.8,2.2-1.7C491,360.9,490.4,360.6,489.5,360.6
			L489.5,360.6z M489.5,360.6c-1.4,0.2-2.1,0.8-2.1,1.7v0.1c0.6,0.6,1.2,0.9,1.7,0.9c1.5-0.2,2.2-0.8,2.2-1.7
			C491,360.9,490.4,360.6,489.5,360.6L489.5,360.6z M496.4,383.1c-0.9,0-1.5,0.5-1.7,1.5c0.2,0.4,0.7,0.7,1.2,0.7h0.4
			c0.8,0,1.3-0.5,1.4-1.4v-0.2C497.8,383.3,497.4,383.2,496.4,383.1L496.4,383.1z M496.4,383.1c-0.9,0-1.5,0.5-1.7,1.5
			c0.2,0.4,0.7,0.7,1.2,0.7h0.4c0.8,0,1.3-0.5,1.4-1.4v-0.2C497.8,383.3,497.4,383.2,496.4,383.1L496.4,383.1z"/>
		<path class="st1" d="M498.4,371.9c-0.7,1-1.3,1.5-1.7,1.7h-0.2l-1.5-0.9c-1.1-0.1-1.7-0.3-1.7-0.4v-0.7h1.4l1.4,0.1
			c0-0.1,0-0.1,0.1-0.1L498.4,371.9z"/>
		<path class="st1" d="M499.5,373.4c0,0.8-0.1,1.6-0.3,2.3h-0.2c-0.1,0-0.3-0.3-0.8-0.8v-0.1c0-0.4,0.4-0.8,1.1-1.5H499.5z"/>
		<path class="st1" d="M495.3,375c-0.5,0.6-1.1,1.1-1.7,1.6h-0.2v-2.9C494.7,374.3,495.3,374.7,495.3,375z"/>
		<path class="st1" d="M499.3,385.1l-0.1-1.1v-2H499c-1.7-0.1-3.5-0.1-5.3-0.1c0,0.4-0.1,0.8-0.2,1.1l0.2,0.8
			c-0.1,0.2-0.1,0.4-0.2,0.7l0.2,0.7c-0.1,0.3-0.1,0.6-0.2,0.9l0.3,0.1c0.2,0,1.2,0,3.1-0.1l2.2,0.1l0.3-0.3l-0.1-0.4
			C499.2,385.2,499.3,385.1,499.3,385.1z M497.8,383.8c-0.1,1-0.6,1.4-1.4,1.4H496c-0.5,0-1-0.2-1.2-0.7c0.2-1,0.8-1.5,1.7-1.5
			c0.9,0.1,1.4,0.3,1.4,0.4L497.8,383.8z"/>
		<path class="st1" d="M499.3,379.4v0.5c0,0.2-0.1,0.5-0.3,0.7l-0.7-0.1h-2.5l-0.4-0.2h-1.8c0-0.1-0.1-0.6-0.2-1.4l0.2-0.7
			c0.5-0.1,1.5-0.8,2.8-1.9h0.4c0.6,1,1.4,1.4,2.4,1.4C499.3,378.4,499.3,379,499.3,379.4z"/>
		<path class="st1" d="M499.5,367.9c0,0.5-0.1,1-0.2,1.6c0.1,0.1,0.2,0.3,0.2,0.4l-0.2,0.5c-1,0-2.5-0.1-4.6-0.2
			c-0.4,0.1-0.7,0.1-1.1,0.1l-0.3-0.3v-0.1c0-0.9-0.1-1.9-0.2-3.3l0.2-0.2c0-0.1,1.3-0.2,3.8-0.2c0.8,0.2,1.6,0.3,2.4,0.3V367.9z"/>
		<path class="st1" d="M499.9,352.8l-0.2,1.1c0.1,0,0.2,0,0.2,0.1l-0.2,0.7v1.5c0,0.2-0.3,0.3-1,0.4c-0.8,1.8-1.6,2.7-2.6,2.7
			l-1.4-0.1c-1.9-0.6-2.8-1.5-2.8-2.9l0.1-0.4c-0.1,0-0.2-0.1-0.4-0.4v-0.1c0.3-0.5,0.7-0.9,1.2-1.3c0.8-1,1.7-1.6,2.8-1.6
			c0.3,0.3,0.5,0.8,0.5,1.3c-0.1,0.5-0.3,1-0.5,1.4c-1.4,0.4-2.1,0.7-2.1,0.9v0.2c0,0.2,0.6,0.3,1.7,0.3c1.1-0.1,1.7-0.2,1.7-0.4
			c0.7,0,1.3-0.7,1.8-2v-0.9c0-1.1-0.8-1.8-2.5-2.2c1.1-1.3,2.2-2.4,3.5-3.5l0.2,1.1L499.9,352.8z"/>
		<path class="st1" d="M499.6,359.7c-1,0.9-2,1.3-2.9,1.3h-1.2c-2.7,0-4.5-1.1-5.6-3.4c0-0.2-0.1-0.3-0.2-0.3c-0.1,0-1.2,1-3.2,2.9
			c-1.3,1.2-2,2-2,2.4c0.5,0.3,1.3,1.5,2.2,3.7c0.3,0.5,0.4,1,0.5,1.6h0.5l3.6-3.8l1.1-0.2c0.7,0.3,1.1,0.7,1.1,1l3.4-0.2l2.2,0.3
			l0.2-0.2v-2.5l0.1-0.7c0-0.1,0-0.1-0.1-0.1l0.1-0.6L499.6,359.7z M489.1,363.3c-0.5,0-1-0.3-1.7-0.9v-0.1c0-0.9,0.7-1.5,2.1-1.7
			c0.9,0,1.5,0.3,1.8,1C491.3,362.5,490.6,363.1,489.1,363.3z"/>
		<path class="st1" d="M486,369.7c-2.2,2.4-3.5,3.8-3.9,4.1H482v-6.4c0-0.5,0-1.3-0.2-2.3c0.7-0.6,1.1-1,1.1-1.1h0.3
			C484,364.4,484.9,366.3,486,369.7z"/>
		<path class="st1" d="M480.2,365.7v6.5c0,0.2-0.1,0.2-0.3,0.2l-1.8-1.8c-1.1-0.9-1.7-1.5-1.7-1.7c0-0.2,0.6-1.9,1.9-5.2h0.3
			C479.7,364.5,480.2,365.2,480.2,365.7z"/>
		<path class="st1" d="M466,375v0.2c-0.6,0.5-1.1,1-1.8,1.5H464c-0.1-0.6-0.1-1.3-0.2-1.9V374l0.2-0.2
			C464.7,374.1,465.4,374.5,466,375z"/>
		<path class="st1" d="M470.2,373.4v2.3h-0.3c-0.7-0.4-1.1-0.7-1.1-0.8v-0.1c0.8-0.9,1.3-1.3,1.3-1.5H470.2z"/>
		<path class="st1" d="M469.2,381.3l-1,0.1h-0.5c-0.8,0-1.6,0-2.5-0.1c-0.8,0.1-1.2,0.2-1.2,0.3v1.2c0,0.8-0.1,1.5-0.2,2.3
			c0,0.6,0.3,0.9,1,0.9h4.9c0.3,0,0.4-0.3,0.4-0.9v-3C470.1,381.6,469.8,381.4,469.2,381.3z M466.9,385.3h-0.2
			c-0.8,0-1.4-0.3-1.7-0.8v-1.3c0.3-0.5,0.8-0.7,1.4-0.8c0.8,0,1.6,0.4,2,1.1C468.4,384.4,467.9,385,466.9,385.3L466.9,385.3z"/>
		<path class="st1" d="M470.2,379.6c0,0.3-1.5,0.4-4.6,0.4c-1.2,0-1.8-0.1-1.8-0.3v-0.9c0-0.2,0.1-0.3,0.2-0.4
			c1.3-0.6,2.5-1.4,3.6-2.3c0.5,0.5,1,0.9,1.7,1.3C469.9,377.4,470.2,378.1,470.2,379.6z"/>
		<path class="st1" d="M469.2,371.8v0.1h-0.1c-0.5,0.7-1.1,1.3-1.7,1.9c-1.3-0.4-2.5-0.9-3.7-1.6v-0.5l0.3-0.3
			C467,371.6,468.8,371.7,469.2,371.8z"/>
		<path class="st1" d="M470.1,367.6v2.5c0,0.1-0.3,0.2-0.9,0.3c-2.2-0.1-3.9-0.2-5.3-0.2c-0.1,0-0.2-0.1-0.3-0.3
			c0-0.2,0.1-0.5,0.2-0.7c0-0.5-0.1-1-0.2-1.5c0.1-0.4,0.2-0.7,0.2-1.1c0.1,0,0.3,0,0.4-0.1c1.8,0,3.5,0.1,5.3,0.3
			C469.9,366.8,470.1,367,470.1,367.6z"/>
		<path class="st1" d="M473.8,357.8l-0.3-0.1h-0.3c0,0.9-1,1.9-2.9,2.9c-1.1,0.3-2.2,0.5-3.3,0.4c-0.7,0-1.7-0.4-3.1-1.1h-0.3
			c0,0.1-0.1,0.2-0.1,0.3c0.1,1.4,0.1,2.5,0.1,3.5v0.8l0.2,0.6c4.2,0,6.3,0.2,6.3,0.3c0.6-0.2,1.2-0.3,1.8-0.3c1,0.9,2,1.8,3.1,2.6
			c0.2,0,0.7-1.3,1.5-3.8c0.2,0,0.5-0.6,0.8-1.8C476.2,360.9,475,359.5,473.8,357.8z M474.8,362.7c-0.4,0.7-1.1,1.1-1.9,1
			c-1.2-0.2-1.8-0.7-1.8-1.5c0-0.5,0.6-0.9,1.9-1.3h0.3c1,0.2,1.5,0.6,1.5,1.1V362.7z"/>
		<path class="st1" d="M471.7,355.2v0.3c-0.4,0.3-0.7,0.9-0.8,1.7c-0.7,1.6-1.7,2.5-3.2,2.5c-1.6-0.4-2.4-0.7-2.4-1.1
			c-0.8,0-1.4-1.6-1.8-4.9c0.1-1.4,0.1-2.7,0.1-3.8v-1.1c0-0.3,0.1-0.7,0.2-1c-0.1-0.1-0.2-0.3-0.2-0.8v-0.8c0.6,0.4,2,1.8,4.2,4.3
			v0.2l-0.7,0.6c-1.5,0.5-2.2,1.6-2.2,3c0.4,1.6,1.1,2.5,2.2,2.5h0.7c0.5,0,0.7-0.1,0.9-0.3V356c-0.9-0.6-1.3-1.1-1.3-1.4v-0.4
			c0-0.8,0.5-1.5,1.5-2.1h0.3L471.7,355.2z"/>
		<path d="M527.6,342.9h0.9c0.1,0,0.2,0,0.2,0.1l0.2-0.1h0.4c0.8,0,2.4,1.9,4.8,5.8c1.3,1.4,3.3,4.8,6.1,10l4,7.7
			c0.4,0.6,1.9,3.5,4.5,8.6c1.4,2.4,2.7,5,3.7,7.6c1.1,1.6,1.6,2.6,1.6,2.9c-0.5,1.1-2.1,1.6-4.9,1.6c0,0.1-1.1,0.2-3.4,0.3
			c0,0.1-0.8,0.2-2.5,0.3c-1.2,0-1.9-0.6-1.9-1.7c-0.6-0.9-1.8-2.9-3.6-6.2c-0.4-0.2-0.8-0.3-1.2-0.3c-0.9,0.1-1.5,0.1-2,0.1h-5.1
			l-0.8-0.1l-0.3,0.1c-0.1,0-0.2,0-0.2-0.1l-1.6,0.1h-1.1c-0.2,0-0.3,0-0.5,0.1c-0.1,0-0.2,0-0.2-0.1c-1.9,0-2.8,0.3-2.8,0.8l-2,2.9
			c0,0.4-0.6,1.2-1.7,2.6c0,0.7-0.5,1.1-1.6,1.1h-0.3c-1.5-0.1-2.4-0.2-2.5-0.2h-0.7c-0.2,0-0.4,0-0.7,0.1l-2.7-0.2
			c-0.1,0-0.1,0-0.1,0.1c-3.3,0-4.9-0.4-4.9-1.1c0.4,0,0.9-1,1.5-2.9c1.2-2.3,2.3-4.4,3.2-6.3c1-1.2,1.5-2.3,1.5-3.3
			c1.2-1.5,2.5-3.9,3.9-7c0.9-1.4,3.6-6.7,8.1-16c1.1-1.8,1.9-3.4,2.5-4.7C526.6,343.8,527.3,342.9,527.6,342.9z M507.7,384.7
			l0.2,0.2c-0.1,0.1-0.2,0.3-0.2,0.4c0.3,0.1,0.4,0.1,0.4,0.2l1.3-0.1h7.1c0.7-0.5,1.6-1.8,2.5-3.8v-0.1c-2.4-0.8-3.7-1.2-4-1.2
			h-0.1c-1.3,2.4-2.3,3.6-2.8,3.6c-0.1,0.1-0.3,0.1-0.4,0.1l-0.4-0.5l1.7-3.6c-0.7-0.3-1.5-0.5-2.2-0.6c-0.3,0-0.8,0.7-1.4,2
			c-0.6,1-1.2,2.1-1.6,3.3C507.8,384.6,507.7,384.6,507.7,384.7z M517.3,365.9c-0.9,1.2-1.4,2.1-1.4,2.8l0.9-0.1h0.2
			c0.2,0,0.6,0.8,1.3,2.3c1.2,1.9,2.7,2.8,4.4,2.8c0.6,0.1,1.2,0.1,1.9,0.1c0-0.1,0.7-0.4,2-0.9c0.1-0.5,0.6-0.8,1-0.8h0.4
			c0.1,0,0.3,0.1,0.5,0.4v0.7c-1.2,1.1-2.3,1.6-3.2,1.6c0,0.2-0.6,0.3-1.9,0.3c-2.9,0-4.9-0.7-6-2.2c-0.5-0.4-1.1-1.4-1.9-3.1h-0.5
			c-1.1,1.8-2.1,3.7-2.9,5.7c-0.8,1.3-1.2,2-1.2,2.2c0.9,0.5,1.9,0.8,2.9,0.8c1.1-1.8,1.7-3,1.9-3.6c0.2-0.1,0.5-0.2,0.8-0.2h0.7
			c0.1,0,0.3,0.1,0.4,0.3v0.2c0,0.2-0.6,1.3-1.9,3.4c0,0.3,1.4,0.8,4.2,1.5h0.1c0.6-1.4,1.2-2.2,1.9-2.2c0.4,0,0.8,0,1.2,0.1
			c1.3-0.2,2.6-0.2,4-0.2h2.7l0.2-0.5v-1.4c-0.1-1.6-0.3-3.2-0.7-4.7h-0.3c-0.6,0-2,0-4.1,0.1c-0.6-0.1-1-0.4-1-0.7
			c0.5-0.6,0.7-1,0.7-1.2l-0.4-0.2h-1.2c-2.1,0-3.9-1.1-5.4-3.3C517.7,366.1,517.6,366,517.3,365.9L517.3,365.9z M522.8,355.5
			c-1.3,2.1-2.5,4.3-3.5,6.6c-0.3,0.2-0.7,1-1,2.3c1,0.3,1.5,0.7,1.5,1.3c1.4,1.6,2.8,2.5,4.2,2.5c1.3-0.1,2-0.4,2-0.8
			c1.1-1.7,1.9-3.5,2.4-5.4c0.3-0.2,0.6-0.3,0.9-0.3c0.8,0.1,1.3,0.2,1.5,0.2h0.1v-0.1c0-0.9-0.2-1.4-0.5-1.4h-1.7
			c-0.9,0-2,0-3.2-0.1c-0.1,0.1-0.2,0.1-0.4,0.1c-0.8-0.1-1.2-0.3-1.2-0.4v-0.3c0-0.3,0.6-0.5,1.9-0.8c1.6,0.1,2.4,0.2,2.4,0.2
			l0.7-0.1h2.4c1.2,0.2,1.7,0.5,1.7,1.1l-0.2,0.2c0,2,0.3,3,1,3c0.3,0.1,0.7,0.1,1,0.1h0.7c0.2,0,0.4-0.1,0.4-0.4c0,0,0-0.1,0-0.1
			c0-0.4-0.1-1.1-0.2-2c0-0.1,0-0.1,0.2-0.1l-0.2-0.5c0-2.7-0.4-4.1-1.2-4.1c-1.2-0.2-2.5-0.4-3.7-0.4l-0.5,0.1
			c-1.5-0.1-2.5-0.1-2.9-0.1c-0.1,0-0.8,0-2.1,0.1l-0.3-0.1c-0.1,0.1-0.3,0.1-0.4,0.1C523.9,355.7,523.4,355.6,522.8,355.5
			L522.8,355.5z M521.9,361.9c0.8,0,1.3,0.5,1.5,1.5v0.1c0,0.6-0.5,0.9-1.5,1.1h-0.2c-1,0-1.5-0.6-1.5-1.7
			C520.7,362.4,521.3,362.1,521.9,361.9z M524.5,356.1h0.5c0.6,0.4,0.9,0.7,0.9,1c0,0.4-0.5,0.8-1.5,1.3c-1.2-0.1-1.7-0.4-1.7-1
			C522.8,356.8,523.4,356.3,524.5,356.1L524.5,356.1z M527.5,346.1c-2.8,5-4.1,7.7-4.1,8.2l0.4,0.2c0.1-0.1,0.3-0.1,0.4-0.1v0.1
			c1.2-0.3,2.4-0.4,3.6-0.5l0.2-1.1v-0.8c0-1.5,0-3.3,0.1-5.4l-0.1-0.7H527.5z M528.3,344.6v0.5c0.5,0,0.7-0.1,0.8-0.3
			c-0.1-0.3-0.3-0.4-0.4-0.4h-0.2C528.3,344.4,528.2,344.5,528.3,344.6L528.3,344.6z M530.4,356.4c0.6-0.1,1.2,0.3,1.4,0.8
			c-0.5,0.8-1,1.2-1.6,1.2c-0.6-0.1-1.1-0.4-1.4-0.8v-0.3C529,356.7,529.6,356.4,530.4,356.4L530.4,356.4z M530.3,346.5
			c-0.2,0-0.3,1.7-0.4,5.2c0.1,0.8,0.1,1.5,0.1,2.2l0.4,0.2c0.7,0,2.4,0.1,5.1,0.3v-0.1C535,353.2,533.3,350.6,530.3,346.5
			L530.3,346.5z M535.4,368.6h-0.7c0,0.5,0.5,1.4,1.5,2.8c0,0.2-0.3,0.5-1,0.9c-0.4,0-0.9-0.3-1.5-1h-1.6c-0.1,0-0.3,0.2-0.4,0.8
			c0,0.1,0,0.1,0.1,0.1c0.1,4,0.3,5.9,0.5,5.9c1.3,0.1,2.3,0.1,2.9,0.1h2.7c1.1,0,1.9,1,2.4,3l2.3,3.5l0.2,0.1
			c1-1.8,1.5-2.9,1.5-3.3v-0.1c-2.8-1.2-4.3-2-4.2-2.4v-0.1l0.5-0.4h1.3c1.5,0.9,2.6,1.4,3.3,1.4h0.2l0.7-1.7v-0.8
			c0.2-0.4,0.6-0.6,1.1-0.6h0.4v-0.3c-0.4-0.6-0.7-1.2-0.9-1.8h-0.3c-0.8,0-2.5,0.4-5.1,1.3c-1.5,0.4-2.3,0.5-2.4,0.5
			c-0.8-0.1-1.2-0.2-1.2-0.4c0-0.4,1.6-1,4.8-1.9c1.9-0.6,2.9-1,3-1c0-0.4-0.1-0.6-0.4-0.6c-3.1,0.7-5.2,1.3-6.3,1.8
			c-0.4,0.1-0.8,0.2-1.2,0.2h-0.5c-0.1,0-0.3-0.1-0.5-0.4v-0.2c0-0.4,1.1-0.8,3.2-1.3c0.7-0.4,2.3-0.9,4.8-1.5
			c-0.6-1.5-1.4-3-2.4-4.3c-1.6,0.3-3.2,0.6-4.8,1.1C536.5,368.3,535.9,368.6,535.4,368.6L535.4,368.6z M538,359.1v0.7
			c0,1.3,0.1,2.7,0.4,4c0,0.6-1.5,1-4.4,1h-0.1c-0.1,0-0.5,0-1.3-0.1v0.2c0,0.4,0.6,1.3,1.9,2.9c1.8-0.9,3.7-1.6,5.7-1.9
			c1.1-0.1,1.6-0.2,1.6-0.4c-1.2-1.9-2.2-3.9-3.2-5.9l-0.4-0.3H538z M539.6,368.8c0.5,0.1,0.8,0.4,0.8,0.9v1c0,0.1-0.2,0.2-0.5,0.4
			h-0.3c-1.3,0-2-0.2-2-0.7C537.7,369.5,538.6,368.7,539.6,368.8L539.6,368.8z M548.1,378.1c-0.5,0.8-0.9,1.6-1.2,2.4v0.4l4,2.7v0.4
			c-0.3,0.4-0.7,0.7-1.2,0.7c-0.4,0-1.5-0.7-3.3-2h-0.5c-0.8,2-1.5,3-2.2,3c-0.4,0-0.5,0.1-0.5,0.2c0.3,0.2,0.6,0.3,0.9,0.3
			c0.9-0.2,3.5-0.4,7.7-0.6c0-0.1,0.1-0.1,0.3-0.1v-0.3l-3.6-6.9L548.1,378.1z"/>
		<path d="M567.8,342.8c1.2,0.1,1.9,0.1,2.1,0.1l0.3-0.1c4.2,0.3,7.4,0.8,9.5,1.6c3.9,1.5,6.3,3.1,7.1,4.8c1.5,1.9,2.3,3.8,2.3,5.9
			H589c0.1,0.3,0.2,0.5,0.3,0.8c0,0.7-0.1,1.5-0.3,2.2l0.1,0.2c-0.6,1.8-1.4,3.5-2.5,5.1c-1.8,2.2-4.2,4-6.9,5c0,0.1-0.3,0.3-1,0.7
			c0.9,1.3,2.5,3.5,5,6.6c2.2,3.2,3.6,5,4.2,5.6v0.5c0,0.5-2,2.2-5.9,5.1c-0.8,0.6-1.4,0.9-1.7,0.9c-1,0.1-1.9-0.6-2.1-1.6
			c0-0.1-2.2-2.9-6.6-8.4c0-0.3-0.9-1.3-2.6-2.8h-0.3c0,0.2,0,0.3-0.2,0.3l0.2,1.2c0,0.8,0,2.3-0.2,4.4l-0.1,0.2
			c0,0.1,0,0.1,0.1,0.1c-0.1,0.8-0.1,1.4-0.1,1.8v1.3l-0.2,0.7c0.2,0.4,0.3,0.8,0.4,1.3c0,0.5-1,0.9-2.9,1l-0.7-0.1
			c-0.7,0-3.1,0.2-7.3,0.5c-0.5-0.1-1-0.3-1.4-0.6l0.2-0.8v-1.6c0-0.4-0.1-0.8-0.2-1.2c0.1-0.3,0.2-0.7,0.2-1.1v-1
			c0.1-0.3,0.2-0.6,0.3-0.9v-1c0.2-4.5,0.4-6.9,0.6-7.2l-0.2-0.7v-1.1c0-0.2,0.1-0.3,0.2-0.4l-0.2-0.2l0.2-0.8
			c0-0.3-0.1-0.6-0.2-0.9l0.3-2.2c0-0.1-0.1-0.1-0.2-0.1l0.2-1.4v-2.6c0-0.1,0-0.1,0.1-0.1c0-0.1,0-0.1-0.1-0.1l0.1-0.8
			c0-0.5,0-1-0.1-1.5c0.2-4.1,0.4-7,0.6-8.6l-0.2-0.7v-0.2c0-0.4,0.1-0.7,0.2-1.1c0-0.1-0.1-0.1-0.2-0.1l0.2-0.6v-3.3
			c0-1.2,1.7-1.7,5-1.7C563.6,343,565.2,343,567.8,342.8z M565.9,374.8c-0.4,0.6-2.3,2.4-5.7,5.2c-0.9,0.1-1.3,0.3-1.3,0.4v0.5
			c0,0.3-0.1,0.6-0.2,0.9l0.3,1.2v0.8c0.2,0,1.8-1.4,4.9-4.3c1.6-1,2.4-1.9,2.4-2.9c-0.1-0.3-0.1-0.7-0.2-1V375
			C566.2,374.9,566.1,374.8,565.9,374.8z M559.2,376v1.2l-0.2,1.2l0.3,0.1c1-0.8,1.4-1.3,1.4-1.4c-0.4-0.4-0.7-0.8-1-1.3h-0.3
			C559.3,375.7,559.2,375.8,559.2,376L559.2,376z M559.3,371.9c0.1,0.2,0.2,0.4,0.2,0.6c0.2,0,1.7-1.3,4.6-3.9
			c0.3,0,1.9-1.3,4.9-3.8c0.3,0,0.4-0.1,0.4-0.2c-0.2-0.2-0.3-0.5-0.4-0.7h-0.3c-1.3,0-2.4,0.6-3.3,1.5c-3.8,2.6-5.8,4.2-5.8,4.8
			C559.6,370.8,559.5,371.3,559.3,371.9L559.3,371.9z M561.5,364.1L561.5,364.1c-0.1-0.1-0.2-0.1-0.2,0l-1-0.1h-0.4
			c-0.2,1.8-0.3,2.7-0.4,2.7c0.1,0.1,0.1,0.2,0.1,0.3h0.3c1.4-0.9,2.8-1.9,4.3-3c-0.1,0-0.2,0-0.2-0.1
			C562.6,364.1,561.8,364.1,561.5,364.1L561.5,364.1z M560,356.9c0,0.5,0,1.5-0.1,3c0.1,0.1,0.1,0.2,0.1,0.3h-0.1l0.1,0.2l-0.1,0.2
			l0.3,0.1c4.7-3.3,7-5,7-5.2c0-0.7,0.1-1.4,0.3-2.1c-0.1-0.2-0.1-0.4-0.1-0.6h0.1l-0.3-0.7l0.2-0.2c-0.1-0.1-0.1-0.2-0.2-0.3
			c0.1,0,0.2,0,0.2-0.1h-0.2C562.4,354.5,560,356.3,560,356.9L560,356.9z M560,345.1c0.1,1.1,0.2,2,0.2,2.8v0.2h0.2
			c1.9-1.3,3.4-2.4,4.6-3.4l-0.7-0.1h-1.3c-0.5,0-1.2,0-2.2,0.1v-0.1C560.3,344.8,560.1,344.9,560,345.1L560,345.1z M560.2,350v0.6
			c0,0.8-0.1,2-0.2,3.7h0.3c1-0.6,3.2-2.1,6.6-4.5v-2.2c0-0.4,0-1-0.1-1.8c-0.5,0-2.6,1.4-6.3,4.2L560.2,350z M560,385.6v0.2
			c2.9-0.3,4.8-0.5,5.8-0.5c0-0.1,0.1-0.2,0.3-0.2c0,0,0,0,0,0l-0.2-0.5c0-0.1,0.1-0.2,0.2-0.3c-0.1-0.4-0.2-0.8-0.2-1.2
			c0-0.6,0.1-1.2,0.3-1.7c-0.1-0.3-0.2-0.6-0.2-0.9v-0.2h-0.2C565.5,380.5,563.5,382.3,560,385.6L560,385.6z M560.4,374.6
			c0.8,0.6,1.3,1,1.3,1.3h0.2c0.4,0,1-0.3,1.6-1h0.1v-0.4c-0.4-0.6-0.9-1.1-1.5-1.5C560.9,373.7,560.3,374.2,560.4,374.6
			L560.4,374.6z M560.6,362.6v0.1c0.4,0,0.9,0,1.3,0.1c1.3-0.2,2.6-0.2,3.9-0.3h1.1c0.2-1.2,0.4-2.5,0.3-3.7v-0.7
			c0-0.1-0.1-0.2-0.3-0.2C566.3,358.2,564.2,359.8,560.6,362.6L560.6,362.6z M563.6,355.1c0.4,0,0.7,0.4,0.8,1.1c0,0.7-0.4,1-1.1,1
			h-0.4c-0.4,0-0.9-0.1-1.2-0.5v-0.1C562.1,355.6,562.7,355.1,563.6,355.1L563.6,355.1z M563.2,372c0.1,0,0.7,0.4,1.6,1.3
			c0.6,0,1.2-0.7,1.7-2.1c-0.3-0.4-0.7-0.8-1.1-1.2C564,370.9,563.3,371.6,563.2,372L563.2,372z M566.8,368.9v0.2c0.7,0.6,1,1,1,1.2
			h0.1c0.4,0,1.2-0.5,2.2-1.5v-0.1c-0.3-0.5-0.8-1-1.3-1.3h-0.2C567.5,368.1,566.9,368.6,566.8,368.9L566.8,368.9z M568.6,344.7
			c0.2,0.6,0.3,1.2,0.3,1.7v2.1c0,0.3,0.1,0.7,0.2,1c-0.1,0.1-0.2,0.4-0.2,0.8v0.3l0.2,0.3l1.4-0.1h0.7c0.5,0,1.2,0,2.1,0.1
			c0.2,0,0.3-0.7,0.4-2l-0.1-0.6c0.1-0.4,0.1-0.8,0.1-1.2v-0.1c-0.1-0.8-0.2-1.5-0.5-2.2h-0.2c-0.2,0-1.1-0.1-2.7-0.2h-1
			c-0.1,0-0.1,0-0.1-0.1C569,344.6,568.8,344.7,568.6,344.7z M570.9,346.9c1,0.1,1.4,0.4,1.4,1c0,0.6-0.5,1-1.5,1.1
			c-0.9-0.3-1.3-0.6-1.3-1.1C569.5,347.3,570,347,570.9,346.9L570.9,346.9z M569.5,372L569.5,372c0.3,0.5,0.6,0.8,1,1
			c1.4-0.8,3.2-2.2,5.3-4.4v-0.4c-0.2-0.4-0.7-0.6-1.1-0.6C571.7,369.8,570,371.2,569.5,372L569.5,372z M570.3,366.1
			c0,0.4,0.4,0.9,1.3,1.5c0.3,0,0.7-0.4,1.4-1.1v-0.1c-0.8-0.6-1.4-0.9-1.9-0.9C570.9,365.6,570.6,365.8,570.3,366.1L570.3,366.1z
			 M571.8,363.6v0.1l5,3h0.3c0.3-0.1,0.4-0.3,0.4-0.7v-0.5c-0.1-0.2-1.3-0.8-3.7-1.7c0-0.1-0.2-0.3-0.7-0.6h-0.2
			C572.2,363.2,571.9,363.3,571.8,363.6L571.8,363.6z M572.1,374.6c1.7,2.2,2.6,3.3,2.7,3.3h0.2c0.9-0.5,2.3-1.7,4-3.6V374
			c-1.5-1.8-2.5-2.7-2.9-2.8C575.1,371.8,573.7,372.9,572.1,374.6L572.1,374.6z M575.3,373.3c1.2,0.3,1.7,0.7,1.7,1.2
			c0,0.9-0.8,1.3-2.3,1.4c-0.7-0.1-1-0.4-1-0.7C573.8,373.9,574.3,373.3,575.3,373.3L575.3,373.3z M575.2,362.3v0.2
			c0.7,0.6,1.3,0.9,1.9,0.9h0.1c0-0.3,0.1-0.6,0.2-0.8c-0.1-0.4-0.2-0.8-0.3-1.2h-0.2C576.4,361.8,575.8,362.1,575.2,362.3
			L575.2,362.3z M575.8,345.5c0.1,1.1,0.2,1.7,0.2,2c0,1.3-0.1,2.6-0.3,3.8c1.1,0.3,2.1,0.7,3.1,1.2h0.2c1.9-1.3,3.1-2.6,3.9-3.9
			c-1.6-1.2-3.4-2.1-5.3-2.7C577,345.7,576.4,345.5,575.8,345.5z M575.8,379.2l2,2.4c0.4-0.1,0.9-0.5,1.4-1.3v-0.1
			c-0.3-0.3-1.2-0.8-2.5-1.3v-0.2c0.1-0.2,0.5-0.5,1.3-0.7h0.6c1,0.5,1.6,0.7,1.9,0.7c0.5-0.2,0.9-0.6,1.2-1.1l-1.4-2.1H580
			l-4.2,3.5V379.2z M579.1,359.5h0.3c4.6-0.5,6.9-1,6.9-1.5v-0.5h-0.7c-4.3,0.5-6.5,1.1-6.5,1.8L579.1,359.5z M580.8,381.4l-1.6,1.6
			v0.1c0,0.4,0.5,1.1,1.6,2c0.6-0.1,1.9-1.2,4-3V382c0-0.1-0.2-0.3-0.6-0.5c-0.2,0.4-0.6,0.7-1.1,0.7
			C582.6,382.2,581.8,382,580.8,381.4L580.8,381.4z M579.5,361.9l0.2,0.2c0,0.2,0,0.3-0.2,0.5c0.1,0.6,0.1,1.2,0.2,1.9v0.3
			c0,0.2-0.1,0.3-0.2,0.5c0.1,0.1,0.2,0.3,0.2,0.4h-0.2c0.1,0.1,0.2,0.3,0.2,0.5h0.1c1.1-0.5,1.6-0.9,1.6-1c-0.2,0-0.3-0.2-0.4-0.5
			c0.2-0.5,0.3-0.9,0.3-1.4v-0.9c0-0.2,0-0.3,0.2-0.5c-0.2-0.3-0.3-0.7-0.3-1c-1,0-1.4,0.2-1.4,0.7
			C579.7,361.7,579.6,361.8,579.5,361.9L579.5,361.9z M580.1,354.1c0.2,0.9,0.2,1.9,0.3,2.8c-0.1,0-0.2,0-0.2,0.1h0.3l5.9-1v-0.7
			c0-1.9-0.7-3.7-2-5h-0.1c-0.2,0-1.4,1.1-3.4,3.2C580.4,353.4,580.2,353.6,580.1,354.1L580.1,354.1z M582.2,379.8v0.1
			c0.3,0.4,0.7,0.6,1.2,0.8h0.2v-0.1c0-0.5-0.3-0.9-0.7-1.2h-0.2C582.5,379.4,582.4,379.6,582.2,379.8L582.2,379.8z M583.4,360.5
			v2.8h0.2c0.9-0.9,1.5-1.9,2-3l-0.3-0.1L583.4,360.5z"/>
		<path d="M613.7,342.9h0.9c0.1,0,0.2,0,0.2,0.1l0.2-0.1h0.4c0.8,0,2.4,1.9,4.8,5.8c1.3,1.4,3.3,4.8,6.1,10l4,7.7
			c0.4,0.6,1.9,3.5,4.5,8.6c1.4,2.4,2.7,5,3.7,7.6c1.1,1.6,1.6,2.6,1.6,2.9c-0.5,1.1-2.1,1.6-4.9,1.6c0,0.1-1.1,0.2-3.4,0.3
			c0,0.1-0.8,0.2-2.5,0.3c-1.2,0-1.9-0.6-1.9-1.7c-0.6-0.9-1.8-2.9-3.6-6.2c-0.4-0.2-0.8-0.3-1.2-0.3c-0.9,0.1-1.5,0.1-2,0.1h-5.1
			l-0.8-0.1l-0.3,0.1c-0.1,0-0.2,0-0.2-0.1l-1.6,0.1h-1.1c-0.2,0-0.4,0-0.5,0.1c-0.1,0-0.2,0-0.2-0.1c-1.9,0-2.8,0.3-2.8,0.8l-2,2.9
			c0,0.4-0.6,1.2-1.7,2.6c0,0.7-0.5,1.1-1.6,1.1h-0.3c-1.5-0.1-2.4-0.2-2.5-0.2h-0.7c-0.2,0-0.4,0-0.7,0.1l-2.7-0.2
			c-0.1,0-0.1,0-0.1,0.1c-3.3,0-4.9-0.4-4.9-1.1c0.4,0,0.9-1,1.5-2.9c1.2-2.3,2.3-4.4,3.2-6.3c1-1.2,1.5-2.3,1.5-3.3
			c1.2-1.5,2.4-3.9,3.9-7c0.9-1.4,3.6-6.7,8.1-16c1.1-1.8,1.9-3.4,2.5-4.7C612.7,343.8,613.4,342.9,613.7,342.9z M593.8,384.7
			l0.2,0.2c-0.1,0.1-0.2,0.3-0.2,0.4c0.3,0.1,0.4,0.1,0.4,0.2l1.3-0.1h7.1c0.7-0.5,1.6-1.8,2.5-3.8v-0.1c-2.4-0.8-3.7-1.2-4-1.2H601
			c-1.3,2.4-2.3,3.6-2.8,3.6c-0.1,0.1-0.3,0.1-0.4,0.1l-0.4-0.5l1.7-3.6c-0.7-0.3-1.5-0.5-2.2-0.6c-0.3,0-0.8,0.7-1.4,2
			c-0.6,1-1.2,2.1-1.6,3.3C593.9,384.6,593.8,384.6,593.8,384.7z M603.4,365.9c-0.9,1.2-1.4,2.1-1.4,2.8l0.9-0.1h0.2
			c0.2,0,0.6,0.8,1.3,2.3c1.2,1.9,2.7,2.8,4.4,2.8c0.6,0.1,1.2,0.1,1.9,0.1c0-0.1,0.7-0.4,2-0.9c0.1-0.5,0.6-0.8,1-0.8h0.4
			c0.1,0,0.3,0.1,0.5,0.4v0.7c-1.2,1.1-2.3,1.6-3.2,1.6c0,0.2-0.6,0.3-1.9,0.3c-2.9,0-4.9-0.7-6-2.2c-0.5-0.4-1.1-1.4-1.9-3.1h-0.5
			c-1.1,1.8-2.1,3.7-2.9,5.7c-0.8,1.3-1.2,2-1.2,2.2c0.9,0.5,1.9,0.8,2.9,0.8c1.1-1.8,1.7-3,1.9-3.6c0.2-0.1,0.5-0.2,0.8-0.2h0.7
			c0.1,0,0.3,0.1,0.4,0.3v0.2c0,0.2-0.6,1.3-1.9,3.4c0,0.3,1.4,0.8,4.2,1.5h0.1c0.6-1.4,1.2-2.2,1.9-2.2c0.4,0,0.8,0,1.2,0.1
			c1.3-0.2,2.6-0.2,4-0.2h2.7l0.2-0.5v-1.4c0-1.6-0.3-3.2-0.7-4.7h-0.3c-0.6,0-2,0-4.1,0.1c-0.6-0.1-1-0.4-1-0.7
			c0.5-0.6,0.7-1,0.7-1.2l-0.4-0.2h-1.2c-2.1,0-3.9-1.1-5.4-3.3C603.8,366.1,603.7,366,603.4,365.9L603.4,365.9z M608.9,355.5
			c-1.3,2.1-2.5,4.3-3.5,6.6c-0.3,0.2-0.7,1-1,2.3c1,0.3,1.5,0.7,1.5,1.3c1.4,1.6,2.8,2.5,4.2,2.5c1.3-0.1,2-0.4,2-0.8
			c1-1.7,1.8-3.5,2.4-5.4c0.3-0.2,0.6-0.3,0.9-0.3c0.9,0.1,1.3,0.2,1.5,0.2h0.1v-0.1c0-0.9-0.2-1.4-0.5-1.4h-1.7c-0.9,0-2,0-3.2-0.1
			c-0.1,0.1-0.3,0.1-0.4,0.1c-0.8-0.1-1.2-0.3-1.2-0.4v-0.3c0-0.3,0.6-0.5,1.9-0.8c1.6,0.1,2.4,0.2,2.4,0.2l0.7-0.1h2.4
			c1.2,0.2,1.7,0.5,1.7,1.1l-0.2,0.2c0,2,0.3,3,1,3c0.3,0.1,0.7,0.1,1,0.1h0.7c0.2,0,0.4-0.1,0.4-0.3c0,0,0-0.1,0-0.1
			c0-0.4,0-1.1-0.2-2c0-0.1,0-0.1,0.2-0.1l-0.2-0.5c0-2.7-0.4-4.1-1.2-4.1c-1.2-0.2-2.5-0.4-3.7-0.4l-0.5,0.1
			c-1.5-0.1-2.5-0.1-2.9-0.1c-0.1,0-0.8,0-2.1,0.1l-0.3-0.1c-0.1,0.1-0.3,0.1-0.4,0.1C610,355.7,609.5,355.6,608.9,355.5
			L608.9,355.5z M608,361.9c0.8,0,1.3,0.5,1.5,1.5v0.1c0,0.6-0.5,0.9-1.5,1.1h-0.2c-1,0-1.5-0.6-1.5-1.7
			C606.8,362.4,607.3,362.1,608,361.9L608,361.9z M610.6,356.1h0.6c0.6,0.4,0.9,0.7,0.9,1c0,0.4-0.5,0.8-1.5,1.3
			c-1.2-0.1-1.7-0.4-1.7-1C608.9,356.8,609.5,356.3,610.6,356.1L610.6,356.1z M613.6,346.1c-2.8,5-4.1,7.7-4.1,8.2l0.4,0.2
			c0.1-0.1,0.3-0.1,0.4-0.1v0.1c1.2-0.3,2.4-0.4,3.6-0.5l0.2-1.1v-0.8c0-1.5,0-3.3,0.1-5.4l-0.1-0.7L613.6,346.1z M614.3,344.6v0.5
			c0.5,0,0.7-0.1,0.8-0.3c-0.1-0.3-0.3-0.4-0.4-0.4h-0.2C614.4,344.4,614.3,344.5,614.3,344.6L614.3,344.6z M616.5,356.4
			c0.6-0.1,1.2,0.3,1.4,0.8c-0.5,0.8-1,1.2-1.6,1.2c-0.6-0.1-1-0.4-1.3-0.8v-0.3C615.1,356.7,615.7,356.4,616.5,356.4z M616.4,346.5
			c-0.2,0-0.3,1.7-0.4,5.2c0.1,0.8,0.1,1.5,0.1,2.2l0.4,0.2c0.7,0,2.4,0.1,5.1,0.3v-0.1c-0.4-1.1-2.1-3.7-5.1-7.7L616.4,346.5z
			 M621.5,368.6h-0.7c0,0.5,0.5,1.4,1.5,2.8c0,0.2-0.3,0.5-1,0.9c-0.4,0-0.9-0.3-1.5-1h-1.6c-0.1,0-0.3,0.2-0.4,0.8
			c0,0.1,0,0.1,0.1,0.1c0.1,4,0.3,5.9,0.6,5.9c1.3,0.1,2.3,0.1,2.9,0.1h2.7c1.1,0,1.9,1,2.4,3l2.3,3.5l0.2,0.1
			c1-1.8,1.5-2.9,1.5-3.3v-0.1c-2.8-1.2-4.3-2-4.3-2.4v-0.1l0.5-0.4h1.3c1.5,0.9,2.6,1.4,3.3,1.4h0.2l0.7-1.7v-0.8
			c0.2-0.4,0.6-0.6,1.1-0.6h0.4v-0.3c-0.4-0.6-0.7-1.2-0.9-1.8h-0.3c-0.8,0-2.5,0.4-5.1,1.3c-1.5,0.4-2.3,0.5-2.4,0.5
			c-0.8-0.1-1.2-0.2-1.2-0.4c0-0.4,1.6-1,4.8-1.9c1.9-0.6,2.9-1,3-1c0-0.4-0.1-0.6-0.4-0.6c-3.1,0.7-5.2,1.3-6.3,1.8
			c-0.4,0.1-0.8,0.2-1.2,0.2h-0.5c-0.1,0-0.3-0.1-0.5-0.4v-0.2c0-0.4,1.1-0.8,3.2-1.3c0.7-0.4,2.3-0.9,4.8-1.5
			c-0.6-1.5-1.4-3-2.4-4.3c-1.6,0.3-3.2,0.6-4.8,1.1C622.6,368.3,622,368.6,621.5,368.6L621.5,368.6z M624.1,359.1v0.7
			c0,1.3,0.1,2.7,0.4,4c0,0.6-1.5,1-4.4,1H620c-0.1,0-0.5,0-1.3-0.1v0.2c0,0.4,0.6,1.3,1.9,2.9c1.8-0.9,3.7-1.6,5.7-1.9
			c1.1-0.1,1.6-0.2,1.6-0.4c-1.2-1.9-2.2-3.9-3.2-5.9l-0.4-0.3H624.1z M625.7,368.8c0.5,0.1,0.8,0.4,0.8,0.9v1
			c0,0.1-0.2,0.2-0.5,0.4h-0.3c-1.3,0-2-0.2-2-0.7C623.8,369.5,624.7,368.7,625.7,368.8L625.7,368.8z M634.2,378.1
			c-0.5,0.8-0.9,1.6-1.2,2.4v0.4l4,2.7v0.4c-0.3,0.4-0.7,0.7-1.2,0.7c-0.4,0-1.5-0.7-3.3-2h-0.5c-0.8,2-1.5,3-2.2,3
			c-0.4,0-0.5,0.1-0.5,0.2c0.3,0.2,0.6,0.3,0.9,0.3c0.9-0.2,3.5-0.4,7.7-0.6c0-0.1,0.1-0.1,0.3-0.1v-0.3l-3.6-6.9L634.2,378.1z"/>
		<path class="st4" d="M361.7,378.5c-0.3,0.1-0.5,0.2-0.7,0.3c-8.1,4.1-16.2,8.2-24.4,12.3c-0.2,0.1-0.4,0.2-0.6,0.2v17.1
			c0.2,0,0.4-0.1,0.6-0.2c10.8-6.2,21.6-12.5,32.4-18.7c0.2-0.1,0.4-0.2,0.6-0.4C367,385.6,364.3,382.1,361.7,378.5z"/>
		<path d="M336.6,385c7.4-3.7,14.8-7.4,22.2-11.2c0.2-0.1,0.3-0.2,0.5-0.3l-9.3-12.4c-0.3,0.1-0.5,0.2-0.7,0.3
			c-4.2,1.9-8.4,3.9-12.6,5.9c-0.2,0.1-0.4,0.2-0.6,0.2v17.7C336.2,385.1,336.4,385.1,336.6,385z"/>
		<path class="st1" d="M336.5,361.5c3.5-1.6,7.1-3.3,10.6-4.9c0.2-0.1,0.3-0.2,0.5-0.3c-3.9-5.2-7.7-10.3-11.6-15.5l0,0v20.8
			C336.2,361.6,336.4,361.5,336.5,361.5z"/>
		<path d="M333.1,382.2c0,13.8,0,27.6,0,41.4c0,1.8-0.8,2.8-2.4,2.9c-1.3,0.1-2.5-1-2.6-2.3c0,0,0,0,0,0c0-0.4,0-0.8,0-1.2
			c0-16,0-32.1,0-48.1c0-0.8-0.1-1.5-0.4-2.3c-2.9-8.1-7.9-14.4-15.6-18.5c-3.5-1.9-6.4-4.5-7.9-8.3c-3.2-8,1.9-17.3,10.5-19.3
			c8.9-2.1,16.6,4.3,18.1,12.2c0.2,1.3,0.3,2.6,0.3,3.8C333.1,355.7,333.1,368.9,333.1,382.2z M320.6,340.9c0-1.3-1.1-2.5-2.4-2.5
			c-1.4,0-2.5,1.2-2.5,2.6c0,1.4,1.2,2.4,2.5,2.4c0,0,0,0,0,0c1.3,0,2.4-1,2.4-2.2C320.6,341.1,320.6,341,320.6,340.9z"/>
		<path d="M297.7,380.2c0.7-1.3,1.4-2.4,2-3.6c0.2-0.2,0.4-0.3,0.7-0.3c2.7,0.4,5.6,0.8,8.7,1.4c1.6,0.3,3.3,1,5,1.5
			c1.7,0.5,3-0.1,3.3-1.4c0.3-1.2-0.8-2.5-2.4-2.9c-3.1-0.7-6-1.4-8.7-2c-1.3-0.3-2.7-0.4-4.1-0.6c0.6-1,1.1-2,1.7-3.1
			c0.2-0.1,0.4-0.2,0.6-0.2c3,0.4,6.1,0.9,9.5,1.4c0.8,0.2,1.6,0.2,2.4,0.1c1.1-0.2,1.6-0.9,1.5-1.8c-0.1-1-1-1.7-2.4-1.9
			c-3.1-0.4-6.1-0.7-8.9-1.1c-0.2,0-0.4,0-0.7-0.1c1.6-2.8,3.1-5.4,4.5-8c5.9,2.1,11.6,9,14.3,14.8c0.1,0.2,0.1,1.8,0.1,2.1
			c0,10.1-0.1,18-0.1,33.3c0,0.2,0,0.5,0,0.6c-3.1-2.3-6.7-4.9-9.4-6.7c-7.8-5.1-15.3-5.9-21.5-4.5c-0.6,0.1-1.2,0.4-1.7,0.3
			c-1.7-0.3-2.5-2.5-1.5-4.3c1.5-3,3.1-5.7,4.6-8.4c0.2-0.3,0.5-0.4,0.9-0.4c5.3-0.1,10.9,1.5,17.1,4.7c1.7,0.9,3.2,0.5,3.8-1
			c0.5-1.3-0.4-2.9-2.1-3.7c-5-2.4-9.7-3.8-14.2-4.1C299.6,380.4,298.7,380.3,297.7,380.2z"/>
		<path class="st3" d="M271.6,362.2h-4.9c0.3,1,0.6,2,0.9,3.1h4.4C271.9,364.3,271.7,363.3,271.6,362.2z"/>
		<path class="st3" d="M272.5,376.3c0.8,1.4,1.6,2.7,2.4,4h1.7c-0.6-1.3-1.2-2.6-1.7-4H272.5z"/>
		<path class="st3" d="M272.8,369.3h-3.7c0.5,1.2,1,2.4,1.5,3.5h3.1C273.4,371.6,273.1,370.5,272.8,369.3z"/>
		<path class="st3" d="M271.3,356.4c0-0.4,0-0.8,0-1.2h-6.1c0.1,0.9,0.3,1.7,0.5,2.6h5.6C271.3,357.3,271.3,356.9,271.3,356.4z"/>
		<path class="st3" d="M277,383.3c1.2,1.6,2.5,3.2,3.9,4.7c-1-1.5-1.9-3.1-2.8-4.7H277z"/>
		<path class="st3" d="M271.9,348.2h-7.3c0,0.7,0.1,1.4,0.1,2.1h6.9C271.7,349.6,271.8,348.9,271.9,348.2z"/>
		<path class="st3" d="M327.5,282.7c-30.8,0-57.1,22.3-62.1,52.7h10c11.7-29.2,44.7-43.4,73.9-31.7c15,6,26.7,18,32.3,33.2
			c2.7-0.6,5.5-0.8,8.2-0.8C385,305.3,358.6,282.7,327.5,282.7z"/>
		<path class="st3" d="M273.4,341.1h-8.7c0,0.6-0.1,1.1-0.1,1.7h8.4C273.1,342.3,273.2,341.7,273.4,341.1z"/>
		<path class="st3" d="M376.1,338.6c-10-26.5-39.6-40-66.1-30c-12.7,4.8-23,14.4-28.7,26.8h3.7c17.4-21.9,49.3-25.6,71.2-8.2
			c5.6,4.4,10.1,9.9,13.4,16.2C371.5,341.3,373.7,339.7,376.1,338.6z"/>
		<path class="st3" d="M277.3,348.9c0.1-0.2,0.2-0.5,0.3-0.7h-0.2C277.4,348.4,277.4,348.7,277.3,348.9z"/>
		<path class="st3" d="M278.6,342.8h1.5c0.3-0.6,0.6-1.1,1-1.7h-1.9C279,341.7,278.8,342.3,278.6,342.8z"/>
	</g>
</g>
<text transform="matrix(1 0 0 1 138.9731 460.0558)" class="st5 st6 st7">L’artisanat africain comme vous ne l’avez jamais vu</text>
<g id="XMLID_1_">
	<path id="XMLID_16_" class="st8" d="M180.6,591.1c13.1,22.9,25.2,43.9,37.9,66.1c-25.8,0-50.1,0-75.9,0
		C155.4,635,167.5,613.9,180.6,591.1z"/>
</g>
<g id="XMLID_2_">
	<path id="XMLID_3_" class="st9" d="M225.9,611.3c-13.1-22.9-25.2-43.9-37.9-66.1c25.8,0,50.1,0,75.9,0
		C251.1,567.5,238.9,588.6,225.9,611.3z"/>
</g>
<g id="XMLID_10_">
	<path id="XMLID_11_" class="st9" d="M980.7,405.8C913,288.1,851.2,180.1,785.5,65.6c132.7,0,257.6,0,390.3,0
		C1110.1,180.1,1047.7,288.7,980.7,405.8z"/>
</g>
<g id="XMLID_4_">
	<path id="XMLID_5_" d="M759.8,216.6c13.1,22.9,25.2,43.9,37.9,66.1c-25.8,0-50.1,0-75.9,0C734.6,260.4,746.8,239.3,759.8,216.6z"/>
</g>
<g id="XMLID_8_">
	<path id="XMLID_9_" d="M21.4,545.2c102,177.5,195.2,340.4,294.3,513c-200.1,0-388.4,0-588.6,0C-173.8,885.6-79.6,721.8,21.4,545.2z
		"/>
</g>
<g id="XMLID_6_">
	<path id="XMLID_7_" class="st10" d="M716.6,235.7c-13.1-22.9-25.2-43.9-37.9-66.1c25.8,0,50.1,0,75.9,0
		C741.8,191.9,729.6,213,716.6,235.7z"/>
</g>
</svg>
