<?xml version="1.0" encoding="utf-8"?>
<!-- Generator: Adobe Illustrator 23.0.3, SVG Export Plug-In . SVG Version: 6.00 Build 0)  -->
<svg version="1.1" id="Mode_Isolation" xmlns="http://www.w3.org/2000/svg" xmlns:xlink="http://www.w3.org/1999/xlink" x="0px"
	 y="0px" viewBox="0 0 450 450" style="enable-background:new 0 0 450 450;" xml:space="preserve">
<style type="text/css">
	.st0{fill:#BE1E2E;}
	.st1{fill:#0A0605;}
	.st2{fill:#FDA802;}
	.st3{fill:#302E2B;}
	.st4{fill:#363444;}
	.st5{fill:#7C573B;}
	.st6{fill:#604029;}
	.st7{fill:#039343;}
	.st8{fill:#F7EDC2;}
	.st9{fill:#D2552F;}
	.st10{fill:#735E4A;}
	.st11{fill:#945E37;}
	.st12{fill:#A07149;}
	.st13{fill:#FDFDFD;}
	.st14{fill:#695337;}
	.st15{fill:#3962C1;}
</style>
<g>
	<path class="st0" d="M252.6,429.4c-3.2-1.3-6.7-1-10-1.5c-17.4-2.4-34.1-7.4-51.1-11.3c-19.3-4.5-38.7-8.9-57.7-14.6
		c-23-6.8-45.9-14-67.1-25.5c-18.4-9.9-35.1-22.1-47.4-39.4c-11.1-15.6-17.2-33-18.7-52c-1.9-24,1.2-47.4,9.1-70.1
		c0.2-0.4,0.5-0.8,0.7-1.3c0,1.3,0.1,2.6-0.1,3.9c-1.6,14.4-1.9,28.8,0.7,43.2c3.7,20.6,12.3,38.8,26.5,54.3
		c11.6,12.6,25.5,22.1,40.4,30.2c21.6,11.6,44.8,18.9,68.2,25.8c14.6,4.4,29.4,8,44.3,11.3c23.1,5.1,45.8,12.5,69.5,15.1
		c13,1.4,26.1,1.5,39.1,0.2c13.4-1.3,26.5-4.2,39.3-8.1c30.1-9.3,56.6-24.5,78.8-47.2c4.5-4.6,8.3-9.9,12.6-14.7
		c-0.3,1.1-0.5,2.2-0.8,3.2c-5.4,15.6-13.9,29.3-25.1,41.4c-16.1,17.4-35.2,30.5-56.8,40.1c-18.8,8.3-38.4,13.9-58.9,16.1
		c-2.4,0.3-5-0.2-7.3,1C271.3,429.4,261.9,429.4,252.6,429.4z"/>
	<path class="st1" d="M450,278.8c-1.5,2.4-1.3,5.1-2,7.7c-3.3,13.5-8.7,25.9-16.3,37.5c-0.8,1.2-1.4,2.4-2.1,3.6
		c-4.3,4.8-8,10.1-12.6,14.7c-22.1,22.6-48.7,37.8-78.8,47.2c-12.9,4-26,6.8-39.3,8.1c-13,1.3-26,1.3-39.1-0.2
		c-23.7-2.6-46.3-9.9-69.5-15.1c-14.9-3.3-29.7-6.9-44.3-11.3c-23.4-7-46.6-14.2-68.2-25.8c-14.9-8-28.8-17.5-40.4-30.2
		c-14.2-15.5-22.8-33.6-26.5-54.3c-2.6-14.4-2.3-28.7-0.7-43.2c0.1-1.3,0.1-2.6,0.1-3.9c0,0,0,0.1,0,0.1c0.7-0.5,0.6-1.2,0.5-1.9
		c4.4-27.6,13.9-53.2,30-76.2C56.3,113.6,75.4,95,97.3,79.3c17.1-12.2,35.3-22.8,54.6-31.1C181.1,35.6,211.3,26.1,243,22
		c21.9-2.8,43.6-1.8,64.7,5.5c19.7,6.8,35.6,19.1,48.9,34.9c17.4,20.7,29.2,44.7,40.6,69c7.6,16.2,14.5,32.6,22.5,48.6
		c5.5,11,11.6,21.7,17.4,32.5c6.1,11.4,10.3,23.5,12.3,36.3c0.1,0.4,0.1,0.8,0.6,0.9C450,259.4,450,269.1,450,278.8z M146.9,54.6
		c-3.7,1.5-7.4,3.3-10.9,5.4c-19.4,9.9-37.5,21.8-54.1,36c-13.8,11.9-26.4,25-36.7,40.1c-5.4,6.7-9.6,14.1-13.3,21.8
		c-2,3.7-4.1,7.5-5.4,11.6c-3.1,6.9-5.5,14-7.5,21.2c-3.9,14.1-6.2,28.3-6.2,43c-0.7,12.9,0.6,25.5,4.3,37.9c0.3,1,0.5,2,0.8,2.9
		c9.9,31.1,31.7,51.4,59.6,66.3c10,5.7,20.4,10.4,31.2,14.2c11.6,4.6,23.6,8.3,35.6,11.8c1.6,0.5,3.3,1,4.9,1.4
		c9.3,2.7,18.7,5.3,28.2,7.3c7.6,1.9,15.2,3.9,22.9,5.6c20.1,4.5,39.8,10.8,60.4,12.8c9.6,0.9,19.1,1.4,28.8,0.5
		c8.5,0,16.8-1.3,25.1-2.8c4.1-0.7,8.3-0.9,12-3.2c1,0.6,2,0,2.9-0.3c21.2-5.6,40.9-14.3,58.9-26.7c7.4-5.1,14.6-10.5,20.8-17.1
		c0.6-0.4,1.1-0.8,1.6-1.3c7.1-6.9,13.3-14.5,18.7-22.7c2.1-3.2,4.8-6.3,5.2-10.4c1.3-0.3,1.5-1.6,1.9-2.5
		c5.4-11.2,8.8-22.9,9.8-35.3c1.7-21.2-3.2-40.8-13.5-59.2c-3-5.7-6-11.4-9.1-17c-2.2-3.9-3.7-8.2-6.5-11.9
		c-1.9-4.2-3.9-8.4-5.8-12.5c-3-6.3-6-12.7-9.1-19c-0.4-2.6-1.9-4.8-3-7.2c-4.2-9.2-8.2-18.6-13.1-27.6
		c-6.1-13.1-13.1-25.7-21.1-37.7c-8.9-13.2-19.1-25.3-32-34.8c-10-7.8-21.2-13.2-33.5-16.5c-2.1-0.5-4.1-1.1-6.2-1.5
		c-22.4-5-44.6-3.4-66.8,0.9c-24,4.6-47.1,12.1-69.6,21.6C153.7,51.2,150.2,52.6,146.9,54.6z"/>
	<path class="st0" d="M10.8,212c0.1,0.7,0.2,1.4-0.5,1.9C10.2,213.1,10.3,212.5,10.8,212z"/>
	<path class="st2" d="M12.9,233.6c0-14.6,2.3-28.9,6.2-42.9c2-7.3,4.4-14.4,7.5-21.2c0.7,0.2,1.3,0.5,2,0.6
		c22.7,2.7,45.4,4.7,68.2,5.6c6.4,0.3,12,1.8,16.8,6.3c3.4,3.2,7.3,5.7,11.2,8.3c2.6,1.7,5.1,2.3,8,1c2.1-0.9,4.3-1.2,6.5-1.2
		c2.6,0.1,5-1.1,8-1.6c-2.7-1.9-1.7-3,0.1-4.1c0.4-0.3,0.8-0.6,1.2-0.9c0.2,0.1,0.4,0.2,0.6,0.3c20.7,5.5,41.3,11.1,62,16.6
		c1.5,0.4,2.2,0,2.6-1.6c0.6-2.8,1.4-5.5,2.2-8.2c6.9-25.8,13.7-51.7,20.6-77.5c0.6-2.3,0.1-3.1-2.2-3.6c-5.1-1.2-10.1-2.8-15.2-4
		c-6.1-1.4-12-3.6-18.2-4.5l0,0c-0.2-0.1-0.4-0.3-0.6-0.4c-2.1-3.2-4.8-6-6.9-10c4.2,2.9,7,6.7,11.1,8.7c1,0.5,2,2.3,3.2,0.8
		c1-1.2-0.7-2-1.3-2.9c-0.1-0.1-0.1-0.2-0.2-0.3c0-1.9-1.5-2.8-2.6-3.9c-3.3-3.5-6.7-7-10-10.5c4.5,0.3,8.2,2.7,12.5,2.9
		c0.7,0,1.7,0.8,2.1-0.4c0.3-1-0.9-1.2-1.4-1.7c-2.5-2.5-5.8-3.7-8.9-4.9c-8.8-3.2-15.8-9.6-24.5-13.1c-3.3-1.8-6.8-3.2-9.6-5.7
		c-3-2.6-5.6-5.7-6.7-9.7c22.5-9.4,45.6-16.9,69.6-21.6c22.2-4.3,44.5-5.9,66.8-0.9c2.1,0.5,4.1,1,6.2,1.5
		c-1.7,7.1-2.4,14.3-3.5,21.5c-1.1,7.5-1.3,15.2-6.4,21.7c-3.4,4.4-2.9,4.8,2.4,7.3c0.5,0.2,0.9,0.5,1.3,0.8
		c-0.3,2.9-0.7,5.8-0.9,8.7c-0.5,5.1-1.6,9.8-5.4,13.7c-3.9,4.1-7.6,8.4-10.8,13c-0.9,1.3-2.4,2.8-1.9,4.3c1.6,4.8,1.3,9.7,2.1,14.5
		c0.5,3,0.6,2.9,3.3,1.4c1,2.2,3,3.4,4.9,4.8c1.6,1.2,3.7,1.7,4.9,3.4c0.4,7.5,2.9,14.3,7.2,20.5c3.4,4.8,8.1,7.6,14,8.6
		c4.3,0.8,8.4,0,12.6-0.7c3.3,2.2,7.1,1.7,10.8,1.8c-1.8,1.4-3.5,2.8-5.3,4.2c-1.9,1.6-4.1,1.6-6.4,1.3c-3.5-0.4-6.7-0.1-9.2,2.8
		c-0.2,0.2-1.3,0.2-0.4,0.7c1.2,0.8,2.6,0.5,4,0.4c2.3,0.7,4.5,1.4,6.8,2.1c-0.1,0.2-0.2,0.4-0.2,0.6c-2.4,1.5-5.6,2.1-6.5,5.4
		c-0.5,0.3-1.2,0.5-1,1.3c0.2,0.7,0.8,0.5,1.2,0.3c1-0.6,2.5,0.1,3.3-1.1c5.4-0.5,10.2-2.2,13.3-7.1l0,0c0.2-0.2,0.5-0.4,0.7-0.6
		c1.6-1.2,3.1-2.6,4.2-4.3l0,0c0.4-0.4,0.9-0.8,1.3-1.3c6.7-5,10-12.5,14.1-19.4c3-5,7.1-8.1,13-8.6c2.9-0.2,5.8-0.7,8.7-1.1
		c0.5,1.2,1,2.4,1.5,3.6c1.4,3.5,2.3,3.9,5.7,2.4c2.3-1,4.6-1.4,7-1.7c4.1-0.6,8.2-1.1,12.3-1.7c3,6.3,6.1,12.7,9.1,19
		c2,4.2,3.9,8.4,5.8,12.5c-2.6-0.2-3.6,1.1-3.4,3.6c0.1,1.2,0,2.4,0,3.6c-2,0.6-4,1.3-6,1.9c-5,1.6-9.9,4-15.4,2.3
		c6.1-5.1,12.2-10.2,18.2-15.4c0.9-0.7,2.9-1.6,1.9-2.8c-1-1.2-1.9,0.8-2.7,1.5c-6.5,5.4-13,10.9-19.4,16.3
		c-5.8-2.4-11.9-3.6-18-4.8c-1-0.2-2.1-0.1-2.9,0.6c-3.7,3.5-8.6,5.2-12.7,8.1c-1.3,0.9-2.8,1.5-0.2,2.7c0.7,0.3,0.8,0.7,0.4,1.4
		c-2.7,4.8-2.3,10.3-3.1,15.5c-0.1,0.7-0.4,1.8,0.4,2.2c0.9,0.4,1.7-0.5,2.4-1c0.8-0.6,1.3-1.5,1.7-2.4c0.5-1.1,0.4-2.5,1.7-3.4
		c0.6,1.6,1.1,3,1.7,4.4c0.1,1.5-1.5,1.7-2,2.8c-0.6,0.3-1.6,0.8-1.3,1.2c0.7,0.8,1.1-0.4,1.7-0.8c1.9-0.8,3.6-1.8,5-3.6
		c1.4-1.8,3.4-4.3,6.2-1.3c0.1,0.1,0.2,0,0.3,0.1c5,0.5,10,1.3,15,0.7c4.8-0.6,10-0.6,12.8-5.8c0.2-0.3,0.4-0.6,0.6-0.8l0,0
		c3.9-1.3,8-1.5,12.1-1.3c2.3,0.1,4.6,0.2,6.8,0.2c6.3,8.3,6.7,5.9,13.8,3.1c10.3,18.4,15.3,38,13.5,59.2c-1,12.4-4.4,24.2-9.8,35.3
		c-0.5,0.9-0.6,2.2-1.9,2.5c-2.1-2.5-4.1-4.9-6.2-7.4c-4.6-5.5-9.8-10.5-13.9-16.3c-2.5-3.6-4-4.4-8.4-3.4c-1.3,0.3-2.5,0.6-3.8,1
		c-5.5-3.3-10.7-7.2-15.2-11.8l0,0c-0.2-0.2-0.4-0.4-0.7-0.7c-1.3-2.9-3.9-4.9-5.4-7.6c-1.4-2.5-3.5-4.1-6.4-4.5
		c-7.7-1.2-15.6-1.1-23.3-3c-1.4-1-0.6-2.6-0.9-3.9c-0.1-0.5,0.6-1.6-0.6-1.5c-0.5,0-1.6-0.5-1.9,0.8c-0.2,0.7-1,1.2-1.5,1.9
		c-5.1,4.1-5.4,5-3.1,10.3c0.5,1.1,1.2,2.1,1.1,3.4c-1.8-0.2-2.9-2.1-4.8-1.9l0,0c-0.2-0.3-0.4-0.5-0.6-0.8
		c-2.4-0.9-3.3-2.9-4.1-5.1c-0.3-0.9-0.5-1.9-1.3-2.6c-0.1-0.5-0.1-1-0.7-1.2l0,0c-0.5-1.9-1.6-3-3.6-3.1l0,0
		c-0.2-0.1-0.3-0.3-0.5-0.4c-1.3-0.1-1.3-0.1-0.9,1.2c1,3.2,2.3,6.3,2,9.7c-0.2-0.1-0.4-0.1-0.7-0.1c-2.5-2.4-5.2-4.2-9.4-3.8
		c4.4,5.7,7.7,11.9,15.5,13.1c2.3,1.2,4.7,2.2,7.3,2.3l0,0c0.2,0.6,0.8,0.5,1.3,0.6c4.1,2.6,8.8,3.1,13.4,3.6
		c0.4,0.9,0.8,1.8,1.1,2.8c4.2,11.9,8.5,23.8,12.8,35.6c0.4,1.1,0.4,3.4,2,2.7c1.3-0.6-0.1-2.3-0.6-3.4
		c-4.6-12.5-9.5-24.9-13.7-37.5c2.5,0.2,5,0.3,7.5,0.6c5.9,0.7,10.6,3.4,13.7,8.6c1.4,2.4,2.9,4.8,4.4,7.1c-1.2,1.3-2.4,2.7-3.7,4
		c-1.3,1.3-1.5,2.8,0,3.9c4.6,3.7,7,9.1,10.2,13.8c6,9.1,11.9,18.3,17.8,27.4c-6.2,6.6-13.3,12-20.8,17.1
		c-18.1,12.4-37.8,21.1-58.9,26.7c-0.9,0.2-1.9,0.9-2.9,0.3c-0.3-1.1-0.5-2.1-0.9-3.2c-3.7-10.2-7.8-20.3-12.1-30.3
		c-0.8-1.9-1.4-3.4,0.3-5.2c0.9-0.9,1-2.4,0.1-3.6c-0.7-2.2-1.3-4.3-2-6.5c0.2-2.7-1.3-3.3-3.6-3c-1.2,0.2-2.4,0.3-3.6,0.4
		c-1.4-3.2-2.7-6.5-4.3-9.6c-2.1-4.2-2.7-8.5-1.6-13.1c0.3-1.1,0.3-2.2,0.5-3.3c1.1-0.2,1.9,0.6,2.7,1.1c6.9,3.9,13.7,7.8,20.5,11.7
		c0.9,0.5,1.7,1.1,2.7,1.4c0.9,0.4,1.8,0.3,2.4-0.7c0.5-0.9,0.4-1.8-0.5-2.4c-0.7-0.5-1.5-1-2.3-1.4c-8.1-4.7-16.3-9.4-24.4-14.1
		c0.6-3.6,1.3-7.1,1.3-10.7c0-1.1,0.1-2.3-0.8-3.1c-4.5-3.7-6.6-9.4-11.1-13.4c-1,3.9-3.3,1.4-5.1,1.1c-4.6-21.3-9.3-42.6-13.9-63.9
		c-0.4-1.9-1.3-1.5-2.6-1.2c-15.4,3.4-30.8,6.7-46.2,10c-13.6,3-27.2,6-40.8,8.9c-1.6,0.3-2.4,0.6-2,2.7c2.7,11.5,5.1,23,7.7,34.6
		c-1.3,3.7-3.2,7-5.3,10.3c0.4-2.9,0.8-5.9,1.9-8.5c1.2-2.9-1-3.5-2.6-4c-1.8-0.5-1.6,1.6-2,2.6c-0.8,1.9-1.2,3.8-1.9,5.7
		c-1,2.8-1.7,5.8-3.6,9c-0.7-4.4-1.3-8-2-11.6c-0.2-1.2-0.4-2.7-1.8-2.6c-1.4,0-1.1,1.6-1.2,2.6c-1.2,3.7-0.2,7.4,0,11.1
		c0.6,8.5-1.3,16.9-0.5,25.4c0.5,8-1.1,15.4-5.6,22.1c-0.1,0.1-0.1,0.2-0.1,0.3c-1.3,0.2-2.6,0.4-3.8,0.7c-2.5,0.7-5.1,1.4-5.3,4.8
		c-0.5,1.8-0.6,3.8-1.8,5.4c-2,1.8,0.4,2.5,0.9,3.8c-0.6,1.6-1.8,3-2,4.7c-2.1,4.4-4.1,8.9-6.2,13.3c-12-3.5-24-7.2-35.6-11.8
		c1-4,1.9-8,2.9-12c1.7-6.6,1.9-13.5,7-19c5-5.5,4.5-6.2-2.1-9.4c0.4-2.5,0.9-4.9,1.3-7.4c0.9-6.6,3.3-12.3,8.7-16.7
		c3-2.5,5.7-5.4,8.3-8.4c1.6-1.8,4.1-3.6,3.5-6.4c-1.1-5.6,0.1-11.4-1.4-17c-2.2,1.2-2.3,1.3-2.8,0.6c-3-4.4-7-7.6-12.3-9.1
		c-0.8-0.2-1.4-1.7-2.2-0.5c-0.6,0.8-0.2,2,0.5,2.8c1,1.2,2.2,2.2,2.7,3.9c-2.7-0.2-5.1-0.5-7.5-0.7c0.2,2.1,1.6,3.1,3.2,3.4
		c4.7,0.9,5.9,4.3,6.6,8.3c0.6,3.9-1.5,7.4-5.3,8.7c-1.4,0.5-2.4-0.3-3.3-1c-1-0.7-0.1-1.6,0.1-2.4c0.4-1.4,1.4-2.7,0.9-4.4
		c-2,1.7-3.1,0.8-3.8-1.4c-4.1,5.5-7.9,10.9-9.1,17.5c-0.4,2.5-0.9,5,0.9,7.2c0.5,3.9-1.2,7.1-3,10.3c-1.6,2.7-3.3,5.3-4.9,8
		c-0.5,0.1-1,0.2-1.5,0.3c-6.4,0.9-7.3,1.7-7.6,8.1c-0.1,2.6-0.9,4.9-2.2,7.1c-3.1,5.1-6.2,10.1-8.8,15.5
		c-27.8-14.9-49.7-35.2-59.6-66.3c-0.3-1-0.5-1.9-0.8-2.9c5.1-1,10.2-2.3,15.4-3c5-0.6,6.5-1.5,7.8-6.3c0.3-1.2,0.5-2.4,0.8-3.5
		c6.6-2.7,12.7-6.6,20-7.3c2.7-0.4,5.4-1,8.1-1c2.4,0,4.4-0.8,6-2.4c4.1-4.2,6.5-9.6,10.4-14c1.7-2,0.3-5.3,2.9-6.9
		c-0.6-0.6-1.2-0.6-1.7,0l-0.3,0.1l-0.2,0c-2.6,0.3-3.8,3-6.2,3.8c0-0.6,0-1.2,0.1-1.8l0,0c0.5,0.1,0.7-0.3,0.9-0.6
		c0.3-0.5,0.8-0.9,1-1.5c0.9-2.8,3.4-2.9,5.5-3.3c1.9-0.3,2,1.9,2.9,2.9c-0.5,1.3,0.7,0.8,1.1,1.1l0.1,0.1c0.3,1.6,0.5,3.2,0.8,4.8
		c-0.2-1.7,0.9-2.7,1.6-4c0.2-0.9-0.4-1.7-0.1-2.6c1.5-4.4-0.1-7.1-4.5-8.1c-2.1-0.5-4.2-0.5-6.3-0.5c1.4-1.8,3.7-2.4,5.4-3.7
		c2.6-2.4,5.7-1.4,8.6-1.2c3,0.3,6,0.8,7.7-2.6c-1.3-0.7-2.7-0.7-4.1-0.9c-1.9-1.4-4.3-1.6-6.4-2.5c0.1-0.2,0.2-0.4,0.4-0.6
		c2-0.9,4.2-1.4,5.8-3.1c0.8-0.9,2.1-1.9,1.6-3c-0.6-1.2-1.9,0-2.9,0.1c-0.4,0-0.8,0-1.2,0c-5.5,0.6-10.6,1.9-14.2,6.6l0,0
		c-0.2,0.2-0.5,0.3-0.7,0.5c-1.6,1.3-3.6,2.1-4.3,4.3l0,0c-0.6-0.2-1,0.2-1.3,0.6c-4.2,2.8-7.5,6.4-10.2,10.6
		c-1.9,2.9-3.9,5.9-6,8.7c-2.9,3.8-6.7,6-11.5,6.3c-3.3,0.2-6.6,0.4-9.9,0.6c-0.5-1.5-1.1-3-1.5-4.6c-0.7-2.5-2-3.3-4.5-2.3
		c-2.5,1.1-5.2,1.3-8,1.4C21.6,232.9,17.3,233.3,12.9,233.6z M352.8,232c-0.5,0.6-1.1,0.6-1.7,0.4c0.1-1.4-0.1-2.8-1.6-3.2
		c-1.5-0.4-1.3,1.1-1.5,2c-0.1,0.2-0.4,0.4-0.6,0.4c-2.5,0.3-2.2,1.7-1,3.1c1.2,1.5,1.4,2.3-0.7,2.9c-1.1,0.3-2.4,1.2-1.6,2.4
		c1.4,2.2,2.2,4.6,3,7c0.7,1.9,1.4,0.4,2.2,0.1c4.9,0.2,9.8,0.9,14.7,1.6c6.5,0.9,12.8,2.5,18.8,5.3c4.7,2.2,8.6,0.9,12-2.8
		c0.7-0.7,1.3-1.5,2-2.3c4.2-5.3,7.6-11.2,12-16.3c2.5-2.9,5.7-5.2,7.7-8.5c2.8-4.5,1.1-9-4-10.3c-1.3-0.3-2.6-0.6-3.9-0.6
		c-7.4-0.2-13.6,2.9-18.8,7.8c-6.7,6.2-14.3,9.1-23.5,7.5c-2.9-0.5-5.5-2-8.5-2C353.7,227,352.9,227.8,352.8,232z M282.2,150.7
		c-0.4-1.8-1.8-2.5-3.4-2.4c-1.8,0.1-3.5,0.7-4.4,2.6c-0.3,0.6-0.9,1.3-0.1,1.8c0.5,0.4,1.2-0.1,1.6-0.6c1.7-2.1,3.8-2.4,6.2-1.5
		c1,1.7,2,3.4,1.6,5.5c-4.4,2.9-4.8,2.8-8-1.8c-0.3-0.5-0.7-0.7-1.2-0.5c-0.7,0.3-1.1,0.9-0.8,1.7c0.5,1.2,1.2,2.3,1.8,3.4
		c-0.8,4-0.8,4-4.1,1.9c-0.1-0.1-0.2-0.1-0.3-0.1c-0.1-2.6-0.3-5.1-3.6-6.5c0.6,1.9,1.1,3.4,1.6,4.9c-1.2,4.3-3.3,5.4-6.4,3.6
		c-0.7-0.4-1.3-2.1-2.3-0.6c-0.8,1.4,0.6,1.9,1.5,2.5c2.4,1.7,4.8,0.6,7.2-0.2c4.8,3.5,4.4,1.9,3.1,8c-0.8,3.7-1.8,7.5-2.6,11.2
		c-0.3,1.4-0.4,2.8,0,4.2c0.4,1.4,1,3.1,2.5,3.1c1.4,0,1.1-1.9,1.4-2.9c1.4-5.7,2.6-11.5,4-17.6c5,3.7,9.6,7.2,14.3,10.5
		c0.9,0.7,2,2.6,3.2,1.4c1.2-1.1,0.4-2.9-0.4-4.2c-0.7-1-1.5-1.9-2.4-2.7c-3-2.3-5.8-4.8-9.1-6.6c-3.6-2.1-5.1-4.5-3.3-8.5
		c1-0.4,2.1-0.7,3.1-1.1c1.5-0.7,2.2-1.7,1.1-3.3c1.3,0.1,2-0.4,1.9-1.9C285.3,152.2,284.2,151.1,282.2,150.7z M91.7,236.9
		c-0.4,1-0.9,1.9-2.2,2.2c-0.9,0.2-1.9,1.1-1.1,2c1,1.1,0.6,2.1,0.8,3.1c0.2,1.5,1.4,2.8,0.8,4.5c-0.2,0.5,0.5,0.7,1,0.9
		c1.3,0.4,2.3,0,2.8-1.1c1-1.9-1.4-1.7-2-2.6c0.5-0.9,2.4-1.5,1.3-2.6C91.4,241.4,92.3,239,91.7,236.9c0.8-0.7,0.7-1.5,0.1-2.9
		C91.8,235.3,91.7,236.1,91.7,236.9z M274.9,85.7c-0.3-2.2-0.6-4.4-0.9-6.6c-0.2-1.3-0.9-2.3-2.3-2.5c-1.7-0.1-3.2,0.5-4.4,1.7
		c-1,1-0.4,2.1,0.1,3c1.1,1.9,2.3,3.8,3.4,5.6c0.2,2.2,0.7,4.3,2.3,6c0.2,2.3,0.4,4.6,0.7,6.9c0.1,1.3,0.5,2.5,1.9,2.8
		c1.8,0.4,3.4-0.1,4.7-1.4c1.1-1.1,0.4-2.2-0.1-3.3c-1.2-2.1-2.4-4.2-3.5-6.3C277,89.5,276,87.5,274.9,85.7z M259.9,99.6
		c-0.9,2-1.6,3.9-0.6,6.1c-0.9,2.3-1.8,4.7-2.7,7c-0.4,1.1-0.3,2.2,0.7,3c1.4,1,3,1.2,4.6,0.7c1.3-0.4,1.5-1.6,1.4-2.7
		c-0.1-2.5-0.2-5-0.4-7.5c1.2-1.9,1.3-4,0.9-6.1c0.7-2.2,1.4-4.4,2.2-6.5c0.4-1.2,0.2-2.2-0.8-2.9c-1.4-1-3-1-4.6-0.6
		c-1.3,0.4-1.4,1.6-1.3,2.7C259.6,95,259.7,97.3,259.9,99.6z M292.1,259.2c-0.3,1.2-0.9,2.6,0.3,3.3c2,1.4,4.6,1.6,6.9,1.4
		c1.8-0.2,1.5-2.3,1.9-3.7c0.8-2.3,1-4.7,1.2-7.1c0.3-4.4-0.6-3.6-5.8-4.6c-2.7-0.5-3.2,1.3-3.3,3.4
		C292.5,254.3,292.2,256.7,292.1,259.2z M144.6,238.7c0.1-6-4.7-10.9-10.6-10.9c-5.8,0-10.6,4.7-10.7,10.5
		c-0.1,6.1,4.5,10.9,10.5,11C139.7,249.5,144.6,244.7,144.6,238.7z M122,215.1c0.1-2.4-1.6-4.3-3.7-4.3c-2.3,0-3.8,1.4-4.5,3.4
		c-0.5,1.5,2.5,4.4,4.3,4.4C120.5,218.5,121.8,217.1,122,215.1z M100.3,257.1c0-1-0.4-1.9-1.5-1.9c-0.7,0-1.6,0.6-1.6-0.8
		c0-1.1-0.5-1.7-1.7-1.6c-0.1,0-0.2,0-0.3,0.1c-0.9,0.5-2,1.6-1.5,2.3c1.1,1.6,2.7,2.9,4.3,4c0.8,0.5,1.7-0.8,2.4-1.5
		C100.4,257.6,100.3,257.3,100.3,257.1z M264.6,155c-2.2-1.6-3.6-0.5-4.8,1.2c-0.5,0.6-0.1,1.1,0.3,1.6c0.6,0.7,1,0.4,1.3-0.3
		C262.1,156.3,263.6,156.1,264.6,155z M108.5,210.9c-0.6,6.1-0.3,8.4,1.5,11C109.2,218.1,108.3,214.6,108.5,210.9z M131,212.3
		c-0.9,1.3-1.1,2.3-0.8,3.7C131.1,214.9,131.3,213.8,131,212.3z M129.2,218.3c0.2-0.2,0.5-0.4,0.6-0.6c0.1-0.1-0.1-0.3-0.2-0.5
		c-0.2,0.2-0.4,0.4-0.6,0.6C129,217.8,129.2,218,129.2,218.3z M130.3,210.6c-0.1,0-0.2,0-0.2,0.1c0,0.1,0,0.2,0,0.2
		c0.1,0,0.2,0,0.3-0.1C130.4,210.7,130.4,210.7,130.3,210.6z"/>
	<path class="st2" d="M289.6,394.3c-9.6,0.9-19.2,0.4-28.8-0.5c-20.6-1.9-40.3-8.3-60.4-12.8c-7.7-1.7-15.3-3.8-22.9-5.6
		c0.8-6.3,1.5-12.5,2.2-18.8c0.2-1.8,0.2-3.5,2.5-4.2c1.4-0.4,2.1-1.8,2.2-3.3c0.3-1.9,0.6-3.9,1-5.8l-0.1-0.2l-0.2,0
		c0.6,0.2,0.5-0.3,0.6-0.6c1.4-2.1,0.7-3.5-1.5-4.3c-1.4-0.5-2.7-1.2-4-1.7c0.2-1.9,0.4-3.8,0.7-5.7c0.6-5.7,2.6-11,7.4-14.4
		c2.8-2,5.2-4,7-6.9c3.1,13.9,6.2,27.8,9.1,41.7c0.4,2,0.9,2.4,3,1.9c26.3-5.8,52.6-11.5,78.9-17.3c0.1,2.8,0.2,5.7,0.3,8.5
		c-0.8,0.7-1.7,1.4-2.5,2.2c-1.5,1.6-3.1,3.2-1.9,5.8c0.4,2,1.6,3.8,1.2,6c-0.7,2.5,1,2.4,2.6,2.5c0.2,1.8-0.5,3.7,0.4,5.4
		c0.1,0.9,0.1,1.8,0.2,2.7C287.5,377.4,288,386,289.6,394.3z"/>
	<path class="st2" d="M333.3,45.4c12.9,9.5,23.2,21.5,32,34.8c8,12,15,24.6,21.1,37.7c-2,0.3-3.8,1.2-5.8,1.4
		c-4.8,0.5-6.5,2.4-7.2,7.2c-0.1,1.1-0.2,2.2-0.2,3.3c-1,0.5-2,0.9-3,1.4c-4.9,2.5-9.4,5.8-14.9,6.9c-4.6,1.2-9.4,1.7-14,3.3
		c-1.6-4.3-3.7-8.2-6.2-12.1c-3.6-5.7-8.8-8.9-15.4-10.3c-5.1-1.1-10-0.1-14.9,0.9c-0.2-1.5,0.8-2.7,1.2-4c1.3-4.8,3.5-9.6,0-14.4
		c-0.4-2.7,0.2-5.2,1.3-7.6c1.7-3.6,3.6-7.1,5.4-10.7c0.5-0.2,0.9-0.4,1.4-0.5c6.1-1.1,7.2-2.1,7-8.3c-0.1-3,0.5-5.7,2-8.4
		c1.8-3.3,3.3-6.7,5-10C329.9,52.4,331.1,48.7,333.3,45.4z"/>
	<path class="st2" d="M45.3,136c10.3-15.1,22.8-28.2,36.7-40.1c16.5-14.2,34.7-26,54.1-36c6.7,2.7,13,6.1,18.5,10.8
		c3,2.6,5.6,6.1,6,10.2c0.3,3.1,1.1,6.1,2.2,9c-1.2,0.2-2.4-0.2-3.6-0.5c-12.2-3.3-24.4-6.4-36.5-9.8c-2.2-0.6-3.1-0.3-3.7,2.1
		c-2.5,9.9-5.2,19.7-7.8,29.5c-4.3,16-8.5,31.9-12.8,47.9c-5.7-2.6-11.5-5.2-17.2-7.9C69.4,145.8,57.3,141,45.3,136z"/>
	<path class="st3" d="M402.6,283.8c1.3-0.3,2.5-0.7,3.8-1c4.3-1,5.9-0.2,8.4,3.4c4.1,5.9,9.3,10.9,13.9,16.3
		c2.1,2.5,4.1,4.9,6.2,7.4c-0.4,4.1-3,7.2-5.2,10.4c-5.4,8.2-11.7,15.8-18.7,22.7c-0.5,0.5-1.1,0.9-1.6,1.3
		c-5.9-9.1-11.8-18.3-17.8-27.4c-3.2-4.8-5.5-10.1-10.2-13.8c-1.5-1.2-1.3-2.6,0-3.9c1.2-1.3,2.5-2.7,3.7-4c3.3-2.4,6.5-4.8,9.8-7.3
		C397.4,286.6,400,285.2,402.6,283.8z"/>
	<path class="st4" d="M289.6,394.3c-1.6-8.4-2.1-16.9-2.9-25.4c-0.1-0.9-0.2-1.8-0.2-2.7c7.5-2.2,14.4-5.7,20.2-11
		c0.2-0.1,0.8,0.3,0.7-0.4c-0.2,0.2-0.4,0.3-0.6,0.5c-6.8,2.2-13.5,4.7-20.6,5.5c-1.6-0.1-3.3,0-2.6-2.5c3.5-2.9,8-4,12.6-6.6
		c-5.2,0-9.4,3.2-13.8,0.6c-1.2-2.5,0.4-4.2,1.9-5.8c0.7-0.8,1.7-1.5,2.5-2.2c3-1.6,6.1-3.2,9.1-4.8c3.2-0.2,6.1-1.7,9.1-2.5
		c1.2-0.1,2.4-0.2,3.6-0.4c2.3-0.3,3.8,0.3,3.6,3c-0.4,0.6-0.8,1.3-1.3,1.9c-0.9,0.9-2.1,1.9-1.5,3.3c0.6,1.5,2.3,1.3,3.6,1.3
		c0.4,0,0.8,0,1.2,0c0.9,1.2,0.8,2.7-0.1,3.6c-1.7,1.8-1.1,3.3-0.3,5.2c4.3,10,8.4,20.1,12.1,30.3c0.4,1,0.6,2.1,0.9,3.2
		c-3.7,2.2-8,2.4-12,3.2C306.4,393,298,394.3,289.6,394.3z"/>
	<path class="st5" d="M148.7,183.4c-0.4,0.3-0.8,0.7-1.2,0.9c-1.8,1.1-2.8,2.3-0.1,4.1c-3,0.6-5.3,1.7-8,1.6
		c-2.3-0.1-4.4,0.3-6.5,1.2c-2.9,1.3-5.4,0.7-8-1c-3.9-2.6-7.8-5.1-11.2-8.3c-4.8-4.6-10.5-6.1-16.8-6.3
		c-22.8-0.9-45.6-2.9-68.2-5.6c-0.7-0.1-1.3-0.4-2-0.6c1.2-4.1,3.3-7.9,5.4-11.6c7.5,0.7,15,1.5,22.4,2.5c6.6,0.9,13.2,1.3,19.8,2.1
		c6.7,0.7,13.3,1.7,20,2.2c4.4,0.4,8.4,0.8,9.6,6c0.4,1.8,1.7,2.3,3.5,1.7c1.3-0.4,2.7-0.7,4.1-0.8c5.5-0.5,10.8-2.3,16.4-1.8
		c-0.3,0.9-0.6,1.9-0.8,2.8c0.2,0.2,0.4,0.4,0.6,0.6l0-0.1c3.1,6.3,6.2,7,12.2,3.1c2.5-0.4,3.5-2.1,3.9-4.3c0.3-1.4,0.1-2.8,1.3-3.9
		c0.3-0.8,0.8-1,1.5-0.6c0.3,2.5,0.8,5,0.5,7.6c0.1,0.3,0.2,0.7,0.2,0.7c0.5,0,0.3-0.5,0.3-0.8c1.3-1.7,2.4-3.5,4.3-4.6
		c0.5-0.3,1.1-0.5,1.7-0.1c0.4,0.3,0.2,0.8,0,1.1c-1.2,2.5-0.7,5.5-2.2,7.9C150.1,180.3,149.2,181.7,148.7,183.4z M145.7,179.2
		c-2.3,0.9-4,2.5-4.8,4.9c-0.3,0.1-0.5,0.2-0.8,0.2c0.1,0.1,0.1,0.2,0.2,0.2c0.2-0.2,0.4-0.3,0.7-0.5
		C143.2,183.2,144.9,181.5,145.7,179.2c0.8-0.5,1.6-0.9,0.9-2C145.6,177.6,145.8,178.4,145.7,179.2z"/>
	<path class="st0" d="M333.3,45.4c-2.2,3.3-3.4,7.1-5.1,10.6c-1.7,3.3-3.2,6.8-5,10c-1.5,2.7-2.1,5.4-2,8.4c0.1,6.2-0.9,7.2-7,8.3
		c-0.5,0.1-0.9,0.3-1.4,0.5c-3.2-1.1-6.6,0.1-9.7-1c-3.1-0.7-6.3-1.3-9.4-2c-0.4-0.3-0.8-0.6-1.3-0.8c-5.3-2.4-5.8-2.9-2.4-7.3
		c5.1-6.6,5.3-14.2,6.4-21.7c1.1-7.2,1.9-14.4,3.5-21.5C312.1,32.2,323.3,37.6,333.3,45.4z"/>
	<path class="st5" d="M162.8,89.9c-1.1-2.9-1.9-5.8-2.2-9c-0.4-4.2-3-7.6-6-10.2c-5.5-4.7-11.8-8.1-18.5-10.8
		c3.5-2.1,7.1-3.8,10.9-5.4c3.7,3.1,7.7,5.9,12.2,7.6c4.6,1.8,9.5,2.9,14.5,3c8.7,3.4,15.7,9.8,24.5,13.1c3.2,1.2,6.5,2.4,8.9,4.9
		c-0.6,0-1.3-0.2-1.6,0.5c-0.3,0.8,0.2,1.3,0.9,1.7c-4.3-0.2-8-2.5-12.5-2.9c3.3,3.5,6.7,6.9,10,10.5c1.1,1.1,2.6,2,2.6,3.9
		c-0.7-0.2-1.5-0.7-2.1,0c-0.7,0.8-0.1,1.6,0.3,2.3c-4.2-2-6.9-5.7-11.1-8.7c2.1,3.9,4.8,6.7,6.9,10c0.2,0.1,0.4,0.3,0.6,0.4
		c0,0,0,0,0,0c0.3,1.1,1.5,1.9,1,3.3c-0.7,0-1.7-0.2-1.8,0.5c-0.7,2.9-1.8,0.9-2.8,0.3c-0.2-0.2-0.4-0.3-0.6-0.5l0,0.1
		c-1.7-2.6-3.6-4.9-6-6.8c-0.6-1.6-1.7-2.7-3.1-3.6c-0.1-0.2-0.1-0.6-0.5-0.2c0.1,0.1,0.3,0.2,0.4,0.3c-0.1,1.5,1.1,2.4,1.9,3.4
		c1,2.6,3.1,4.4,4.3,6.8c-0.2,1.4-2.6,0.6-2.4,2.4c-0.1,0.1-0.2,0.2-0.3,0.3c-2.3-1.9-4.7-3.8-7-5.7c-1.7-3.5-5.2-5.1-7.6-7.8
		c-2.8-2.8-2.8-2.8-3.9-0.6c-0.4,2.1,0.8,3.9,0.7,6c-0.1,1.1,0.1,2.3-1.5,3.5c0.1-3.1-3.4-2.9-4.1-5.3c-0.8-2.6-2.4-4.7-4.2-6.6
		C163.2,90.3,163,90.1,162.8,89.9L162.8,89.9z"/>
	<path class="st6" d="M127.8,169.7c-5.6-0.4-10.9,1.3-16.4,1.8c-1.4,0.1-2.8,0.4-4.1,0.8c-1.8,0.5-3.1,0.1-3.5-1.7
		c-1.2-5.2-5.2-5.6-9.6-6c-6.7-0.6-13.3-1.5-20-2.2c-6.6-0.7-13.2-1.2-19.8-2.1c-7.5-1-14.9-1.7-22.4-2.5
		c3.7-7.7,7.9-15.1,13.3-21.8c12,5,24,9.8,35.8,15.2c5.7,2.7,11.5,5.3,17.2,7.9c2.2,1.4,4.6,2.1,7.1,2.4c1.7,0.3,3.4,0.5,4.9-0.5
		c1.9-1.3,3.9-1.4,6-1.4c7,0.1,12.9,3.3,19,6.6c-1.9,0.7-2.5,1.9-1.6,3.6c-0.2,0.2-0.4,0.5-0.5,0.7
		C131.5,170.5,129.8,169.3,127.8,169.7z"/>
	<path class="st7" d="M77.6,340.8c2.6-5.4,5.7-10.4,8.8-15.5c1.3-2.2,2.1-4.5,2.2-7.1c0.3-6.4,1.2-7.3,7.6-8.1
		c0.5-0.1,1-0.2,1.5-0.3c3.3,0.5,6.6,1.1,9.8,1.6c3,1,6,2,9.1,3c6.7,3.2,7.1,3.9,2.1,9.4c-5.1,5.6-5.3,12.5-7,19c-1,4-1.9,8-2.9,12
		C98.1,351.1,87.6,346.5,77.6,340.8z"/>
	<path class="st4" d="M180.3,336.5c1.3,0.6,2.7,1.2,4,1.7c2.2,0.9,2.9,2.2,1.5,4.3c-0.2,0.2-0.4,0.4-0.6,0.6l0.2,0
		c0,0,0.1,0.2,0,0.2c-1.7,0.2-3.7,0.1-4.3,1.9c-0.7,2.2,1.8,2.5,2.9,3.6c0.1,0.1,0.3,0.2,0.5,0.3c-0.1,1.5-0.7,2.9-2.2,3.3
		c-2.4,0.6-2.3,2.4-2.5,4.2c-0.7,6.3-1.5,12.5-2.2,18.8c-9.5-2-18.9-4.6-28.2-7.3c-1.6-0.5-3.3-1-4.9-1.4c2.1-4.4,4.1-8.9,6.2-13.3
		c8.2,1.9,16.5,1.3,25.6,0.3c-5.5-0.9-10.3-1.5-14.9-2.7c-2.9-0.8-5.6-2.3-8.7-2.4c-0.4-1.2-2.9-2-0.9-3.8c4.7-1.3,9.4,0.4,14.1,0.3
		c-4.1-2-9-2.3-12.4-5.7c0.2-3.4,2.8-4.1,5.3-4.8c1.2-0.3,2.5-0.5,3.8-0.7c3.3,0.2,6.5,0.5,9.8,0.7
		C175,335.6,177.6,336.3,180.3,336.5z"/>
	<path class="st7" d="M41.3,258.7c-0.3,1.2-0.5,2.4-0.8,3.5c-1.3,4.9-2.8,5.7-7.8,6.3c-5.2,0.6-10.3,2-15.4,3
		c-3.8-12.4-5-25-4.3-37.9c4.3-0.3,8.7-0.7,13-0.9c2.7-0.1,5.4-0.3,8-1.4c2.4-1,3.8-0.2,4.5,2.3c0.4,1.5,1,3,1.5,4.6
		c0.5,4.2,1,8.4,1.5,12.6C41.4,253.4,41.3,256,41.3,258.7z"/>
	<path class="st0" d="M373.3,129.7c0.1-1.1,0.1-2.2,0.2-3.3c0.6-4.8,2.4-6.7,7.2-7.2c2-0.2,3.8-1.1,5.8-1.4
		c4.9,8.9,8.9,18.3,13.1,27.6c1.1,2.4,2.6,4.6,3,7.2c-4.1,0.6-8.2,1.2-12.3,1.7c-2.4,0.3-4.8,0.7-7,1.7c-3.4,1.6-4.3,1.1-5.7-2.4
		c-0.5-1.2-1-2.4-1.5-3.6c-0.8-4.1-1.7-8.2-2.5-12.2C373.4,135.1,373.3,132.4,373.3,129.7z"/>
	<path class="st3" d="M433,212.9c-7.1,2.8-7.6,5.1-13.8-3.1c-1.1-2.9-1.7-6-3.3-8.7c-0.6-3.3-1.2-6.5-1.8-9.8c0-1.2,0.1-2.4,0-3.6
		c-0.2-2.5,0.7-3.8,3.4-3.6c2.7,3.6,4.2,7.9,6.5,11.9C427.1,201.5,430,207.3,433,212.9z"/>
	<path class="st6" d="M173.6,65.2c-5-0.1-9.9-1.2-14.5-3c-4.5-1.8-8.5-4.6-12.2-7.6c3.2-2,6.8-3.4,10.3-4.7c1.2,4,3.7,7,6.7,9.7
		C166.8,62,170.3,63.4,173.6,65.2z"/>
	<path class="st8" d="M286.4,335.9c-26.3,5.7-52.6,11.5-78.9,17.3c-2,0.4-2.5,0-3-1.9c-3-13.9-6.1-27.8-9.1-41.7
		c1.6-4.6,5.6-8,6.4-13.1c-1.6-0.4-2.9,0.2-4.2,1.1c-1.4,0.9-2.4,2.5-4.2,3c-0.3-1.5-0.6-3-1-4.5c0.8-2.6,1.6-5.2,2.2-7.8
		c0.9-3.8,2.8-7.3,2.7-11.3l0,0c0.8-0.2,0.5-0.9,0.4-1.4c-0.1-0.7,0.4-1.7-0.6-2c-1.3-0.3-1.4,1.1-2,1.7c-1.4-0.1-1.5,1.2-2,1.9
		c-1.3,2-2.4,4.1-3.6,6.2c-0.1-0.6-0.2-1.1-0.3-1.7c1.1-3.9,3.1-7.6,3.8-12c-2,1.3-3,0.5-3.3-1.5c-1.5,0.9-1.7,2.5-2.7,3.5
		c-2.5-11.5-5-23.1-7.7-34.6c-0.5-2.1,0.4-2.4,2-2.7c13.6-3,27.2-6,40.8-8.9c15.4-3.4,30.8-6.7,46.2-10c1.3-0.3,2.2-0.7,2.6,1.2
		c4.6,21.3,9.2,42.6,13.9,63.9c-4.1-0.1-8.2-1.3-12.2,0.6c-0.7,0.4-2.1-0.6-2.2,0.8c-0.1,1,1.1,1.6,2,2.1c1.5,0.7,3.5,0.4,5.1,1.9
		c-3,0.6-4.8,2.8-7.4,3.7c-1.3-0.4-2.5-2.4-3.9,0.1c-1.3,2.4,0.9,2.4,1.9,3.1c1,0.7,2,1.3,3.1,1.8c1.7,0.7,3.1,3.1,5.4,0.8
		c0.6-0.6,1.5,0.2,1.8,1.1c0.3,0.9,0.6,1.9,0.9,2.9c-0.8,1.8-2.5,1.1-3.8,1c0,3.3-0.3,6.4,0.1,9.4c0.7,6.3,1.9,12.5,8.2,16
		C285.7,328.8,286.2,332.3,286.4,335.9z M204.7,263c-0.2-0.2-0.4-0.4-0.6-0.6c-0.2-0.2-0.4-0.4-0.6-0.6c-0.2-0.2-0.4-0.4-0.6-0.6
		c-0.2-0.6-0.4-1.2-0.6-1.9c-0.1-0.9-0.1-1.9-0.3-3.7c-0.1,1.9-0.6,2.8,0.3,3.7c0.1,0.6-0.1,1.4,0.6,1.8c0.2,0.2,0.4,0.4,0.6,0.6
		c0.2,0.2,0.4,0.4,0.6,0.6C204.3,262.6,204.5,262.8,204.7,263c0.2,0.2,0.4,0.4,0.6,0.6c0.1,0.2,0.3,0.5,0.4,0.7
		c0.1-0.1,0.1-0.1,0.2-0.2c-0.2-0.2-0.4-0.3-0.7-0.5C205.1,263.4,204.9,263.2,204.7,263z M230.2,288.5c0.4,0.2,0.8,0.4,1.3,0.6
		c1.7,2.3,4.3,2.1,6.7,2.5c-2.3-0.6-4.5-1.4-6.7-2.5C231,288.9,230.6,288.7,230.2,288.5c-0.2-0.3-0.4-0.6-0.6-0.9
		c0,0-0.2,0.1-0.3,0.1C229.6,288,229.9,288.2,230.2,288.5z M253.2,288.5c2.4-4.7,1.1-9.5,0.9-14.4
		C254,278.9,254.4,283.8,253.2,288.5c-1.6,3.3-5.3,2-7.8,3.3c1.6-0.1,3.2-0.2,4.8-0.5C251.8,291,253.1,290.4,253.2,288.5z
		 M232.1,248.7c3.9-0.1,7.6,1.3,12.3,1.6C239.9,248.2,236,248.3,232.1,248.7z M218.7,292.5c3.2,1.7,6.5,0.7,9.8,0.5
		C225.2,292.6,221.9,293.5,218.7,292.5z M249.1,306.4c3.4,0,6.8,0.4,10.3,0.5C256,306.1,252.5,306.1,249.1,306.4z M215.5,286.5
		c-0.5-2.9-1-5.7-1.6-9.4C214,280.9,214.5,283.8,215.5,286.5z M239.4,312.9c2.8,1,5,1.3,7.6,0.9
		C244.5,313.4,242.3,313.2,239.4,312.9z M248.5,313.2c0.2-0.2,0.4-0.4,0.6-0.6c-0.2,0-0.3,0-0.5,0c-0.2,0.1-0.3,0.2-0.5,0.3
		C248.3,313,248.4,313.1,248.5,313.2z M216,288.5c0-0.1-0.1-0.2-0.1-0.3c-0.1,0.1-0.2,0.2-0.2,0.2c0,0.1,0.1,0.2,0.2,0.3
		C216,288.7,216,288.6,216,288.5z M216.5,289.9l-0.1,0.2l0.1,0L216.5,289.9z M217,291.2l0.1,0.1l0-0.2L217,291.2z"/>
	<path class="st9" d="M357.7,226.5c3,0,5.6,1.5,8.5,2c9.2,1.6,16.8-1.3,23.5-7.5c5.3-4.9,11.4-7.9,18.8-7.8c1.3,0,2.6,0.3,3.9,0.6
		c5.1,1.3,6.9,5.8,4,10.3c-2.1,3.3-5.2,5.6-7.7,8.5c-4.4,5.1-7.9,11-12,16.3c-0.6,0.8-1.3,1.6-2,2.3c-3.3,3.7-7.3,5-12,2.8
		c-6-2.8-12.3-4.3-18.8-5.3c-4.9-0.7-9.8-1.4-14.7-1.6c1.7-1.3,1.9-3.7,3.7-4.8c1.6,4.4,3.7,0.1,5.5,0.5c-1.8-1.5-3.6-1.2-5.5-0.5
		c-0.4-2.7,1-4.9,1.7-7.3c0.5-0.8,0.9-1.5,1.4-2.3c0.6-1,0.2-1.3-0.8-1.3C356.6,230.1,357.1,228.3,357.7,226.5z M404.7,228.8
		c-0.9-1.1-2.1-1-3.2-1c-1.2,0.1-2,0.6-1.7,1.9c0.3,1,1.2,1.3,2.2,0.8C402.9,230,404,229.8,404.7,228.8z M389.6,246.1
		c-0.8-1.2-2-0.6-3-0.6c-0.9-0.1-2,0.1-1.9,1.3c0.1,1,1.1,1.2,1.9,1C387.7,247.4,389,247.5,389.6,246.1z M391.2,231.4
		c-1.1,0.1-2.6-0.4-3,1.3c-0.2,1,0.7,1.2,1.4,1.1c1.3-0.2,2.9-0.1,3.4-1.4C393.3,231.4,391.9,231.5,391.2,231.4z M365.2,237.8
		c-1.5-1.1-2.9-1-4.3-0.6c-0.5,0.2-1.3,0.4-1.1,1.2c0.1,0.7,0.7,0.9,1.4,0.9C362.7,239.4,363.9,238.7,365.2,237.8z M399.2,225.3
		c-1.6-0.6-3.2-1.2-4.7,0.1c-0.4,0.4-0.3,1,0.2,1.3C396.6,227.8,397.9,226.3,399.2,225.3z M385.2,240.2c-1.1-1.1-2.4-1-3.6-0.8
		c-0.8,0.1-1.3,0.6-1.2,1.4c0.1,1,0.9,0.9,1.6,0.9C383.2,241.6,384.2,241.1,385.2,240.2z"/>
	<path class="st10" d="M189.7,283.5c1.2-2.1,2.3-4.2,3.6-6.2c0.5-0.8,0.6-2,2-1.9c-0.5,2.1,0.6,2.3,2.2,1.6c0.1,4-1.8,7.5-2.7,11.3
		c-0.7,2.6-1.5,5.2-2.2,7.8c-0.3,0.9-0.8,1.8-1,2.7c-0.3,1.6,0.4,2.2,1.9,1.8c1.7-0.5,2.7-2.1,4.2-3c1.3-0.8,2.7-1.5,4.2-1.1
		c-0.8,5-4.8,8.4-6.4,13.1c-1.8,2.8-4.2,4.9-7,6.9c-4.8,3.4-6.7,8.7-7.4,14.4c-0.2,1.9-0.4,3.8-0.7,5.7c-2.7-0.3-5.3-1-7.9-1.8
		c0.5-8-1.2-15.7-4.1-23.1c-0.8-8.5,1.1-16.9,0.5-25.4c-0.3-3.7-1.2-7.4,0-11.1c1,0.9,2,0.2,3,0.1c0.6,3.6,1.2,7.3,2,11.6
		c1.8-3.2,2.6-6.2,3.6-9c0.7-1.9,1.1-3.9,1.9-5.7c0.4-1,0.2-3.1,2-2.6c1.6,0.5,3.8,1,2.6,4c-1.1,2.7-1.5,5.6-1.9,8.5
		c2.1-3.2,4-6.6,5.3-10.3c1.1-0.9,1.2-2.5,2.7-3.5c0.3,1.9,1.3,2.8,3.3,1.5c-0.7,4.4-2.8,8.1-3.8,12c-1.1,1.9-2.1,3.8-2.3,6.1
		c-0.1,0.1-0.3,0.2-0.4,0.3c0.1,0.1,0.2,0.1,0.2,0.2c0-0.2,0.1-0.3,0.1-0.5C188.5,286.8,189,285.1,189.7,283.5z"/>
	<path class="st11" d="M373.4,137.9c0.8,4.1,1.7,8.2,2.5,12.2c-2.9,0.4-5.8,0.8-8.7,1.1c-6,0.5-10.1,3.7-13,8.6
		c-4.1,6.9-7.4,14.4-14.1,19.4c-0.8,0-1.3,0.4-1.3,1.3c0,0,0,0,0,0c-1.6-0.3-2.6,0.9-3.7,1.6c-3.4,2.4-7,4.2-11.3,3.9
		c-2.3-0.7-4.5-1.4-6.8-2.1c-0.7-1.9-2.4-0.7-3.6-1.1c2.4-2.9,5.7-3.3,9.2-2.8c2.3,0.3,4.5,0.3,6.4-1.3c6.8-1.1,11.9-4.2,12.5-8.1
		c-2.2,2.1-4.2,3.9-7.2,3.9c-3.7-0.2-7.5,0.3-10.8-1.8c-0.4-1.8-0.9-3.6-1.3-5.3c0.9-1.3,1.6-2.9,3.6-1.9c0.4,0.5,0.8,0.9,1.1,1.4
		c1.1,2.3,2.8,2.6,4.7,1.2c1.5-1.2,3.1-1.1,4.8-0.4c0-1-1.7-1.1-1-2.2c1.2-4.4,6.1-6.3,8-11.3c-3.5,1.6-5.5,3.6-7,6.2
		c-0.2,0.3-0.4,0.6-0.6,0.9l0,0c-2.4,1.4-3.8,4.5-7.3,4.1c0.6-1.7,3.1-3.2,0.6-5.2c1-1.6,2.1-3.3,3.1-4.9c0.1-0.3,0.3-0.5,0.4-0.8
		c0-0.2,0-0.3,0.1-0.4c1.9-1.1,2.5-2.8,2.5-4.9c0.2-0.1,0.3-0.1,0.5-0.1c0.4,0,0.5-0.2,0.5-0.6c1.5-2.5,3.1-4.8,5.1-6.8
		c4.5-1.6,9.3-2,14-3.3c0.9,0.8,1.9,0.4,2.9,0.4C363.3,138.5,368.3,137.5,373.4,137.9z"/>
	<path class="st12" d="M41.4,250.8c-0.5-4.2-1-8.4-1.5-12.6c3.3-0.2,6.6-0.4,9.9-0.6c4.8-0.3,8.7-2.5,11.5-6.3
		c2.1-2.8,4.1-5.8,6-8.7c2.8-4.2,6-7.8,10.2-10.6c0.5,0,1.1,0,1.3-0.6c0,0,0,0,0,0c1.4,0,2.5-0.8,3.6-1.5c3.6-2.4,7.4-4,11.9-3.3
		c2.1,0.9,4.5,1,6.4,2.5c2.1,1.6,1.2,2.4-0.8,2.9c-0.9,0.2-2-0.2-2.8,0.6c-3-0.1-6-1.2-8.6,1.2c-4.4-0.6-11.8,3.1-13.2,7.4
		c2.6-2.5,4.8-4.3,7.8-3.7c2.1,0,4.2,0,6.3,0.5c4.3,0.9,6,3.7,4.5,8.1c-0.3,1,0.2,1.8,0.1,2.6c-0.8-0.3-1.6-0.5-2.4-0.8
		c0,0-0.1-0.1-0.1-0.1c-0.2-0.6-0.5-1-1.1-1.1c-0.9-1.1-1-3.3-2.9-2.9c-2.1,0.4-4.7,0.5-5.5,3.3c-0.2,0.5-0.6,1-1,1.5
		c-0.3,0.2-0.6,0.4-0.9,0.6c0,0,0,0,0,0c-2,1.3-3.6,3.1-5.9,4c-1,0.4-1.6,2-1,2.8c0.7,1.1,1.9,0.1,2.6-0.5c1.6-1.4,2.9-3,4.3-4.5
		c2.4-0.8,3.6-3.4,6.2-3.8c0.1,0.3,0.2,0.4,0.2,0c0,0,0.3-0.1,0.3-0.1c0.6,0,1.2,0,1.7,0c-2.6,1.6-1.2,4.9-2.9,6.9
		c-3.8,4.4-6.3,9.8-10.4,14c-1.6,1.6-3.6,2.4-6,2.4c-2.7,0-5.4,0.6-8.1,1c-0.9-0.9-2.1-0.5-3.2-0.5C52.5,250.8,47,250.8,41.4,250.8z
		"/>
	<path class="st0" d="M202,104.1c0.5-1.4-0.7-2.2-1-3.3c6.2,0.8,12.1,3,18.2,4.5c5.1,1.2,10.1,2.8,15.2,4c2.2,0.5,2.8,1.3,2.2,3.6
		c-6.9,25.8-13.8,51.7-20.6,77.5c-0.7,2.7-1.5,5.4-2.2,8.2c-0.4,1.6-1.1,2-2.6,1.6c-20.7-5.5-41.3-11.1-62-16.6
		c-0.2-0.1-0.4-0.2-0.6-0.3c0.5-1.7,1.5-3.1,2.6-4.3c0.6,0.1,1.2,0.2,1.8,0.3c17.5,4.6,34.9,9.2,52.3,14c2.5,0.7,3.3,0.1,3.9-2.3
		c6.5-25,13.2-50,19.9-74.9c0.6-2.2,0.1-2.8-1.9-3.3c-7-1.7-13.9-3.6-20.8-5.5c-1.5-0.4-3.2-0.6-3.7-2.6c0-0.5-0.1-0.8-0.6-0.9
		L202,104.1z"/>
	<path class="st11" d="M293.6,80.1c3.1,0.7,6.3,1.3,9.4,2c0,4-0.1,8.1,0,12.1c0.1,2.8,0.8,5.3,3,7.2c3.5,4.8,1.3,9.6,0,14.4
		c-0.4,1.3-1.3,2.5-1.2,4c0,0,0-0.1,0-0.1c-0.3,0-0.6,0.1-0.5,0.5c-1.5,2.3-2.9,4.6-4.4,6.9c-0.2-2.6-1.9-2.7-3.8-2.2
		c0-1.1,0.2-2.2,0.5-3.3c0.2-0.9,1.3-2-0.2-2.9c-1.3-0.8-2.5-0.9-3.9-0.1c-5.6,3.5-6,10-0.8,14.7c1.5,1.6,3.6,1.6,5.6,1.8
		c0.3,0.5,0.7,0.9,1,1.4c0.8,1.1,1.6,2.2-0.7,2.2c-1.7,0.1-1.8,1.3-2,2.4c-0.2,1.2-0.1,2.5-0.2,3.8c-1.7,0-2.7-2.9-4.8-1.1
		c-0.4,0-0.7,0-1.1,0c-1.2-1.8-3.3-2.2-4.9-3.4c-1.8-1.4-3.8-2.7-4.9-4.8c-2.7,1.5-2.8,1.5-3.3-1.4c-0.8-4.8-0.5-9.8-2.1-14.5
		c-0.5-1.5,0.9-3,1.9-4.3c3.2-4.7,6.9-9,10.8-13c3.8-3.9,4.9-8.6,5.4-13.7C293,85.9,293.3,83,293.6,80.1z M291.2,138.6
		c1,0.9,2.1,1.8,3.1,2.7c1.5-1.9,1.1-2.9-1.2-3.1c-0.7-0.1-1.4-0.2-2.1-0.3c-4.4-0.9-6-5.4-9.4-7.6
		C283.5,134.5,285.9,138.3,291.2,138.6z"/>
	<path class="st12" d="M116.6,314.5c-3-1-6-2-9.1-3c-0.5-4.6,1-9.1,0.6-13.8c-0.2-2.3-0.5-4.6-2.5-6.1c-1.9-2.2-1.4-4.7-0.9-7.2
		c1.2-6.7,4.9-12.1,9.1-17.5c0.7,2.1,1.8,3.1,3.8,1.4c0.5,1.7-0.6,3-0.9,4.4c-0.2,0.8-1.2,1.7-0.1,2.4c0.9,0.7,1.9,1.5,3.3,1
		c3.8-1.3,6-4.8,5.3-8.7c-0.7-4-1.8-7.4-6.6-8.3c-1.6-0.3-2.9-1.3-3.2-3.4c2.5,0.2,4.9,0.4,7.5,0.7c-0.5-1.7-1.7-2.7-2.7-3.9
		c-0.7-0.9-1.1-2-0.5-2.8c0.8-1.2,1.5,0.3,2.2,0.5c5.3,1.4,9.2,4.6,12.3,9.1c0.5,0.7,0.6,0.6,2.8-0.6c1.6,5.6,0.3,11.4,1.4,17
		c0.5,2.8-1.9,4.6-3.5,6.4c-2.6,2.9-5.3,5.9-8.3,8.4c-5.4,4.4-7.8,10.1-8.7,16.7C117.6,309.6,117.1,312,116.6,314.5z M125.7,256.9
		c-0.2-0.1-0.5-0.3-0.7-0.4c0,0-0.1,0.1-0.2,0.2C125.1,256.8,125.4,256.9,125.7,256.9c2.2,3,4.5,6,6.7,8.9c0.3-0.2,0.5-0.4,0.8-0.6
		C131.4,261.9,130.2,258.1,125.7,256.9z"/>
	<path class="st12" d="M394.8,288c-3.3,2.4-6.5,4.8-9.8,7.3c-1.5-2.4-3-4.7-4.4-7.1c-3.1-5.2-7.8-7.9-13.7-8.6
		c-2.5-0.3-5-0.4-7.5-0.6c-1.4-3.7-2.8-7.4-4.2-11c-0.4-1.3-0.7-2.6-1.1-3.9c0.6,0.1,1.2,0.1,1.8,0.2c0.6,1,1.8,0.6,2.7,1.1
		c1.6,0.8,3.4,1.3,5,2.2c1.1,0.6,2.1,0.6,3.2,0.4c0.5-0.1,0.5-0.6,0.3-1c-0.6-1-1.6-1.5-2.7-1.8c-1-0.3-2.3,0.3-3.1-0.8
		c-2.8-1.2-5.8-1.8-8.4-3.5c-0.9-1.3-1.1-2.7-1.1-4.2c7.7,1.8,15.6,1.8,23.3,3c2.9,0.4,5,2,6.4,4.5c1.5,2.7,4.1,4.7,5.4,7.6
		c0.2,0.2,0.4,0.4,0.7,0.7c0,0,0,0,0,0c-0.1,1.8,1,3.2,1.8,4.6C391.3,280.4,393.4,284,394.8,288z"/>
	<path class="st10" d="M284,325.6c-6.3-3.5-7.5-9.7-8.2-16c-0.3-3-0.1-6-0.1-9.4c1.3,0.1,3,0.8,3.8-1c0.5,0,1,0.1,1.1,0.7
		c0.9,5.4,1.4,6,5.5,3.6c4.9,1.7,9.2,4.5,13.4,7.4c-0.2,1.1-0.2,2.2-0.5,3.3c-1.1,4.6-0.5,8.9,1.6,13.1c1.5,3.1,2.9,6.4,4.3,9.6
		c-3.1,0.8-5.9,2.3-9.1,2.5c-2.2-3.6-4.4-7.1-6.5-10.7C288,326.9,286.5,325.4,284,325.6z"/>
	<path class="st12" d="M414.1,191.3c0.6,3.3,1.2,6.5,1.8,9.8c-3.7,1.5-7.4,2.9-11,4.7c-2.1,1-4.1,2.5-4.7,5.1c0,0,0,0,0,0
		c-0.2,0.3-0.4,0.6-0.6,0.8c-2.8,5.1-8,5.2-12.8,5.8c-5,0.6-10-0.2-15-0.7c0.5-0.2,0.9-0.4,1.4-0.5c0.9-0.1,1.8-0.1,1.9-1.4
		c0-1.5-1-1.4-2.1-1.4c-0.5,0-1.3,0.4-1.1-0.7c0.4-0.1,0.8-0.2,0.9-0.6l0,0c1.6,0.1,3.2-0.1,4.8-0.5c2.9-0.7,3.3-2,1.2-4.5
		c0.5-0.5,0.9-1.1,1.4-1.6c4.2-3.3,8.3-6.6,12.5-9.9c5.5,1.8,10.4-0.7,15.4-2.3C410.1,192.5,412.1,191.9,414.1,191.3z"/>
	<path class="st12" d="M362,218.2c-0.5-1.4-1.1-2.8-1.7-4.4c-1.3,0.9-1.3,2.3-1.7,3.4c-0.4,0.9-0.9,1.8-1.7,2.4
		c-0.7,0.5-1.5,1.4-2.4,1c-0.8-0.4-0.5-1.5-0.4-2.2c0.8-5.2,0.4-10.7,3.1-15.5c0.4-0.7,0.3-1.1-0.4-1.4c-2.5-1.1-1.1-1.8,0.2-2.7
		c4.1-2.9,9-4.6,12.7-8.1c0.8-0.7,1.9-0.8,2.9-0.6c6.1,1.2,12.2,2.4,18,4.8c-3.7,3.2-7.4,6.5-11.1,9.7c-0.7,0.4-1.4,0.9-2.1,1.3
		c-5.7-2.4-5.7-2.4-10.1,1.9c-0.2,0.2-0.4,0.4-0.6,0.6c-2.5,2.2-3.1,4.9-1.7,7.9C364.2,217.4,363.4,218.3,362,218.2z M363.8,200.5
		c-3.4,3.4-5,7.3-3.9,12.1c0-2.4,1-4.4,1.9-6.5C362.6,204.3,363.7,202.5,363.8,200.5c0-0.1,0.1-0.2,0.1-0.3
		C363.9,200.3,363.8,200.4,363.8,200.5z"/>
	<path class="st10" d="M270.3,289.6c2.5-0.9,4.4-3,7.4-3.7c-1.7-1.4-3.6-1.2-5.1-1.9c-0.9-0.4-2.1-1-2-2.1c0.1-1.3,1.5-0.4,2.2-0.8
		c4-2,8.1-0.8,12.2-0.6c1.8,0.3,4.1,2.8,5.1-1.1c4.4,4.1,6.6,9.7,11.1,13.4c0.9,0.8,0.8,2,0.8,3.1c0,3.6-0.7,7.2-1.3,10.7
		c-4.3-2.5-8.6-5-13-7.5c0.5-2-0.1-3.4-1.5-5c-3.7-4.2-7.9-5.5-13-3.2C271.9,290.9,271.1,290.2,270.3,289.6z M290.1,287.9
		c-2.9-3.4-7.9-4.6-11.7-2.5C282.9,285,286,287.4,290.1,287.9z"/>
	<path class="st12" d="M330.4,263.2c0.3-3.4-1-6.6-2-9.7c-0.4-1.3-0.4-1.3,0.9-1.2c0.2,0.1,0.3,0.3,0.5,0.4c0,0,0,0,0,0
		c0.2,2.2,2.1,2.5,3.6,3.1c0,0,0,0,0,0c0,0.5,0.1,1,0.7,1.2c0.7,0.7,0.9,1.7,1.3,2.6c0.8,2.1,1.8,4.2,4.1,5.1
		c0.2,0.3,0.4,0.5,0.6,0.8c0,0,0,0,0,0c1.9,1.8,3.9,3.5,5.6,5.4c2.2,2.4,4.7,2.8,8.3,2.3c-3.6-1.3-6.9-2-8.5-5.3
		c-0.2-0.2-0.4-0.4-0.6-0.6l0,0c0.2-1.3-0.6-2.3-1.1-3.4c-2.3-5.2-2-6.1,3.1-10.3c2.4-0.2,3,1.2,3,3.2c-0.1,0.1-0.2,0.2-0.3,0.3
		c-0.2,0.1-0.2,0.3-0.2,0.5c-2.2,3.4,1.1,4.3,2.8,6l0,0c0.2,0.2,0.3,0.3,0.5,0.5c0.5,1.3,1,2.5,1.5,3.8c1.2,3.6,2.4,7.3,3.5,10.9
		c-4.7-0.5-9.3-1-13.4-3.6c-0.3-0.5-0.7-0.6-1.3-0.6c0,0,0,0,0,0C338.8,270.9,332.8,269,330.4,263.2z"/>
	<path class="st8" d="M271,160.8c0.1,0,0.2,0.1,0.3,0.1c3.2,2.1,3.2,2.1,4.1-1.9c1.4,0.5,2.7,1,4.1,1.4c-1.7,4-0.3,6.4,3.3,8.5
		c3.2,1.8,6.1,4.3,9.1,6.6c0.9,0.7,1.8,1.7,2.4,2.7c0.9,1.3,1.6,3.1,0.4,4.2c-1.2,1.2-2.2-0.7-3.2-1.4c-4.7-3.3-9.3-6.8-14.3-10.5
		c-1.4,6.1-2.6,11.9-4,17.6c-0.3,1,0,2.9-1.4,2.9c-1.5,0-2.1-1.7-2.5-3.1c-0.4-1.4-0.3-2.8,0-4.2c0.9-3.7,1.8-7.5,2.6-11.2
		c1.4-6.1,1.7-4.5-3.1-8c0.3-1.1,1.4-1.7,1.3-3C270.5,161.3,270.8,161.1,271,160.8z"/>
	<path class="st3" d="M287.6,299.2c4.3,2.5,8.6,5,13,7.5c8.1,4.7,16.3,9.4,24.4,14.1c0.8,0.5,1.6,0.9,2.3,1.4c0.9,0.6,1,1.5,0.5,2.4
		c-0.5,1-1.4,1.1-2.4,0.7c-0.9-0.4-1.8-0.9-2.7-1.4c-6.8-3.9-13.7-7.8-20.5-11.7c-0.8-0.5-1.6-1.3-2.7-1.1
		c-4.2-2.9-8.5-5.8-13.4-7.4c-1.3-2-3.5-2.6-5.5-3.6c-0.1-0.6-0.6-0.7-1.1-0.7c-0.3-1-0.5-1.9-0.9-2.9c-0.3-0.9-1.2-1.7-1.8-1.1
		c-2.3,2.3-3.7-0.1-5.4-0.8c-1.1-0.5-2.2-1.1-3.1-1.8c-1-0.7-3.2-0.7-1.9-3.1c1.4-2.5,2.6-0.5,3.9-0.1c0.8,0.6,1.6,1.3,2.8,1.4
		C277.7,294,282.5,296.8,287.6,299.2z"/>
	<path class="st13" d="M289.8,144.1c0.4,0,0.7,0,1.1,0c2.4,1.2,3.4,3.1,3.1,5.8c-0.1,0.6,0.2,1.2,0.3,1.8
		c2.7,11.1,13.2,17.7,24.4,15.6c1.1-0.2,2.4-1.5,3.6-0.1c0.4,1.8,0.9,3.6,1.3,5.3c-4.2,0.8-8.3,1.5-12.6,0.7c-5.9-1-10.5-3.8-14-8.6
		C292.6,158.5,290.2,151.7,289.8,144.1z"/>
	<path class="st7" d="M144.6,238.7c-0.1,6-4.9,10.7-10.9,10.6c-6-0.1-10.6-5-10.5-11c0.1-5.8,4.9-10.5,10.7-10.5
		C139.9,227.9,144.7,232.7,144.6,238.7z M125.1,239c-0.1,1.8,0.2,3.5,1.7,4.7c0.6,1.8,1.9,2.8,3.8,2.9l0,0c4.5,2.5,9.3,0.6,11.9-4.9
		c0.1-0.2,0.1-0.4,0.2-0.6c0.1-0.6,0.2-1.2,0.2-1.8c0.3-5.3-3.4-9.5-8.5-9.7c-5.3-0.2-9.2,3.6-9.3,9.1L125.1,239z"/>
	<path class="st14" d="M168.3,311.6c3,7.4,4.6,15.1,4.1,23.1c-3.3-0.2-6.5-0.5-9.8-0.7c0-0.1,0-0.2,0.1-0.3
		C167.3,327,168.8,319.6,168.3,311.6z"/>
	<path class="st14" d="M105.7,291.5c2,1.6,2.3,3.8,2.5,6.1c0.4,4.6-1,9.1-0.6,13.8c-3.3-0.5-6.6-1.1-9.8-1.6c1.6-2.7,3.3-5.3,4.9-8
		C104.5,298.7,106.2,295.4,105.7,291.5z"/>
	<path class="st5" d="M400.2,210.8c0.7-2.6,2.6-4,4.7-5.1c3.6-1.8,7.3-3.1,11-4.7c1.5,2.7,2.2,5.8,3.3,8.7c-2.3-0.1-4.6-0.1-6.8-0.3
		C408.2,209.3,404.2,209.5,400.2,210.8z"/>
	<path class="st12" d="M352.8,242.3c-1.8,1.2-2,3.6-3.7,4.8c-0.7,0.3-1.5,1.8-2.2-0.1c-0.9-2.4-1.6-4.8-3-7
		c-0.8-1.2,0.5-2.1,1.6-2.4c2.1-0.6,2-1.5,0.7-2.9c-1.1-1.3-1.5-2.8,1-3.1c0.2,0,0.6-0.2,0.6-0.4c0.3-0.9,0-2.4,1.5-2
		c1.5,0.4,1.7,1.8,1.6,3.2c-0.1,3.6-0.1,3.6,3.4,2.6C353.8,237.5,352.5,239.7,352.8,242.3L352.8,242.3z M350.8,238.5
		c0.1-0.8-0.4-1-0.9-0.9c-1.4,0.2-2.7,0.9-3.4,2.1c-0.4,0.8,0.7,1.3,1.3,1.2C349.3,240.8,349.9,239.4,350.8,238.5z"/>
	<path class="st13" d="M357.8,278.7c-1.2-3.6-2.4-7.3-3.5-10.9c0.3,0,0.6,0,0.9,0c1.4,3.7,2.8,7.4,4.2,11c4.2,12.6,9.1,25,13.7,37.5
		c0.4,1.1,1.9,2.9,0.6,3.4c-1.6,0.7-1.6-1.7-2-2.7c-4.3-11.8-8.5-23.7-12.8-35.6C358.6,280.6,358.1,279.7,357.8,278.7z"/>
	<path class="st1" d="M152.7,348.7c3.1,0.1,5.8,1.6,8.7,2.4c4.6,1.2,9.4,1.8,14.9,2.7c-9.1,1-17.4,1.6-25.6-0.3
		C150.9,351.6,152.1,350.3,152.7,348.7z"/>
	<path class="st14" d="M41.4,250.8c5.6,0,11.1,0,16.7,0.1c1.1,0,2.2-0.4,3.2,0.5c-7.3,0.8-13.4,4.7-20,7.3
		C41.3,256,41.4,253.4,41.4,250.8z"/>
	<path class="st5" d="M394.8,288c-1.4-4-3.5-7.6-5.5-11.3c-0.8-1.5-1.9-2.8-1.8-4.6c4.5,4.6,9.6,8.5,15.2,11.8
		C400,285.2,397.4,286.6,394.8,288z"/>
	<path class="st9" d="M302.4,253.2c-0.2,2.4-0.5,4.8-1.2,7c-3-0.4-6-0.7-9.1-1.1c0.1-2.4,0.4-4.9,1.2-7.2
		C296.3,252.4,299.3,252.8,302.4,253.2z"/>
	<path class="st13" d="M379.5,204.7c3.7-3.2,7.4-6.5,11.1-9.7c6.5-5.4,12.9-10.9,19.4-16.3c0.8-0.7,1.8-2.6,2.7-1.5
		c1.1,1.3-1,2.1-1.9,2.8c-6,5.2-12.1,10.3-18.2,15.4c-4.2,3.3-8.3,6.6-12.5,9.9C380,205.2,379.8,204.9,379.5,204.7z"/>
	<path class="st12" d="M83.9,206.6c3.6-4.7,8.7-6,14.2-6.6c0.4,0,0.8,0,1.2,0c1-0.1,2.4-1.3,2.9-0.1c0.5,1-0.8,2.1-1.6,3
		c-1.6,1.7-3.8,2.1-5.8,3.1c-0.7-0.8-1.6-0.5-2.5-0.6C89.3,204.7,86.7,206.5,83.9,206.6z"/>
	<path class="st12" d="M335.8,272.2c-7.8-1.1-11.1-7.3-15.5-13.1c4.2-0.3,7,1.4,9.4,3.8C330.4,267,333.7,269.2,335.8,272.2z"/>
	<path class="st15" d="M263,106.2c0.1,2.5,0.3,5,0.4,7.5c0,1.2-0.2,2.3-1.4,2.7c-1.6,0.5-3.2,0.3-4.6-0.7c-1-0.7-1.2-1.8-0.7-3
		c0.9-2.3,1.8-4.7,2.7-7C260.6,105.9,261.8,106,263,106.2z"/>
	<path class="st15" d="M276.9,91.7c1.2,2.1,2.4,4.2,3.5,6.3c0.6,1.1,1.3,2.2,0.1,3.3c-1.3,1.3-3,1.7-4.7,1.4
		c-1.4-0.3-1.8-1.5-1.9-2.8c-0.2-2.3-0.5-4.6-0.7-6.9C274.5,92.6,275.7,92.1,276.9,91.7z"/>
	<path class="st15" d="M259.9,99.6c-0.2-2.3-0.3-4.6-0.5-6.9c-0.1-1.2,0-2.3,1.3-2.7c1.6-0.5,3.2-0.4,4.6,0.6c1,0.7,1.2,1.8,0.8,2.9
		c-0.7,2.2-1.4,4.4-2.2,6.5C262.7,99.4,261.3,99.7,259.9,99.6z"/>
	<path class="st15" d="M270.9,87c-1.2-1.9-2.3-3.7-3.4-5.6c-0.6-1-1.1-2-0.1-3c1.2-1.2,2.7-1.8,4.4-1.7c1.4,0.1,2.1,1.1,2.3,2.5
		c0.3,2.2,0.6,4.4,0.9,6.6C273.5,86.1,272.2,86.6,270.9,87z"/>
	<path class="st11" d="M334,185.3c-3.1,4.8-7.9,6.6-13.3,7.1c-0.9-2.1-2.3-0.4-3.5-0.5c0.9-3.4,4-3.9,6.5-5.4
		c0.8,0.8,1.6,0.5,2.5,0.3C328.8,186.2,331.4,185.8,334,185.3z"/>
	<path class="st8" d="M379.5,204.7c0.2,0.2,0.4,0.4,0.7,0.6c-0.5,0.5-0.9,1.1-1.4,1.6c-2.1,1.5-4.3,3-6,5c0,0,0,0,0,0
		c-0.3,0.2-0.6,0.4-0.9,0.6c-0.2,1.1,0.6,0.7,1.1,0.7c1,0,2.1-0.1,2.1,1.4c0,1.3-0.9,1.3-1.9,1.4c-0.5,0-0.9,0.3-1.4,0.5
		c-0.1,0-0.2,0-0.3-0.1c-2.7-3.1-4.7-0.6-6.2,1.3c-1.4,1.8-3.1,2.8-5,3.6c-0.1-0.1-0.3-0.3-0.4-0.4c0.5-1.1,2.1-1.3,2-2.8
		c1.4,0.1,2.2-0.8,3-1.7c4.1-3.5,8.3-7,12.4-10.5C378.2,205.6,378.9,205.2,379.5,204.7z"/>
	<path class="st10" d="M122,215.1c-0.3,2-1.6,3.4-3.9,3.5c-1.8,0.1-4.8-2.8-4.3-4.4c0.7-2,2.2-3.4,4.5-3.4
		C120.5,210.9,122.1,212.7,122,215.1z M118.4,216.3c1.1-0.1,1.5-0.8,1.4-1.9c-0.1-1-0.8-1.4-1.7-1.3c-1,0.1-1.5,0.6-1.5,1.6
		C116.6,215.8,117.2,216.3,118.4,216.3z"/>
	<path class="st0" d="M91.7,236.9c0.6,2.1-0.3,4.5,1.5,6.5c1.1,1.2-0.8,1.7-1.3,2.6c0.6,0.9,3,0.7,2,2.6c-0.5,1-1.6,1.5-2.8,1.1
		c-0.5-0.2-1.2-0.5-1-0.9c0.6-1.7-0.5-3.1-0.8-4.5c-0.2-1.1,0.3-2.1-0.8-3.1c-0.8-0.8,0.2-1.8,1.1-2C90.8,238.8,91.3,238,91.7,236.9
		L91.7,236.9z"/>
	<path class="st8" d="M292.1,259.2c3,0.4,6,0.7,9.1,1.1c-0.4,1.4-0.1,3.5-1.9,3.7c-2.3,0.3-4.9,0-6.9-1.4
		C291.2,261.7,291.7,260.3,292.1,259.2z"/>
	<path class="st8" d="M302.4,253.2c-3-0.4-6.1-0.8-9.1-1.2c0.2-2.1,0.7-3.9,3.3-3.4C301.8,249.6,302.7,248.8,302.4,253.2z"/>
	<path class="st4" d="M259.9,99.6c1.4,0.1,2.8-0.2,4.1,0.4c0.3,2.1,0.2,4.2-0.9,6.1c-1.2-0.2-2.5-0.3-3.7-0.5
		C258.3,103.6,259,101.6,259.9,99.6z"/>
	<path class="st4" d="M270.9,87c1.3-0.4,2.6-0.9,4-1.3c1.2,1.8,2.1,3.8,2,6c-1.2,0.4-2.4,0.9-3.6,1.3C271.6,91.4,271,89.3,270.9,87z
		"/>
	<path class="st1" d="M153.6,339.5c3.4,3.5,8.2,3.7,12.4,5.7c-4.7,0.1-9.4-1.6-14.1-0.3C153,343.3,153,341.3,153.6,339.5z"/>
	<path class="st11" d="M279.4,160.5c-1.4-0.5-2.7-1-4.1-1.4c-0.6-1.1-1.3-2.3-1.8-3.4c-0.3-0.8,0.1-1.4,0.8-1.7
		c0.5-0.2,0.9,0,1.2,0.5c3.2,4.6,3.6,4.7,8,1.8c0,0,0,0,0,0c1.1,1.6,0.5,2.6-1.1,3.3C281.5,159.8,280.5,160.1,279.4,160.5z"/>
	<path class="st8" d="M355.1,267.9c-0.3,0-0.6,0-0.9,0c-0.5-1.3-1-2.5-1.5-3.8c0-0.3-0.1-0.6-0.5-0.5c0,0,0,0,0,0
		c-0.3-2.4-1.1-4.7-2.3-6.8c0-2-0.6-3.4-3-3.2c0.5-0.6,1.3-1.2,1.5-1.9c0.3-1.3,1.3-0.8,1.9-0.8c1.2-0.1,0.5,1,0.6,1.5
		c0.3,1.3-0.6,2.9,0.9,3.9c0,1.5,0.1,3,1.1,4.2c0.2,1.2,0.6,2.3,1.2,3.4C354.4,265.3,354.8,266.6,355.1,267.9z"/>
	<path class="st0" d="M100.3,257.1c0,0.2,0.2,0.5,0.1,0.6c-0.7,0.7-1.6,2-2.4,1.5c-1.6-1-3.2-2.4-4.3-4c-0.5-0.7,0.6-1.8,1.5-2.3
		c0.1,0,0.2-0.1,0.3-0.1c1.2-0.1,1.7,0.5,1.7,1.6c0,1.5,0.9,0.8,1.6,0.8C99.9,255.2,100.2,256.1,100.3,257.1z"/>
	<path class="st11" d="M270.3,161.6c0.1,1.2-1.1,1.9-1.3,3c-2.4,0.8-4.8,1.9-7.2,0.2c-0.8-0.6-2.3-1.2-1.5-2.5
		c1-1.6,1.6,0.1,2.3,0.6c3,1.8,5.1,0.6,6.4-3.6C270,159.7,269.3,161.1,270.3,161.6z"/>
	<path class="st5" d="M335.8,272.2c-2.1-3-5.4-5.3-6-9.2c0.2,0,0.4,0.1,0.7,0.1c2.4,5.8,8.4,7.7,12.7,11.4
		C340.5,274.4,338.1,273.5,335.8,272.2z"/>
	<path class="st14" d="M83.9,206.6c2.9-0.1,5.5-1.8,8.4-1.3c0.8,0.2,1.8-0.2,2.5,0.6c-0.1,0.2-0.2,0.4-0.4,0.6
		c-4.5-0.7-8.3,0.9-11.9,3.3c-1.1,0.7-2.2,1.5-3.6,1.5c0.7-2.2,2.7-3,4.3-4.3C83.4,206.9,83.6,206.7,83.9,206.6L83.9,206.6z"/>
	<path class="st14" d="M83.2,217.4c-3.1-0.6-5.2,1.2-7.8,3.7c1.4-4.3,8.8-8,13.2-7.4C86.9,215.1,84.6,215.6,83.2,217.4z"/>
	<path class="st6" d="M334.4,174.3c2.9,0,4.9-1.8,7.2-3.9c-0.6,3.9-5.7,7-12.5,8.1C330.8,177.2,332.6,175.7,334.4,174.3z"/>
	<path class="st5" d="M345.5,267.8c1.6,3.3,4.9,3.9,8.5,5.3c-3.6,0.5-6.1,0.1-8.3-2.3c-1.7-1.9-3.7-3.6-5.6-5.4c2-0.3,3,1.7,4.8,1.9
		c0,0,0,0,0,0C345.1,267.4,345.3,267.6,345.5,267.8z"/>
	<path class="st6" d="M334,185.3c-2.6,0.5-5.3,0.9-7.9,1.5c-0.9,0.2-1.8,0.5-2.5-0.3c0-0.2,0.1-0.4,0.2-0.6
		c4.3,0.3,7.9-1.5,11.3-3.9c1.1-0.8,2.1-1.9,3.7-1.6c-1.1,1.7-2.6,3.1-4.2,4.3C334.5,184.9,334.3,185.1,334,185.3
		C334,185.3,334,185.3,334,185.3z"/>
	<path class="st1" d="M314.1,346.1c-0.4,0-0.8,0-1.2,0c-1.4-0.1-3,0.2-3.6-1.3c-0.6-1.4,0.6-2.3,1.5-3.3c0.5-0.6,0.9-1.3,1.3-1.9
		C312.8,341.8,313.4,344,314.1,346.1z"/>
	<path class="st14" d="M80.2,230.8c-1.4,1.5-2.8,3.1-4.3,4.5c-0.6,0.6-1.8,1.6-2.6,0.5c-0.5-0.8,0-2.4,1-2.8c2.3-0.9,3.9-2.7,5.9-4
		C80.2,229.6,80.2,230.2,80.2,230.8z"/>
	<path class="st12" d="M282,150.6c-2.4-0.9-4.5-0.6-6.2,1.5c-0.4,0.5-1,0.9-1.6,0.6c-0.8-0.5-0.2-1.2,0.1-1.8
		c0.9-1.9,2.6-2.5,4.4-2.6c1.5-0.1,2.9,0.7,3.4,2.4C282.2,150.7,282,150.6,282,150.6z"/>
	<path class="st12" d="M357.7,226.5c-0.6,1.8-1.2,3.6-2.5,5c-0.7,0.8-1.6,0.4-2.4,0.5C352.9,227.8,353.7,227,357.7,226.5z"/>
	<path class="st11" d="M352.8,232c0.8-0.1,1.7,0.3,2.4-0.5c0.9,0,1.4,0.3,0.8,1.3c-0.5,0.8-1,1.5-1.4,2.3c-3.5,1-3.5,1-3.4-2.6
		C351.8,232.6,352.4,232.6,352.8,232z"/>
	<path class="st8" d="M204.7,99.2c-0.5-0.7-1.1-1.5-0.3-2.3c0.6-0.7,1.4-0.3,2.1,0c0.1,0.1,0.1,0.2,0.2,0.3c0.6,0.9,2.3,1.6,1.3,2.9
		C206.7,101.5,205.7,99.7,204.7,99.2z"/>
	<path class="st5" d="M97.3,212.5c0.8-0.8,1.9-0.3,2.8-0.6c1.9-0.5,2.9-1.3,0.8-2.9c1.4,0.1,2.8,0.2,4.1,0.9
		C103.2,213.3,100.2,212.8,97.3,212.5z"/>
	<path class="st12" d="M270.3,161.6c-1-0.5-0.3-1.9-1.2-2.4c-0.5-1.5-1-3-1.6-4.9c3.2,1.4,3.5,3.9,3.6,6.5
		C270.8,161.1,270.5,161.3,270.3,161.6z"/>
	<path class="st12" d="M264.6,155c-1,1.1-2.5,1.2-3.1,2.5c-0.3,0.7-0.7,0.9-1.3,0.3c-0.4-0.5-0.8-1-0.3-1.6
		C261,154.5,262.4,153.4,264.6,155z"/>
	<path class="st11" d="M282,150.6c0,0,0.2,0.1,0.2,0.1c1.9,0.4,3.1,1.5,3.3,3.6c0.1,1.5-0.6,1.9-1.9,1.9c0,0,0,0,0,0
		C284,154,283,152.3,282,150.6z"/>
	<path class="st9" d="M108.5,210.9c-0.1,3.6,0.7,7.1,1.5,11C108.2,219.4,107.9,217,108.5,210.9z"/>
	<path class="st12" d="M317.2,191.9c1.2,0.1,2.6-1.7,3.5,0.5c-0.8,1.2-2.3,0.5-3.3,1.1c-0.4,0.2-1.1,0.4-1.2-0.3
		C316,192.4,316.7,192.2,317.2,191.9z"/>
	<path class="st12" d="M171.8,275.2c-1,0.2-2,0.9-3-0.1c0.2-1-0.2-2.6,1.2-2.6C171.4,272.5,171.6,274,171.8,275.2z"/>
	<path class="st8" d="M206.4,85.4c-0.7-0.4-1.3-0.8-0.9-1.7c0.3-0.7,1-0.5,1.6-0.5c0.5,0.5,1.7,0.7,1.4,1.8
		C208.1,86.1,207.1,85.4,206.4,85.4z"/>
	<path class="st11" d="M333.5,255.7c-1.6-0.6-3.4-0.9-3.6-3.1C331.9,252.7,333,253.8,333.5,255.7z"/>
	<path class="st9" d="M91.7,227.9c0.8,0.3,1.6,0.5,2.4,0.8c-0.7,1.2-1.8,2.3-1.6,4C92.3,231.1,92,229.5,91.7,227.9z"/>
	<path class="st12" d="M313.5,182.7c1.2,0.4,2.8-0.8,3.6,1.1c-1.4,0.2-2.8,0.4-4-0.4C312.2,182.9,313.3,183,313.5,182.7z"/>
	<path class="st9" d="M131,212.3c0.3,1.6,0.1,2.6-0.8,3.7C129.9,214.6,130.1,213.5,131,212.3z"/>
	<path class="st8" d="M360.5,221.4c-0.5,0.4-0.9,1.6-1.7,0.8c-0.4-0.4,0.7-0.9,1.3-1.2C360.2,221.2,360.3,221.3,360.5,221.4z"/>
	<path class="st9" d="M91.7,236.9c0-0.8,0.1-1.6,0.1-2.9C92.4,235.4,92.5,236.2,91.7,236.9C91.7,236.9,91.7,236.9,91.7,236.9z"/>
	<path class="st9" d="M129.2,218.3c-0.1-0.2-0.2-0.5-0.2-0.6c0.1-0.2,0.4-0.4,0.6-0.6c0.1,0.2,0.2,0.4,0.2,0.5
		C129.7,217.9,129.5,218.1,129.2,218.3z"/>
	<path class="st9" d="M90.5,226.6c0.6,0.2,1,0.6,1.1,1.1C91.2,227.5,90,227.9,90.5,226.6z"/>
	<path class="st6" d="M338.9,180.5c0-0.9,0.5-1.2,1.3-1.3C339.7,179.6,339.3,180,338.9,180.5z"/>
	<path class="st9" d="M88.6,227c-0.6,0-1.2,0-1.7,0C87.5,226.4,88,226.4,88.6,227z"/>
	<path class="st5" d="M343.1,274.6c0.5,0,1,0.1,1.3,0.6C343.8,275.1,343.3,275.2,343.1,274.6z"/>
	<path class="st9" d="M130.3,210.6c0,0.1,0.1,0.2,0.1,0.2c-0.1,0-0.2,0-0.3,0.1c0-0.1,0-0.2,0-0.2
		C130.2,210.6,130.3,210.6,130.3,210.6z"/>
	<path class="st14" d="M78.9,211.3c-0.3,0.6-0.8,0.6-1.3,0.6C78,211.5,78.3,211.1,78.9,211.3z"/>
	<path class="st11" d="M334.1,256.9c-0.6-0.2-0.7-0.7-0.7-1.2C334,255.9,334,256.4,334.1,256.9z"/>
	<path class="st11" d="M329.8,252.6c-0.2-0.1-0.3-0.3-0.5-0.4C329.5,252.4,329.7,252.5,329.8,252.6z"/>
	<path class="st0" d="M201.1,100.9c-0.2-0.1-0.4-0.3-0.6-0.4C200.6,100.6,200.9,100.7,201.1,100.9z"/>
	<path class="st14" d="M80.2,229c0.3-0.2,0.6-0.4,0.9-0.6C80.9,228.7,80.7,229.1,80.2,229z"/>
	<path class="st9" d="M86.6,227.1c0,0.5-0.1,0.3-0.2,0C86.4,227.1,86.6,227.1,86.6,227.1z"/>
	<path class="st11" d="M334,185.3c0.2-0.2,0.5-0.4,0.7-0.6C334.5,184.9,334.3,185.1,334,185.3z"/>
	<path class="st5" d="M340.1,265.4c-0.2-0.3-0.4-0.5-0.6-0.8C339.7,264.9,339.9,265.1,340.1,265.4z"/>
	<path class="st12" d="M83.8,206.6c-0.2,0.2-0.5,0.3-0.7,0.5C83.4,206.9,83.6,206.7,83.8,206.6z"/>
	<path class="st5" d="M387.5,272.1c-0.2-0.2-0.4-0.4-0.7-0.7C387.1,271.7,387.3,271.9,387.5,272.1z"/>
	<path class="st5" d="M399.6,211.6c0.2-0.3,0.4-0.6,0.6-0.8C400,211.1,399.8,211.3,399.6,211.6z"/>
	<path class="st14" d="M284,325.6c2.6-0.2,4.1,1.2,5.3,3.2c2.2,3.6,4.4,7.1,6.5,10.7c-3,1.6-6.1,3.2-9.1,4.8
		c-0.1-2.8-0.2-5.7-0.3-8.5C286.2,332.3,285.7,328.8,284,325.6z"/>
	<path class="st1" d="M306.7,355.3c-5.9,5.3-12.7,8.8-20.2,11c-0.9-1.8-0.2-3.6-0.4-5.4C293.2,360,299.9,357.5,306.7,355.3
		L306.7,355.3z"/>
	<path class="st1" d="M282.2,352.3c4.4,2.5,8.6-0.7,13.8-0.6c-4.6,2.6-9.1,3.7-12.6,6.6C283.9,356.1,282.7,354.3,282.2,352.3z"/>
	<path class="st1" d="M184.5,349.2c-0.2-0.1-0.4-0.2-0.5-0.3c-1.1-1.1-3.6-1.4-2.9-3.6c0.6-1.7,2.7-1.7,4.3-1.9
		C185.2,345.3,184.8,347.2,184.5,349.2z"/>
	<path class="st1" d="M185.3,343.2c0.2-0.2,0.4-0.4,0.6-0.6C185.8,342.9,185.9,343.4,185.3,343.2z"/>
	<path class="st13" d="M300.1,127.2c1.5-2.3,2.9-4.6,4.4-6.9c0.3-0.1,0.7-0.1,0.5-0.5c0,0,0,0.1,0,0.1c4.9-1,9.8-2,14.9-0.9
		c6.5,1.4,11.7,4.6,15.4,10.3c2.4,3.8,4.6,7.8,6.2,12.1c-2,2.1-3.6,4.4-5.1,6.8c-0.2,0.2-0.3,0.4-0.5,0.6c-0.2,0-0.3,0-0.5,0.1
		c-0.1-2.8-0.3-5.7-1.2-8.4c-2.9-8-8.6-13-17.1-14c-8.1-1-14.9,1.7-19.5,8.9c-2-0.2-4.1-0.2-5.6-1.8c1.1-2,2.2-3.9,3.2-5.9
		c1.1,0.6,0.5,2.9,2.2,2.7C299,130.2,299.8,128.8,300.1,127.2z"/>
	<path class="st6" d="M306.1,101.5c-2.2-1.9-3-4.5-3-7.2c-0.1-4,0-8.1,0-12.1c3.2,1.1,6.6-0.1,9.7,1c-1.8,3.6-3.7,7.1-5.4,10.7
		C306.3,96.3,305.8,98.8,306.1,101.5z"/>
	<path class="st6" d="M373.4,137.9c-5.1-0.3-10.1,0.7-15.2,0.6c-1,0-2,0.3-2.9-0.4c5.6-1.1,10.1-4.4,14.9-6.9c1-0.5,2-0.9,3-1.4
		C373.3,132.4,373.4,135.1,373.4,137.9z"/>
	<path class="st0" d="M105.5,161.6c-2.5-0.3-4.9-1-7.1-2.4c4.3-16,8.5-31.9,12.8-47.9c2.6-9.8,5.3-19.7,7.8-29.5
		c0.6-2.3,1.5-2.7,3.7-2.1c12.2,3.3,24.3,6.5,36.5,9.8c1.2,0.3,2.3,0.7,3.6,0.5c0,0,0,0,0,0c0.2,0.2,0.4,0.4,0.6,0.6
		c1.8,1.9,3.4,4,4.2,6.6c-13.1-3.4-26.2-6.8-39.2-10.4c-2.6-0.7-3.3,0-3.9,2.3c-3.3,12.9-6.8,25.7-10.2,38.6
		C111.4,138.9,108.4,150.3,105.5,161.6z"/>
	<path class="st1" d="M306.7,355.3c0.2-0.2,0.4-0.3,0.6-0.5C307.5,355.6,306.9,355.2,306.7,355.3
		C306.7,355.3,306.7,355.3,306.7,355.3z"/>
	<path class="st8" d="M105.5,161.6c2.9-11.3,5.9-22.7,8.8-34c3.4-12.9,6.9-25.7,10.2-38.6c0.6-2.3,1.2-3,3.9-2.3
		c13,3.6,26.1,7,39.2,10.4c0.7,2.4,4.2,2.2,4.1,5.3c1.6-1.1,1.5-2.3,1.5-3.5c3.8,0.3,7.2,2,10.9,2.5c2.3,1.9,4.7,3.8,7,5.7
		c0.2,0.2,0.4,0.5,0.6,0.1c0-0.1-0.2-0.3-0.3-0.4c-0.2-1.8,2.2-0.9,2.4-2.4c1,0,2,0.1,2.9,0.1c0,0,0-0.1,0-0.1
		c0,0.4,0.3,0.5,0.6,0.5c1,0.5,2.1,2.5,2.8-0.3c0.2-0.7,1.2-0.5,1.8-0.5c0,0,0.1-0.2,0.1-0.2c-0.1,0.5,0.2,0.8,0.6,0.9
		c0.5,1.9,2.2,2.2,3.7,2.6c6.9,1.8,13.8,3.7,20.8,5.5c2,0.5,2.5,1.1,1.9,3.3c-6.7,24.9-13.3,49.9-19.9,74.9c-0.6,2.4-1.3,3-3.9,2.3
		c-17.4-4.8-34.9-9.3-52.3-14c-0.6-0.2-1.2-0.2-1.8-0.3c1.5-2.4,1-5.4,2.2-7.9c0.2-0.3,0.4-0.8,0-1.1c-0.6-0.4-1.2-0.2-1.7,0.1
		c-1.9,1.1-3,2.9-4.3,4.6c-0.2,0.1-0.4,0.1-0.5,0c0.4-2.6-0.1-5.1-0.5-7.6c0,0,0-0.1,0-0.1c0.4-0.1,0.4-0.4,0.3-0.7
		c3.7-2.7,7.9-4.2,12.2-5.4c2.6-0.7,5.2-1.8,8.1-1.3c-0.2,2.5,0.1,5,0.7,7.5c0.5,2.5,2.1,3.9,4.6,3.9c2.2,0,3.9-1.2,4.4-3.5
		c0.6-2.5-0.3-4.3-2.6-5.5c-2.3-1.1-4.7-1.8-7.1-2.4c2.5-1.7,5.6-1,8.5-2.2c-2.8-1.1-5.4,0.5-8-0.2c1.9-1.7,3.9-3.4,5.7-5.3
		c1.3-1.4,1.3-3.1,0.4-4.8c-0.9-1.7-2.4-2.4-4.3-2.3c-1.8,0.1-3.1,0.9-3.8,2.5c-1,2.2,0.2,7.9,2.1,9.8c-1.9,1.1-4,1.3-6.1,1.2
		c-0.1-3,0.9-6,0.5-9c-0.4-2.8-2-4.4-4.7-4.7c-2.4-0.3-4.4,0.9-5.3,3.2c-1,2.4-0.4,4.6,1.7,6.2c2.4,1.8,5.1,3.3,7.9,4.4
		c-2.8,1.5-6,1.8-9,3c-5.8,2.2-11.1,5.1-15.4,9.7c-0.7,0.8-1.9,1.8-0.6,2.8c1.2,1,1.6-0.6,2.3-1.2c1.9-1.8,3.5-4.1,6.3-4.9
		c-1.1,1.1-1,2.6-1.3,3.9c-0.5,2.2-1.4,4-3.9,4.3c-4-1.3-8-2.5-12.2-3.1c0,0,0,0.1,0,0.1c0.1-0.5-0.3-0.5-0.6-0.6
		c0.3-0.9,0.6-1.9,0.8-2.8c1.9-0.4,3.6,0.8,5.5,0.8c0.6,0.2,1.3,0.4,2.1-0.1c-0.6-0.2-1.1-0.4-1.5-0.6c-0.9-1.7-0.2-2.9,1.6-3.6
		c-6.1-3.3-12-6.4-19-6.6c-2.1,0-4.2,0.1-6,1.4C108.9,162.1,107.2,161.9,105.5,161.6z M202.5,114.4c-0.1-0.1-0.3-0.3-0.4-0.4
		c-1.1-1.2-2.1-2.7-4.4-3.5c1.1,2.1,2.5,2.9,3.8,3.9c0.2,0.2,0.4,0.4,0.6,0.6c0.2,0.2,0.4,0.4,0.6,0.6c0.3,0.5,0.7,1.1,1,1.6
		c-2.7,2-2.3,4.5-1.2,7c2.1,4.7,6.2,7.3,10.6,9.5c1.3,0.6,1.6-0.2,1.7-1.2c0.2-3.2,0.8-6.4,0.2-9.7c-0.8-4.7-5.9-7.7-10.5-6.1
		c-0.5-0.6-0.9-1.1-1.4-1.7C203,114.8,202.7,114.6,202.5,114.4z M182.8,127c0-0.1,0.1-0.2,0.1-0.2c0-0.1-0.1-0.2-0.2-0.4
		c0-0.5,0.1-1,0.1-1.5c2.7-0.1,5.4-0.2,8.1-0.4c1.3-0.1,2.4-0.6,2.7-2c0.3-1.2,0.1-2.2-0.9-3c-1.1-0.8-2.2-0.6-3.4,0
		c-1.9,1-3.4,2.6-5.4,3.2c0.2-2.2,2.4-2.8,3.4-4.4c0.8-1.2,1.3-2.3,0.6-3.6c-0.5-0.9-1.4-1.3-2.5-1.3c-1.4,0.1-2.2,1-2.5,2.2
		c-0.7,2.5-1.3,5-2,7.5c-0.3,0-0.5,0-0.8,0c-0.3-2.8-0.6-5.6-0.9-8.4c-0.1-1.5-0.8-2.5-2.3-2.8c-1.1-0.2-2,0.2-2.6,1.1
		c-1,1.3-0.6,2.5,0.2,3.6c1.6,2.2,3.1,4.4,4.7,6.6c-0.4,0.3-0.9,0.5-1.3,0.8c-1.9-1.7-3.7-3.4-5.6-5c-1.1-1-2.3-1.7-3.8-0.8
		c-0.9,0.6-1.5,1.4-1.4,2.5c0.2,1.6,1.3,2.4,2.9,2.6c2.1,0.4,4.1,0.8,6.2,1.2l0.2,0.2l0.2-0.1c0.4,0.1,0.8,0.2,1.3,0.4
		c0,0.5,0,0.9,0,1.4c-2.8,0.2-5.7,0.4-8.5,0.6c-1.3,0.1-2.3,0.8-2.6,2.1c-0.3,1.1,0,2,0.9,2.7c1.1,0.9,2.3,0.8,3.4,0.1
		c2.3-1.6,4.6-3.2,6.9-4.9c0.2,0.2,0.4,0.4,0.6,0.6c-1.5,2.2-3,4.3-4.5,6.5c-0.8,1.2-1.2,2.4-0.3,3.7c0.6,0.9,1.5,1.4,2.6,1.2
		c1.7-0.3,2.3-1.6,2.4-3.1c0.2-2.5,0.3-5,0.5-7.6c0.4,0,0.7-0.1,1.1-0.1c0.1,2.2,0.2,4.5,0.4,6.7c0,0.1-0.1,0.1-0.1,0.1
		c0,0.1,0.1,0.2,0.2,0.4c0,1.6,0.3,3,2.1,3.6c1.2,0.4,2.2-0.1,2.9-1c1.1-1.5,0.3-2.8-0.5-4.1c-1.3-1.9-2.5-3.8-3.8-5.7
		c0.2-0.6,0.7-0.7,1.2-0.7c2,1.8,4,3.8,6.1,5.5c1.5,1.2,3.2,1,4.1-0.7c0.9-1.7,0.3-3.3-1.6-3.9C188.6,127.6,185.8,126.6,182.8,127
		L182.8,127z M198.1,171.9c0,0.4,0,0.9-0.1,1.3c-1.5,0.1-3,0-4.5,0.3c-1.1,0.2-2.5,0.1-3,1.6c-0.3,0.8,0.1,1.4,0.7,1.8
		c1.3,1,2.2-0.1,3.3-0.6c0.9-0.4,1.6-1.6,3-0.9c-0.7,1.2-1.4,2.3-2,3.5c-0.7,1.2-0.5,2.2,0.8,2.7c1.2,0.4,2.1-0.1,2.4-1.5
		c0.5-1.9,0.5-3.8,0.5-5.7c0.2,0,0.5,0,0.7,0c0.1,1.9,0.2,3.8,0.4,5.7c0.2,1.4,1.1,1.9,2.4,1.5c1.4-0.5,1.4-1.5,0.9-2.7
		c-0.6-1.4-2-2.3-2-4c1.9-0.1,2.4,1.8,3.7,2.5c1.2,0.7,2.3,1,3.1-0.4c0.8-1.4-0.2-2.3-1.4-2.7c-1.8-0.5-3.7-0.9-5.5-1.3
		c0-0.4,0-0.9,0-1.3c1.5,0,3,0.1,4.5,0c1.2,0,2.5,0.1,2.9-1.5c0.2-0.7,0-1.5-0.6-1.9c-1.1-0.7-2.1-0.1-3.1,0.4
		c-0.8,0.5-1.5,1.5-2.9,0.8c0.9-0.8,1.8-1.4,2.5-2.3c0.8-1,0.9-2.1-0.3-2.9c-1.3-0.8-2.3-0.2-2.8,1.2c-0.6,1.6-1.2,3.2-1.2,4.9
		c-0.2,0-0.5,0-0.7-0.1c-0.2-1.6-0.4-3.2-0.5-4.8c-0.1-1-0.2-2-1.4-2.4c-0.7-0.2-1.5-0.2-1.9,0.4c-0.8,1.1-0.3,2,0.3,3.1
		c0.8,1.5,2.5,2.4,2.4,4.3c-2.1-0.3-2.9-2.4-4.5-3.3c-0.8-0.5-1.6-1-2.5-0.3c-0.5,0.4-0.9,0.9-0.8,1.5c0.1,1.1,0.8,1.7,1.7,1.9
		C194.3,171.5,196.2,172.1,198.1,171.9z M131,131.1c0.1,0.4-0.2,0.7-0.5,0.8c-1.5,0.9-3.1,0.4-4.7,0.5c-1.1,0.1-2,0.4-2.4,1.5
		c-0.2,0.6,0,1.2,0.5,1.6c0.9,0.8,1.8,0.5,2.8,0.1c1.2-0.6,2.1-1.8,4.1-2.1c-1,1.7-1.9,2.9-2.5,4.1c-0.6,1.1-0.5,2.3,0.8,2.8
		c1.5,0.5,2.3-0.4,2.5-1.8c0.2-1.7,0.1-3.4,0.1-5.1l0.3,0l0.3-0.1c1.2,1.6,0.3,3.5,0.7,5.2c0.2,1,0.7,1.7,1.6,2
		c0.7,0.2,1.2-0.1,1.6-0.6c0.8-0.8,0.5-1.6,0.1-2.5c-0.5-1.2-1.8-2-1.7-3.4c1.8-0.3,2.3,1.7,3.5,2.2c0.7,0.3,1.4,0.9,2.2,0.4
		c0.7-0.4,1-1,1-1.7c0-1.1-0.8-1.6-1.7-1.8c-1.8-0.4-3.7-1.1-5.6-0.8c0.1-0.5,0.1-0.9,0.2-1.4c2-0.1,4-0.2,6-0.4
		c1.1-0.1,1.8-0.9,1.6-2.1c-0.3-1.3-1.2-1.7-2.5-1.3c-0.5,0.2-0.9,0.4-1.4,0.6c-0.2-0.2-0.4-0.4-0.6-0.6c0.5-1.3,1.9-2.9-0.4-3.7
		c-2.1-0.7-2.4,1.1-2.9,2.6c-0.4,1.3-0.7,2.5-1.1,3.8c-0.2,0-0.4,0-0.7,0c0-2,0.1-4-0.5-5.9c-0.4-1.2-1.1-2-2.4-1.5
		c-1.4,0.5-1.6,1.7-0.8,2.9c1,1.6,2.2,3.1,3.2,4.7c-0.3,0.2-0.5,0.5-0.8,0.7c-1.3-1.2-2.5-2.3-3.8-3.5c-0.8-0.7-1.7-1.1-2.8-0.6
		c-0.7,0.4-1,1-0.9,1.8c0.2,1.2,1.2,1.5,2.2,1.7C127.7,130.4,129.3,130.8,131,131.1z M165,170.6c-0.5-3-1.9-5.8-3.4-8.5
		c-0.5-1-1.1-0.7-1.6,0c-1.9,2.6-5.1,4.3-4.8,8.4c0.2,3.2,1.1,5,4.1,5.2C162.4,175.9,165,173.7,165,170.6z M163.7,137.8
		c-1.3-3.5-3.2-6.5-6.5-8.2c-2.2-1.1-4.9-0.3-5.4,1.4c-0.9,3.2,1.3,6.7,4.6,7.3C158.9,138.6,161.3,138.5,163.7,137.8z M176.8,156.2
		c2.2-0.8,4.1-1.6,5.8-2.9c1.6-1.1,2.1-2.7,1.4-4.5c-0.7-1.8-2.1-2.7-4-2.5c-1.9,0.2-3.1,1.3-3.4,3.2
		C176.3,151.7,176.2,153.7,176.8,156.2z M176.9,158.4c0.3,2.3,0.7,4.4,1.5,6.4c0.8,1.8,2.2,2.6,4.1,2.4c2-0.2,3.1-1.4,3.4-3.3
		c0.3-1.9-0.6-3.3-2.4-4.1C181.4,158.9,179.4,158.5,176.9,158.4z M191.4,152.3c-1.5,0-7,3.1-6.7,4c0.5,2.2,3,2.2,4.6,3.3
		c0.4,0.3,0.9,0.4,1.4,0.4c2.2,0.4,4.2-1.2,4.4-3.5C195.3,154.2,193.7,152.4,191.4,152.3z"/>
	<path class="st4" d="M167.5,157.4c2.6,0.7,5.2-0.9,8,0.2c-2.9,1.2-6,0.5-8.5,2.2l0.1-0.1c-2.8-0.5-5.4,0.6-8.1,1.3
		c-4.3,1.2-8.6,2.7-12.2,5.4c-0.3,0.1-0.5,0.4-0.3,0.7c0,0,0,0.1,0,0.1c-0.7-0.4-1.2-0.1-1.5,0.6c-2.8,0.8-4.3,3.1-6.3,4.9
		c-0.6,0.6-1,2.2-2.3,1.2c-1.2-1-0.1-2,0.6-2.8c4.3-4.6,9.6-7.5,15.4-9.7c3-1.1,6.2-1.4,9-3l-0.1,0.1
		C163.6,158.6,165.7,158.5,167.5,157.4L167.5,157.4z"/>
	<path class="st0" d="M127.6,173c4.2,0.6,8.2,1.8,12.2,3.1C133.9,180,130.8,179.2,127.6,173z"/>
	<path class="st6" d="M140.9,184c0.9-2.3,2.5-3.9,4.8-4.9l0,0C144.9,181.5,143.2,183.2,140.9,184L140.9,184z"/>
	<path class="st6" d="M145.7,179.2c0-0.8-0.1-1.6,0.9-2C147.3,178.2,146.5,178.7,145.7,179.2C145.8,179.2,145.7,179.2,145.7,179.2z"
		/>
	<path class="st6" d="M140.9,184.1c-0.2,0.2-0.4,0.3-0.7,0.5c-0.1-0.1-0.1-0.2-0.2-0.2C140.4,184.2,140.6,184.1,140.9,184.1
		C140.9,184,140.9,184.1,140.9,184.1z"/>
	<path class="st6" d="M147,174.8c0.2,0,0.4,0,0.5,0c-0.1,0.3,0.2,0.7-0.3,0.8C147.2,175.6,147.1,175.1,147,174.8z"/>
	<path class="st0" d="M127,172.5c0.3,0.1,0.7,0.1,0.6,0.6C127.4,172.9,127.2,172.7,127,172.5z"/>
	<path class="st0" d="M184.1,101.4c-3.7-0.5-7.1-2.2-10.9-2.5c0.1-2-1-3.9-0.7-6c1.3,0.2,2.5,0.9,3.9,0.6
		C178.9,96.3,182.4,97.9,184.1,101.4z"/>
	<path class="st0" d="M196.8,104.6c-1,0-2-0.1-2.9-0.1c-1.2-2.4-3.4-4.3-4.3-6.8c0.4,0,0.8,0.1,1.2,0.1
		C193.1,99.7,195.1,102,196.8,104.6z"/>
	<path class="st2" d="M176.4,93.6c-1.4,0.3-2.6-0.4-3.9-0.6C173.6,90.7,173.6,90.7,176.4,93.6z"/>
	<path class="st2" d="M190.7,97.8c-0.4,0-0.8-0.1-1.2-0.1c-0.9-1-2-1.8-1.9-3.4l0.1-0.1C189,95.1,190.1,96.2,190.7,97.8z"/>
	<path class="st0" d="M197.4,105c-0.3,0-0.6,0-0.6-0.5C196.9,104.7,197.1,104.8,197.4,105z"/>
	<path class="st2" d="M187.6,94.3c-0.1-0.1-0.3-0.2-0.4-0.3C187.5,93.5,187.6,94,187.6,94.3C187.7,94.2,187.6,94.3,187.6,94.3z"/>
	<path class="st2" d="M163.4,90.5c-0.2-0.2-0.4-0.4-0.6-0.6C163,90.1,163.2,90.3,163.4,90.5z"/>
	<path class="st12" d="M253.2,288.5c1.2-4.7,0.7-9.6,0.9-14.4C254.4,278.9,255.6,283.8,253.2,288.5L253.2,288.5z"/>
	<path class="st9" d="M232.1,248.7c4-0.4,7.9-0.5,12.3,1.6C239.7,250.1,235.9,248.6,232.1,248.7z"/>
	<path class="st12" d="M218.7,292.5c3.2,0.9,6.6,0.1,9.8,0.5C225.2,293.3,221.9,294.2,218.7,292.5z"/>
	<path class="st2" d="M197.4,277c-1.6,0.7-2.6,0.5-2.2-1.6c0.6-0.6,0.7-2,2-1.7c1,0.2,0.5,1.3,0.6,2
		C197.7,276.1,197.5,276.5,197.4,277L197.4,277z"/>
	<path class="st12" d="M253.2,288.5c-0.1,1.9-1.5,2.5-3,2.8c-1.6,0.3-3.1,0.5-4.8,0.5C248,290.5,251.6,291.7,253.2,288.5
		C253.2,288.5,253.2,288.5,253.2,288.5z"/>
	<path class="st9" d="M249.1,306.4c3.5-0.4,6.9-0.3,10.3,0.5C255.9,306.8,252.5,306.5,249.1,306.4z"/>
	<path class="st12" d="M215.5,286.5c-1-2.7-1.5-5.6-1.6-9.4C214.5,280.8,215,283.7,215.5,286.5z"/>
	<path class="st12" d="M231.4,289.1c2.1,1.1,4.4,2,6.7,2.5C235.7,291.2,233.1,291.4,231.4,289.1L231.4,289.1z"/>
	<path class="st2" d="M193.4,300.5c-1.6,0.4-2.3-0.2-1.9-1.8c0.2-0.9,0.6-1.8,1-2.7C192.7,297.5,193.1,299,193.4,300.5z"/>
	<path class="st2" d="M187.1,287.9c0.2-2.2,1.2-4.2,2.3-6.1c0.1,0.6,0.2,1.1,0.3,1.7C189,285.1,188.5,286.8,187.1,287.9L187.1,287.9
		z"/>
	<path class="st12" d="M239.4,312.9c2.9,0.3,5,0.6,7.6,0.9C244.4,314.1,242.2,313.9,239.4,312.9z"/>
	<path class="st12" d="M202.3,259.3c-0.9-0.8-0.4-1.8-0.3-3.7C202.1,257.5,202.2,258.4,202.3,259.3
		C202.2,259.3,202.3,259.3,202.3,259.3z"/>
	<path class="st12" d="M248.5,313.2c-0.1-0.1-0.3-0.1-0.4-0.2c0.2-0.1,0.3-0.2,0.5-0.3c0.1-0.1,0.3,0,0.5,0
		C249,312.8,248.7,313,248.5,313.2z"/>
	<path class="st12" d="M205.3,263.6c0.2,0.2,0.4,0.3,0.7,0.5c-0.1,0.1-0.1,0.1-0.2,0.2C205.6,264,205.4,263.8,205.3,263.6
		L205.3,263.6z"/>
	<path class="st12" d="M230.2,288.5c-0.3-0.3-0.6-0.6-0.8-0.8c0.1,0,0.2-0.1,0.3-0.1C229.8,287.9,229.9,288.2,230.2,288.5
		C230.1,288.5,230.2,288.5,230.2,288.5z"/>
	<path class="st12" d="M202.8,261.2c-0.7-0.5-0.5-1.2-0.6-1.8c0,0,0,0,0,0C202.4,260,202.6,260.6,202.8,261.2L202.8,261.2z"/>
	<path class="st10" d="M197.4,277c0.1-0.5,0.3-0.9,0.4-1.4C197.9,276.1,198.2,276.8,197.4,277z"/>
	<path class="st12" d="M216,288.5c0,0.1,0,0.2-0.1,0.3c-0.1-0.1-0.2-0.2-0.2-0.3c0-0.1,0.1-0.1,0.2-0.2
		C216,288.3,216,288.4,216,288.5z"/>
	<path class="st12" d="M231.4,289.1c-0.4-0.2-0.8-0.4-1.3-0.6c0,0,0,0,0,0C230.6,288.7,231,288.9,231.4,289.1
		C231.4,289.1,231.4,289.1,231.4,289.1z"/>
	<path class="st12" d="M203.4,261.8c0.2,0.2,0.4,0.4,0.6,0.6l0,0C203.9,262.2,203.7,262,203.4,261.8
		C203.5,261.8,203.4,261.8,203.4,261.8z"/>
	<path class="st12" d="M205.3,263.6c-0.2-0.2-0.4-0.4-0.6-0.6c0,0,0,0,0,0C204.9,263.2,205.1,263.4,205.3,263.6
		C205.3,263.6,205.3,263.6,205.3,263.6z"/>
	<polygon class="st12" points="216.5,289.9 216.6,290.1 216.4,290.1 	"/>
	<polygon class="st12" points="217,291.2 217.2,291.2 217.1,291.3 	"/>
	<path class="st12" d="M202.8,261.2c0.2,0.2,0.4,0.4,0.6,0.6c0,0,0,0,0,0C203.3,261.6,203.1,261.4,202.8,261.2
		C202.8,261.2,202.8,261.2,202.8,261.2z"/>
	<path class="st12" d="M204,262.4c0.2,0.2,0.4,0.4,0.6,0.6c0,0,0,0,0,0C204.5,262.8,204.3,262.6,204,262.4
		C204.1,262.4,204,262.4,204,262.4z"/>
	<path class="st0" d="M404.7,228.8c-0.6,1.1-1.8,1.2-2.7,1.7c-0.9,0.5-1.9,0.3-2.2-0.8c-0.3-1.2,0.5-1.8,1.7-1.9
		C402.6,227.8,403.8,227.7,404.7,228.8z"/>
	<path class="st11" d="M352.8,242.4c1.9-0.8,3.7-1,5.5,0.5C356.5,242.4,354.4,246.7,352.8,242.4
		C352.8,242.3,352.8,242.4,352.8,242.4z"/>
	<path class="st0" d="M389.6,246.1c-0.6,1.4-2,1.3-3,1.6c-0.8,0.3-1.8,0-1.9-1c-0.1-1.2,1-1.4,1.9-1.3
		C387.6,245.5,388.8,244.9,389.6,246.1z"/>
	<path class="st0" d="M391.2,231.4c0.7,0.1,2.1,0,1.8,0.9c-0.4,1.3-2.1,1.3-3.4,1.4c-0.7,0.1-1.6-0.1-1.4-1.1
		C388.6,231.1,390.1,231.5,391.2,231.4z"/>
	<path class="st11" d="M365.2,237.8c-1.3,1-2.5,1.6-4,1.5c-0.6,0-1.3-0.3-1.4-0.9c-0.1-0.8,0.6-1,1.1-1.2
		C362.3,236.7,363.7,236.7,365.2,237.8z"/>
	<path class="st0" d="M399.2,225.3c-1.4,1-2.6,2.5-4.5,1.4c-0.5-0.3-0.6-0.9-0.2-1.3C396,224.2,397.6,224.8,399.2,225.3z"/>
	<path class="st0" d="M385.2,240.2c-1,0.8-2,1.4-3.2,1.5c-0.7,0.1-1.5,0.1-1.6-0.9c-0.1-0.8,0.5-1.3,1.2-1.4
		C382.8,239.3,384.1,239.1,385.2,240.2z"/>
	<path class="st2" d="M187,287.9c0,0.2-0.1,0.3-0.1,0.5c-0.1-0.1-0.2-0.1-0.2-0.2C186.8,288.1,186.9,288,187,287.9
		C187.1,287.9,187,287.9,187,287.9z"/>
	<path class="st12" d="M322.2,167.1c-1.2-1.4-2.5-0.1-3.6,0.1c-11.2,2.1-21.7-4.5-24.4-15.6c-0.1-0.6-0.4-1.2-0.3-1.8
		c0.4-2.7-0.7-4.6-3.1-5.8c2.1-1.9,3.1,1.1,4.8,1.1c0.6,1.6-0.7,2.9-0.5,4.6c1.6,11.2,13.4,19.1,24.3,15.9c0.8-0.2,2.2-0.2,1.8-1.8
		c-0.3-1.9-0.3-1.9,2.3-0.9c1.1,0.9,2,0.3,2.8-0.5c0.9-0.9,1.9-1.7,2.9-2.5c2.6,2.1,0,3.5-0.6,5.2c-0.9,0.1-1.8,0.1-2.7,0.2
		C323.8,164.3,323.1,165.8,322.2,167.1z"/>
	<path class="st12" d="M297.5,135.3c4.6-7.1,11.4-9.8,19.5-8.9c8.4,1,14.2,5.9,17.1,14c1,2.7,1.2,5.5,1.2,8.4c0,2.1-0.6,3.8-2.5,4.9
		c0.1-0.7,0.3-1.4,0.4-2c1.3-7.2,0.2-13.7-5.9-18.6c0,0,0,0,0,0c-0.2-0.7-0.5-1-1.3-0.6l0,0c0.2-0.4,0.1-0.8-0.2-1.1
		c-4-3.7-12.3-5-17.4-2.6l0.1,0c-0.5,0-1.1-0.1-1.3,0.6l0,0c-0.6-0.1-1.1-0.1-1.3,0.6l0,0c-0.6-0.1-1.1-0.1-1.3,0.6l0,0
		c-0.6-0.1-1.2,0.1-1.3,0.8c-1,0.8-2,1.5-2.9,2.3c-1.3,0.6-2,1.6-2.2,3C298.2,136.2,297.8,135.8,297.5,135.3z"/>
	<path class="st8" d="M327.3,133c6.1,4.9,7.2,11.4,5.9,18.6c-0.1,0.7-0.3,1.4-0.4,2c-0.1,0.1-0.2,0.3-0.1,0.4
		c-0.1,0.3-0.3,0.5-0.4,0.8c-1,1.6-2.1,3.3-3.1,4.9c-1,0.8-2,1.7-2.9,2.5c-0.8,0.8-1.7,1.4-2.8,0.5c7.3-4.5,10.7-12.2,9-18.8
		C331.4,140,329,136.7,327.3,133z"/>
	<path class="st8" d="M325.9,165.2c0.9-0.1,1.8-0.1,2.7-0.2c3.4,0.4,4.9-2.7,7.3-4.1c0.9,1.5-1.4,2.7-0.4,4.2c-0.7,1.2,1,1.2,1,2.2
		c-1.7-0.7-3.3-0.7-4.8,0.4c-1.9,1.4-3.6,1.1-4.7-1.2C326.7,166.1,326.2,165.7,325.9,165.2z"/>
	<path class="st12" d="M335.4,165.2c-1-1.5,1.3-2.7,0.4-4.2c0,0,0,0,0,0c0.7,0,0.7-0.5,0.6-0.9c1.5-2.5,3.4-4.5,7-6.2
		C341.5,158.9,336.6,160.8,335.4,165.2z"/>
	<path class="st12" d="M335.8,148.7c0.2-0.2,0.3-0.4,0.5-0.6C336.3,148.5,336.1,148.7,335.8,148.7z"/>
	<path class="st12" d="M332.3,154.9c0.1-0.3,0.3-0.5,0.4-0.8C332.5,154.4,332.4,154.6,332.3,154.9z"/>
	<path class="st8" d="M336.4,160c0,0.5,0,0.9-0.6,0.9C336,160.7,336.2,160.4,336.4,160z"/>
	<path class="st5" d="M202.7,104.9c-0.4-0.2-0.7-0.5-0.6-0.9C202.6,104.1,202.8,104.4,202.7,104.9z"/>
	<path class="st8" d="M298.5,136.7c0.1-1.4,0.8-2.5,2.2-3c0,2.4,3.1,3.6,2.2,6.3c-0.3,0.8-0.3,2.2,0.8,2.3c1.2,0.1,0.9-1.2,1.2-2
		c0.1-0.2,0.2-0.5,0.4-0.9c3.1,2.3,6.1,4.5,9.1,6.8c0.8,0.6,1.6,1.2,1.5,2.4c-0.3,3.5,1,6.5,3,9.3c1.1,1.4,1.3,3.1,1.3,4.9
		c0,0.7-0.1,1.5,1.1,1.2c0.5,1.6-1,1.6-1.8,1.8c-10.8,3.2-22.7-4.7-24.3-15.9c-0.2-1.7,1.1-3,0.5-4.6c0-1.3,0-2.6,0.2-3.8
		c0.2-1.1,0.4-2.4,2-2.4C300.1,138.9,299.4,137.8,298.5,136.7z"/>
	<path class="st2" d="M295.1,127.7c-1.1,2-2.2,3.9-3.2,5.9c-5.2-4.6-4.8-11.2,0.8-14.7c1.4-0.9,2.5-0.7,3.9,0.1
		c1.5,0.9,0.4,2,0.2,2.9c-0.3,1.1-0.5,2.1-0.5,3.3c0,0,0.1,0,0.1,0c-0.8,0.4-0.5,1.2-0.6,1.8C295.5,127.2,295.3,127.4,295.1,127.7z"
		/>
	<path class="st12" d="M295.1,127.7c0.2-0.2,0.4-0.5,0.6-0.7c0.7-0.4,0.6-1.2,0.6-1.8c0,0-0.1,0-0.1,0c2-0.5,3.6-0.4,3.8,2.2
		c-0.3,1.6-1.1,2.9-2.7,3.1C295.6,130.5,296.2,128.3,295.1,127.7z"/>
	<path class="st6" d="M291.2,138.6c-5.3-0.3-7.6-4-9.6-8.2c3.5,2.1,5,6.7,9.4,7.6C291.1,138.1,291.1,138.4,291.2,138.6z"/>
	<path class="st8" d="M291.2,138.6c-0.1-0.2-0.1-0.4-0.2-0.7c0.7,0.1,1.4,0.3,2.1,0.3c2.3,0.2,2.7,1.2,1.2,3.1
		C293.2,140.4,292.2,139.5,291.2,138.6z"/>
	<path class="st2" d="M304.9,119.7c0.2,0.5-0.2,0.5-0.5,0.5C304.4,119.9,304.6,119.7,304.9,119.7z"/>
	<path class="st14" d="M125.7,256.9c4.4,1.2,5.6,5,7.5,8.3c-0.3,0.2-0.5,0.4-0.8,0.6C130.2,262.9,127.9,259.9,125.7,256.9
		L125.7,256.9z"/>
	<path class="st14" d="M125.7,257c-0.3-0.1-0.5-0.2-0.8-0.3c0.1-0.1,0.2-0.2,0.2-0.2C125.3,256.6,125.5,256.8,125.7,257
		C125.7,256.9,125.7,257,125.7,257z"/>
	<path class="st5" d="M361.3,264.1c0.8,1.2,2.1,0.5,3.1,0.8c1.1,0.3,2.1,0.8,2.7,1.8c0.2,0.4,0.2,0.9-0.3,1
		c-1.1,0.2-2.1,0.2-3.2-0.4c-1.6-0.8-3.3-1.4-5-2.2c-0.9-0.4-2.1,0-2.7-1.1C357.6,264.1,359.4,264.1,361.3,264.1z"/>
	<path class="st2" d="M361.3,264.1c-1.8,0-3.6,0-5.4,0.1c-0.6-0.1-1.2-0.1-1.8-0.2c-0.7-1-1-2.2-1.2-3.4
		C355.4,262.2,358.5,262.9,361.3,264.1z"/>
	<path class="st8" d="M280.6,300.1c2,1,4.2,1.6,5.5,3.6C281.9,306,281.4,305.5,280.6,300.1z"/>
	<path class="st2" d="M372.8,212c1.7-2,3.9-3.5,6-5c2.1,2.5,1.7,3.8-1.2,4.5C376,211.9,374.5,212.1,372.8,212z"/>
	<path class="st2" d="M372,212.6c0.3-0.2,0.6-0.4,0.9-0.6C372.7,212.4,372.4,212.5,372,212.6z"/>
	<path class="st2" d="M377.5,206c-4.1,3.5-8.3,7-12.4,10.5c-1.4-3.1-0.8-5.7,1.7-7.9c0.2-0.2,0.4-0.4,0.6-0.6
		C371.8,203.6,371.8,203.6,377.5,206z"/>
	<path class="st5" d="M363.8,200.4c0,2.1-1.2,3.8-1.9,5.6c-0.9,2.1-1.9,4.1-1.9,6.5C358.7,207.7,360.4,203.8,363.8,200.4
		L363.8,200.4z"/>
	<path class="st5" d="M363.8,200.5c0-0.1,0.1-0.2,0.1-0.3C363.9,200.3,363.8,200.4,363.8,200.5C363.8,200.4,363.8,200.5,363.8,200.5
		z"/>
	<path class="st8" d="M287.6,299.2c-5.1-2.4-9.9-5.2-14.6-8.3c5.2-2.3,9.3-1,13,3.2C287.5,295.8,288.1,297.2,287.6,299.2z"/>
	<path class="st14" d="M290.1,287.9c-4.1-0.5-7.2-2.9-11.7-2.5C282.2,283.3,287.2,284.5,290.1,287.9z"/>
	<path class="st2" d="M349.9,256.8c1.3,2.1,2.1,4.4,2.3,6.8c-1.7-1.6-5-2.5-2.8-6c0.1-0.1,0.1-0.3,0.2-0.5
		C349.8,257.1,349.9,256.9,349.9,256.8z"/>
	<path class="st8" d="M349.7,257.2c-0.1,0.2-0.1,0.3-0.2,0.5C349.5,257.4,349.5,257.3,349.7,257.2z"/>
	<path class="st2" d="M352.2,263.6c0.4-0.1,0.4,0.2,0.5,0.5C352.5,263.9,352.4,263.7,352.2,263.6z"/>
	<path class="st2" d="M345.5,267.8c-0.2-0.2-0.4-0.4-0.6-0.6C345.1,267.4,345.3,267.6,345.5,267.8z"/>
	<path class="st0" d="M142.5,241.7c-2.6,5.4-7.4,7.4-11.9,4.9c0.6,0,1.2,0,1.8-0.1c1-0.1,2.1-0.3,2.3-1.5c0.1-0.8-0.5-1.3-1.3-1.3
		c-1.1,0-2.3,0.1-2.6,1.5c-0.1,0.5-0.1,1-0.1,1.5c-1.9-0.2-3.1-1.2-3.8-2.9c0,0,0.1-0.1,0.1-0.1c1.7,1.1,2.8-0.6,4.2-0.9
		c1.9,0.6,2.3-0.8,2.5-2.1c0.3-1.9-1.5-1.3-2.4-1.8c-0.7-0.9,1.9-1.5,0.4-2.3c-1.5-0.8-1.9,0.4-2,1.7c-0.1,0.7-0.7,1.2-1.5,1.2
		c0-1,1.4-2.2-0.1-2.9c-1.6-0.8-1.9,0.8-2.5,1.8c-0.1,0.2-0.2,0.3-0.4,0.5c0.1-5.5,4-9.3,9.3-9.1c5.1,0.2,8.7,4.4,8.5,9.7
		c0,0.6-0.1,1.2-0.2,1.8c-0.8-0.9-1.3-1.9-0.8-3.2c0.4-1.1-0.6-1.1-1.2-1.3c-0.9-0.3-0.8,0.4-1,1
		C138.9,240.4,139.3,241.1,142.5,241.7z"/>
	<path class="st14" d="M142.5,241.7c-3.1-0.6-3.6-1.3-2.8-4.1c0.2-0.6,0.1-1.3,1-1c0.6,0.2,1.6,0.2,1.2,1.3c-0.5,1.3,0,2.3,0.8,3.2
		C142.6,241.3,142.6,241.5,142.5,241.7z"/>
	<path class="st15" d="M125.1,238.7c0.1-0.2,0.3-0.3,0.4-0.5c0.6-1,0.9-2.6,2.5-1.8c1.5,0.7,0.2,1.9,0.1,2.9
		c-0.2,0.1-0.3,0.3-0.5,0.4c-1.1,0.5-1.8-0.2-2.5-0.8C125.1,239,125.1,238.7,125.1,238.7z"/>
	<path class="st0" d="M125.1,239c0.7,0.7,1.4,1.3,2.5,0.8c-0.9,1.1-1.4,2.4-0.7,3.8c0,0-0.1,0.1-0.1,0.1
		C125.2,242.5,125,240.8,125.1,239z"/>
	<path class="st11" d="M350.8,238.5c-0.9,0.9-1.4,2.4-3,2.4c-0.6,0-1.7-0.5-1.3-1.2c0.7-1.2,1.9-1.9,3.4-2.1
		C350.3,237.5,350.8,237.7,350.8,238.5z"/>
	<path class="st2" d="M118.4,216.3c-1.2,0-1.8-0.5-1.8-1.6c0-1,0.5-1.5,1.5-1.6c0.9-0.1,1.6,0.3,1.7,1.3
		C119.9,215.5,119.5,216.2,118.4,216.3z"/>
	<path class="st7" d="M204.6,116.7c4.6-1.6,9.8,1.4,10.5,6.1c0.5,3.2-0.1,6.4-0.2,9.7c-0.1,1-0.4,1.8-1.7,1.2
		c-4.4-2.2-8.5-4.8-10.6-9.5c-1.1-2.5-1.5-5.1,1.2-7C204,117,204.3,116.9,204.6,116.7z"/>
	<path class="st7" d="M161.5,158.5c-2.9-1.1-5.5-2.5-7.9-4.4c-2.1-1.6-2.7-3.8-1.7-6.2c0.9-2.3,2.9-3.4,5.3-3.2
		c2.7,0.3,4.3,2,4.7,4.7C162.4,152.6,161.4,155.6,161.5,158.5C161.5,158.6,161.5,158.5,161.5,158.5z"/>
	<path class="st7" d="M165,170.6c-0.1,3.1-2.7,5.3-5.8,5.1c-3.1-0.2-3.9-2.1-4.1-5.2c-0.2-4.1,2.9-5.8,4.8-8.4
		c0.5-0.7,1.1-0.9,1.6,0C163.1,164.8,164.6,167.6,165,170.6z"/>
	<path class="st7" d="M167,159.8c2.4,0.7,4.8,1.3,7.1,2.4c2.3,1.1,3.2,3,2.6,5.5c-0.5,2.2-2.2,3.4-4.4,3.5c-2.5,0-4.1-1.5-4.6-3.9
		C167.2,164.8,166.9,162.3,167,159.8C167.1,159.7,167,159.8,167,159.8z"/>
	<path class="st4" d="M163.7,137.8c-2.4,0.8-4.9,0.8-7.2,0.4c-3.3-0.5-5.5-4.1-4.6-7.3c0.5-1.7,3.2-2.5,5.4-1.4
		C160.6,131.3,162.4,134.2,163.7,137.8z"/>
	<path class="st7" d="M167.6,157.3c-1.9-1.9-3.1-7.6-2.1-9.8c0.8-1.6,2-2.4,3.8-2.5c1.9-0.1,3.4,0.6,4.3,2.3
		c0.9,1.7,0.9,3.4-0.4,4.8C171.4,154,169.4,155.6,167.6,157.3C167.5,157.4,167.6,157.3,167.6,157.3z"/>
	<path class="st7" d="M176.8,156.2c-0.6-2.5-0.5-4.6-0.2-6.7c0.3-2,1.5-3,3.4-3.2c1.9-0.2,3.3,0.6,4,2.5c0.7,1.8,0.2,3.4-1.4,4.5
		C180.9,154.6,179,155.4,176.8,156.2z"/>
	<path class="st7" d="M176.9,158.4c2.5,0.1,4.5,0.6,6.5,1.4c1.8,0.7,2.6,2.2,2.4,4.1c-0.3,1.9-1.4,3.1-3.4,3.3
		c-1.9,0.2-3.3-0.5-4.1-2.4C177.6,162.7,177.2,160.7,176.9,158.4z"/>
	<path class="st7" d="M191.4,152.3c2.3,0.1,3.8,1.9,3.6,4.2c-0.2,2.3-2.1,3.8-4.4,3.5c-0.5-0.1-1-0.2-1.4-0.4c-1.6-1-4-1.1-4.6-3.3
		C184.5,155.4,189.9,152.3,191.4,152.3z"/>
	<path class="st2" d="M138,127.8c0.5-0.2,0.9-0.4,1.4-0.6c1.3-0.4,2.2,0,2.5,1.3c0.3,1.2-0.4,2-1.6,2.1c-2,0.2-4,0.3-6,0.4
		c-0.4-0.4-0.9-0.8-1.3-1.3c0.4-1.3,0.7-2.5,1.1-3.8c0.4-1.5,0.8-3.3,2.9-2.6c2.3,0.8,0.9,2.4,0.4,3.7c-0.4,0.2-1.1,0.5-0.6,1
		C137.2,128.6,137.7,128.1,138,127.8z"/>
	<path class="st4" d="M178,127c-2.3,1.6-4.6,3.3-6.9,4.9c-1.1,0.8-2.3,0.8-3.4-0.1c-0.9-0.7-1.2-1.6-0.9-2.7c0.3-1.3,1.3-2,2.6-2.1
		c2.8-0.2,5.6-0.4,8.5-0.6C178,126.6,178,126.8,178,127z"/>
	<path class="st4" d="M176.2,124.6c-2.1-0.4-4.1-0.8-6.2-1.2c-1.5-0.3-2.7-1-2.9-2.6c-0.1-1.1,0.4-1.9,1.4-2.5
		c1.5-0.9,2.7-0.2,3.8,0.8c1.9,1.7,3.8,3.3,5.6,5c0,0.3,0,0.6,0,0.9c-0.4-0.1-0.8-0.2-1.3-0.3C176.5,124.5,176.4,124.5,176.2,124.6z
		"/>
	<path class="st4" d="M180.9,134.9c-0.1-2.2-0.2-4.5-0.4-6.7c0.3,0,0.7,0,1-0.1c1.3,1.9,2.6,3.8,3.8,5.7c0.8,1.3,1.7,2.6,0.5,4.1
		c-0.7,1-1.7,1.4-2.9,1c-1.7-0.5-2.1-2-2.1-3.6C181,135.2,181,135.1,180.9,134.9z"/>
	<path class="st4" d="M179.3,123.3c-1.6-2.2-3.2-4.4-4.7-6.6c-0.8-1.1-1.2-2.3-0.2-3.6c0.7-0.8,1.5-1.3,2.6-1.1
		c1.5,0.3,2.1,1.3,2.3,2.8c0.3,2.8,0.6,5.6,0.9,8.4C179.9,123.3,179.6,123.3,179.3,123.3z"/>
	<path class="st12" d="M199.1,174.3c0,1.9,0,3.8-0.5,5.7c-0.3,1.4-1.2,1.9-2.4,1.5c-1.3-0.5-1.4-1.5-0.8-2.7c0.6-1.1,1.3-2.2,2-3.5
		c-1.5-0.7-2.1,0.5-3,0.9c-1,0.5-2,1.6-3.3,0.6c-0.6-0.5-0.9-1.1-0.7-1.8c0.5-1.5,1.8-1.4,3-1.6c1.5-0.2,3-0.2,4.5-0.3
		C198.4,173.6,198.8,174,199.1,174.3z"/>
	<path class="st4" d="M179.4,128.3c-0.2,2.5-0.2,5-0.5,7.6c-0.1,1.5-0.8,2.8-2.4,3.1c-1.1,0.2-2-0.3-2.6-1.2
		c-0.8-1.3-0.5-2.5,0.3-3.7c1.5-2.2,3-4.3,4.5-6.5C178.9,127.8,179.2,128.1,179.4,128.3z"/>
	<path class="st4" d="M180.9,123.3c0.7-2.5,1.3-5,2-7.5c0.4-1.2,1.1-2.1,2.5-2.2c1.1-0.1,2,0.3,2.5,1.3c0.7,1.3,0.2,2.4-0.6,3.6
		c-1.1,1.5-3.3,2.1-3.4,4.4l0.1-0.1c-0.8-0.6-1.1,0-1.3,0.6c0,0,0.1,0,0.1,0c-0.2,0-0.4,0.1-0.6,0.1
		C181.8,123.4,181.3,123.3,180.9,123.3z"/>
	<path class="st12" d="M200.4,170.8c0-1.7,0.7-3.3,1.2-4.9c0.5-1.4,1.4-2,2.8-1.2c1.2,0.7,1.1,1.9,0.3,2.9c-0.7,0.8-1.6,1.5-2.5,2.3
		c1.5,0.6,2.1-0.4,2.9-0.8c1-0.5,2-1.1,3.1-0.4c0.7,0.4,0.8,1.2,0.6,1.9c-0.4,1.5-1.8,1.4-2.9,1.5c-1.5,0-3,0-4.5,0
		C201.1,171.5,200.8,171.1,200.4,170.8z"/>
	<path class="st4" d="M182.8,126.9c3-0.3,5.8,0.7,8.5,1.4c1.9,0.5,2.5,2.2,1.6,3.9c-0.9,1.7-2.6,1.9-4.1,0.7c-2.1-1.7-4-3.7-6.1-5.5
		C182.8,127.3,182.8,127.1,182.8,126.9z"/>
	<path class="st2" d="M131.8,133.6c0,1.7,0,3.4-0.1,5.1c-0.1,1.3-1,2.3-2.5,1.8c-1.3-0.5-1.4-1.7-0.8-2.8c0.6-1.3,1.5-2.5,2.5-4.1
		c-2.1,0.2-2.9,1.5-4.1,2.1c-1,0.5-1.9,0.7-2.8-0.1c-0.5-0.4-0.7-1-0.5-1.6c0.4-1.1,1.3-1.4,2.4-1.5c1.6-0.1,3.2,0.4,4.7-0.5
		C131,132.5,131.4,133.1,131.8,133.6z"/>
	<path class="st4" d="M184,122.8c2.1-0.6,3.5-2.2,5.4-3.2c1.2-0.6,2.3-0.8,3.4,0c1,0.7,1.3,1.8,0.9,3c-0.4,1.4-1.5,1.9-2.7,2
		c-2.7,0.2-5.4,0.3-8.1,0.4c0-0.3-0.1-0.6-0.1-0.9c0-0.2,0-0.5,0.1-0.7c0,0-0.1,0-0.1,0C183.5,123.7,183.8,123.3,184,122.8
		L184,122.8z"/>
	<path class="st2" d="M131.9,129.9c-1.1-1.6-2.2-3.1-3.2-4.7c-0.8-1.2-0.6-2.4,0.8-2.9c1.3-0.5,2.1,0.3,2.4,1.5
		c0.6,1.9,0.5,3.9,0.5,5.9C132.3,129.9,132.1,130,131.9,129.9z"/>
	<path class="st2" d="M134.2,132.5c2-0.3,3.8,0.4,5.6,0.8c0.9,0.2,1.7,0.7,1.7,1.8c0,0.8-0.2,1.4-1,1.7c-0.9,0.5-1.5-0.1-2.2-0.4
		c-1.3-0.6-1.7-2.5-3.5-2.2c0,0,0,0,0,0C135.6,133.4,134.1,133.1,134.2,132.5L134.2,132.5z"/>
	<path class="st12" d="M201.6,174.9c0,1.6,1.4,2.6,2,4c0.5,1.2,0.5,2.2-0.9,2.7c-1.3,0.4-2.2-0.1-2.4-1.5c-0.2-1.9-0.3-3.8-0.4-5.7
		c0.4-0.2,0.7-0.5,1.1-0.7c0,0,0.1,0.2,0.1,0.2C200.9,174.4,200.8,174.9,201.6,174.9L201.6,174.9z"/>
	<path class="st2" d="M134.8,134.2c-0.1,1.5,1.2,2.2,1.7,3.4c0.4,0.9,0.7,1.7-0.1,2.5c-0.4,0.4-1,0.8-1.6,0.6c-1-0.3-1.4-1-1.6-2
		c-0.4-1.7,0.5-3.6-0.7-5.2c0.2-0.6,0.7-0.4,1.1-0.5C133.9,133.6,134,134.3,134.8,134.2L134.8,134.2z"/>
	<path class="st2" d="M131,131.1c-1.7-0.3-3.4-0.7-5-1c-1-0.2-2-0.5-2.2-1.7c-0.2-0.8,0.2-1.4,0.9-1.8c1-0.6,2-0.2,2.8,0.6
		c1.3,1.2,2.5,2.3,3.8,3.5C131.1,130.8,131.1,131,131,131.1z"/>
	<path class="st12" d="M201.5,173.2c1.8,0.4,3.7,0.7,5.5,1.3c1.3,0.4,2.2,1.2,1.4,2.7c-0.8,1.3-1.9,1.1-3.1,0.4
		c-1.3-0.8-1.9-2.6-3.7-2.5c0,0,0,0,0,0c0.5-0.7-0.1-0.9-0.6-1.1c0,0-0.1-0.2-0.1-0.2C201.1,173.5,201.3,173.3,201.5,173.2z"/>
	<path class="st12" d="M198.6,171.3c0.1-1.9-1.7-2.8-2.4-4.3c-0.5-1-1.1-2-0.3-3.1c0.5-0.6,1.2-0.7,1.9-0.4c1.2,0.4,1.3,1.4,1.4,2.4
		c0.2,1.6,0.4,3.2,0.5,4.8c-0.3,0.2-0.7,0.5-1,0.7C198.7,171.4,198.6,171.3,198.6,171.3z"/>
	<path class="st12" d="M198.1,171.9c-1.9,0.2-3.8-0.4-5.6-0.8c-0.9-0.2-1.6-0.8-1.7-1.9c0-0.7,0.3-1.1,0.8-1.5
		c0.9-0.7,1.7-0.2,2.5,0.3c1.6,0.9,2.4,3,4.5,3.3c0,0,0.1,0.1,0.1,0.1C198.5,171.6,198.3,171.7,198.1,171.9z"/>
	<path class="st12" d="M182.8,124c0,0.3,0.1,0.6,0.1,0.9c0,0.5-0.1,1-0.1,1.5c0,0.1-0.1,0.2-0.1,0.2c0.1,0.1,0.2,0.2,0.2,0.4
		c0,0,0-0.1,0-0.1c0,0.2,0,0.3-0.1,0.5c-0.5,0-1,0.1-1.2,0.7c-0.3,0-0.7,0-1,0.1c-0.4,0-0.7,0.1-1.1,0.1c-0.2-0.2-0.5-0.4-0.7-0.7
		c-0.2-0.2-0.4-0.4-0.6-0.6c0-0.2-0.1-0.4-0.1-0.6c0-0.5,0-0.9,0-1.4c0-0.3,0-0.6,0-0.9c0.4-0.3,0.9-0.5,1.3-0.8
		c0.3,0,0.6-0.1,0.9-0.1c0.3,0,0.5,0,0.8,0c0.4,0,0.8,0.1,1.3,0.1C182.4,123.6,182.6,123.8,182.8,124z"/>
	<path class="st3" d="M198.1,171.9c0.2-0.2,0.4-0.3,0.6-0.5c0.3-0.2,0.7-0.5,1-0.7c0.2,0,0.5,0,0.7,0.1c0.3,0.4,0.7,0.7,1,1.1
		c0,0.4,0,0.9,0,1.3c-0.2,0.2-0.4,0.3-0.5,0.5c-0.4,0.2-0.7,0.5-1.1,0.7c-0.2,0-0.5,0-0.7,0c-0.4-0.4-0.7-0.8-1.1-1.2
		C198.1,172.7,198.1,172.3,198.1,171.9z"/>
	<path class="st3" d="M131,131.1c0.1-0.1,0.1-0.3,0.1-0.4c0.3-0.2,0.5-0.5,0.8-0.7c0.2,0,0.3,0,0.5-0.1c0.2,0,0.4,0,0.7,0
		c0.4,0.4,0.9,0.8,1.3,1.3c-0.1,0.5-0.1,0.9-0.2,1.4c0,0,0,0,0,0c-0.2,0.2-0.5,0.5-0.7,0.7c-0.4,0-0.9-0.1-1.1,0.5
		c0,0-0.3,0.1-0.3,0.1s-0.3,0-0.3,0c-0.4-0.6-0.9-1.1-1.3-1.7C130.9,131.8,131.1,131.5,131,131.1z"/>
	<path class="st4" d="M201.5,114.3c-1.3-1-2.7-1.8-3.8-3.9c2.3,0.8,3.3,2.3,4.4,3.5C201.9,114.1,201.7,114.2,201.5,114.3z"/>
	<path class="st4" d="M204.6,116.7c-0.3,0.1-0.6,0.3-0.8,0.4c-0.3-0.5-0.7-1.1-1-1.6c0.1-0.2,0.3-0.3,0.4-0.5
		C203.6,115.6,204.1,116.2,204.6,116.7z"/>
	<path class="st6" d="M133.9,169.8c0.5,0.2,0.9,0.4,1.5,0.6c-0.8,0.4-1.4,0.3-2.1,0.1C133.5,170.3,133.7,170,133.9,169.8z"/>
	<path class="st12" d="M180.9,134.9c0.1,0.2,0.1,0.3,0,0.5c-0.1-0.1-0.1-0.2-0.2-0.4C180.7,135,180.8,134.9,180.9,134.9z"/>
	<path class="st5" d="M146.5,167.2c-0.2-0.3-0.1-0.6,0.3-0.7C146.9,166.8,146.9,167.1,146.5,167.2z"/>
	<path class="st12" d="M176.2,124.6c0.2-0.1,0.3-0.1,0.4,0.1c0,0-0.2,0.1-0.2,0.1L176.2,124.6z"/>
	<path class="st4" d="M202.8,115.5c-0.2-0.2-0.4-0.4-0.6-0.6c0.1-0.2,0.3-0.4,0.4-0.5c0.2,0.2,0.4,0.4,0.6,0.7
		C203,115.2,202.9,115.4,202.8,115.5z"/>
	<path class="st4" d="M182.8,127c-0.1-0.1-0.2-0.2-0.2-0.4c0,0,0.1-0.1,0.1-0.2c0.1,0.1,0.2,0.2,0.2,0.4
		C183,126.8,182.9,126.9,182.8,127z"/>
	<path class="st4" d="M202.1,114.9c-0.2-0.2-0.4-0.4-0.6-0.6c0.2-0.1,0.4-0.3,0.6-0.4c0.1,0.1,0.3,0.3,0.4,0.4
		C202.4,114.6,202.3,114.7,202.1,114.9z"/>
	<path class="st5" d="M191.4,106.8c0.1,0.1,0.3,0.4,0.3,0.4c-0.3,0.4-0.4,0.1-0.6-0.1C191.2,107,191.3,106.9,191.4,106.8z"/>
	<path class="st15" d="M321.2,163.8c-1.2,0.4-1.1-0.5-1.1-1.2c0-1.7-0.2-3.4-1.3-4.9c-2-2.8-3.3-5.7-3-9.3c0.1-1.2-0.7-1.8-1.5-2.4
		c-3-2.2-6-4.5-9.1-6.8c-0.2,0.4-0.4,0.7-0.4,0.9c-0.2,0.8,0,2.2-1.2,2c-1.1-0.1-1-1.5-0.8-2.3c0.9-2.7-2.2-3.9-2.2-6.3
		c1-0.8,2-1.5,2.9-2.3c0.4-0.3,0.8-0.5,1.3-0.8c0,0,0,0,0,0c0.4-0.2,0.8-0.4,1.3-0.6c0,0,0,0,0,0c0.4-0.2,0.8-0.4,1.3-0.6
		c0,0,0,0,0,0c0.5-0.1,1.1,0.1,1.3-0.6c0,0-0.1,0-0.1,0c3.3-0.4,6.5-1,9.8-0.1c2.9,0.8,5.2,2.5,7.8,3.8c0,0,0,0,0,0
		c0.2,0.6,0.6,0.9,1.3,0.6c0,0,0,0,0,0c1.7,3.7,4,7,5.1,11.1c1.7,6.5-1.7,14.3-9,18.8C320.9,161.9,320.9,161.9,321.2,163.8z"/>
	<path class="st8" d="M326.1,132.4c-2.6-1.2-4.9-3-7.8-3.8c-3.4-0.9-6.6-0.2-9.8,0.1c5.1-2.4,13.5-1.1,17.4,2.6
		C326.2,131.7,326.3,132,326.1,132.4z"/>
	<path class="st8" d="M308.5,128.8c-0.2,0.7-0.8,0.6-1.3,0.6C307.4,128.7,308,128.8,308.5,128.8z"/>
	<path class="st8" d="M307.3,129.4c-0.4,0.2-0.8,0.4-1.3,0.6C306.2,129.2,306.8,129.3,307.3,129.4z"/>
	<path class="st8" d="M327.4,133.1c-0.7,0.3-1-0.1-1.3-0.6C326.8,132,327.2,132.4,327.4,133.1z"/>
	<path class="st8" d="M304.9,130.6c-0.4,0.3-0.8,0.5-1.3,0.8C303.7,130.6,304.2,130.5,304.9,130.6z"/>
	<path class="st8" d="M306.1,130c-0.4,0.2-0.8,0.4-1.3,0.6C305,129.9,305.5,129.9,306.1,130z"/>
	<path class="st11" d="M296.3,125.1c0,0.7,0.1,1.4-0.6,1.8C295.8,126.3,295.6,125.5,296.3,125.1z"/>
	<path class="st14" d="M126.9,243.6c-0.7-1.4-0.2-2.6,0.7-3.8c0.2-0.1,0.3-0.3,0.5-0.4c0.8,0,1.4-0.5,1.5-1.2c0.1-1.3,0.5-2.5,2-1.7
		c1.5,0.8-1.1,1.4-0.4,2.3c0,0,0-0.1,0-0.1c-0.7,0.2-0.7,0.8-0.6,1.4c0.2,0.9-0.2,1.8,0.6,2.6C129.7,243,128.6,244.7,126.9,243.6z"
		/>
	<path class="st15" d="M130.6,246.6c0-0.5,0-1,0.1-1.5c0.3-1.4,1.4-1.5,2.6-1.5c0.8,0,1.4,0.6,1.3,1.3c-0.1,1.3-1.3,1.4-2.3,1.5
		C131.7,246.6,131.2,246.6,130.6,246.6C130.6,246.6,130.6,246.6,130.6,246.6z"/>
	<path class="st15" d="M131.1,242.7c-0.7-0.7-0.4-1.7-0.6-2.6c0.6-0.3,1-0.6,0.6-1.4c0,0,0,0.1,0,0.1c0.9,0.4,2.7-0.2,2.4,1.8
		C133.4,241.8,133,243.2,131.1,242.7z"/>
	<path class="st8" d="M138,127.8c-0.3,0.3-0.8,0.8-1.2,0.4c-0.5-0.5,0.2-0.8,0.6-1C137.6,127.4,137.8,127.6,138,127.8z"/>
	<path class="st8" d="M184,122.7c-0.2,0.6-0.6,1-1.3,0.6C183,122.7,183.2,122.1,184,122.7z"/>
	<path class="st8" d="M182.8,124c-0.2-0.2-0.4-0.4-0.6-0.6c0.2,0,0.4-0.1,0.6-0.1C182.8,123.5,182.8,123.8,182.8,124z"/>
	<path class="st8" d="M133.5,133.1c0.2-0.2,0.5-0.5,0.7-0.7c-0.1,0.7,1.3,0.9,0.6,1.8C134,134.3,133.9,133.6,133.5,133.1z"/>
	<path class="st8" d="M201.1,173.8c0.5,0.2,1,0.5,0.6,1.1C200.8,174.9,200.9,174.4,201.1,173.8z"/>
	<path class="st0" d="M131.2,238.7c0.4,0.7-0.1,1.1-0.6,1.4C130.6,239.5,130.6,239,131.2,238.7z"/>
</g>
</svg>
