<?xml version="1.0" encoding="utf-8"?>
<!-- Generator: Adobe Illustrator 23.0.3, SVG Export Plug-In . SVG Version: 6.00 Build 0)  -->
<svg version="1.1" id="Mode_Isolation" xmlns="http://www.w3.org/2000/svg" xmlns:xlink="http://www.w3.org/1999/xlink" x="0px"
	 y="0px" viewBox="0 0 450 450" style="enable-background:new 0 0 450 450;" xml:space="preserve">
<style type="text/css">
	.st0{opacity:0.11;}
	.st1{fill:#009444;stroke:#000000;stroke-width:5;stroke-miterlimit:10;}
	.st2{fill:#BE1E2D;stroke:#000000;stroke-width:5;stroke-miterlimit:10;}
	.st3{fill:#FFA902;stroke:#000000;stroke-width:5;stroke-miterlimit:10;}
</style>
<g>
	<g>
		<g id="XMLID_9_" class="st0">
			<path id="XMLID_6_" d="M46.7,298c15.2-20.2,30.1-40.2,45.2-60.4c1.3,0.7,2.5,1.1,3.8,1.8c46.1,23.3,92.2,46.4,138.1,69.7
				c2.5,1.2,4.4,1.3,6.9,0c46-23.3,92-46.5,138.1-69.7c1.1-0.6,2.2-1.1,3.8-1.8c15.1,20,30,40.1,45.3,60.5c-1.2,0.8-2.4,1.6-3.5,2.2
				c-61.3,35.1-122.6,70.4-183.9,105.8c-2.3,1.3-4,1.4-6.4,0c-61.1-35.3-122.4-70.6-183.8-105.9C49.1,299.5,48,298.7,46.7,298z"/>
			<path id="XMLID_5_" d="M105.6,209.3c17.6-23.5,35-46.7,52.6-70.2c4.2,1.9,8.2,3.8,12.3,5.6c21,9.7,42.2,19.4,63.2,29.2
				c2.5,1.2,4.4,1.2,7,0c23.8-11.2,47.7-22.2,71.7-33.2c1.2-0.6,2.5-1.1,3.9-1.7c17.5,23.4,35,46.6,52.6,70.2c-1.1,0.7-2,1.2-3,1.8
				c-41.9,21.2-83.9,42.3-125.8,63.4c-1.6,0.8-4,0.9-5.4,0.2c-42.2-21.2-84.3-42.4-126.5-63.7C107.4,210.5,106.6,209.9,105.6,209.3z
				"/>
			<path id="XMLID_4_" d="M237.2,23.5c22.2,29.6,44,58.7,65.9,88.1c-1.1,0.7-2.1,1.1-3,1.6c-20,9.3-40.1,18.6-60.1,27.8
				c-1.3,0.6-3.2,1-4.4,0.4c-21.4-9.7-42.6-19.6-64.4-29.7C193.2,82.3,215,53.2,237.2,23.5z"/>
		</g>
		<g>
			<path class="st1" d="M195.9,355.6c0-4.8,0-9.6,0-15c-20.1-1.8-38.1-8.8-53.5-21.6c-3.6,3.7-7.1,7.2-10.9,11.1
				c5.6,8.7,7.2,19.1,3.8,29.7c-2.8,8.5-8.3,15-16,19.8c-15.2,9.2-33.9,6-46.2-7.9c-11-12.4-11.3-31.5-0.7-44.7
				c10.6-13.2,29.9-19.1,47.9-8.2c3.6-3.6,7.1-7,10.1-10c-4.8-8.5-10.5-16.7-14.1-25.6c-3.8-9-5.6-18.6-8.4-28.4
				c-3.9,0-8.7,0-13.9,0c-2.8,10.9-9.1,19.4-19.4,24.7c-7.8,4-16.2,4.8-24.7,2.9c-16.9-3.9-28.6-20-27.7-37.4
				c0.8-16.2,15.7-31.6,32.2-33.1c18.6-1.7,34.2,9.4,39.6,28.4c4.8,0,9.8,0,15.2,0c1.8-20,9.4-37.8,22.6-53.3
				c-3.7-3.6-7.3-7.1-11.3-10.8c-9.4,6-19.8,7.5-30.7,4c-8.5-2.6-15-8-19.8-15.5c-9.4-15-6.4-33.3,7.6-45.7
				c12.3-11,31.8-11.4,45.1-1c13.3,10.3,19.6,29.3,8.5,47.7c3.7,3.7,7.2,7.2,11,11c15.4-12.9,33.3-20.3,53.6-21.9
				c0-5.2,0-10.1,0-15.2c-10.9-2.8-19.3-8.8-24.7-18.6c-4.2-7.8-5.2-16.1-3.3-24.7c3.6-16.5,19.8-28.4,37.6-27.7
				c16.3,0.6,31.7,15,33.6,31.5c2.2,18.1-9.3,33.9-28.7,39.5c0,4.9,0,9.9,0,14.1c9.8,2.8,19.5,4.5,28.5,8.3
				c9,3.7,17.2,9.3,26.2,14.2c2.9-2.9,6.3-6.4,10.1-10.3c-6.1-9.3-7.6-19.8-4-30.7c2.8-8.4,8.3-14.8,15.8-19.4
				c15.2-9.2,33.8-6,46.2,7.9c11,12.4,11.3,31.5,0.7,44.7c-10.5,13-29.7,19.2-47.9,8.2c-3.7,3.7-7.2,7.2-10.9,10.9
				c0.7,1.3,1.8,2.8,2.2,4.4c0.9,3.2-0.8,6.5-3.7,7.9c-2.9,1.5-6.3,0.8-8.7-1.6c-4.4-4.2-8.4-8.8-13.2-12.5
				c-45.5-35.3-113.2-11.5-126.2,44.3c-5.3,22.6-0.7,43.5,11.9,62.5c2.3-4.4,4.1-9.2,7.1-13.1c7.5-9.8,18.1-14.8,29.5-18.6
				c0.7-0.2,2,0.3,2.8,0.8c17.1,12.2,35.8,12.2,52.6,0.1c0.8-0.6,2.2-1.1,3-0.8c11.6,3.9,22.5,9.2,29.9,19.3
				c2.5,3.4,4.1,7.7,6.2,11.6c4-5.4,7-11.8,9.5-18.6c4-11,4.8-22.4,4.2-34c-0.2-3.8,2.4-6.7,6.2-7.2c3-0.5,6.4,1.5,7.6,4.5
				c0.5,1.1,0.5,2.5,0.8,4.2c2.4,0,4.9,0,7.5,0s5.2,0,7.9,0c2.8-10.8,8.8-19.1,18.5-24.5c7.1-3.9,14.8-5.4,22.9-3.8
				c18.9,3.7,31.1,18.9,30.4,37.6c-0.7,16.2-15.3,31.5-31.8,33.3c-18.4,2.1-34.2-9.2-39.8-28.4c-5.1,0-10.2,0-14.5,0
				c-2.9,9.6-4.7,19.3-8.5,28.1c-3.7,8.8-9.2,16.9-14,25.5c3.1,2.9,6.8,6.5,10.7,10.2c18.9-11.3,38.6-4.2,48.7,9.3
				c10.6,14.2,9.1,33.3-3.7,45.8c-13.1,12.9-32.4,14.5-46.9,3.8c-13.9-10.2-20.3-29.7-9.2-48.1c-3.7-3.6-7.3-7.1-10.5-10.2
				c-8.4,4.7-16.5,10.3-25.5,14c-9,3.7-18.7,5.5-28.6,8.3c0,4,0,9,0,13.9c21.7,6.1,30.9,23.9,28.5,40.1c-2.5,18-18.3,31-36.5,31
				c-17-0.1-32.6-13.4-35.1-31C164.9,379.2,174.3,361.5,195.9,355.6z M202.6,412.3c11.7,0.2,22-9.5,22.2-21.1
				c0.1-11.4-9.9-21.6-21.4-21.8c-11.7-0.2-21.9,9.6-22.2,21.4C181.1,402,190.9,412.1,202.6,412.3z M202.5,83
				c-11.7,0.3-21.6,10.5-21.2,21.7c0.3,11.7,10.6,21.5,22.3,21.2c11.5-0.2,21.5-10.6,21.2-21.8C224.6,92.5,214.4,82.7,202.5,83z
				 M101,167.9c11.5-0.1,21.6-10.2,21.6-21.6c0-11.6-10.3-21.7-21.9-21.5c-11.7,0.2-21.6,10-21.6,21.5C79.1,158,89.2,168,101,167.9z
				 M305.3,167.9c11.6,0.1,21.6-9.6,21.8-21.2c0.2-11.5-9.8-21.7-21.6-21.8c-11.5-0.1-21.7,9.8-21.9,21.2
				C283.5,157.6,293.6,167.8,305.3,167.9z M369.5,247.6c0-11.7-10.2-21.7-21.9-21.5c-11.6,0.2-21.6,10.2-21.6,21.6
				c0,11.5,10.5,21.7,22,21.5C359.7,269.1,369.5,259.1,369.5,247.6z M122.5,348.9c0-11.4-10.1-21.5-21.6-21.6
				c-11.7-0.1-21.9,9.9-21.9,21.5s10.2,21.7,21.9,21.5C112.6,370.3,122.5,360.4,122.5,348.9z M283.6,348.7
				c-0.1,11.6,10,21.7,21.7,21.7c11.6,0,21.5-9.6,21.7-21.4c0.2-11.5-10-21.7-21.7-21.7C293.9,327.3,283.7,337.4,283.6,348.7z
				 M36.7,248.2c0.5,11.6,10.6,21.4,21.9,21c11.9-0.3,21.9-10.8,21.5-22.4c-0.5-11.3-10.9-21-22.2-20.7
				C46.2,226.5,36.4,236.7,36.7,248.2z"/>
			<path class="st2" d="M202.8,256.2c-17.1,0.3-32.3-15.3-31.6-32.8c0.6-15.4,14.7-31.1,33.5-30.3c16.5,0.8,31.1,15.6,30.4,33.1
				C234.3,242.3,219.8,256.3,202.8,256.2z"/>
			<path class="st2" d="M292.3,217.9c-0.8,3.7-2.9,6.4-6.1,7.2c-3.3,0.7-6.2-0.3-7.8-3.2c-1.5-2.8-2.8-5.6-3.7-8.6
				c-1-3,0.7-6.5,3.4-8c2.9-1.6,6.9-1.4,8.6,1.3C289,210.1,290.5,214.1,292.3,217.9z"/>
			<path class="st3" d="M202.6,412.3c-11.7-0.2-21.7-10.3-21.4-21.6c0.3-11.7,10.6-21.6,22.2-21.4c11.5,0.2,21.6,10.5,21.4,21.8
				C224.7,402.8,214.5,412.5,202.6,412.3z"/>
			<path class="st3" d="M202.5,83c11.7-0.3,22,9.4,22.3,21c0.2,11.3-9.8,21.6-21.2,21.8c-11.7,0.2-21.9-9.5-22.3-21.2
				C180.9,93.5,190.8,83.4,202.5,83z"/>
			<path class="st3" d="M101,167.9c-11.7,0.1-21.9-9.9-21.9-21.5c0-11.5,9.8-21.2,21.6-21.5c11.6-0.2,21.9,9.9,21.9,21.5
				C122.6,157.7,112.4,167.9,101,167.9z"/>
			<path class="st3" d="M305.3,167.9c-11.7-0.1-21.8-10.3-21.6-21.8c0.2-11.5,10.3-21.4,21.9-21.2c11.8,0.1,21.9,10.2,21.6,21.8
				C326.9,158.4,316.8,168,305.3,167.9z"/>
			<path class="st3" d="M369.5,247.6c0,11.5-9.8,21.4-21.4,21.6c-11.5,0.2-21.9-10-22-21.5c0-11.4,10-21.5,21.6-21.6
				C359.2,225.9,369.4,235.9,369.5,247.6z"/>
			<path class="st3" d="M122.5,348.9c0,11.5-10,21.4-21.6,21.5c-11.7,0.1-21.9-10-21.9-21.5c0-11.6,10.2-21.6,21.9-21.5
				C112.4,327.4,122.6,337.6,122.5,348.9z"/>
			<path class="st3" d="M283.6,348.7c0.1-11.4,10.3-21.4,21.8-21.4c11.7,0,21.9,10.3,21.7,21.7c-0.2,11.6-10.1,21.4-21.7,21.4
				C293.7,370.4,283.6,360.4,283.6,348.7z"/>
			<path class="st3" d="M36.7,248.2c-0.5-11.5,9.4-21.7,21.2-22c11.1-0.3,21.6,9.4,22.2,20.7c0.5,11.6-9.5,22-21.5,22.4
				C47.3,269.5,37.2,259.8,36.7,248.2z"/>
		</g>
	</g>
</g>
</svg>
