<?xml version="1.0" encoding="utf-8"?>
<!-- Generator: Adobe Illustrator 23.0.3, SVG Export Plug-In . SVG Version: 6.00 Build 0)  -->
<svg version="1.1" id="Mode_Isolation" xmlns="http://www.w3.org/2000/svg" xmlns:xlink="http://www.w3.org/1999/xlink" x="0px"
	 y="0px" viewBox="0 0 450 450" style="enable-background:new 0 0 450 450;" xml:space="preserve">
<style type="text/css">
	.st0{opacity:0.11;}
	.st1{fill:#009444;stroke:#000000;stroke-width:5;stroke-miterlimit:10;}
	.st2{fill:#FFA902;}
	.st3{fill:#BE1E2D;}
</style>
<g>
	<g id="XMLID_9_" class="st0">
		<path id="XMLID_6_" d="M40.7,298c15.2-20.2,30.1-40.2,45.2-60.4c1.3,0.7,2.5,1.1,3.8,1.8c46.1,23.3,92.2,46.4,138.1,69.7
			c2.5,1.2,4.4,1.3,6.9,0c46-23.3,92-46.5,138.1-69.7c1.1-0.6,2.2-1.1,3.8-1.8c15.1,20,30,40.1,45.3,60.5c-1.2,0.8-2.4,1.6-3.5,2.2
			c-61.3,35.1-122.6,70.4-183.9,105.8c-2.3,1.3-4,1.4-6.4,0c-61.1-35.3-122.4-70.6-183.8-105.9C43.1,299.5,42,298.8,40.7,298z"/>
		<path id="XMLID_5_" d="M99.6,209.4c17.6-23.5,35-46.7,52.6-70.2c4.2,1.9,8.2,3.8,12.3,5.6c21,9.7,42.2,19.4,63.2,29.2
			c2.5,1.2,4.4,1.2,7,0c23.8-11.2,47.7-22.2,71.7-33.2c1.2-0.6,2.5-1.1,3.9-1.7c17.5,23.4,35,46.6,52.6,70.2c-1.1,0.7-2,1.2-3,1.8
			c-41.9,21.2-83.9,42.3-125.8,63.4c-1.6,0.8-4,0.9-5.4,0.2c-42.2-21.2-84.3-42.4-126.5-63.7C101.4,210.5,100.6,209.9,99.6,209.4z"
			/>
		<path id="XMLID_4_" d="M231.2,23.5c22.2,29.6,44,58.7,65.9,88.1c-1.1,0.7-2.1,1.1-3,1.6c-20,9.3-40.1,18.6-60.1,27.8
			c-1.3,0.6-3.2,1-4.4,0.4c-21.4-9.7-42.6-19.6-64.4-29.7C187.2,82.3,209,53.2,231.2,23.5z"/>
	</g>
	<g>
		<path class="st1" d="M256.3,145.6c0,37.8-30.6,68.6-68.6,68.6c-38.1,0-68.9-30.5-68.9-68.2c0-38.6,30.3-69.3,68.7-69.3
			C225.7,76.6,256.3,107.2,256.3,145.6z"/>
		<path class="st1" d="M293.9,289.1c-6,0.5-9.2,4-11.5,9c-3.4,7.4-7.2,14.7-10.7,22c-0.7,1.5-1.5,2.1-3.3,1.8
			c-13.9-2.2-27.7-4.4-41.6-6c-5.5-0.7-8.4-2.6-10.8-7.7c-5.6-12.5-12.1-24.6-18-37c-2.2-4.4-5.5-7.2-10.6-7.2
			c-4.9,0-8.1,2.7-10.3,7.2c-6.7,13.9-13.7,27.7-20.6,41.6c-0.6,1-1.9,2.2-3.2,2.3c-15.6,2.4-31.1,4.6-46.7,6.9
			c-1.8,0.2-2.6-0.2-3.3-1.7c-3.5-7.3-7.3-14.4-10.6-21.8c-2.3-5-5.4-8.9-11.5-9.2c0.1-7.3,2.4-13.7,6.7-19
			c8.5-10.4,19.4-17.5,31.7-22.8c27.1-11.5,55.5-14.4,84.6-12.1c14,1.1,27.8,3.5,41.1,8.1c16.4,5.6,31.3,13.8,42.3,27.7
			C291.7,276.1,293.6,282.2,293.9,289.1z"/>
		<path class="st2" d="M187.7,274.7c6.8,13.9,13.4,27.2,20.1,40.6c4.7,9.5,4.6,9.3,14.9,10.8c13.8,1.8,27.6,3.9,41.4,5.9
			c0.9,0.1,1.8,0.5,3.1,0.7c-3.2,3.2-6.2,6.3-9.1,9.1c-9.1,8.9-18.1,17.8-27.3,26.5c-2.4,2.3-3,4.6-2.4,7.7
			c2.8,15.9,5.7,31.9,8.4,48c0.1,0.6,0,1.1,0,2.2c-4-2.1-7.9-4-11.6-6c-11.5-6-22.9-12.1-34.4-18.1c-2.2-1.1-4.1-1-6.3,0.1
			c-14.1,7.5-28.4,14.9-42.6,22.4c-1,0.6-2.1,1-3.5,1.8c1-5.9,1.9-11.2,2.8-16.4c1.9-11.4,4-22.9,6-34.3c0.7-3.4-0.8-5.7-3.2-8
			c-11.6-11.1-23.1-22.3-34.6-33.5c-0.3-0.3-0.6-0.7-1.3-1.5c5.8-0.8,11.2-1.6,16.5-2.4c12.1-1.7,24.2-3.4,36.1-5.4
			c1.4-0.2,3-2.1,3.8-3.4c7.3-14.5,14.5-29.1,21.6-43.6C186.4,276.8,186.9,276,187.7,274.7z"/>
		<path class="st3" d="M326.4,401.3c-5-2.6-9.5-4.9-13.9-7.3c-5.4-2.8-10.7-5.6-16.1-8.5c-2.1-1.1-3.9-1-5.9,0.1
			c-9.2,4.9-18.5,9.8-27.8,14.6c-0.5,0.2-1,0.5-2.2,0.9c0.6-3.3,0.9-6.2,1.5-9c1.4-8.2,3-16.4,4.2-24.7c0.2-1.5-0.6-3.6-1.5-4.8
			c-2.7-3.2-5.8-6-8.9-9.2c2.8-2.8,5.5-5.9,8.5-8.4c10.5-8.4,17.3-19.4,22.4-31.6c1.9-4.4,4.3-8.8,6.7-13.7c1.5,2.8,2.7,5.1,3.9,7.5
			c3.5,7.2,7.3,14.2,10.5,21.5c1.6,3.5,3.9,4.8,7.4,5.2c10,1.3,19.9,2.7,30,4.2c0.3,0,0.7,0.2,1.5,0.6c-0.8,0.8-1.4,1.5-2.1,2.2
			c-7.1,6.9-14.1,13.9-21.3,20.6c-2.3,2.2-2.8,4.2-2.4,7.2c1.7,9.3,3.3,18.7,5,28C326.1,398.2,326.2,399.5,326.4,401.3z"/>
		<path class="st3" d="M81.5,300c2.8,5.8,5.6,11.2,8.2,16.5c2.2,4.3,4.2,8.8,6.5,13.2c0.8,1.5,1.8,3,3,4.1
			c5.8,5.8,11.7,11.6,17.8,17.3c0.8,0.7,1.8,1.1,3.1,1.8c-3.6,3.6-6.5,6.5-9.5,9.2c-1.8,1.7-2.4,3.4-1.9,5.9
			c1.8,10.1,3.5,20.4,5.4,30.6c0.1,0.7,0.1,1.3,0.2,2.4c-0.9-0.3-1.6-0.6-2.3-0.9c-9.1-4.8-18.2-9.5-27.2-14.4
			c-2.5-1.4-4.6-1.3-6.9,0.1c-9.1,4.9-18.3,9.7-27.5,14.5c-0.5,0.2-0.8,0.3-1.8,0.8c0.6-3.9,1.1-7.3,1.7-10.8
			c1.3-7.3,2.5-14.6,3.9-21.8c0.5-2.7-0.1-4.9-2.3-6.9c-7.3-6.8-14.4-13.9-21.5-20.8c-0.6-0.6-1.1-1.3-2.1-2.3
			c5.2-0.8,9.9-1.5,14.6-2.2c6.4-0.9,12.6-1.9,19-2.7c2.5-0.3,3.6-1.6,4.7-3.6c4.3-9.1,8.9-18.1,13.3-27.1
			C80.4,302.1,80.8,301.3,81.5,300z"/>
	</g>
</g>
</svg>
