<?xml version="1.0" encoding="utf-8"?>
<!-- Generator: Adobe Illustrator 23.0.3, SVG Export Plug-In . SVG Version: 6.00 Build 0)  -->
<svg version="1.1" id="Mode_Isolation" xmlns="http://www.w3.org/2000/svg" xmlns:xlink="http://www.w3.org/1999/xlink" x="0px"
	 y="0px" viewBox="0 0 450 450" style="enable-background:new 0 0 450 450;" xml:space="preserve">
<style type="text/css">
	.st0{opacity:0.11;}
	.st1{fill:#009444;}
	.st2{fill:#FFA902;}
	.st3{fill:#FFFFFF;}
	.st4{fill:#684729;}
	.st5{fill:none;}
</style>
<g>
	<g id="XMLID_9_" class="st0">
		<path id="XMLID_6_" d="M58.8,260.3C72.5,242.1,86,224,99.6,205.8c1.2,0.6,2.3,1,3.4,1.6c41.6,21,83.2,41.9,124.7,62.9
			c2.3,1.1,4,1.2,6.2,0c41.5-21,83.1-42,124.7-62.9c1-0.5,2-1,3.4-1.6c13.6,18.1,27.1,36.2,40.9,54.6c-1.1,0.7-2.2,1.4-3.2,2
			C344.4,294.1,289,326,233.7,357.9c-2.1,1.2-3.6,1.3-5.8,0C172.7,326,117.4,294.2,62,262.3C61,261.7,60,261,58.8,260.3z"/>
		<path id="XMLID_5_" d="M112,180.3c15.9-21.2,31.6-42.2,47.5-63.4c3.8,1.7,7.4,3.4,11.1,5.1c19,8.8,38.1,17.5,57.1,26.4
			c2.3,1.1,4,1.1,6.3,0c21.5-10.1,43.1-20,64.7-30c1.1-0.5,2.3-1,3.5-1.5c15.8,21.1,31.6,42.1,47.5,63.4c-1,0.6-1.8,1.1-2.7,1.6
			c-37.8,19.1-75.7,38.2-113.6,57.2c-1.4,0.7-3.6,0.8-4.9,0.2c-38.1-19.1-76.1-38.3-114.2-57.5C113.6,181.3,112.9,180.8,112,180.3z"
			/>
		<path id="XMLID_4_" d="M230.8,12.5c20,26.7,39.7,53,59.5,79.5c-1,0.6-1.9,1-2.7,1.4c-18.1,8.4-36.2,16.8-54.3,25.1
			c-1.2,0.5-2.9,0.9-4,0.4c-19.3-8.8-38.5-17.7-58.1-26.8C191.1,65.6,210.8,39.3,230.8,12.5z"/>
	</g>
	<g>
		<g>
			<path d="M398,232.2c-0.3-0.2-0.5-0.4-0.8-0.5c-1-0.6-2-1.2-3-1.8c-17-9.9-32.6-21.7-46.8-35.3c-15.1-14.4-30.3-28.8-45.5-43.2
				c-5.9-5.6-14.5-5.7-19.6-0.5c-5.5,5.6-5.3,14.1,0.4,19.9c2,2,4.1,3.8,6.1,5.9c5.6,5.9,11.1,11.7,16.3,17.4c0,0-0.5-0.1-1-0.3
				c-27.1-12.4-54.2-24.9-81.3-37.2c-2.4-1.1-2.6-2.5-1.9-4.6c1.5-4.7,2.8-9.4,4.5-13.9c2.6-7,2.2-7.9-5.5-7.9
				c-22.1,0-44.2,0.1-66.4,0.1c-24,0-48.1-0.1-72.1-0.1c-5.4,0-6.9,1.6-5.1,5.8c6,13.7,8.1,28.1,8.8,42.9c0.1,3.1-0.8,4.2-3.6,5.5
				c-17.6,8-28.7,21.5-32.8,40.5c-3.7,16.7-0.8,33.1,2.7,49.4c5.7,26.3,14.7,51.6,24.7,76.6c0.6,1.4,1,2.9,1.8,5
				c-7.5,0-14.1,0.1-20.8-0.1c-4.1-0.1-5.6,1.6-5.5,5.6c0.2,8.5,0.1,16.9,0.1,25.4c0,6,0.4,6.4,6.3,6.4c22,0,43.9,0,65.9,0h5.3
				c0.2,1.7,0.4,2.7,0.4,3.7c0,11.7-0.1,23.5-0.1,35.2c0,2.5-0.3,5.7,3.4,5.6c3.3-0.1,3.1-3,3.1-5.4c0-11.6,0.1-23.2-0.1-34.7
				c-0.1-3.2,0.9-4.5,4.3-4.4c7.4,0.2,14.8,0.2,22.3,0c3.4-0.1,4.3,1.1,4.3,4.4c-0.2,11.7-0.1,23.5-0.1,35.2c0,2.3,0,4.9,3.1,4.9
				c3,0,3.1-2.5,3.1-4.9c0-10.7,0-21.4,0-32.1v-7.2c1.8-0.1,3-0.3,4.1-0.3c10.7,0,21.4,0.6,32.1-0.2c11-0.8,20.4,0.9,27.2,10.5
				c0.3,0.4,0.6,0.8,1,1.1c1.3,1.1,3,1.5,4.2-0.3c0.5-0.7,0.3-2.3-0.2-3.6c-0.2-0.6-0.5-1.1-0.9-1.5c-4.1-4.5-8.3-8.9-13.1-12.7
				c-23.9-19.5-48-38.8-72.1-58c-15.3-12.2-30.9-24-46.4-36c-3.7-2.9-4.5-5.9-2.3-8.7c2.1-2.7,5.4-2.7,9,0.1
				c0.5,0.4,0.9,0.8,1.4,1.1c12.3,9.8,24.7,19.6,37,29.3c4,3.1,7.2,2.9,9.5-0.7c2.3-3.6,0.4-6-2.3-8.3c-17-14.2-33.8-28.4-50.8-42.7
				c-4.7-4-5.6-7.8-2.6-11.4c2.9-3.4,7-3.1,11.7,0.8c7.4,6.2,14.8,12.4,22.1,18.6c9.7,8.1,19.4,16.2,29,24.3
				c2.8,2.3,5.7,3.2,8.2,0.3c2.5-2.9,1.3-5.8-1.3-8.2c-1.2-1.1-2.3-2.3-3.5-3.4c-16-15.3-32-30.6-47.9-45.9c-3.8-3.6-4.3-7.8-1.4-11
				c2.8-3.1,7.1-2.8,11,0.8c6.1,5.8,12.2,11.7,18.3,17.6c11,10.6,22,21.2,33.2,31.6c1.6,1.5,4.5,2,6.7,2c1.1,0,3-2.5,3-3.7
				c-0.1-2-1.1-4.3-2.4-5.8c-13.5-15.8-27.2-31.4-40.7-47.1c-3.1-3.6-3-7.6-0.1-10.3c3-2.7,6.9-2.2,10.2,1.3
				c7.5,8.1,14.9,16.1,22.4,24.2c14.5,15.7,29,31.4,43.6,47c1.4,1.5,4.1,2.7,6,2.5c3.6-0.4,4.7-3.9,3-8.1c-5.1-12-10.4-24-15.5-36
				c-2.2-5.1-0.7-9.5,3.6-11.2c4.1-1.6,8,0.3,10.2,5.3c6.4,14.4,12.7,28.7,19,43.2c7.6,17.7,15.5,35.3,26.4,51.3
				c4,5.9,8.2,11.6,12.7,17.2c0.8,1.1,3.1,1,4.8,1.4v-1.2c0-1.3,0-2.6-0.1-3.9c-0.1-0.5-0.5-0.9-0.9-1.3c-0.1-0.1-0.3-0.3-0.4-0.4
				c-11-14.1-20.3-29.3-27.9-45.4c-2.5-5.4-4.8-10.9-7.2-16.5c1.1-0.2,1.3-0.4,1.6-0.3c21.9,6,43.8,11.7,65.6,18.2
				c10.8,3.2,21.1,7.9,31.7,11.7c1.1,0.4,2.6-0.3,4-0.8c0.3-0.1,0.6-0.2,0.9-0.3c-0.2-0.3-0.4-0.7-0.5-1.1c-0.6-1.3-1.1-2.8-2.1-3.1
				c-12.7-4.9-25.4-10.1-38.4-14.1c-20.7-6.2-41.7-11.5-62.6-17.3c-1.6-0.4-3.7-1.1-4.4-2.3c-1.9-3.3-3.2-6.9-4.7-10.2
				c7-4.2,7.2-7.1,1.6-12.2c-0.5-0.4-1-1.2-1-1.8c-0.1-4.1-0.1-8.2-0.1-12.6c2.2,0.5,3.6,0.6,4.8,1.1c3.1,1.1,5.9,0.6,7.1-2.5
				c1.3-3.5-0.1-6.1-3.7-7.3c-3.3-1.1-6.6-2.3-10-3.3c-0.8-0.2-1.6-0.4-2.5-0.6c-0.8-0.2-2.5,1.7-3,2.9v0c-0.4,1.1,0.5,2.5,0.6,3.9
				c0.4,5.8,0.8,11.7,1.1,17.5c-0.5,0.1-1.1,0.1-1.6,0.2c-1.9-4.3-3.8-8.6-5.8-12.9c-3.5-7.5-11.1-10.6-18-7.4
				c-7.1,3.2-9.9,10.7-6.7,18.3c3.3,7.9,6.8,15.8,10.2,23.7c0.9,2.1,1.7,4.2,2.6,6.3c-2.2-0.8-3.5-2.2-4.8-3.6
				c-19-20.6-38.1-41.2-57.2-61.8c-5.6-6-13.1-6.8-18.6-2c-5.6,4.9-5.9,12.6-0.5,19c7.2,8.5,14.6,16.8,21.8,25.2
				c0.6,0.6,0.9,1.4,1.3,2.1c-11.3-9.9-22-20.1-32.8-30.3c-6.1-5.8-14.2-6-19.4-0.4c-5,5.4-4.5,13.3,1.3,19.1
				c5.2,5.1,10.5,10,15.8,15.1c0.7,0.7,1.3,1.6,1.9,2.5c-6.4-4-11.9-8.8-17.6-13.4c-4.6-3.7-10.4-4.2-14.9-1.5
				c-5.2,3.1-7.1,7.8-6.4,13.6c0.1,1,0.2,1.9,0.5,4.1c-1.9-1.5-3.1-2.3-4.1-3.2c-5-5.3-10.1-10.5-14.9-15.9c-4.3-4.8-4.7-5-9.4-0.6
				c-5.4,5.2-10.9,10.3-16.4,15.5c-0.4-0.1-0.9-0.2-1.3-0.3c-0.4-6.4-1.2-12.9-1-19.3c0.7-21.4,9.6-38,29.4-47.6
				c3.1-1.5,6.8-2.3,10.2-2.3c38.8-0.1,77.5,0,116.2-0.1c5.7,0,10.6,1.7,14.8,5c5,3.9,9.7,8.2,13.2,11.2c0.2,0,0.4,0,0.6,0
				c2.5-0.1,4.7-0.4,6.7-0.4c1.6-0.1,3,0,4.4,0.4c5.6,1.8,10.7,4.9,16.1,7.2c6.2,2.7,9,2.3,10.6-0.9c1.7-3.5,0-5.9-6.1-9
				c-16.1-8-32.1-15.9-48.2-24c-1.4-0.7-3.2-2.5-3.3-3.8c-0.1-3.8,0.5-7.6,0.9-12.1c1.9,0.7,3,1.1,4.1,1.6
				c28.7,13.2,57.4,26.3,86.1,39.5c3.1,1.4,6,2.3,8.4-0.9c2.4-3.3,0.4-5.8-2-8.1c-9.3-9-18.6-18-27.8-27c-3.7-3.7-4.1-8.3-1-11.4
				c2.9-3,7.8-2.7,11.5,0.8c15.7,14.9,31.4,29.9,47.1,44.9c14.8,14.1,31.3,25.9,49.1,35.8c1.2,0.7,3.7,0.7,4.7-0.1
				c0.1,0,0.1-0.1,0.2-0.2C400.6,234.8,399.6,233.3,398,232.2z M189.9,363.3c8.8,7,17.5,14.1,26.3,21.2c0.4,0.4,0.7,0.9,1.7,2.3
				h-5.8c-49.5,0-99.1-0.1-148.6,0.1c-4.4,0-6.1-0.9-5.7-5.6c0.4-5.2,0.1-10.4,0-15.6c-0.1-2.8,1-3.9,3.9-3.9
				c41.2,0.1,82.5,0,123.7,0.1C186.9,361.9,188.7,362.4,189.9,363.3z M146.4,329.2c10.7,8.6,21.7,17,32.6,25.4
				c-0.1,0.3-0.2,0.6-0.3,1c-1.1,0.1-2.3,0.2-3.4,0.2c-28.6,0-57.3,0-85.9,0.1c-3.3,0-5.1-0.8-6.2-4.1
				c-6.8-19.6-13.7-39.1-20.8-58.6c-1.3-3.7-1.1-6.5,1.9-9.5c3.6-3.7,6.5-8,9.8-12.1c0.9-1.1,2-2.1,2-1.6c6,5.3,12.5,10.1,17.9,15.9
				C109.6,302.7,128.8,315,146.4,329.2z M58.7,263.6c5.7-5.5,11.5-11,16.3-15.5c5.9,5.2,11.3,10,16.6,14.9c3.4,3.1,6.6,6.2,11.7,3.6
				c0.6-0.3,2,0.2,2.7,0.7c3.2,2.5,6.4,5.2,9.6,7.8c-7.5-3.2-11.6,2-16.6,6.7c-5.4-5.8-11-11.5-16.2-17.5c-4.8-5.3-5.6-5.6-10.4-0.4
				c-3.8,4.2-7.4,8.7-11.7,13.7c-1.1-4.4-2.1-7.9-2.8-11.4C57.7,265.5,58.1,264.2,58.7,263.6z M230.8,189.3c4.7,2.3,9.3,4.7,13.9,7
				c-0.2,0.4-0.4,0.7-0.5,1.1c-4.7-2.2-9.4-4.4-14.1-6.6C230.3,190.2,230.6,189.8,230.8,189.3z M209.8,181.8H92.5
				c-2.6-15.1-5.1-29.9-7.7-45.1h132.8C215.1,151.7,212.5,166.6,209.8,181.8z"/>
			<path d="M248.3,210.6c-0.1,0-0.2,0.1-0.2,0.1c-5.1,1.8-5.7,1.4-8.4-3.2c3.4-1.7,4.9-2.3,6.1-1.1l0,0
				C246.6,207.1,247.3,208.5,248.3,210.6z"/>
			<path d="M246.1,220.2c-0.8-2.1-1.5-3.8-2.7-6.8c2.4,0.4,5,0.2,5.5,1.1C250.1,216.7,249.5,219.1,246.1,220.2z"/>
			<path class="st1" d="M217.6,136.7c-2.6,15-5.2,29.8-7.8,45.1c-38.8,0-78.4,0-117.3,0c-2.6-15.1-5.1-29.9-7.7-45.1
				C128.7,136.7,173.6,136.7,217.6,136.7z"/>
			<path class="st1" d="M178.7,355.6c-1.1,0.1-2.3,0.2-3.4,0.2c-28.6,0-57.3,0-85.9,0.1c-3.3,0-5.1-0.8-6.2-4.1
				c-6.8-19.6-13.7-39.1-20.8-58.6c-1.3-3.7-1.1-6.5,1.9-9.5c3.6-3.7,6.6-8,9.8-12.1c0.9-1.1,2-2.1,2-1.6c6,5.3,12.5,10.1,17.9,15.9
				c15.6,16.8,34.7,29.2,52.4,43.4c10.7,8.6,21.7,17,32.6,25.4C178.9,355,178.8,355.3,178.7,355.6z"/>
			<path class="st2" d="M217.9,386.8c-2.6,0-4.2,0-5.8,0c-49.5,0-99.1-0.1-148.6,0.1c-4.4,0-6.1-0.9-5.8-5.6
				c0.4-5.2,0.2-10.4,0-15.6c-0.1-2.8,1-3.9,3.9-3.9c41.2,0.1,82.4,0,123.7,0.1c1.5,0,3.3,0.5,4.5,1.4c8.8,7,17.6,14.1,26.3,21.2
				C216.6,384.8,216.9,385.4,217.9,386.8z"/>
			<path class="st2" d="M115.6,275.2c-7.5-3.2-11.6,2-16.6,6.7c-5.4-5.8-10.9-11.5-16.2-17.5c-4.8-5.3-5.6-5.6-10.4-0.4
				c-3.9,4.2-7.4,8.7-11.7,13.7c-1.1-4.4-2.1-7.9-2.8-11.4c-0.2-0.8,0.2-2.2,0.8-2.8c5.7-5.6,11.5-11,16.2-15.5
				c5.8,5.2,11.3,10,16.6,14.9c3.4,3.1,6.6,6.2,11.7,3.6c0.6-0.3,2,0.2,2.7,0.7C109.3,269.9,112.4,272.5,115.6,275.2z"/>
			<path class="st3" d="M230.8,189.3c4.6,2.3,9.3,4.6,13.9,7c-0.2,0.4-0.3,0.7-0.5,1.1c-4.7-2.2-9.4-4.4-14.1-6.6
				C230.3,190.2,230.6,189.8,230.8,189.3z"/>
			<path class="st1" d="M249.2,246.1c-0.5,0.1-1.1,0.1-1.6,0.2c-1.9-4.3-3.8-8.6-5.8-12.9c-3.5-7.5-11.1-10.6-18-7.4
				c-7.1,3.2-9.9,10.7-6.7,18.3c3.3,7.9,6.8,15.8,10.2,23.7c0.9,2.1,1.7,4.2,2.6,6.3c-2.2-0.8-3.5-2.2-4.8-3.6
				c-19-20.6-38.1-41.2-57.2-61.8c-5.6-6-13.1-6.8-18.6-2c-5.6,4.9-5.9,12.6-0.5,19c7.2,8.5,14.6,16.8,21.8,25.2
				c0.6,0.6,0.9,1.4,1.3,2.1c-11.3-9.9-22-20.1-32.8-30.3c-6.1-5.8-14.2-6-19.4-0.4c-5,5.4-4.5,13.3,1.3,19.1
				c5.2,5.1,10.5,10,15.8,15.1c0.7,0.7,1.3,1.6,1.9,2.5c-6.4-4-11.9-8.8-17.6-13.4c-4.6-3.7-10.4-4.2-14.9-1.5
				c-5.2,3.1-7.1,7.8-6.4,13.6c0.1,1,0.2,1.9,0.5,4.1c-1.9-1.5-3.1-2.3-4.1-3.2c-5-5.3-10.1-10.5-14.9-15.9c-4.3-4.8-4.7-5-9.4-0.6
				c-5.4,5.2-10.9,10.3-16.4,15.5c-0.4-0.1-0.9-0.2-1.3-0.3c-0.4-6.4-1.2-12.9-1-19.3c0.7-21.4,9.6-38,29.4-47.6
				c3.1-1.5,6.8-2.3,10.2-2.3c38.8-0.1,77.5,0,116.2-0.1c5.7,0,10.6,1.7,14.8,5c5,3.9,9.7,8.2,13.2,11.2c0.2,0,0.4,0,0.6,0
				c3.5,5.1,7.7,13.5,9.8,20.5c-0.4,1.1,0.5,2.5,0.6,3.9C248.5,234.4,248.8,240.3,249.2,246.1z"/>
			<path d="M254.4,229.2l-5.8,0.8c-0.2-1.6-0.6-3.4-1.2-5.3v0c-2.1-7-6.2-15.3-9.8-20.4c0,0,0,0,0-0.1l-0.4-0.7
				c-1.3-2-2.2-3.1-2.7-3.4c0.1,0.1,0.6,0.2,1.2,0.1l-1.3-5.7c3.3-0.8,5.9,3,7.7,5.8l0.4,0.6c0.6,0.9,1.3,1.9,1.9,3
				c0.5,0.8,1,1.7,1.5,2.5l0,0c0.7,1.4,1.5,2.8,2.2,4.3c1.9,3.8,3.5,7.9,4.7,11.7C253.6,224.8,254.1,227.1,254.4,229.2z"/>
		</g>
		<path class="st4" d="M301.2,354c0.1,2-0.6,3.9-1.2,5.8c-1.8,5.2-3.8,10.7-7.9,14.5c-3,2.7-6.9,4.3-10.7,5.7
			c-14.2,5.4-29.3,10.8-40.4,20.6c-0.2-0.6-0.5-1.1-0.9-1.5c-4.1-4.5-8.3-8.9-13.1-12.7c-23.9-19.5-48-38.8-72.1-58
			c-15.3-12.2-30.9-24-46.4-36c-3.7-2.9-4.5-5.9-2.3-8.7c2.1-2.7,5.4-2.7,9,0.1c0.5,0.4,0.9,0.8,1.4,1.1c12.3,9.8,24.7,19.6,37,29.3
			c4,3.1,7.2,2.9,9.5-0.7c2.3-3.6,0.4-6-2.3-8.3c-17-14.2-33.8-28.4-50.8-42.7c-4.7-4-5.6-7.8-2.6-11.4c2.9-3.4,7-3.1,11.7,0.8
			c7.4,6.2,14.8,12.4,22.1,18.6c9.7,8.1,19.4,16.2,29,24.3c2.8,2.3,5.7,3.2,8.2,0.3c2.5-2.9,1.3-5.8-1.3-8.2
			c-1.2-1.1-2.3-2.3-3.5-3.4c-16-15.3-32-30.6-47.9-45.9c-3.8-3.6-4.3-7.8-1.4-11c2.8-3.1,7.1-2.8,11,0.8
			c6.1,5.8,12.2,11.7,18.3,17.6c11,10.6,22,21.2,33.2,31.6c1.6,1.5,4.5,2,6.7,2c1.1,0,3-2.5,3-3.7c-0.1-2-1.1-4.3-2.4-5.8
			c-13.5-15.8-27.2-31.4-40.7-47.1c-3.1-3.6-3-7.6-0.1-10.3c3-2.7,6.9-2.2,10.2,1.3c7.5,8.1,14.9,16.1,22.4,24.2
			c14.5,15.7,29,31.4,43.6,47c1.4,1.5,4.1,2.7,6,2.5c3.6-0.4,4.7-3.9,3-8.1c-5.1-12-10.4-24-15.5-36c-2.2-5.1-0.7-9.5,3.6-11.2
			c4.1-1.6,8,0.3,10.2,5.3c6.4,14.4,12.7,28.7,19,43.2c7.6,17.7,15.5,35.3,26.4,51.3c4,5.9,8.2,11.6,12.7,17.2
			c0.8,1.1,3.1,1,4.8,1.4v-1.2C300.3,350.3,301.1,352,301.2,354z"/>
		<path class="st5" d="M301.5,338.9c-1.9,0.5-2.8,2.3-3,4.3c-0.1,0.9,0,1.8,0.2,2.7c0.2,0.9,0.5,1.7,0.8,2.5"/>
		<path class="st5" d="M241,400.5c-1.4,1.3-2.8,2.5-4,3.9c-1.1,1.2-2.2,2.5-3.2,3.8c-1.8,2.3-3.3,5.4-1.9,8"/>
		<path class="st4" d="M399.3,273.2c-5.2,6.4-12.8,10.9-21,12.1c-3.1,0.5-6.8,0.8-8.3,3.6c-0.6,1.2-0.7,2.7-0.8,4
			c-0.3,5.2-1.5,10.2-3,15.2c-0.6-1.3-1.1-2.8-2.1-3.1c-12.7-4.9-25.4-10.1-38.4-14.1c-20.7-6.2-41.7-11.5-62.6-17.3
			c-1.6-0.4-3.7-1.1-4.4-2.3c-1.9-3.3-3.2-6.9-4.7-10.2c7-4.2,7.2-7.1,1.6-12.2c-0.5-0.4-1-1.2-1-1.8c-0.1-4.1-0.1-8.2-0.1-12.6
			c2.2,0.5,3.6,0.6,4.8,1.1c3.1,1.1,5.9,0.6,7.1-2.5c1.3-3.5-0.1-6.1-3.7-7.3c-3.3-1.1-6.6-2.3-10-3.3c-1.2-3.8-2.9-7.9-4.7-11.7
			c0.1,0,0.1-0.1,0.2-0.1c-1-2.1-1.7-3.5-2.5-4.2l0,0c-0.5-0.9-1-1.7-1.5-2.5c1.6-0.1,3,0,4.4,0.4c5.6,1.8,10.7,4.9,16.1,7.2
			c6.2,2.7,9,2.3,10.6-0.9c1.7-3.5,0-5.9-6.1-9c-16.1-8-32.1-15.9-48.2-24c-1.4-0.7-3.2-2.5-3.3-3.8c-0.1-3.8,0.5-7.6,0.9-12.1
			c1.9,0.7,3,1.1,4.1,1.6c28.7,13.2,57.4,26.3,86.1,39.5c3.1,1.4,6,2.3,8.4-0.9c2.4-3.3,0.4-5.8-2-8.1c-9.3-9-18.6-18-27.8-27
			c-3.7-3.7-4.1-8.3-1-11.4c2.9-3,7.8-2.7,11.5,0.8c15.7,14.9,31.4,29.9,47.1,44.9c14.8,14.1,31.3,25.9,49.1,35.8
			c1.2,0.7,3.7,0.7,4.7-0.1c0.6,2.1,1.3,4.2,1.3,6.3c-0.1,4.7-3.6,9.6-1.1,13.6c0.7,1.1,1.8,1.9,2.5,2.9
			C404.6,263.4,402.5,269.3,399.3,273.2z"/>
	</g>
</g>
</svg>
