<?xml version="1.0" encoding="utf-8"?>
<!-- Generator: Adobe Illustrator 23.0.3, SVG Export Plug-In . SVG Version: 6.00 Build 0)  -->
<svg version="1.1" id="Mode_Isolation" xmlns="http://www.w3.org/2000/svg" xmlns:xlink="http://www.w3.org/1999/xlink" x="0px"
	 y="0px" viewBox="0 0 450 450" style="enable-background:new 0 0 450 450;" xml:space="preserve">
<style type="text/css">
	.st0{opacity:0.11;}
	.st1{fill:#009444;}
	.st2{fill:#FFA902;}
	.st3{fill:#FFFFFF;}
	.st4{fill:none;}
</style>
<g>
	<g id="XMLID_9_" class="st0">
		<path id="XMLID_6_" d="M61.7,262.3c13.4-17.8,26.6-35.5,39.9-53.3c1.2,0.6,2.3,1,3.3,1.6c40.7,20.6,81.4,41,122.1,61.6
			c2.3,1.1,3.9,1.2,6.1,0c40.6-20.6,81.3-41.1,122.1-61.6c1-0.5,2-1,3.3-1.6c13.3,17.7,26.5,35.4,40,53.4c-1.1,0.7-2.2,1.4-3.1,2
			c-54.1,31-108.4,62.3-162.5,93.5c-2.1,1.2-3.5,1.3-5.7,0c-54-31.2-108.2-62.4-162.4-93.6C63.8,263.7,62.9,263,61.7,262.3z"/>
		<path id="XMLID_5_" d="M113.8,184c15.6-20.8,30.9-41.3,46.5-62.1c3.7,1.7,7.2,3.3,10.9,5c18.6,8.6,37.3,17.1,55.9,25.8
			c2.3,1.1,3.9,1.1,6.2,0c21-9.9,42.2-19.6,63.3-29.4c1.1-0.5,2.3-1,3.4-1.5c15.5,20.7,30.9,41.2,46.5,62.1c-1,0.6-1.8,1.1-2.6,1.6
			c-37,18.7-74.1,37.4-111.2,56c-1.4,0.7-3.5,0.8-4.8,0.2c-37.3-18.7-74.5-37.5-111.8-56.3C115.3,185,114.6,184.5,113.8,184z"/>
		<path id="XMLID_4_" d="M230.1,19.7c19.6,26.1,38.9,51.9,58.2,77.8c-1,0.6-1.9,1-2.6,1.4c-17.7,8.2-35.4,16.4-53.1,24.6
			c-1.2,0.5-2.8,0.9-3.9,0.4c-18.9-8.6-37.7-17.3-56.9-26.2C191.2,71.7,210.5,46,230.1,19.7z"/>
	</g>
	<g>
		<g>
			<path d="M426.4,190.3c-0.3-0.2-0.6-0.5-0.9-0.6c-1.2-0.7-2.3-1.4-3.5-2.1c-19.6-11.4-37.6-25-54-40.7
				c-17.4-16.6-35-33.2-52.5-49.8c-6.8-6.5-16.7-6.6-22.6-0.6c-6.3,6.5-6.1,16.3,0.5,23c2.3,2.3,4.7,4.4,7,6.8
				c6.5,6.8,12.8,13.5,18.8,20.1c0,0-0.6-0.1-1.2-0.3c-31.3-14.3-62.5-28.7-93.8-42.9c-2.8-1.3-3-2.9-2.2-5.3
				c1.7-5.4,3.2-10.8,5.2-16c3-8.1,2.5-9.1-6.3-9.1c-25.5,0-51,0.1-76.6,0.1c-27.7,0-55.5-0.1-83.2-0.1c-6.2,0-8,1.8-5.9,6.7
				c6.9,15.8,9.3,32.4,10.2,49.5c0.1,3.6-0.9,4.8-4.2,6.3c-20.3,9.2-33.1,24.8-37.8,46.7c-4.3,19.3-0.9,38.2,3.1,57
				c6.6,30.3,17,59.5,28.5,88.4c0.7,1.6,1.2,3.3,2.1,5.8c-8.7,0-16.3,0.1-24-0.1c-4.7-0.1-6.5,1.8-6.3,6.5
				c0.2,9.8,0.1,19.5,0.1,29.3c0,6.9,0.5,7.4,7.3,7.4c25.4,0,50.6,0,76,0h6.1c0.2,2,0.5,3.1,0.5,4.3c0,13.5-0.1,27.1-0.1,40.6
				c0,2.9-0.3,6.6,3.9,6.5c3.8-0.1,3.6-3.5,3.6-6.2c0-13.4,0.1-26.8-0.1-40c-0.1-3.7,1-5.2,5-5.1c8.5,0.2,17.1,0.2,25.7,0
				c3.9-0.1,5,1.3,5,5.1c-0.2,13.5-0.1,27.1-0.1,40.6c0,2.7,0,5.7,3.6,5.7c3.5,0,3.6-2.9,3.6-5.7c0-12.3,0-24.7,0-37v-8.3
				c2.1-0.1,3.5-0.3,4.7-0.3c12.3,0,24.7,0.7,37-0.2c12.7-0.9,23.5,1,31.4,12.1c0.3,0.5,0.7,0.9,1.2,1.3c1.5,1.3,3.5,1.7,4.8-0.3
				c0.6-0.8,0.3-2.7-0.2-4.2c-0.2-0.7-0.6-1.3-1-1.7c-4.7-5.2-9.6-10.3-15.1-14.7c-27.6-22.5-55.4-44.8-83.2-66.9
				c-17.7-14.1-35.6-27.7-53.5-41.5c-4.3-3.3-5.2-6.8-2.7-10c2.4-3.1,6.2-3.1,10.4,0.1c0.6,0.5,1,0.9,1.6,1.3
				c14.2,11.3,28.5,22.6,42.7,33.8c4.6,3.6,8.3,3.3,11-0.8c2.7-4.2,0.5-6.9-2.7-9.6c-19.6-16.4-39-32.8-58.6-49.3
				c-5.4-4.6-6.5-9-3-13.2c3.3-3.9,8.1-3.6,13.5,0.9c8.5,7.2,17.1,14.3,25.5,21.5c11.2,9.3,22.4,18.7,33.5,28
				c3.2,2.7,6.6,3.7,9.5,0.3c2.9-3.3,1.5-6.7-1.5-9.5c-1.4-1.3-2.7-2.7-4-3.9c-18.5-17.7-36.9-35.3-55.3-53c-4.4-4.2-5-9-1.6-12.7
				c3.2-3.6,8.2-3.2,12.7,0.9c7,6.7,14.1,13.5,21.1,20.3c12.7,12.2,25.4,24.5,38.3,36.5c1.8,1.7,5.2,2.3,7.7,2.3
				c1.3,0,3.5-2.9,3.5-4.3c-0.1-2.3-1.3-5-2.8-6.7c-15.6-18.2-31.4-36.2-47-54.3c-3.6-4.2-3.5-8.8-0.1-11.9c3.5-3.1,8-2.5,11.8,1.5
				c8.7,9.3,17.2,18.6,25.8,27.9c16.7,18.1,33.5,36.2,50.3,54.2c1.6,1.7,4.7,3.1,6.9,2.9c4.2-0.5,5.4-4.5,3.5-9.3
				c-5.9-13.8-12-27.7-17.9-41.5c-2.5-5.9-0.8-11,4.2-12.9c4.7-1.8,9.2,0.3,11.8,6.1c7.4,16.6,14.7,33.1,21.9,49.8
				c8.8,20.4,17.9,40.7,30.5,59.2c4.6,6.8,9.5,13.4,14.7,19.8c0.9,1.3,3.6,1.2,5.5,1.6v-1.4c0-1.5,0-3-0.1-4.5c-0.1-0.6-0.6-1-1-1.5
				c-0.1-0.1-0.3-0.3-0.5-0.5c-12.7-16.3-23.4-33.8-32.2-52.4c-2.9-6.2-5.5-12.6-8.3-19c1.3-0.2,1.5-0.5,1.8-0.3
				c25.3,6.9,50.5,13.5,75.7,21c12.5,3.7,24.3,9.1,36.6,13.5c1.3,0.5,3-0.3,4.6-0.9c0.3-0.1,0.7-0.2,1-0.3c-0.2-0.3-0.5-0.8-0.6-1.3
				c-0.7-1.5-1.3-3.2-2.4-3.6c-14.7-5.7-29.3-11.7-44.3-16.3c-23.9-7.2-48.1-13.3-72.2-20c-1.8-0.5-4.3-1.3-5.1-2.7
				c-2.2-3.8-3.7-8-5.4-11.8c8.1-4.8,8.3-8.2,1.8-14.1c-0.6-0.5-1.2-1.4-1.2-2.1c-0.1-4.7-0.1-9.5-0.1-14.5c2.5,0.6,4.2,0.7,5.5,1.3
				c3.6,1.3,6.8,0.7,8.2-2.9c1.5-4-0.1-7-4.3-8.4c-3.8-1.3-7.6-2.7-11.5-3.8c-0.9-0.2-1.8-0.5-2.9-0.7c-0.9-0.2-2.9,2-3.5,3.3l0,0
				c-0.5,1.3,0.6,2.9,0.7,4.5c0.5,6.7,0.9,13.5,1.3,20.2c-0.6,0.1-1.3,0.1-1.8,0.2c-2.2-5-4.4-9.9-6.7-14.9
				c-4-8.7-12.8-12.2-20.8-8.5c-8.2,3.7-11.4,12.3-7.7,21.1c3.8,9.1,7.8,18.2,11.8,27.3c1,2.4,2,4.8,3,7.3c-2.5-0.9-4-2.5-5.5-4.2
				c-21.9-23.8-44-47.5-66-71.3c-6.5-6.9-15.1-7.8-21.5-2.3c-6.5,5.7-6.8,14.5-0.6,21.9c8.3,9.8,16.8,19.4,25.2,29.1
				c0.7,0.7,1,1.6,1.5,2.4c-13-11.4-25.4-23.2-37.8-35c-7-6.7-16.4-6.9-22.4-0.5c-5.8,6.2-5.2,15.3,1.5,22
				c6,5.9,12.1,11.5,18.2,17.4c0.8,0.8,1.5,1.8,2.2,2.9c-7.4-4.6-13.7-10.2-20.3-15.5c-5.3-4.3-12-4.8-17.2-1.7
				c-6,3.6-8.2,9-7.4,15.7c0.1,1.2,0.2,2.2,0.6,4.7c-2.2-1.7-3.6-2.7-4.7-3.7c-5.8-6.1-11.7-12.1-17.2-18.3c-5-5.5-5.4-5.8-10.8-0.7
				c-6.2,6-12.6,11.9-18.9,17.9c-0.5-0.1-1-0.2-1.5-0.3c-0.5-7.4-1.4-14.9-1.2-22.3c0.8-24.7,11.1-43.8,33.9-54.9
				c3.6-1.7,7.8-2.7,11.8-2.7c44.8-0.1,89.4,0,134.1-0.1c6.6,0,12.2,2,17.1,5.8c5.8,4.5,11.2,9.5,15.2,12.9c0.2,0,0.5,0,0.7,0
				c2.9-0.1,5.4-0.5,7.7-0.5c1.8-0.1,3.5,0,5.1,0.5c6.5,2.1,12.3,5.7,18.6,8.3c7.2,3.1,10.4,2.7,12.2-1c2-4,0-6.8-7-10.4
				c-18.6-9.2-37-18.3-55.6-27.7c-1.6-0.8-3.7-2.9-3.8-4.4c-0.1-4.4,0.6-8.8,1-14c2.2,0.8,3.5,1.3,4.7,1.8
				c33.1,15.2,66.2,30.3,99.3,45.6c3.6,1.6,6.9,2.7,9.7-1c2.8-3.8,0.5-6.7-2.3-9.3c-10.7-10.4-21.5-20.8-32.1-31.2
				c-4.3-4.3-4.7-9.6-1.2-13.2c3.3-3.5,9-3.1,13.3,0.9c18.1,17.2,36.2,34.5,54.3,51.8c17.1,16.3,36.1,29.9,56.6,41.3
				c1.4,0.8,4.3,0.8,5.4-0.1c0.1,0,0.1-0.1,0.2-0.2C429.4,193.3,428.2,191.6,426.4,190.3z M186.3,341.6
				c10.2,8.1,20.2,16.3,30.3,24.5c0.5,0.5,0.8,1,2,2.7h-6.7c-57.1,0-114.3-0.1-171.4,0.1c-5.1,0-7-1-6.6-6.5c0.5-6,0.1-12,0-18
				c-0.1-3.2,1.2-4.5,4.5-4.5c47.5,0.1,95.2,0,142.7,0.1C182.8,340,184.9,340.5,186.3,341.6z M136.1,302.2
				c12.3,9.9,25,19.6,37.6,29.3c-0.1,0.3-0.2,0.7-0.3,1.2c-1.3,0.1-2.7,0.2-3.9,0.2c-33,0-66.1,0-99.1,0.1c-3.8,0-5.9-0.9-7.2-4.7
				c-7.8-22.6-15.8-45.1-24-67.6c-1.5-4.3-1.3-7.5,2.2-11c4.2-4.3,7.5-9.2,11.3-14c1-1.3,2.3-2.4,2.3-1.8
				c6.9,6.1,14.4,11.7,20.7,18.3C93.6,271.7,115.8,285.9,136.1,302.2z M34.9,226.6c6.6-6.3,13.3-12.7,18.8-17.9
				c6.8,6,13,11.5,19.2,17.2c3.9,3.6,7.6,7.2,13.5,4.2c0.7-0.3,2.3,0.2,3.1,0.8c3.7,2.9,7.4,6,11.1,9c-8.7-3.7-13.4,2.3-19.2,7.7
				c-6.2-6.7-12.7-13.3-18.7-20.2c-5.5-6.1-6.5-6.5-12-0.5c-4.4,4.8-8.5,10-13.5,15.8c-1.3-5.1-2.4-9.1-3.2-13.2
				C33.8,228.8,34.2,227.3,34.9,226.6z M233.5,140.8c5.4,2.7,10.7,5.4,16,8.1c-0.2,0.5-0.5,0.8-0.6,1.3c-5.4-2.5-10.8-5.1-16.3-7.6
				C232.9,141.9,233.2,141.4,233.5,140.8z M209.2,132.2H73.9c-3-17.4-5.9-34.5-8.9-52h153.2C215.4,97.5,212.4,114.7,209.2,132.2z"/>
			<path d="M253.7,165.4c-0.1,0-0.2,0.1-0.2,0.1c-5.9,2.1-6.6,1.6-9.7-3.7c3.9-2,5.7-2.7,7-1.3l0,0
				C251.7,161.4,252.5,163,253.7,165.4z"/>
			<path d="M251.1,176.5c-0.9-2.4-1.7-4.4-3.1-7.8c2.8,0.5,5.8,0.2,6.3,1.3C255.7,172.5,255.1,175.2,251.1,176.5z"/>
			<path class="st1" d="M218.2,80.2c-3,17.3-6,34.4-9,52c-44.8,0-90.5,0-135.3,0c-3-17.4-5.9-34.5-8.9-52
				C115.7,80.2,167.5,80.2,218.2,80.2z"/>
			<path class="st1" d="M173.4,332.7c-1.3,0.1-2.7,0.2-3.9,0.2c-33,0-66.1,0-99.1,0.1c-3.8,0-5.9-0.9-7.2-4.7
				c-7.8-22.6-15.8-45.1-24-67.6c-1.5-4.3-1.3-7.5,2.2-11c4.2-4.3,7.6-9.2,11.3-14c1-1.3,2.3-2.4,2.3-1.8
				c6.9,6.1,14.4,11.7,20.7,18.3c18,19.4,40,33.7,60.5,50.1c12.3,9.9,25,19.6,37.6,29.3C173.6,332,173.5,332.4,173.4,332.7z"/>
			<path class="st2" d="M218.6,368.7c-3,0-4.8,0-6.7,0c-57.1,0-114.3-0.1-171.4,0.1c-5.1,0-7-1-6.7-6.5c0.5-6,0.2-12,0-18
				c-0.1-3.2,1.2-4.5,4.5-4.5c47.5,0.1,95.1,0,142.7,0.1c1.7,0,3.8,0.6,5.2,1.6c10.2,8.1,20.3,16.3,30.3,24.5
				C217.1,366.4,217.4,367.1,218.6,368.7z"/>
			<path class="st2" d="M100.6,239.9c-8.7-3.7-13.4,2.3-19.2,7.7c-6.2-6.7-12.6-13.3-18.7-20.2c-5.5-6.1-6.5-6.5-12-0.5
				c-4.5,4.8-8.5,10-13.5,15.8c-1.3-5.1-2.4-9.1-3.2-13.2c-0.2-0.9,0.2-2.5,0.9-3.2c6.6-6.5,13.3-12.7,18.7-17.9
				c6.7,6,13,11.5,19.2,17.2c3.9,3.6,7.6,7.2,13.5,4.2c0.7-0.3,2.3,0.2,3.1,0.8C93.3,233.8,96.9,236.8,100.6,239.9z"/>
			<path class="st3" d="M233.5,140.8c5.3,2.7,10.7,5.3,16,8.1c-0.2,0.5-0.3,0.8-0.6,1.3c-5.4-2.5-10.8-5.1-16.3-7.6
				C232.9,141.9,233.2,141.4,233.5,140.8z"/>
			<path class="st1" d="M254.7,206.4c-0.6,0.1-1.3,0.1-1.8,0.2c-2.2-5-4.4-9.9-6.7-14.9c-4-8.7-12.8-12.2-20.8-8.5
				c-8.2,3.7-11.4,12.3-7.7,21.1c3.8,9.1,7.8,18.2,11.8,27.3c1,2.4,2,4.8,3,7.3c-2.5-0.9-4-2.5-5.5-4.2c-21.9-23.8-44-47.5-66-71.3
				c-6.5-6.9-15.1-7.8-21.5-2.3c-6.5,5.7-6.8,14.5-0.6,21.9c8.3,9.8,16.8,19.4,25.2,29.1c0.7,0.7,1,1.6,1.5,2.4
				c-13-11.4-25.4-23.2-37.8-35c-7-6.7-16.4-6.9-22.4-0.5c-5.8,6.2-5.2,15.3,1.5,22c6,5.9,12.1,11.5,18.2,17.4
				c0.8,0.8,1.5,1.8,2.2,2.9c-7.4-4.6-13.7-10.2-20.3-15.5c-5.3-4.3-12-4.8-17.2-1.7c-6,3.6-8.2,9-7.4,15.7c0.1,1.2,0.2,2.2,0.6,4.7
				c-2.2-1.7-3.6-2.7-4.7-3.7c-5.8-6.1-11.7-12.1-17.2-18.3c-5-5.5-5.4-5.8-10.8-0.7c-6.2,6-12.6,11.9-18.9,17.9
				c-0.5-0.1-1-0.2-1.5-0.3c-0.5-7.4-1.4-14.9-1.2-22.3c0.8-24.7,11.1-43.8,33.9-54.9c3.6-1.7,7.8-2.7,11.8-2.7
				c44.8-0.1,89.4,0,134.1-0.1c6.6,0,12.2,2,17.1,5.8c5.8,4.5,11.2,9.5,15.2,12.9c0.2,0,0.5,0,0.7,0c4,5.9,8.9,15.6,11.3,23.7
				c-0.5,1.3,0.6,2.9,0.7,4.5C253.9,192.9,254.2,199.7,254.7,206.4z"/>
			<path d="M260.7,186.9l-6.7,0.9c-0.2-1.8-0.7-3.9-1.4-6.1l0,0c-2.4-8.1-7.2-17.7-11.3-23.5c0,0,0,0,0-0.1l-0.5-0.8
				c-1.5-2.3-2.5-3.6-3.1-3.9c0.1,0.1,0.7,0.2,1.4,0.1l-1.5-6.6c3.8-0.9,6.8,3.5,8.9,6.7l0.5,0.7c0.7,1,1.5,2.2,2.2,3.5
				c0.6,0.9,1.2,2,1.7,2.9l0,0c0.8,1.6,1.7,3.2,2.5,5c2.2,4.4,4,9.1,5.4,13.5C259.8,181.8,260.4,184.5,260.7,186.9z"/>
		</g>
		<path class="st4" d="M315,313.4c-2.2,0.6-3.2,2.7-3.5,5c-0.1,1,0,2.1,0.2,3.1c0.2,1,0.6,2,0.9,2.9"/>
		<path class="st4" d="M245.2,384.5c-1.6,1.5-3.2,2.9-4.6,4.5c-1.3,1.4-2.5,2.9-3.7,4.4c-2.1,2.7-3.8,6.2-2.2,9.2"/>
	</g>
</g>
</svg>
